<svg xmlns="http://www.w3.org/2000/svg" height="400" width="400" fill-rule="evenodd" xmlns:v="https://vecta.io/nano"><path d="M78.22.416C38.8 4.586 8.122 33.35 1.074 72.745.268 77.25-.522 119.196.15 121.84c.464 1.826-.638 1.773 42.278 2.022l40.49.234V0l-.863.05c-.475.028-2.2.193-3.835.365m63.816 61.327v61.743l9.5.252c5.225.14 21.56.253 36.3.253l26.8.001 27.964-12.795-.237-54.35-.743-55.598L241.114 0h-99.08zm-19.49 195.84c0 .74.08 1.04.175.67a3.14 3.14 0 0 0 0-1.343c-.096-.37-.175-.067-.175.672m1.152 13.435c0 .74.08 1.042.175.672a3.14 3.14 0 0 0 0-1.344c-.096-.37-.175-.067-.175.672m.383 4.607c0 .74.08 1.04.176.672s.096-.975 0-1.344-.176-.067-.176.672m.384 4.606c0 .74.08 1.042.176.672a3.17 3.17 0 0 0 0-1.343c-.097-.37-.176-.068-.176.67m.768 8.83c0 .738.08 1.04.176.67a3.17 3.17 0 0 0 0-1.343c-.097-.37-.176-.067-.176.672m46.723.67l-1.323 1.44 1.44-1.323c1.34-1.23 1.616-1.556 1.323-1.556-.064 0-.712.648-1.44 1.44M126 297.89c0 .74.08 1.04.175.67a3.14 3.14 0 0 0 0-1.343c-.096-.37-.175-.067-.175.672m37.894.288l-1.323 1.44 1.44-1.323c1.34-1.23 1.616-1.556 1.322-1.556-.064 0-.712.648-1.44 1.44m-7.873 8.253l-1.128 1.248 1.248-1.128c1.163-1.05 1.424-1.368 1.128-1.368-.067 0-.628.562-1.248 1.248m-29.253.288c0 .74.08 1.04.175.672a3.14 3.14 0 0 0 0-1.344c-.096-.37-.175-.067-.175.672m.383 4.222c0 .74.08 1.042.176.672a3.14 3.14 0 0 0 0-1.343c-.097-.37-.176-.067-.176.67m1.152 12.668c0 .74.08 1.042.176.672a3.17 3.17 0 0 0 0-1.343c-.097-.37-.176-.068-.176.67" fill="#b3d782"/><path d="M242.258 2.207c.184.792.338 25.57.343 55.063v53.622l6.622-2.677c6.095-2.465 20.283-9.227 23.225-11.07l1.247-.782V.768h-31.78zM0 139.8v17.4h82.534v-33.207H42.278c-40.144 0-40.258-.002-41.267-.795L0 122.4zm334.423-15.52c-1.915 3.735-7.294 23.89-8.328 31.207l-.247 1.744 36.097.11 36.884-.138c1.084-.344 1.26-32.948.18-33.363-1.73-.663-64.238-.24-64.586.44m-192.388 16.2v16.488l1.44-.593c18.822-7.745 34.438-14.774 57.095-25.7l12.662-6.106-8.44-.24c-4.64-.132-20.66-.26-35.598-.288l-27.16-.05zm100.19 232.3v26.847h31.478v-24.76c0-24.704-.001-24.76-.786-24.76-.942 0-3.052-1.036-3.052-1.498 0-.18-3.153-.416-7.006-.525-3.94-.11-9.442-.547-12.572-.997l-8.062-1.154z" fill="#fff"/><path d="M83 91.715l.37 91.976c.143.143 13.287-5.74 29.21-13.074l28.947-13.335.253-16.357.254-78.64L142.035 0H82.893zm.16 152.33c-.144 6.917-.143 44.836.002 84.265l.264 71.69h58.097l.264-31.798.004-39.31-.26-7.51-5.09 4.368c-7.008 6.012-8.14 6.102-8.134.647.001-1.85-.62-10.188-1.38-18.528l-2.952-33.582-1.64-18.473c-.04-.03-8.45-5.284-18.69-11.677l-19.42-12.144-.802-.522zm-13.374 15.74a87.93 87.93 0 0 0 6.142-.001c1.626-.072.193-.13-3.185-.13s-4.71.06-2.957.13m-51.67.383a112.87 112.87 0 0 0 6.91.001c1.963-.07.46-.127-3.34-.128s-5.407.057-3.57.127m381.497 23.704v23.99l-44.338.205 44.722.185V284.07l-.192-24.184c-.106 0-.192 10.795-.192 23.99M39.23 308.156c2.68.066 7.17.066 9.98.001s.617-.12-4.872-.12-7.79.053-5.11.12m122.48.001c3.748.063 9.88.063 13.628 0s.68-.114-6.814-.114-10.56.05-6.814.114" fill="#ffcf69"/><path d="M14.3 260.173l-14.3.105v47.59h19.866l41.458.255 21.593.254v-48.494l-27.16.09-41.46.197m284.49 1.15l-2.168 7.198c-2.816 9.216-9.866 37.165-9.866 39.116 0 .128 25.394.23 56.43.23h56.43v-47.984H299.2zM165.392 296.86l-9.307 9.76-1.15 1.247h25.3c21.5 0 25.217-.08 24.74-.528-4.215-3.962-23.1-15.547-30.006-18.406l-1.42-.588z" fill="#fcdf48"/><path d="M309.98 80.592l-41.53 18.954c-4.955 2.745-12.26 6.13-20.42 9.457-7.47 3.047-31.58 14.05-39.818 18.174-17.894 8.954-41.866 19.937-59.845 27.418-3.8 1.58-19.78 8.793-35.51 16.026l-31.862 14.61c-1.795.804-9.568 4.47-17.274 8.145l-17.038 7.9c-5.97 2.397-4.633 5.17 4.754 9.86 7.786 3.89 27.694 16.337 31.286 19.56.422.38 9.405 6.076 19.96 12.658l19.674 12.595c.43.56.48.562.48.02 0-1.517 15.036-15.075 33.268-29.997l23.8-19.918 37.557-31.78 76.008-64.483c30.635-26.115 29.082-24.84 30.804-25.317 1.993-.554 1.973-.566 1.632.947-.496 2.2-1.08 2.858-14.774 16.7L188.868 226.68c-8.182 8.408-14.37 14.99-29.467 31.353l-11.573 12.542 3.34 2.275a146.24 146.24 0 0 0 7.18 4.512c5.114 2.98 9.942 6.23 12.867 8.664 1.476 1.228 4.696 3.142 8.39 4.99 6.82 3.407 11.42 6.23 20.2 12.4 3.378 2.373 7.956 5.32 10.173 6.552 7.573 4.205 16.3 9.574 24.56 15.09 4.534 3.032 10.062 6.484 12.284 7.67 7.822 4.175 16.723 9.886 21.176 13.587.98.814 2.132 1.48 2.56 1.48s1.32.453 1.98 1.007 1.255.943 1.325.864c1.82-2.036 4.53-10.71 7.66-24.52.933-4.117 2.42-9.705 3.305-12.417s2.694-9.622 4.022-15.355c2.84-12.267 5.69-23.1 8.08-30.683.945-3.003 3.033-10.988 4.64-17.745 7.1-29.858 13.372-54.137 21.272-82.34 1.45-5.173 3.17-12.083 3.824-15.355 1.626-8.14 3.892-16.77 6.15-23.417 1.493-4.394 15.75-62.183 15.745-63.82-.001-.603-1.928.225-38.58 16.58" fill="#458ac9"/><path d="M323.894 84.617c-.794.284-2.348 1.28-3.455 2.218l-26.773 22.8-76.2 64.638-37.557 31.78-23.8 19.918c-14.214 11.633-21.027 17.552-28.155 24.457l-5.28 5.114 1.458 17.238 2.98 34.128 1.526 19.855c.001 3.238.187 3.55 1.9 3.175 1.048-.23 1.142-.385 1.142-1.88 0-4.59 2.378-14.125 7.236-29.02 1.687-5.172 3.508-11.145 4.047-13.272.943-3.72 1.526-5.53 3.965-12.298l1.122-3.114 11.466-12.433 29.362-31.244L311.136 102.11c13.695-13.832 14.278-14.49 14.774-16.7.345-1.53.193-1.592-2.016-.804M171.21 286.11c0 .066.562.627 1.248 1.247l1.247 1.128-1.127-1.248c-1.05-1.163-1.368-1.424-1.368-1.127m-3.287 7.653L166.795 295l1.247-1.128c.686-.62 1.248-1.18 1.248-1.247 0-.297-.317-.036-1.368 1.127" fill="#1f69b3"/><path d="M146.858 273.677c-2.12 5.75-2.94 8.286-3.905 12.09-.538 2.126-2.442 8.357-4.23 13.848-4.772 14.66-7.34 25.145-6.986 28.53l.125 1.19 4.798-4.148c2.64-2.282 5.948-5.528 7.353-7.215s3.907-4.26 5.56-5.72c3.71-3.273 8.732-8.3 17.184-17.167l6.5-6.817-1.115-1.17c-1.953-2.05-6.515-5.274-12.54-8.86-3.218-1.914-7.158-4.377-8.756-5.472l-2.906-1.992z" fill="#0b519e"/><path d="M284.786 312.86c-.86 2.64-2.33 8.167-3.262 12.284-3.312 14.616-6.52 24.568-7.92 24.568-.18 0-.212.2-.068.423s.26 11.563.26 25.18v24.755l23.658-.175c19.02-.14 24.413-.294 27.513-.782 43.454-6.837 73.076-40.253 74.89-84.478l.26-6.376-113.77-.197z" fill="#a8c7e8"/><path d="M79.175.265a3.17 3.17 0 0 0 1.343 0c.37-.097.067-.176-.672-.176s-1.04.08-.67.176m162.27.503l.54 1.15c.136.317.176.188.088-.288l-.16-.863H273.7l-.198 95.86 1.536-.665 37.554-16.678 36.16-15.87c.105.105-10.203 43.742-13.947 59.042l-.33 1.343 31.7-.106 32.564.103.864.2v32.984l-.926.233c-.51.127-17.136.174-36.948.103l-36.022-.13-.678 2.303c-5.923 20.125-15.843 58.14-22.715 87.044l-3.17 13.34H400v-89.267l-.405-92.994c-4.4-40.5-36.005-72.402-76.562-77.257-6.26-.75-81.983-.377-81.587.4m.965 38.963l.103 18.3V21.18c-.057-10.065-.103-1.717-.103 18.55m-217.277-14.3l-2.677 2.783 2.783-2.677c1.53-1.472 2.783-2.725 2.783-2.783 0-.282-.403.092-2.89 2.677M.09 79.463c0 .74.08 1.04.176.67a3.17 3.17 0 0 0 0-1.343c-.097-.37-.176-.067-.176.672m12.074 44.433a477.58 477.58 0 0 0 13.436 0c3.76-.063.793-.115-6.597-.115s-10.467.052-6.84.115m133.057-.001c1.858.07 4.795.07 6.526-.001s.212-.13-3.377-.128-5.006.058-3.15.13M82.6 140.5l-.067 16.7h-41.17l-41.17-.001-.195 103.172 14.11-.244 41.4-.338 27.293-.095.25-9.18.25-14.245v-5.065l-6.343-4.373c-11.03-7.607-22.074-14.213-27.928-16.707-6.887-2.935-7.86-6.955-2.197-9.09 1.372-.517 9.98-4.503 19.126-8.857l16.89-7.917c.244 0 .18-55.618-.067-58.925-.064-.845-.145 5.98-.182 15.164m115.914-16.33c.262.263 15.334.305 15.595.044.122-.122-3.377-.222-7.776-.222s-7.917.08-7.82.178m-56.695 22.087c0 6.017.053 8.48.118 5.47s.065-7.93 0-10.94-.118-.547-.118 5.47M.002 314.236c.012 43.648 33.595 80.578 77.622 85.36 2.05.223 4.166.405 4.703.405h.974v-91.747H67.626c-8.622 0-27.365-.114-41.65-.255L0 307.743zm168.362-6.08l-13.786.106-1.76 1.42c-2.942 2.374-6.914 6.304-8.942 8.847l-1.92 2.408-.328 79.06 66.135-.092 50.3-.196-15.835-.104v-53.686l1.248.177 6.814.976c3.06.44 8.654.89 12.43 1 5.997.175 6.952.3 7.572.91.795.796 2.54 1.348 2.953.934.373-.374-1.334-1.698-2.56-1.987-.554-.13-2.303-1.228-3.886-2.438-5.455-4.17-13.15-8.955-22.922-14.256-1.31-.712-6.148-3.82-10.75-6.905-8.12-5.447-17.2-11.004-23.95-14.67l-3.302-1.792-37.508.288m135.6 0h34.55c9.432-.057 1.602-.104-17.4-.104l-17.15.104m95.762 9.885c.003 1.056.077 1.442.166.86s.085-1.448-.006-1.92-.163.006-.16 1.06m-82.542 81.85c.583.088 1.447.085 1.92-.006s-.005-.163-1.06-.16-1.442.077-.858.166" fill="#f5f3ef"/></svg>