<svg xmlns="http://www.w3.org/2000/svg" width="250.001" height="250.001" viewBox="0 0 66.146 66.146" xmlns:v="https://vecta.io/nano"><path d="M23.48 42.73v23.418h28.096c1.453 0 2.852-.215 4.173-.608z" fill="#e4e1da" paint-order="markers stroke fill"/><path d="M0 26.13v25.45A14.53 14.53 0 0 0 9.657 65.3V32.957z" fill="#ffccd5" paint-order="markers stroke fill"/><path d="M9.657.845A14.55 14.55 0 0 0 .84 9.67l8.817 6.232z" fill="#e4e1da" paint-order="markers stroke fill"/><path d="M23.48 0v25.674L65.62 55.46a14.62 14.62 0 0 0 .526-3.881V36.982c-7.945-.01-13.93-2.23-18.178-4.653-2.13-1.215-3.825-2.48-5.12-3.535s-2.234-1.926-2.647-2.228c-2.626-1.92-5.227-5.7-7.275-10.402S29.432 5.842 29.432.28c0-.095.004-.187.005-.28z" fill="#9ddf7b" paint-order="markers stroke fill"/><path d="M1.2 8.733C.434 10.518 0 12.5 0 14.568V27.33l54.5 38.524a14.53 14.53 0 0 0 11.365-11.42z" fill="#fcab1a" paint-order="markers stroke fill"/><path d="M.84 9.67A14.61 14.61 0 0 0 0 14.568V26.13l55.754 39.4a14.54 14.54 0 0 0 9.87-10.078z" fill="#ffd634" paint-order="markers stroke fill"/><path d="M14.567 0a14.57 14.57 0 0 0-5.989 1.281v63.585a14.57 14.57 0 0 0 5.989 1.281h9.993V0z" opacity=".125" paint-order="markers stroke fill"/><path d="M14.567 0a14.55 14.55 0 0 0-4.9.844V65.3a14.59 14.59 0 0 0 4.9.844h8.914V0z" fill="#fff" paint-order="markers stroke fill"/><path d="M29.437 0l-.005.28c0 5.56 1.446 11.18 3.494 15.88s4.65 8.482 7.275 10.402c.413.302 1.352 1.173 2.647 2.228s3 2.32 5.12 3.535c4.248 2.424 10.234 4.644 18.178 4.653v-2.03c-7.568-.01-13.17-2.103-17.173-4.386-2.005-1.144-3.606-2.337-4.844-3.346s-2.065-1.8-2.73-2.294c-2.1-1.528-4.665-5.097-6.615-9.575S31.46 5.487 31.46.28c0-.095.003-.187.005-.28z" fill="#90c36c" paint-order="markers stroke fill"/><path d="M30.45 0l-.005.28c0 10.766 5.64 22.016 10.354 25.465 2.15 1.574 9.814 10.202 25.345 10.222v-21.4C66.145 6.497 59.648 0 51.578 0z" fill="#f4efeb" paint-order="markers stroke fill"/><path d="M44.428 0c.178 6.885 1.903 11.655 6.14 15.63 2.03 1.905 4.003 3.556 6.897 4.674 2.228.86 4.964 1.4 8.68 1.602v-2.332c-3.477-.2-5.93-.706-7.842-1.444-2.514-.97-4.168-2.347-6.143-4.2-3.8-3.564-5.25-7.446-5.406-13.93z" fill="#90c36c" paint-order="markers stroke fill"/><path d="M45.6 0c.167 6.685 1.754 11 5.774 14.78 3.536 3.317 6.483 5.495 14.78 5.96v-6.174C66.145 6.497 59.648 0 51.578 0z" fill="#9ddf7b" paint-order="markers stroke fill"/><path d="M14.567 0a14.8 14.8 0 0 0-2.005.14v28.3c1.308-.487 2.692-.738 4.088-.74 1.338.005 2.666.238 3.926.688V0z" fill="#3394e3" paint-order="markers stroke fill"/><path d="M49.8 41.942a1.05 1.05 0 0 0-.531.164c-1.668 1.065-3.6 1.63-5.55 1.633-1.427-.001-2.84-.3-4.152-.88a1.05 1.05 0 0 0-1.36.5c-.853 1.75-1.3 3.672-1.305 5.62v.004A12.94 12.94 0 0 0 49.807 61.9a12.94 12.94 0 0 0 12.92-12.92c-.003-1.953-.45-3.88-1.303-5.633-.244-.5-.856-.723-1.365-.498a10.29 10.29 0 0 1-4.147.888c-1.953-.008-3.866-.572-5.527-1.632-.088-.057-.197-.054-.297-.082a.52.52 0 0 0-.3-.082z" fill="#0078d9" paint-order="markers stroke fill"/><path d="M49.805 42.465a.51.51 0 0 0-.265.082 10.86 10.86 0 0 1-5.834 1.714 10.83 10.83 0 0 1-4.361-.922.52.52 0 0 0-.68.25 12.4 12.4 0 0 0-1.252 5.39c0 6.842 5.556 12.398 12.396 12.398S62.205 55.82 62.205 48.98a12.39 12.39 0 0 0-1.25-5.404c-.123-.253-.425-.363-.682-.25a10.83 10.83 0 0 1-4.361.933 10.85 10.85 0 0 1-5.806-1.714c-.1-.057-.193-.085-.298-.082z" fill="#fff" paint-order="markers stroke fill"/><path d="M49.822 42.988c-1.835 1.172-3.954 1.794-6.116 1.796-1.572-.001-3.128-.33-4.572-.966-.503 1.036-.853 2.14-1.038 3.278h23.416c-.18-1.14-.528-2.25-1.03-3.29-1.444.64-3 .973-4.573.978-2.153-.008-4.26-.63-6.088-1.796z" fill="#de1c25" paint-order="markers stroke fill"/><path d="M38 47.923l-.065 1.06c0 6.557 5.316 11.873 11.873 11.873 3.15 0 6.17-1.25 8.396-3.478s3.478-5.247 3.478-8.396c-.002-.354-.02-.707-.055-1.06z" fill="#0078d9" paint-order="markers stroke fill"/><path d="M46.4 54.802v1.16h-4.9q.08-.657.477-1.243.397-.6 1.57-1.563.943-.786 1.157-1.065.288-.386.288-.764 0-.417-.253-.64-.248-.226-.7-.226-.437 0-.695.235-.258.235-.298.78l-1.4-.124q.124-1.03.78-1.478.655-.448 1.64-.448 1.077 0 1.693.52.616.52.616 1.292 0 .44-.18.84-.174.395-.556.83-.253.3-.914.83-.66.542-.84.72-.174.178-.283.346zm2.144-2.352q-.54-.204-.8-.56-.243-.36-.243-.786 0-.728.566-1.203.57-.475 1.62-.475 1.038 0 1.6.475.576.475.576 1.203 0 .453-.263.808-.263.35-.74.537.606.218.92.635.318.417.318.963 0 .9-.645 1.465-.64.564-1.708.564-.993 0-1.653-.466-.78-.55-.78-1.5 0-.528.293-.968.293-.444.924-.684zm.288-1.256q0 .373.233.582.238.2.63.2.397 0 .636-.2.238-.213.238-.586 0-.35-.238-.56-.233-.213-.62-.213-.402 0-.64.213-.238.213-.238.564zm-.13 2.788q0 .515.293.803.298.3.74.3.432 0 .715-.275.283-.28.283-.803 0-.457-.288-.732-.288-.28-.73-.28-.5 0-.765.315-.248.315-.248.684zm6.664-4.556q1.058 0 1.653.675.7.8.7 2.65 0 1.847-.715 2.655-.6.666-1.648.666-1.063 0-1.713-.728-.65-.732-.65-2.606 0-1.838.715-2.646.6-.666 1.648-.666zm0 1.034q-.253 0-.452.146-.2.142-.308.515-.144.484-.144 1.63 0 1.145.13 1.576.13.426.323.568.2.142.452.142.253 0 .452-.142.2-.146.308-.52.144-.48.144-1.625 0-1.145-.13-1.57-.13-.43-.328-.573-.194-.146-.447-.146z" fill="#fff"/><circle cx="16.651" cy="39.486" r="11.787" fill="#0179da" paint-order="markers stroke fill"/><path d="M16.6 32.174l-.024.004c-.02.002-.042.006-.063.01l-.1.02c-.007.002-.013.002-.02.005s-.02.01-.03.013a.77.77 0 0 0-.088.041l-.053.033-.06.044-.058.053-.044.05a.73.73 0 0 0-.05.068l-.03.05a.75.75 0 0 0-.04.086c-.004.01-.01.02-.014.03l-4.5 13.05a.75.75 0 0 0 .144.837c.125.13.286.203.45.224a.77.77 0 0 0 .135.006l.038-.003a.68.68 0 0 0 .095-.016l.06-.017.07-.026a.77.77 0 0 0 .076-.038l.042-.025c.034-.022.065-.048.095-.075l.054-.05v-.002l3.967-3.82 4 3.86.106.083.042.025a.73.73 0 0 0 .076.038c.023.01.047.02.07.026l.06.017a.92.92 0 0 0 .094.016l.04.003a.75.75 0 0 0 .586-.229c.222-.23.268-.563.144-.837l-3.43-9.93-1.08-3.12c-.004-.012-.012-.023-.017-.035a.64.64 0 0 0-.037-.08l-.033-.054-.05-.067-.046-.05a.71.71 0 0 0-.054-.05.75.75 0 0 0-.065-.048l-.052-.03a.75.75 0 0 0-.087-.04c-.01-.004-.02-.01-.03-.014l-.02-.005a.78.78 0 0 0-.089-.021l-.063-.01-.127-.005z" fill="#fff" paint-order="markers stroke fill"/><path d="M65.62 55.46l-.054.192.056-.2z" opacity=".24" paint-order="markers stroke fill"/><path d="M65.566 55.652l-.057.197.057-.197zm-.066.198l-.163.507.163-.507zM13.863.018l-.23.015.23-.015zm-.68.05l-.3.034.3-.034zm-.675.08l-.326.05.326-.05zm-.666.1l-.338.067.338-.067zm-.638.135l-.36.087.36-.087zM.834 9.7l-.18.548.18-.548zm-.2.578l-.153.535.153-.535zm-.173.608l-.12.503.12-.503zm-.144.614l-.092.47.092-.47zm-.116.606l-.073.482.073-.482zm-.1.604l-.053.488L.1 12.7zm-.067.62l-.03.46.03-.46zm-.04.63l.006.608.014-.618zM55.75 65.538l.003.002.415-.13-.417.13zm4.85-2.518l-.7.513.7-.513zm-.704.53l-.352.237.352-.237zm-.428.285l-.7.428.7-.428zm-.74.445l-.4.212.4-.212zm-.428.226l-.756.365.756-.365zm-47.458 1.16l.36.087-.36-.087zm.662.156l.338.067-.338-.067zm.678.127l.326.05-.326-.05zm.7.096l.3.034-.3-.034zm.76.067l.23.015-.23-.015z" opacity=".24" paint-order="markers stroke fill"/></svg>