<svg xmlns="http://www.w3.org/2000/svg" height="400" width="400" fill-rule="evenodd" xmlns:v="https://vecta.io/nano"><path d="M0 203.945L.404 324.77c2.353 18.966 12.122 38.47 25.548 51l2.975 2.778 60.386-60.385 60.732-61.38c.878-2.518-10.796-18.187-28.013-37.6-9.334-10.526-15.1-18.798-19.784-28.387l-2.917-5.97-49.18-49.232L.485 86.372c-.4 0-.485 23.13-.485 117.573M330.303 331.32l-68.307 68.32 63.724-.26 4.745-1.045c35.113-7.735 59.668-32.482 67.672-68.2l.903-4.03.01-31.413-.215-31.552c-.123-.076-30.963 30.606-68.532 68.182M112.7 340.467L57.838 395.33l3.423 1.045c1.882.575 5.41 1.487 7.837 2.026l4.414.98 61.798.135 63.34-.454c2.237-.855 57.012-55.643 57.012-57.025 0-.733-3.972-4.92-17.754-18.72-19.684-19.708-18.85-19.064-20.5-15.83-2.588 5.062-10.28 23.983-12.408 30.518-1.953 5.998-3.403 7.87-6.096 7.87-3 0-3.842-1.11-6.4-8.445-6.71-19.312-21.872-51.823-24.167-51.823-.53 0-18.548 17.764-55.646 54.862" fill="#b4d47c"/><path d="M189.7 41.882c-19.53 1.405-42.897 11.087-58.625 24.29-29.046 24.385-43.03 69.32-32.98 105.984 4.305 15.707 11.808 28.744 25.835 44.89 30.712 35.347 52.4 71.012 66.87 110.017l3.318 8.923c1.208 3.233 2.255 4.13 4.83 4.13 2.772 0 3.527-.993 6.02-7.915 15.362-42.637 36.84-78.65 68.29-114.5 21.006-23.946 29.08-43.867 29.034-71.634-.105-62.422-50.094-108.678-112.592-104.183m-2.48 59.872l.89.338v41.87c0 45.566.083 43.812-2.093 44.36-2.665.668-29.937-.104-33.176-.94-13.79-3.557-21.01-14.036-20.93-30.376.104-21.48 11.495-32.158 33.435-31.34 10.137.378 9.847.778 9.343-12.88-.393-10.638-.37-10.75 2.378-11.4 1.793-.425 8.73-.174 10.152.367m27.048 24.932c2.034.928 2.043 1.01 2.25 21.49.2 18.82.2 19.02 1.075 20.92 1.448 3.147 4.098 5.396 7.512 6.375 2.854.818 17.65.452 18.386-.455.645-.797.687-2.245.665-22.963l-.01-23.168c.04-3.43 11.52-3.908 13.35-.558 1.073 1.962.974 58.076-.104 58.865-.92.672-35.943.766-39.556.106-6.954-1.27-12.734-6.734-14.63-13.828-.87-3.25-1.055-45.628-.205-46.48 1.042-1.045 9.164-1.265 11.266-.305m-54.18 13.083c-14.638 2.858-16.733 27.18-2.88 33.42 2.286 1.03 14.512 1.726 16.314.93l.96-.425.098-15.35c.127-19.925.5-19.013-7.967-18.95-2.64.02-5.576.188-6.526.374" fill="#ec3c3c"/><path d="M73.364.99c-22.7 3.305-44.735 16.7-57.504 34.96l-1.607 2.297 39.872 39.87 40.46 39.384c.323-.268 1.304-2.76 2.18-5.54 7.736-24.54 21.622-42.904 43.45-57.458 27.936-18.628 61.256-22.67 95.174-11.55 1 .325 1.015.3.654-.675-.672-1.8-39-39.914-41.223-40.97l-1.92-.917-57.965.038-61.57.562m125.58 40.36c.58.088 1.53.088 2.112 0s.105-.16-1.056-.16-1.636.072-1.056.16m-7.672.384c.584.088 1.447.086 1.92-.005s-.005-.163-1.06-.16-1.442.077-.86.165m15.35-.01a3.14 3.14 0 0 0 1.343 0c.37-.096.068-.175-.67-.175s-1.042.08-.672.175m65.547 30.254c1.997 2.006 3.718 3.647 3.824 3.647s-1.443-1.64-3.44-3.647-3.718-3.647-3.824-3.647 1.442 1.64 3.44 3.647m-147.235-.48l-1.517 1.632 1.63-1.518c.897-.834 1.63-1.57 1.63-1.63 0-.29-.334 0-1.745 1.517m54.63 29.74c.7.085 1.727.084 2.304-.004s.012-.158-1.255-.155-1.74.073-1.05.16m8.304 9.127c.001 3.167.06 4.41.133 2.765s.07-4.237-.001-5.758-.132-.174-.132 2.993m111.693-3.996c6.4 22.865 7.69 37.486 4.817 54.667-3.506 20.965-11.922 38.664-25.92 54.51-12.67 14.343-24.157 28.837-32.904 41.52-3.818 5.536-4.286 6.625-3.563 8.287 1.06 2.434 44.127 44.946 45.534 44.946 1.505 0 107.267-105.366 107.69-107.285.406-1.85-.294-2.583-47.684-49.8l-47.968-46.848M208.74 126.2c.7.085 1.727.084 2.303-.004s.013-.157-1.254-.155-1.74.073-1.05.16m-6.26 20.26l.1 9.09v-18.426c-.06-5-.1-.8-.1 9.335m55.658.96c0 7.495.05 10.56.114 6.814s.063-9.88 0-13.628-.114-.68-.114 6.814m44.06-9.98c0 .74.08 1.04.176.672s.096-.974 0-1.344-.176-.067-.176.672m-207.293.768c0 .74.08 1.04.175.672a3.14 3.14 0 0 0 0-1.344c-.096-.37-.175-.067-.175.672m70.823 1.045a14.43 14.43 0 0 0 2.688.003c.796-.083.238-.153-1.24-.155s-2.13.067-1.45.152m-71.147 7.976c.001 2.745.062 3.817.136 2.383s.073-3.68-.001-5-.136-.138-.135 2.607m208.056-.768c.001 2.323.064 3.223.14 2a38.59 38.59 0 0 0-.001-4.222c-.078-1.1-.14-.1-.14 2.22m-127.8 12.476c0 7.706.05 10.86.113 7.006s.063-10.158 0-14.012-.113-.7-.113 7.006m13.045 4.415c0 5.49.054 7.68.12 4.872a253.49 253.49 0 0 0 0-9.981c-.066-2.68-.12-.38-.12 5.11m114.317-8.254c0 .74.08 1.042.176.672a3.17 3.17 0 0 0 0-1.343c-.097-.37-.176-.068-.176.67m-170.44 6.142c0 .74.08 1.042.175.672a3.14 3.14 0 0 0 0-1.343c-.096-.37-.175-.068-.175.67M88.1 173.512l9.015 8.83c.105 0-3.78-3.973-8.63-8.83l-9.015-8.83c-.106 0 3.778 3.973 8.63 8.83m75.927 1.053a55.73 55.73 0 0 0 4.991-.001c1.31-.075.137-.135-2.607-.135s-3.817.062-2.384.136m65.436 1.528a12.1 12.1 0 0 0 2.495 0c.686-.085.125-.154-1.248-.154s-1.934.07-1.247.154m9.788-.013a3.14 3.14 0 0 0 1.344 0c.37-.096.067-.175-.672-.175s-1.04.08-.672.175m18.85 6.262c0 1.794.066 2.528.147 1.63s.08-2.366 0-3.263-.147-.163-.147 1.632M136.85 270.73l-12.282 12.38 12.38-12.28 12.38-12.38c0-.27-1.064.776-12.478 12.28m193.092 60.653l-68.33 68.426 68.426-68.33 68.33-68.522c-.053 0-30.845 30.792-68.426 68.426m-217.99 9.45l-54.005 54.74c.25.155.558.178.685.05s-.014-.23-.313-.23 23.986-24.53 53.966-54.5l54.318-54.51c-.106 0-24.7 24.507-54.65 54.46m113.762-29.796l4.127 4.127c.277 0-.19-.492-4.024-4.23l-4.127-4.024zm24.383 24.473c2.527 2.533 4.68 4.606 4.786 4.606s-1.875-2.073-4.402-4.606-4.68-4.607-4.787-4.607 1.876 2.073 4.403 4.607m-51.92 4.87a3.17 3.17 0 0 0 1.343 0c.37-.097.067-.176-.672-.176s-1.04.08-.67.176m29.46 30.733l-27.446 27.543 27.543-27.446 27.543-27.543c0-.27-2.126 1.842-27.64 27.446m-187.333-3.84l-11.322 11.42 11.42-11.322 11.42-11.42c0-.272-.997.708-11.518 11.32" fill="#e4ec94"/><path d="M343.762 55.662l55.47 55.278c.602 0 .137-33.386-.522-37.428-6.253-38.36-35.374-67.16-73.374-72.568C322.502.54 317.178.396 304.99.39L288.485.384z" fill="#b4e4fc"/><path d="M107.198.288h56.622c15.57-.056 2.83-.1-28.31-.1l-28.31.1m189.085 0l16.123-.001c4.367-.06.684-.11-8.183-.11s-12.44.05-7.94.112M216.01 21.593c18.776 18.794 21.836 22.168 19.376 21.36C175.7 23.382 115.2 53.504 96.763 111.962c-.875 2.78-1.856 5.27-2.18 5.54-.502.417-6.333-5.253-40.52-39.41L14.576 38.964c.386.662.05 1.446-2.44 5.703C5.74 55.605 1.97 67.344.78 80.038.54 82.572.254 85.076.142 85.604s-.08.834.074.68c.29-.292 95.116 93.94 97.97 97.356.902 1.08 2.915 4.555 4.472 7.722 4.845 9.85 10.004 17.044 21.785 30.377 11.964 13.54 26.042 31.958 26.035 34.06-.004 1.423-.14 1.56-61.52 62.905l-60.18 60.144 3.56 2.85c9.83 7.876 20.697 13.33 33.31 16.716l5.182 1.39H328.79l4.222-1.07c21.978-5.566 40-18.17 52.265-36.55 1.893-2.837 2.145-3.263 1.93-3.263-.093 0-.924 1.163-1.846 2.583-11.81 18.198-32.002 31.936-54.133 36.832l-4.74 1.05-64.876.247 68.33-68.34 68.808-68.34c.375 0 .5 6.037.578 28.31.056 15.57.143-18.504.195-75.723l.093-104.033L290.02 1.92h-46.83-46.832zm-4.11 20.484c62.71 7.314 104.578 71.437 86.736 132.84-4.458 15.34-11.865 27.662-26.916 44.773-30.076 34.192-52.287 72.015-67.485 114.922-1.848 5.22-4.157 6.87-7.43 5.318-1.645-.78-2.16-1.77-4.848-9.297-14.332-40.135-38.693-80.542-69.04-114.5-29.892-33.46-36.35-72.864-18.622-113.628C122.35 60.98 165.63 36.68 211.9 42.077m187.43 37.578c.004.844.083 1.144.175.667s.088-1.17-.008-1.536-.17.024-.167.87m.054 23.224c0 2.85.06 4.016.134 2.59a60.51 60.51 0 0 0 0-5.182c-.074-1.425-.134-.26-.134 2.59m-223.416-1.01c-1.6.727-1.597.694-1.216 11 .504 13.61.755 13.245-8.8 12.847-23.543-.982-36.066 12.233-33.964 35.84 1.163 13.062 8.78 22.622 20.378 25.575 6.78 1.727 33.016 1.95 34.67.296l.874-.874.03-42.032-.523-42.49c-.86-.713-9.947-.832-11.447-.15m171.563 51.347c47.4 47.216 48.1 47.948 47.684 49.8-.422 1.92-106.184 107.285-107.69 107.285-1.407 0-44.474-42.512-45.534-44.946-.723-1.662-.255-2.75 3.563-8.287 8.747-12.684 20.233-27.178 32.904-41.52 14-15.847 22.415-33.546 25.92-54.51 2.872-17.18 1.584-31.802-4.817-54.667-.384-1.372-2.625-3.56 47.968 46.848m-143.98-26.344l-.864.618.006 21.57c.006 23.816.055 24.403 2.403 28.82 2.568 4.83 7.808 8.535 13.33 9.426 4.354.703 37.645.54 38.686-.19l.853-.597v-28.29c-.001-31.745.107-30.482-2.687-31.435-3.033-1.034-9.954-.52-10.838.804-.155.232-.285 10.883-.288 23.67-.005 19.444-.095 23.37-.55 23.99-1.236 1.69-17.98 1-21.443-.883-5.327-2.9-5.652-4.354-5.652-25.26 0-17.607-.207-20.512-1.553-21.86-1.07-1.07-10.022-1.373-11.403-.385m-31.113 12.813c2.317.885 2.403 1.474 2.545 17.453.17 19.18.833 17.525-7.012 17.525-14.883 0-20.21-5.144-19.71-19.036.3-8.378 2.976-12.85 9.068-15.154 3.725-1.41 12.314-1.857 15.1-.788m-2.755 146.6c3.794 4.8 19.8 40.912 24.343 54.873 1.245 3.836 3.626 5.395 6.442 4.218 1.862-.778 2.197-1.38 4.717-8.486 4.726-13.33 12.333-31.03 13.532-31.49.99-.38 1.872.437 19.67 18.22 15.706 15.7 17.274 17.37 17.274 18.507 0 1.427-53.236 55.255-56.144 56.768-1.416.736-2.565.748-64.107.632l-62.666-.117-3.84-.875c-3.975-.907-10.498-2.694-11.082-3.036-.376-.22 106.616-107.43 108.932-109.154 1.836-1.365 1.895-1.366 2.927-.058m-144.54 89.156c1.04 1.056 1.977 1.92 2.082 1.92s-.658-.863-1.698-1.92-1.977-1.92-2.083-1.92.66.864 1.7 1.92" fill="#fcfcfc"/></svg>