<svg xmlns="http://www.w3.org/2000/svg" fill-rule="evenodd" height="400" width="400" xmlns:v="https://vecta.io/nano"><path d="M194 76.667c-3.407.43-27.636 5.45-29.8 6.174-13.555 4.54-21.33 15.318-22.075 30.6-.35 7.185.272 8.022 4.915 6.593.638-.196 2.24-.572 3.56-.835 5.2-1.034 5.272-1.14 5.506-7.008.32-7.994 6.344-14.937 14.694-16.934 30.065-7.193 37.026-6.064 44.02 7.134 1.952 3.685 2.042 3.707 8.98 2.3 6.342-1.296 6.642-2 3.594-8.42-6.3-13.25-19.988-21.3-33.394-19.602m86 24.127c-1.43.162-4.67.68-7.2 1.15l-8.158 1.466c-1.738.276-24.827 22.594-25.293 24.45-.32 1.27-.577.98 15.06 16.98l20.367 20.85c6.075 6.23 7.34 7.156 8.817 6.46.4-.193 8.137-7.616 17.174-16.496 17.893-17.58 16.9-16.336 16.068-20.177-.2-.922-.572-2.937-.826-4.477-2.243-13.576-7.708-21.952-17.565-26.925-3.06-1.544-3.377-1.663-7.045-2.65-2.6-.7-8.112-1.004-11.4-.63m-47.8 9L208 114.47l-3.8.754c-2.226.484-5.14 1.048-8.2 1.585l-4.2.798c-.88.188-2.635.536-3.9.774l-4.6.864-3.9.774a146.28 146.28 0 0 1-4.2.794c-1.43.25-3.32.618-4.2.818s-5.02 1.006-9.2 1.8l-22.04 4.2c-2.53.513-3.45 1.746-2.4 3.23 2.225 3.177 40.4 41.153 41.377 41.153 1.112 0 61.006-59.322 61.515-60.927.726-2.287-1.47-2.64-8.04-1.288m-110.7 21.64c-.123.124-1.278.385-2.567.58a186.97 186.97 0 0 0-4.742.796l-9.2 1.604c-6.82 1.158-9.468 1.718-11.6 2.455-11.834 4.1-19.3 12.638-21.62 24.718-.93 4.864-.788 7.3.52 8.892 1.423 1.72-.427-.18 23.7 24.363l24.612 25.066c4.87 5 5.005 5 10.163.004l38.104-37.294c1.545-1.627 1.106-3.847-1.156-5.848-.398-.352-6.563-6.562-13.702-13.8-33.497-33.966-31.763-32.284-32.512-31.536m86.754 26.913c-16.517 16.52-21.503 21.73-21.4 22.36.284 1.7 42.382 44.104 43.798 44.104 1.022 0 42.597-40.74 43.785-42.905.54-.984.46-1.087-6.212-7.954-23.888-24.594-36.546-37.14-37.467-37.14-.75 0-5.9 4.92-22.505 21.537m96.037 8.248c-10.575 10.466-13.5 13.577-13.5 14.36 0 1.068 37.738 39.626 39.4 40.256 1.76.668 2.828-.84 2.226-3.144a67.63 67.63 0 0 1-.8-3.858l-1.187-6.4-6.427-34.2C320 152 320.327 153.193 318.65 153.218c-.573.008-5.263 4.378-14.35 13.372m-43.86 44.264c-17.807 17.984-21.06 21.443-21.16 22.505-.126 1.326-.6.815 39.164 41.22l6.668 6.774 2.143-.462c3.02-.65 5.217-1.08 12.743-2.492 17.666-3.313 21.365-4.746 27.4-10.6 4.627-4.503 7.4-9.522 8.943-16.184.528-2.282.74-7.864.312-8.283-.925-.9-41.77-42.4-46.875-47.617-4.982-5.1-6.162-6.1-7.13-6.1-1 0-4.046 2.916-22.2 21.25M76.826 192.667c-.98.685-1.015 1.477-.25 5.4L82 226.4l1.2 6.2c.194.88.74 3.67 1.214 6.2l2 10.4 1.392 7.4c.377 2.284 1.207 3.4 2.528 3.4 1.085 0 27.7-26.003 27.663-27.025-.038-1-2.33-3.463-19.885-21.3-19.18-19.476-19.813-20.042-21.275-19.018m98.374 28.796c-10.905 4.378-12.148 17.42-2.1 22.138 12.065 5.67 22.573-10.2 12.765-19.3-2.504-2.318-8.2-3.838-10.655-2.848m-50.317 20.077c-.454.288-19.7 19.4-29.998 29.76l-3.714 3.743 1.4 6.697c5.003 23.747 19.782 33.227 44.418 28.496l34.8-6.67c8.2-1.477 10.693-2.152 11.303-3.07.717-1.08 1.325-.418-24.68-26.883l-26.223-26.7c-5.396-5.504-6.2-6.086-7.317-5.37m82.8 21.633c-12.794 12.73-21.682 21.87-21.68 22.3.002 1.026 11.412 12.527 12.43 12.527.735 0 3.787-.546 8.97-1.606l8.2-1.588 43.8-8.428c14.978-2.822 16.158.313-9.85-26.165L236 246.3c-3.528-3.676-4.742-4.7-5.57-4.7-.86 0-5.067 4-22.74 21.573" fill="#fbfbfb"/><path d="M178.3.275c-1.925.086-3.5.33-3.5.54s-1.34.384-2.976.384-3.088.18-3.224.4-1.137.4-2.224.4-1.976.18-1.976.4-1 .4-2.2.4-2.2.18-2.2.4-.8.4-1.776.4-1.888.18-2.024.4-.957.4-1.824.4-1.576.18-1.576.4-.72.4-1.6.4-1.6.18-1.6.4-.72.4-1.6.4-1.6.18-1.6.4-.54.4-1.2.4-1.2.18-1.2.4-.63.4-1.4.4-1.4.18-1.4.4-.43.4-.954.4c-.9 0-4.228.885-6.046 1.603l-2.2.797c-1.693.582-3.16 1.17-4.095 1.647-.382.194-1.057.353-1.5.353s-.805.18-.805.4-.36.4-.8.4-.8.18-.8.4-.44.4-.976.4-1.088.18-1.224.4-.597.4-1.024.4-.776.18-.776.4-.36.4-.8.4-.8.18-.8.4-.272.4-.605.4c-.588 0-1.013.167-2.9 1.138-.492.254-1.167.462-1.5.462s-.605.18-.605.4-.36.4-.8.4-.8.146-.8.325-.63.573-1.4.875-1.4.696-1.4.875-.36.325-.8.325-.8.18-.8.4-.36.4-.8.4-.8.18-.8.4-.32.4-.712.4-.97.36-1.288.8-.813.8-1.102.8c-.702 0-4.663 2-4.83 2.45-.074.192-.3.35-.528.35s-1.18.54-2.14 1.2-1.897 1.2-2.084 1.2-.6.36-.916.8-.857.8-1.2.8-.883.36-1.2.8-.857.8-1.2.8-.883.36-1.2.8-.8.8-1.092.8-1.08.54-1.77 1.2-1.46 1.2-1.708 1.2-.712.36-1.03.8-.825.8-1.128.8-1.055.54-1.672 1.2-1.236 1.2-1.377 1.2c-.27 0-.67.314-2.674 2.1-.678.605-1.4 1.1-1.58 1.1s-1.117.767-2.057 1.705-2.34 2.15-3.1 2.694-3.16 2.8-5.313 4.994l-8.494 8.494L48.8 67.6l-2.694 3.1c-.938.94-1.705 1.866-1.705 2.057s-.495.903-1.1 1.58c-1.786 2.003-2.1 2.403-2.1 2.674 0 .14-.54.76-1.2 1.377s-1.2 1.37-1.2 1.672-.36.8-.8 1.128-.8.807-.8 1.088-.18.512-.4.512-.4.23-.4.512-.36.77-.8 1.088-.8.857-.8 1.2-.36.883-.8 1.2-.8.857-.8 1.2-.36.883-.8 1.2-.8.857-.8 1.2-.36.883-.8 1.2-.8.73-.8.916-.54 1.125-1.2 2.084-1.2 1.922-1.2 2.14-.157.454-.35.528c-.408.155-2.45 4.104-2.45 4.736 0 .237-.36.817-.8 1.3s-.8 1.095-.8 1.383-.18.525-.4.525-.4.36-.4.8-.18.8-.4.8-.4.36-.4.8-.146.8-.325.8-.573.63-.875 1.4-.696 1.4-.875 1.4-.325.36-.325.8-.18.8-.4.8-.4.265-.4.588-.36 1.23-.8 2.012-.8 1.78-.8 2.212-.18.788-.4.788-.4.36-.4.8-.18.8-.4.8-.4.36-.4.8-.18.8-.4.8-.4.54-.4 1.2-.18 1.2-.4 1.2-.4.36-.4.8-.18.8-.4.8-.4.362-.4.805a3.96 3.96 0 0 1-.353 1.5l-1.694 3.8c-.195.382-.353.97-.353 1.305s-.163.923-.363 1.305c-.597 1.142-1.637 4.917-1.637 5.94 0 .525-.18.954-.4.954s-.4.63-.4 1.4-.18 1.4-.4 1.4-.4.54-.4 1.2-.18 1.2-.4 1.2-.4.72-.4 1.6-.18 1.6-.4 1.6-.4.72-.4 1.6-.18 1.6-.4 1.6-.4.7-.4 1.576-.18 1.688-.4 1.824-.4 1.047-.4 2.024S3.42 160 3.2 160s-.4.9-.4 2-.18 2-.4 2-.4 1.06-.4 2.376c0 1.307-.18 2.488-.4 2.624s-.4 1.37-.4 2.744c0 1.463-.207 2.703-.5 2.996-.4.4-.5 6.003-.5 25.347 0 19.52.107 24.882.5 25.013.335.112.5 1.07.5 2.9 0 1.508.18 2.854.4 3s.4 1.317.4 2.624c0 1.317.178 2.376.4 2.376s.4.9.4 2 .18 2 .4 2 .4.8.4 1.776.18 1.888.4 2.024.4.957.4 1.824.18 1.576.4 1.576.4.72.4 1.6.18 1.6.4 1.6.4.72.4 1.6.18 1.6.4 1.6.4.54.4 1.2.18 1.2.4 1.2.4.63.4 1.4.18 1.4.4 1.4.4.43.4.954c0 1.024 1.04 4.8 1.637 5.94.2.382.363.97.363 1.305s.16.923.353 1.305.576 1.235.847 1.895.652 1.513.847 1.895.353 1.057.353 1.5.18.805.4.805.4.36.4.8.18.8.4.8.4.54.4 1.2.18 1.2.4 1.2.4.36.4.8.18.8.4.8.4.36.4.8.18.8.4.8.4.272.4.605.18.963.4 1.4l.8 1.6c.22.437.4 1.067.4 1.4s.135.606.3.606.75 1 1.3 2.2 1.135 2.198 1.3 2.2.3.36.3.8.18.8.4.8.4.36.4.8.18.8.4.8.4.236.4.525.36.9.8 1.383.8 1.067.8 1.32c0 .582 2.095 4.524 2.5 4.704.165.074.3.3.3.528s.54 1.18 1.2 2.14 1.2 1.897 1.2 2.084.36.6.8.916.8.857.8 1.2.36.883.8 1.2.8.857.8 1.2.36.883.8 1.2.8.857.8 1.2.36.883.8 1.2.8.807.8 1.088.18.512.4.512.4.23.4.512.36.77.8 1.088.8.825.8 1.128.54 1.055 1.2 1.672 1.2 1.236 1.2 1.377c0 .287.27.633 2 2.565.66.74 1.2 1.5 1.2 1.7s.767 1.117 1.705 2.057 2.15 2.34 2.694 3.1 2.8 3.16 4.994 5.313c4.818 4.705 3.8 3.676 8.494 8.494 2.152 2.203 4.543 4.45 5.313 4.994s2.17 1.756 3.1 2.694 1.863 1.705 2.05 1.705 1.027.63 1.868 1.4 1.667 1.4 1.837 1.4.938.63 1.708 1.4 1.637 1.4 1.925 1.4.785.36 1.102.8.78.8 1.03.8 1.017.54 1.708 1.2 1.488 1.2 1.77 1.2.775.36 1.092.8.857.8 1.2.8.883.36 1.2.8.857.8 1.2.8.883.36 1.2.8.73.8.916.8 1.125.54 2.084 1.2 1.937 1.2 2.172 1.2.428.18.428.4.197.4.438.4.927.348 1.525.773 1.6.905 2.248 1.066 1.517.622 1.95 1.026 1.025.735 1.313.735.525.18.525.4.36.4.8.4.8.18.8.4.36.4.8.4.8.18.8.4.345.4.767.4.826.135.9.3 1.033.725 2.133 1.244l2.695 1.3c.382.196.967.356 1.3.356s.605.18.605.4.36.4.8.4.8.18.8.4.36.4.8.4.8.18.8.4.35.4.776.4.888.18 1.024.4.687.4 1.224.4.976.18.976.4.36.4.8.4.8.18.8.4.362.4.805.4a3.96 3.96 0 0 1 1.5.353c.935.476 2.402 1.065 4.095 1.647a64.91 64.91 0 0 1 2.2.797c1.818.718 5.155 1.603 6.046 1.603.525 0 .954.18.954.4s.63.4 1.4.4 1.4.18 1.4.4.53.4 1.176.4 1.288.18 1.424.4.867.4 1.624.4 1.376.18 1.376.4.72.4 1.6.4 1.6.18 1.6.4.7.4 1.576.4 1.688.18 1.824.4 1.047.4 2.024.4 1.776.18 1.776.4 1 .4 2.2.4 2.2.18 2.2.4.98.4 2.176.4 2.288.18 2.424.4 1.482.4 3 .4c1.84 0 2.798.165 2.9.5.244.732 49.956.732 50.2 0 .112-.335 1.07-.5 2.9-.5 1.508 0 2.854-.18 3-.4s1.216-.4 2.4-.4 2.264-.18 2.4-.4 1.137-.4 2.224-.4 1.976-.18 1.976-.4.7-.4 1.576-.4 1.688-.18 1.824-.4 1.047-.4 2.024-.4 1.776-.18 1.776-.4.72-.4 1.6-.4 1.6-.18 1.6-.4.62-.4 1.376-.4 1.488-.18 1.624-.4.777-.4 1.424-.4 1.176-.18 1.176-.4.63-.4 1.4-.4 1.4-.16 1.4-.354.987-.477 2.194-.628 2.297-.44 2.423-.646.66-.372 1.183-.372 1.064-.18 1.2-.4.6-.4 1.03-.4a3.88 3.88 0 0 0 1.476-.353c.382-.195 1.235-.576 1.895-.847s1.513-.652 1.895-.847 1.057-.353 1.5-.353.805-.18.805-.4.36-.4.8-.4.8-.18.8-.4.54-.4 1.2-.4 1.2-.18 1.2-.4.36-.4.8-.4.8-.18.8-.4.36-.4.8-.4.8-.18.8-.4.272-.4.605-.4c.588 0 1.013-.167 2.9-1.138.492-.254 1.167-.462 1.5-.462s.606-.135.606-.3 1-.75 2.2-1.3 2.198-1.135 2.2-1.3.36-.3.8-.3.8-.18.8-.4.36-.4.8-.4.8-.18.8-.4.236-.4.525-.4.9-.36 1.383-.8 1.067-.8 1.32-.8c.582 0 4.524-2.095 4.704-2.5.074-.165.3-.3.528-.3s1.18-.54 2.14-1.2 1.897-1.2 2.084-1.2.6-.36.916-.8.857-.8 1.2-.8.883-.36 1.2-.8.857-.8 1.2-.8.883-.36 1.2-.8.857-.8 1.2-.8.883-.36 1.2-.8.807-.8 1.088-.8.512-.18.512-.4.23-.4.512-.4.77-.36 1.088-.8.825-.8 1.128-.8 1.055-.54 1.672-1.2 1.274-1.2 1.46-1.2 1.127-.72 2.1-1.6 1.903-1.6 2.1-1.6 1.1-.767 2.05-1.705 2.34-2.15 3.1-2.694 3.16-2.8 5.313-4.994c4.705-4.818 3.676-3.8 8.494-8.494 2.203-2.152 4.45-4.543 4.994-5.313s1.756-2.17 2.694-3.1 1.705-1.863 1.705-2.05.72-1.127 1.6-2.1 1.6-1.904 1.6-2.1.54-.844 1.2-1.46 1.2-1.37 1.2-1.672.36-.8.8-1.128.8-.807.8-1.088.18-.512.4-.512.4-.23.4-.512.36-.77.8-1.088.8-.857.8-1.2.36-.883.8-1.2.8-.857.8-1.2.36-.883.8-1.2.8-.857.8-1.2.36-.883.8-1.2.8-.73.8-.916.54-1.125 1.2-2.084 1.2-1.937 1.2-2.172.18-.428.4-.428.4-.36.4-.8.147-.8.326-.8c.348 0 1.674-2.558 1.674-3.23 0-.222.36-.8.8-1.262s.8-1.095.8-1.383.18-.525.4-.525.4-.36.4-.8.18-.8.4-.8.4-.36.4-.8.135-.8.3-.8.75-1 1.3-2.2 1.135-2.198 1.3-2.2.3-.273.3-.606.18-.963.4-1.4l.8-1.6c.22-.437.4-1.067.4-1.4s.18-.605.4-.605.4-.36.4-.8.18-.8.4-.8.4-.35.4-.776.18-.888.4-1.024.4-.687.4-1.224.18-.976.4-.976.4-.36.4-.8.18-.8.4-.8.4-.362.4-.805a3.96 3.96 0 0 1 .353-1.5c.193-.382.576-1.235.847-1.895s.652-1.513.847-1.895a3.88 3.88 0 0 0 .353-1.476c0-.43.18-.893.4-1.03s.4-.676.4-1.2.167-1.056.372-1.183.495-1.217.646-2.423.433-2.194.628-2.194.354-.63.354-1.4.18-1.4.4-1.4.4-.53.4-1.176.18-1.288.4-1.424.4-.867.4-1.624.18-1.376.4-1.376.4-.72.4-1.6.18-1.6.4-1.6.4-.7.4-1.576.18-1.688.4-1.824.4-1.047.4-2.024.18-1.776.4-1.776.4-.9.4-1.976.18-2.088.4-2.224.4-1.216.4-2.4.18-2.264.4-2.4.4-1.482.4-3c0-1.84.165-2.798.5-2.9.393-.13.5-5.5.5-25.1s-.107-24.97-.5-25.1c-.335-.112-.5-1.07-.5-2.9 0-1.508-.18-2.854-.4-3s-.4-1.216-.4-2.4-.18-2.264-.4-2.4-.4-1.137-.4-2.224-.18-1.976-.4-1.976-.4-.8-.4-1.776-.18-1.888-.4-2.024-.4-.957-.4-1.824-.18-1.576-.4-1.576-.4-.72-.4-1.6-.18-1.6-.4-1.6-.4-.62-.4-1.376-.18-1.488-.4-1.624-.4-.777-.4-1.424-.18-1.176-.4-1.176-.4-.63-.4-1.4-.16-1.4-.354-1.4-.477-.987-.628-2.194-.44-2.297-.646-2.423-.372-.66-.372-1.183-.18-1.064-.4-1.2-.4-.6-.4-1.03a3.88 3.88 0 0 0-.353-1.476c-.195-.382-.576-1.235-.847-1.895s-.652-1.513-.847-1.895-.353-1.057-.353-1.5-.18-.805-.4-.805-.4-.36-.4-.8-.18-.8-.4-.8-.4-.44-.4-.976-.18-1.088-.4-1.224-.4-.597-.4-1.024-.18-.776-.4-.776-.4-.36-.4-.8-.18-.8-.4-.8-.4-.36-.4-.8-.18-.8-.4-.8-.4-.45-.4-1-.18-1-.4-1-.4-.45-.4-1-.18-1-.4-1-.4-.36-.4-.8-.146-.8-.325-.8-.573-.63-.875-1.4-.696-1.4-.875-1.4-.325-.36-.325-.8-.18-.8-.4-.8-.4-.36-.4-.8-.18-.8-.4-.8-.4-.32-.4-.712-.36-.97-.8-1.288-.8-.834-.8-1.148c0-.775-2.087-4.852-2.484-4.852-.174 0-.316-.193-.316-.428s-.54-1.213-1.2-2.172-1.2-1.897-1.2-2.084-.36-.6-.8-.916-.8-.857-.8-1.2-.36-.883-.8-1.2-.8-.857-.8-1.2-.36-.883-.8-1.2-.8-.857-.8-1.2-.36-.883-.8-1.2-.8-.78-.8-1.03-.54-1.017-1.2-1.708-1.2-1.455-1.2-1.7-.54-.947-1.2-1.564-1.2-1.274-1.2-1.46-.72-1.127-1.6-2.1-1.6-1.903-1.6-2.1-.767-1.1-1.705-2.05-2.15-2.34-2.694-3.1-2.8-3.16-4.994-5.313c-4.818-4.705-3.8-3.676-8.494-8.494-2.152-2.203-4.54-4.45-5.308-4.994s-2.27-1.846-3.34-2.894S326.95 44 326.74 44s-.8-.405-1.34-.9c-1.464-1.37-2.14-1.9-2.424-1.9-.14 0-.76-.54-1.377-1.2s-1.32-1.2-1.564-1.2-1.008-.54-1.7-1.2-1.46-1.2-1.708-1.2-.712-.36-1.03-.8-.857-.8-1.2-.8-.883-.36-1.2-.8-.857-.8-1.2-.8-.883-.36-1.2-.8-.857-.8-1.2-.8-.883-.36-1.2-.8-.73-.8-.916-.8-1.125-.54-2.084-1.2-1.922-1.2-2.14-1.2-.454-.135-.528-.3c-.18-.405-4.122-2.5-4.704-2.5-.254 0-.85-.36-1.32-.8s-1.095-.8-1.383-.8-.525-.18-.525-.4-.36-.4-.8-.4-.8-.18-.8-.4-.36-.4-.8-.4-.8-.146-.8-.325-.63-.573-1.4-.875-1.4-.696-1.4-.875-.36-.325-.8-.325-.8-.18-.8-.4-.272-.4-.605-.4c-.588 0-1.013-.167-2.9-1.138-.492-.254-1.167-.462-1.5-.462s-.605-.18-.605-.4-.36-.4-.8-.4-.8-.18-.8-.4-.36-.4-.8-.4-.8-.18-.8-.4-.54-.4-1.2-.4-1.2-.18-1.2-.4-.36-.4-.8-.4-.8-.18-.8-.4-.362-.4-.805-.4a3.96 3.96 0 0 1-1.5-.353c-.382-.193-1.235-.576-1.895-.847s-1.513-.652-1.895-.847-.97-.353-1.305-.353-.923-.163-1.305-.363c-1.142-.597-4.917-1.637-5.94-1.637-.525 0-.954-.18-.954-.4s-.63-.4-1.4-.4-1.4-.18-1.4-.4-.54-.4-1.2-.4-1.2-.18-1.2-.4-.72-.4-1.6-.4-1.6-.18-1.6-.4-.72-.4-1.6-.4-1.6-.18-1.6-.4-.7-.4-1.576-.4-1.688-.18-1.824-.4-1.047-.4-2.024-.4S240 3.42 240 3.2s-.9-.4-2-.4-2-.18-2-.4-1.06-.4-2.376-.4c-1.307 0-2.488-.18-2.624-.4s-1.482-.4-3-.4c-1.817 0-2.8-.166-2.907-.492C224.94.222 187.3-.126 178.3.275m25.707 77.114c10.635 2.16 18.442 8.462 23.387 18.88 3.048 6.422 2.748 7.125-3.594 8.42-6.937 1.417-7.027 1.395-8.98-2.3-6.995-13.198-13.956-14.327-44.02-7.134-8.35 1.997-14.375 8.94-14.694 16.934-.234 5.87-.317 5.974-5.506 7.008-1.32.263-2.922.64-3.56.835-4.643 1.43-5.266.592-4.915-6.593.746-15.3 8.52-26.07 22.075-30.6 2.164-.725 26.393-5.744 29.8-6.174 2.008-.253 6.97.105 10.007.722m87.393 24.036c3.668.987 3.984 1.106 7.045 2.65 9.857 4.973 15.322 13.35 17.565 26.925.254 1.54.626 3.555.826 4.477.833 3.84 1.825 2.596-16.068 20.177l-17.174 16.496c-1.478.695-2.742-.23-8.817-6.46L254.4 144.84c-15.638-16-15.38-15.708-15.06-16.98.466-1.855 23.555-24.173 25.293-24.45 1.808-.286 2.06-.33 8.158-1.466 8.514-1.584 14.066-1.74 18.6-.52m-51.626 8.146c.4.44.6 1.085.466 1.502-.5 1.605-60.403 60.927-61.515 60.927-.968 0-39.152-37.976-41.377-41.153-1.04-1.484-.12-2.717 2.4-3.23l22.04-4.2 9.2-1.8a104.21 104.21 0 0 1 4.2-.818 146.28 146.28 0 0 0 4.2-.794l3.9-.774 4.6-.864 3.9-.774c.88-.187 2.77-.546 4.2-.798 3.06-.537 5.974-1.1 8.2-1.585a156.4 156.4 0 0 1 3.8-.754l24.2-4.672c5.597-1.15 6.697-1.182 7.574-.214m-107.92 30.93l22.168 22.46 13.702 13.8c2.262 2 2.7 4.22 1.156 5.848-.9.937-32.568 31.942-38.104 37.294-5.158 4.987-5.293 4.987-10.163-.004L96 194.832 72.3 170.47c-1.3-1.583-1.452-4.028-.52-8.892 2.3-12.08 9.787-20.627 21.62-24.718 2.132-.737 4.78-1.297 11.6-2.455l9.2-1.604 4.742-.796c1.3-.195 2.444-.456 2.567-.58.6-.6 1.822.45 10.344 9.076m115.152 11.8c28.9 29.334 28.07 28.45 27.442 29.595-1.188 2.166-42.763 42.905-43.785 42.905-1.416 0-43.514-42.393-43.798-44.104-.2-1.2 42.504-43.896 43.904-43.896.748 0 4.47 3.552 16.237 15.5m72.894 1.4c.535.674.717 1.56 4.114 19.9l7.614 40.6c.23 1.32.6 3.056.8 3.858.602 2.305-.465 3.812-2.226 3.144-1.662-.63-39.4-39.188-39.4-40.256 0-.784 2.925-3.895 13.5-14.36 13.352-13.213 14.552-14.204 15.6-12.885m-30.13 42l46.875 47.617c1.373 1.35-.78 12.017-3.366 16.672-6.274 11.295-11.87 14.4-33.28 18.405l-12.743 2.492-2.143.462-6.668-6.774c-39.774-40.405-39.3-39.894-39.164-41.22.18-1.914 41.642-43.754 43.36-43.754.967-.001 2.147 1 7.13 6.1M98.1 211.685c17.556 17.827 19.847 20.28 19.885 21.3S91.407 260 90.322 260c-1.32 0-2.15-1.116-2.528-3.4-.145-.88-.772-4.2-1.392-7.4l-2-10.4-1.214-6.2c-.194-.88-.74-3.67-1.2-6.2l-1.6-8.4-3.813-19.943c-.9-4.657-.367-6.346 1.852-5.766.426.112 9.28 8.84 19.674 19.394m84.7 10.614c11.95 5.645 7.052 23.92-5.996 22.376-13.06-1.547-14.2-18.152-1.604-23.212 1.263-.508 5.817-.007 7.6.836m-50.6 24.612l26.223 26.7c26.005 26.465 25.397 25.803 24.68 26.883-.6.92-3.094 1.594-11.303 3.07l-8.4 1.6-12.4 2.4-14 2.68c-24.636 4.73-39.415-4.75-44.418-28.496l-1.4-6.697 3.714-3.743 29.998-29.76c1.128-.715 1.92-.133 7.317 5.37m103.8-.6l13.56 13.913c26.007 26.478 24.827 23.343 9.85 26.165l-8.4 1.613-43.6 8.403c-5.183 1.06-8.235 1.606-8.97 1.606-1.017 0-12.427-11.5-12.43-12.527-.002-1.257 43.146-43.873 44.42-43.873.827 0 2.04 1.024 5.57 4.7" fill="#4cdc64"/></svg>