<svg xmlns="http://www.w3.org/2000/svg" height="999.976" width="999.976" xmlns:v="https://vecta.io/nano"><linearGradient id="A" gradientUnits="userSpaceOnUse" x1="502.061" x2="499.521" y1="0" y2="1000.235"><stop offset="0" stop-color="#ffa033"/><stop offset="1" stop-color="#f80"/></linearGradient><path d="M598.33 913.706l-84.95 80.98a19.593 19.593 0 0 1-26.784 0l-84.947-80.978c-207.9-45.1-363.672-230.086-363.672-451.553C37.977 206.917 244.826 0 499.988 0S962 206.917 962 462.154c0 221.466-155.77 406.45-363.67 451.552zm-98.318-715.65c-145.786 0-263.97 118.208-263.97 264.036s118.185 264.04 263.97 264.04 263.976-118.217 263.976-264.04-118.2-264.036-263.976-264.036z" fill="url(#A)" fill-rule="evenodd"/></svg>