<svg xmlns="http://www.w3.org/2000/svg" viewBox="0 0 226.77 226.77" xmlns:v="https://vecta.io/nano"><circle cx="113.39" cy="113.36" r="113.39" fill="#8fcad5"/><path d="M103.86 101.9A6.85 6.85 0 1 0 97 95.06a6.85 6.85 0 0 0 6.86 6.85zm32.72-1.06a6.85 6.85 0 1 0-6.85-6.84 6.85 6.85 0 0 0 6.85 6.84zm44.7-2.06a51.3 51.3 0 0 0-9.2-21.69 59.21 59.21 0 0 0-21.36-18 62.47 62.47 0 0 0-28-6.68 61.37 61.37 0 0 0-8.14.54 65 65 0 0 0-31.13 13.17c-10 7.86-16.4 18-18.58 29.24A92.33 92.33 0 0 0 63.66 106c-.42 5.6-.86 11.4-2.64 15.2-1.22 2.6-3 4.3-8 4.3a7.13 7.13 0 0 0-5.7 11.43c7.36 9.77 17 15.7 27.07 19.3a14.31 14.31 0 1 0 27.89 5.08c3.25.17 6.38.23 9.32.23h6.12l5.07-.07v.5a14.32 14.32 0 1 0 27.62-6.35A60.48 60.48 0 0 0 165.67 145a51.6 51.6 0 0 0 13.53-20.9 52.43 52.43 0 0 0 2.08-25.32zM88.2 165.2c-2.22 0-4-2.07-4-4.63s1.8-4.64 4-4.64 4 2.08 4 4.64-1.8 4.63-4 4.63zm49.1 0c-2.22 0-4-2.07-4-4.63s1.8-4.64 4-4.64 4 2.08 4 4.64-1.8 4.63-4 4.63zm35.13-43.33c-4.06 12.36-14.75 22.56-26.16 27.83a14.31 14.31 0 0 0-21.91 4.58c-2.3.1-4.54.12-6.58.12h-6.12c-3.44 0-7.13-.08-10.94-.33a14.3 14.3 0 0 0-22.22-4c-9.6-3.13-18.65-8.45-25.42-17.45 20.17 0 16.2-22.54 18.8-35.9C75.84 76.35 96 62.65 115.55 60a54.61 54.61 0 0 1 7.19-.48c32.14.01 60.75 28.7 49.68 62.36zm-29.8-11.57a3.57 3.57 0 0 0-4.29 2.65c-1.32 5.62-7.75 11.44-17.5 11.7-7.64.2-16.72-4.87-17.6-12.47a3.564 3.564 0 1 0-7.08.82 20.31 20.31 0 0 0 8.13 13.41 26.29 26.29 0 0 0 16 5.38h.7a28 28 0 0 0 16-5.24 21 21 0 0 0 8.31-12 3.56 3.56 0 0 0-2.69-4.25z" fill="#fff"/></svg>