<svg version="1.1" id="Layer_1" xmlns="http://www.w3.org/2000/svg" xmlns:xlink="http://www.w3.org/1999/xlink" x="0px" y="0px"
	 width="100%" viewBox="0 0 512 512" enable-background="new 0 0 512 512" xml:space="preserve">
<path fill="#E7BD1F" opacity="1.000000" stroke="none" 
	d="
M336.000000,513.000000 
	C224.027206,513.000000 112.554405,513.000000 1.040803,513.000000 
	C1.040803,342.402191 1.040803,171.804352 1.040803,1.103257 
	C171.556137,1.103257 342.112366,1.103257 512.834290,1.103257 
	C512.834290,171.666534 512.834290,342.333252 512.834290,513.000000 
	C454.137665,513.000000 395.318817,513.000000 336.000000,513.000000 
M191.689148,317.558990 
	C180.193146,314.853851 168.691742,312.171478 157.202789,309.436737 
	C147.141083,307.041779 137.336197,307.736481 127.921783,312.053223 
	C122.018196,314.760193 120.769890,320.688843 124.952255,325.624084 
	C129.761139,331.298553 135.367310,335.985168 142.614380,338.208893 
	C154.689896,341.914154 166.806091,345.487274 178.913391,349.088318 
	C181.946945,349.990570 185.011902,350.787231 189.037109,351.902466 
	C161.700272,368.501190 134.757935,383.181580 105.876205,394.188446 
	C107.908203,398.466370 109.748260,402.340210 111.895164,406.860046 
	C118.062180,403.934753 124.327995,401.595428 129.944977,398.186890 
	C152.273148,384.637390 174.382217,370.727203 196.627747,357.040497 
	C198.628769,355.809357 201.027008,355.223785 204.171219,353.966278 
	C203.326645,360.185303 202.622574,364.765961 202.103821,369.367493 
	C201.631378,373.558044 203.063339,376.250305 207.658661,377.293915 
	C214.415329,378.828400 222.575882,379.186096 227.290955,383.304810 
	C232.053528,387.465027 233.346756,395.598175 236.154877,401.993011 
	C236.488953,402.753784 236.796814,403.526306 237.108261,404.296814 
	C242.828979,418.449036 248.548416,432.601715 254.430176,447.155304 
	C259.095428,445.531036 263.534546,443.985504 268.296295,442.327667 
	C266.879700,438.986786 265.894531,436.165894 264.535706,433.538177 
	C254.527512,414.184387 244.450470,394.866150 234.382111,375.543488 
	C231.059875,369.167603 235.583267,361.482269 242.593582,361.712708 
	C254.751358,362.112366 266.931854,362.237701 279.053894,363.137573 
	C285.419373,363.610077 291.681061,365.480713 298.305023,366.781952 
	C295.831177,376.739685 293.519714,386.043884 291.101318,395.778381 
	C295.922394,396.998352 300.503632,398.157654 305.362030,399.387054 
	C307.931000,389.425964 310.355682,380.024353 312.868317,370.281647 
	C324.232269,372.579315 334.974182,374.747620 345.712921,376.931519 
	C346.351746,377.061432 347.426361,377.190216 347.520294,377.532806 
	C348.732635,381.953857 352.788727,381.737152 355.957062,382.487091 
	C361.937469,383.902710 368.029022,384.870209 374.101227,385.859222 
	C375.320435,386.057800 376.659088,385.522705 377.942688,385.325867 
	C375.296570,383.743958 372.686707,383.211700 370.208069,382.316223 
	C368.304840,381.628540 366.480865,380.616028 364.775360,379.510803 
	C362.073639,377.760010 359.751648,375.083649 356.828583,374.073914 
	C345.202118,370.057831 333.401093,366.548218 321.675171,362.818054 
	C319.680725,362.183594 317.737671,361.387634 315.658997,360.625244 
	C318.076538,350.849823 320.378113,341.543365 322.761749,331.905090 
	C317.694336,330.633179 313.089935,329.477478 308.147980,328.237091 
	C305.655579,337.877289 303.256256,347.157562 300.762817,356.801788 
	C294.266937,354.773895 288.013367,353.431366 282.282135,350.904205 
	C270.721924,345.806885 259.452942,340.050415 248.049271,334.596283 
	C242.645386,332.011719 242.429626,327.640991 247.434830,323.854218 
	C260.053802,314.306885 272.678070,304.764862 285.188324,295.076202 
	C293.722992,288.466461 302.069122,281.613281 310.927612,274.526489 
	C307.616150,270.703674 304.647552,267.276672 301.534424,263.682831 
	C298.939148,266.279327 296.945953,268.536987 294.688507,270.489136 
	C279.828369,283.339722 264.902863,296.114716 250.023315,308.942963 
	C248.140320,310.566345 246.617981,310.808716 243.959457,309.901764 
	C237.700592,307.766541 231.144760,306.467133 224.665283,305.026611 
	C221.019150,304.215973 218.686920,305.845337 217.455826,309.449036 
	C216.275406,312.904480 214.629547,316.198273 213.362778,319.627563 
	C211.833649,323.767120 209.416260,322.122681 207.164169,320.609314 
	C206.419449,320.108856 206.138428,318.931458 205.620346,318.078766 
	C188.854416,290.484100 172.087143,262.890198 155.309540,235.302643 
	C154.722214,234.336884 154.027267,233.436584 153.127533,232.137726 
	C149.533859,234.507706 146.132843,236.750641 143.443253,238.524384 
	C151.014069,249.557236 158.612442,259.886993 165.412094,270.718201 
	C174.953949,285.917542 183.901962,301.489685 192.775330,317.245026 
	C192.775330,317.245026 192.470139,317.608673 191.689148,317.558990 
M342.591797,149.711182 
	C336.284607,140.339096 330.185303,130.818634 323.625397,121.626907 
	C311.343628,104.417816 298.802032,87.394035 286.349823,70.306808 
	C284.443604,67.691040 282.109833,65.694679 278.795319,67.887306 
	C273.417755,71.444710 268.188293,75.226059 262.851227,78.944275 
	C278.206177,110.618629 292.154449,142.457642 313.881866,170.090393 
	C297.882568,183.412079 282.702057,196.052002 267.276703,208.895798 
	C261.392059,201.810013 255.892502,194.914871 250.036987,188.336578 
	C248.640320,186.767502 245.206924,184.866272 244.165237,185.501953 
	C239.915619,188.095306 236.220581,191.601822 232.374954,194.835831 
	C232.228943,194.958618 232.603592,195.754730 232.792526,196.213654 
	C236.450531,205.098602 240.117020,213.980072 243.808563,222.927170 
	C246.000000,222.632446 247.834183,222.385757 249.668365,222.139069 
	C249.797226,222.411942 249.926102,222.684814 250.054962,222.957687 
	C246.092102,226.142441 242.129242,229.327179 238.166367,232.511932 
	C238.264648,232.718918 238.362915,232.925919 238.461197,233.132904 
	C243.070221,230.903259 247.679245,228.673615 252.288254,226.443970 
	C252.495667,226.765701 252.703079,227.087433 252.910492,227.409164 
	C252.016525,228.898056 251.122574,230.386963 250.072067,232.136597 
	C256.579468,239.287933 262.985229,246.497513 269.660675,253.448120 
	C270.493317,254.315079 272.858368,254.212982 274.323639,253.831375 
	C275.856964,253.432037 277.157318,252.147110 278.566467,251.260376 
	C286.204376,246.454178 286.207703,246.454193 282.410553,238.104660 
	C279.142731,230.919144 275.868195,223.736710 272.511230,216.365402 
	C290.791595,207.420639 308.508820,198.751419 326.868439,189.767868 
	C343.310699,221.155060 366.770325,246.701645 389.416443,273.242371 
	C394.268402,270.377655 398.986298,267.633575 403.662415,264.820129 
	C408.919769,261.656982 409.482819,259.639038 406.271484,254.284943 
	C390.695099,228.315063 375.061127,202.379730 359.445496,176.433411 
	C358.522888,174.900421 357.582367,173.378204 356.547577,171.682938 
	C363.388977,166.247284 370.001068,161.191391 376.343628,155.817429 
	C377.955566,154.451660 379.989532,151.752182 379.604736,150.226761 
	C378.682556,146.571182 380.412811,144.739655 382.537994,142.584381 
	C383.507568,141.601074 384.038300,140.184998 385.485046,137.766907 
	C382.049774,138.459091 379.902313,139.024551 377.718567,139.281647 
	C376.424347,139.434021 374.631653,139.601898 373.826294,138.894257 
	C370.910370,136.332077 368.015198,136.826416 365.023163,138.334290 
	C357.745789,142.001801 350.505402,145.742645 342.591797,149.711182 
z"/>
<path fill="#040300" opacity="1.000000" stroke="none" 
	d="
M193.103973,316.902405 
	C183.901962,301.489685 174.953949,285.917542 165.412094,270.718201 
	C158.612442,259.886993 151.014069,249.557236 143.443253,238.524384 
	C146.132843,236.750641 149.533859,234.507706 153.127533,232.137726 
	C154.027267,233.436584 154.722214,234.336884 155.309540,235.302643 
	C172.087143,262.890198 188.854416,290.484100 205.620346,318.078766 
	C206.138428,318.931458 206.419449,320.108856 207.164169,320.609314 
	C209.416260,322.122681 211.833649,323.767120 213.362778,319.627563 
	C214.629547,316.198273 216.275406,312.904480 217.455826,309.449036 
	C218.686920,305.845337 221.019150,304.215973 224.665283,305.026611 
	C231.144760,306.467133 237.700592,307.766541 243.959457,309.901764 
	C246.617981,310.808716 248.140320,310.566345 250.023315,308.942963 
	C264.902863,296.114716 279.828369,283.339722 294.688507,270.489136 
	C296.945953,268.536987 298.939148,266.279327 301.534424,263.682831 
	C304.647552,267.276672 307.616150,270.703674 310.927612,274.526489 
	C302.069122,281.613281 293.722992,288.466461 285.188324,295.076202 
	C272.678070,304.764862 260.053802,314.306885 247.434830,323.854218 
	C242.429626,327.640991 242.645386,332.011719 248.049271,334.596283 
	C259.452942,340.050415 270.721924,345.806885 282.282135,350.904205 
	C288.013367,353.431366 294.266937,354.773895 300.762817,356.801788 
	C303.256256,347.157562 305.655579,337.877289 308.147980,328.237091 
	C313.089935,329.477478 317.694336,330.633179 322.761749,331.905090 
	C320.378113,341.543365 318.076538,350.849823 315.658997,360.625244 
	C317.737671,361.387634 319.680725,362.183594 321.675171,362.818054 
	C333.401093,366.548218 345.202118,370.057831 356.828583,374.073914 
	C359.751648,375.083649 362.073639,377.760010 364.775360,379.510803 
	C366.480865,380.616028 368.304840,381.628540 370.208069,382.316223 
	C372.686707,383.211700 375.296570,383.743958 377.942688,385.325867 
	C376.659088,385.522705 375.320435,386.057800 374.101227,385.859222 
	C368.029022,384.870209 361.937469,383.902710 355.957062,382.487091 
	C352.788727,381.737152 348.732635,381.953857 347.520294,377.532806 
	C347.426361,377.190216 346.351746,377.061432 345.712921,376.931519 
	C334.974182,374.747620 324.232269,372.579315 312.868317,370.281647 
	C310.355682,380.024353 307.931000,389.425964 305.362030,399.387054 
	C300.503632,398.157654 295.922394,396.998352 291.101318,395.778381 
	C293.519714,386.043884 295.831177,376.739685 298.305023,366.781952 
	C291.681061,365.480713 285.419373,363.610077 279.053894,363.137573 
	C266.931854,362.237701 254.751358,362.112366 242.593582,361.712708 
	C235.583267,361.482269 231.059875,369.167603 234.382111,375.543488 
	C244.450470,394.866150 254.527512,414.184387 264.535706,433.538177 
	C265.894531,436.165894 266.879700,438.986786 268.296295,442.327667 
	C263.534546,443.985504 259.095428,445.531036 254.430176,447.155304 
	C248.548416,432.601715 242.828979,418.449036 237.108261,404.296814 
	C236.796814,403.526306 236.488953,402.753784 236.154877,401.993011 
	C233.346756,395.598175 232.053528,387.465027 227.290955,383.304810 
	C222.575882,379.186096 214.415329,378.828400 207.658661,377.293915 
	C203.063339,376.250305 201.631378,373.558044 202.103821,369.367493 
	C202.622574,364.765961 203.326645,360.185303 204.171219,353.966278 
	C201.027008,355.223785 198.628769,355.809357 196.627747,357.040497 
	C174.382217,370.727203 152.273148,384.637390 129.944977,398.186890 
	C124.327995,401.595428 118.062180,403.934753 111.895164,406.860046 
	C109.748260,402.340210 107.908203,398.466370 105.876205,394.188446 
	C134.757935,383.181580 161.700272,368.501190 189.037109,351.902466 
	C185.011902,350.787231 181.946945,349.990570 178.913391,349.088318 
	C166.806091,345.487274 154.689896,341.914154 142.614380,338.208893 
	C135.367310,335.985168 129.761139,331.298553 124.952255,325.624084 
	C120.769890,320.688843 122.018196,314.760193 127.921783,312.053223 
	C137.336197,307.736481 147.141083,307.041779 157.202789,309.436737 
	C168.691742,312.171478 180.193146,314.853851 192.298477,317.687256 
	C193.193176,317.713806 193.478531,317.612061 193.763901,317.510345 
	C193.543930,317.307678 193.323959,317.105042 193.103973,316.902405 
z"/>
<path fill="#020200" opacity="1.000000" stroke="none" 
	d="
M342.920959,149.582565 
	C350.505402,145.742645 357.745789,142.001801 365.023163,138.334290 
	C368.015198,136.826416 370.910370,136.332077 373.826294,138.894257 
	C374.631653,139.601898 376.424347,139.434021 377.718567,139.281647 
	C379.902313,139.024551 382.049774,138.459091 385.485046,137.766907 
	C384.038300,140.184998 383.507568,141.601074 382.537994,142.584381 
	C380.412811,144.739655 378.682556,146.571182 379.604736,150.226761 
	C379.989532,151.752182 377.955566,154.451660 376.343628,155.817429 
	C370.001068,161.191391 363.388977,166.247284 356.547577,171.682938 
	C357.582367,173.378204 358.522888,174.900421 359.445496,176.433411 
	C375.061127,202.379730 390.695099,228.315063 406.271484,254.284943 
	C409.482819,259.639038 408.919769,261.656982 403.662415,264.820129 
	C398.986298,267.633575 394.268402,270.377655 389.416443,273.242371 
	C366.770325,246.701645 343.310699,221.155060 326.868439,189.767868 
	C308.508820,198.751419 290.791595,207.420639 272.511230,216.365402 
	C275.868195,223.736710 279.142731,230.919144 282.410553,238.104660 
	C286.207703,246.454193 286.204376,246.454178 278.566467,251.260376 
	C277.157318,252.147110 275.856964,253.432037 274.323639,253.831375 
	C272.858368,254.212982 270.493317,254.315079 269.660675,253.448120 
	C262.985229,246.497513 256.579468,239.287933 250.072067,232.136597 
	C251.122574,230.386963 252.016525,228.898056 252.910492,227.409164 
	C252.703079,227.087433 252.495667,226.765701 252.288254,226.443970 
	C247.679245,228.673615 243.070221,230.903259 238.461197,233.132904 
	C238.362915,232.925919 238.264648,232.718918 238.166367,232.511932 
	C242.129242,229.327179 246.092102,226.142441 250.054962,222.957687 
	C249.926102,222.684814 249.797226,222.411942 249.668365,222.139069 
	C247.834183,222.385757 246.000000,222.632446 243.808563,222.927170 
	C240.117020,213.980072 236.450531,205.098602 232.792526,196.213654 
	C232.603592,195.754730 232.228943,194.958618 232.374954,194.835831 
	C236.220581,191.601822 239.915619,188.095306 244.165237,185.501953 
	C245.206924,184.866272 248.640320,186.767502 250.036987,188.336578 
	C255.892502,194.914871 261.392059,201.810013 267.276703,208.895798 
	C282.702057,196.052002 297.882568,183.412079 313.881866,170.090393 
	C292.154449,142.457642 278.206177,110.618629 262.851227,78.944275 
	C268.188293,75.226059 273.417755,71.444710 278.795319,67.887306 
	C282.109833,65.694679 284.443604,67.691040 286.349823,70.306808 
	C298.802032,87.394035 311.343628,104.417816 323.625397,121.626907 
	C330.185303,130.818634 336.284607,140.339096 342.920959,149.582565 
z"/>
<path fill="#E7BD1F" opacity="1.000000" stroke="none" 
	d="
M192.939651,317.073730 
	C193.323959,317.105042 193.543930,317.307678 193.763901,317.510345 
	C193.478531,317.612061 193.193176,317.713806 192.688965,317.712097 
	C192.470139,317.608673 192.775330,317.245026 192.939651,317.073730 
z"/>
</svg>