<svg xmlns="http://www.w3.org/2000/svg" width="256" height="256" viewBox="0 0 256 256" version="1.1">
<g id="surface1">
<path style=" stroke:none;fill-rule:nonzero;fill:rgb(0%,49.803922%,90.980392%);fill-opacity:1;" d="M 179.199219 0 C 151.402344 0 104.53125 0 76.796875 0 C 49.0625 0 33.96875 0 17.070312 17.070312 C 0.167969 34.136719 0 49.066406 0 76.800781 C 0 104.535156 0 151.46875 0 179.203125 C 0 206.9375 0.167969 221.867188 17.070312 238.9375 C 33.96875 256.003906 49.070312 256.003906 76.800781 256.003906 C 104.53125 256.003906 151.46875 256.003906 179.203125 256.003906 C 206.9375 256.003906 223.988281 256.003906 238.9375 238.9375 C 253.882812 221.867188 256.003906 206.933594 256.003906 179.203125 C 256.003906 151.472656 256.003906 104.535156 256.003906 76.800781 C 256.003906 49.066406 255.875 34.136719 238.9375 17.070312 C 222 0 206.992188 0 179.199219 0 Z M 179.199219 0 "/>
<path style=" stroke:none;fill-rule:nonzero;fill:rgb(100%,100%,100%);fill-opacity:1;" d="M 91.738281 126.691406 L 68.910156 126.691406 L 68.910156 111 L 100.488281 111 C 104.980469 103.890625 110.003906 96.957031 115.671875 90.078125 L 47.417969 90.078125 L 47.417969 165.929688 L 68.90625 165.929688 L 68.90625 147.617188 L 83.765625 147.617188 C 85.898438 140.316406 88.542969 133.363281 91.738281 126.691406 Z M 91.738281 126.691406 "/>
<path style=" stroke:none;fill-rule:nonzero;fill:rgb(100%,100%,100%);fill-opacity:1;" d="M 173.023438 90.074219 L 159.160156 130.554688 L 145.667969 90.074219 L 123.972656 90.074219 C 112.300781 108.863281 109.195312 141.609375 109.195312 165.925781 L 130.683594 165.925781 L 130.683594 115.433594 L 148.726562 165.925781 L 169.585938 165.925781 L 187.210938 115.433594 L 187.210938 165.925781 L 208.578125 165.925781 L 208.578125 90.074219 Z M 173.023438 90.074219 "/>
</g>
</svg>
