<svg id="svg" version="1.1" xmlns="http://www.w3.org/2000/svg" xmlns:xlink="http://www.w3.org/1999/xlink" width="400" height="400" viewBox="0, 0, 400,400"><g id="svgg"><path id="path0" d="M190.800 47.181 C 181.792 47.837,175.140 49.177,165.800 52.216 C 161.147 53.730,156.365 55.571,155.820 56.060 C 155.611 56.247,155.116 56.400,154.720 56.400 C 154.324 56.400,154.000 56.580,154.000 56.800 C 154.000 57.020,153.676 57.200,153.280 57.200 C 152.884 57.200,152.389 57.355,152.180 57.544 C 151.971 57.734,150.450 58.605,148.800 59.480 C 139.501 64.412,131.595 70.132,124.045 77.390 C 119.703 81.565,114.243 87.787,111.395 91.806 C 110.306 93.343,109.277 94.660,109.107 94.733 C 108.938 94.807,108.800 95.042,108.800 95.255 C 108.800 95.469,108.109 96.669,107.264 97.922 C 105.925 99.906,104.370 102.654,101.560 108.000 C 99.534 111.856,96.062 120.790,94.759 125.500 C 94.562 126.215,94.206 127.475,93.970 128.300 C 93.562 129.723,93.344 130.662,92.393 135.100 C 89.929 146.596,89.642 160.004,91.616 171.400 C 91.844 172.720,92.133 174.476,92.258 175.303 C 92.383 176.129,92.645 176.905,92.842 177.026 C 93.039 177.148,93.200 177.629,93.200 178.095 C 93.200 178.562,93.380 179.496,93.600 180.172 C 93.820 180.847,94.434 182.750,94.964 184.400 C 97.387 191.941,103.873 205.702,107.247 210.462 C 107.661 211.046,108.000 211.636,108.000 211.774 C 108.000 212.438,118.592 227.571,121.877 231.600 C 122.146 231.930,122.930 232.920,123.618 233.799 C 125.567 236.288,133.170 245.236,133.986 246.000 C 135.294 247.225,141.982 255.245,147.329 262.000 C 157.705 275.108,171.047 297.984,179.523 317.200 C 181.936 322.671,186.891 335.040,187.854 338.000 C 188.177 338.990,188.599 340.160,188.794 340.600 C 188.988 341.040,189.376 342.120,189.655 343.000 C 189.935 343.880,190.307 344.771,190.482 344.980 C 190.657 345.189,190.800 345.686,190.800 346.085 C 190.800 346.484,190.947 347.123,191.128 347.505 C 193.966 353.524,195.341 354.571,200.400 354.571 C 206.162 354.571,207.919 352.785,210.800 344.000 C 211.269 342.570,211.803 341.040,211.986 340.600 C 212.169 340.160,212.536 339.170,212.800 338.400 C 213.064 337.630,213.426 336.640,213.603 336.200 C 213.780 335.760,214.692 333.420,215.630 331.000 C 217.324 326.628,220.269 319.479,221.479 316.800 C 227.237 304.057,234.774 289.754,239.675 282.272 C 240.514 280.991,241.200 279.861,241.200 279.760 C 241.200 279.522,247.413 270.229,248.795 268.400 C 249.376 267.630,250.915 265.560,252.214 263.800 C 254.453 260.767,258.907 255.104,259.791 254.166 C 260.016 253.928,261.010 252.760,262.000 251.572 C 263.528 249.739,266.937 245.860,267.601 245.200 C 269.737 243.075,279.836 230.622,283.656 225.400 C 286.464 221.563,293.281 211.401,293.719 210.400 C 293.864 210.070,294.523 208.900,295.184 207.800 C 299.603 200.445,304.909 188.361,306.863 181.200 C 307.073 180.430,307.429 179.170,307.653 178.400 C 312.330 162.335,311.252 140.660,304.829 121.600 C 302.136 113.610,297.370 103.391,294.353 99.138 C 293.939 98.554,293.600 97.879,293.600 97.638 C 293.600 97.397,293.450 97.200,293.268 97.200 C 293.085 97.200,292.680 96.705,292.368 96.100 C 292.056 95.495,291.705 94.910,291.587 94.800 C 291.469 94.690,290.522 93.395,289.481 91.921 C 275.671 72.363,254.309 57.618,229.400 50.454 C 219.583 47.630,203.437 46.262,190.800 47.181 M206.981 120.208 C 210.643 120.846,216.262 122.798,218.062 124.057 C 218.646 124.466,219.243 124.800,219.390 124.800 C 220.100 124.800,223.735 127.700,226.638 130.584 C 246.131 149.946,238.266 183.355,212.200 191.913 C 203.051 194.917,194.214 194.530,185.704 190.753 C 184.772 190.339,183.915 190.000,183.801 190.000 C 179.812 190.000,165.642 174.098,165.605 169.580 C 165.602 169.239,165.449 168.789,165.264 168.580 C 165.080 168.371,164.705 167.120,164.431 165.800 C 164.158 164.480,163.769 162.645,163.567 161.723 C 163.076 159.479,163.101 153.606,163.611 151.277 C 163.838 150.245,164.222 148.500,164.466 147.400 C 165.678 141.931,169.493 135.266,173.979 130.777 C 176.529 128.226,180.768 124.800,181.375 124.800 C 181.541 124.800,182.154 124.466,182.738 124.057 C 187.754 120.549,198.842 118.789,206.981 120.208 " stroke="none" fill="#047cfb" fill-rule="evenodd"></path><path id="path1" d="M22.500 0.291 C 21.565 0.376,20.800 0.616,20.800 0.823 C 20.800 1.030,20.451 1.200,20.024 1.200 C 19.597 1.200,19.136 1.380,19.000 1.600 C 18.864 1.820,18.313 2.000,17.776 2.000 C 17.239 2.000,16.800 2.180,16.800 2.400 C 16.800 2.620,16.480 2.800,16.088 2.800 C 15.697 2.800,15.117 3.160,14.800 3.600 C 14.483 4.040,13.943 4.400,13.600 4.400 C 13.257 4.400,12.717 4.760,12.400 5.200 C 12.083 5.640,11.638 6.003,11.412 6.008 C 10.897 6.017,6.000 10.941,6.000 11.450 C 6.000 11.655,5.640 12.083,5.200 12.400 C 4.760 12.717,4.400 13.257,4.400 13.600 C 4.400 13.943,4.040 14.483,3.600 14.800 C 3.160 15.117,2.800 15.697,2.800 16.088 C 2.800 16.480,2.620 16.800,2.400 16.800 C 2.180 16.800,2.000 17.239,2.000 17.776 C 2.000 18.313,1.820 18.864,1.600 19.000 C 1.380 19.136,1.200 19.582,1.200 19.990 C 1.200 20.399,0.975 20.808,0.700 20.900 C -0.036 21.145,-0.036 378.855,0.700 379.100 C 0.975 379.192,1.200 379.601,1.200 380.010 C 1.200 380.418,1.380 380.864,1.600 381.000 C 1.820 381.136,2.000 381.687,2.000 382.224 C 2.000 382.761,2.180 383.200,2.400 383.200 C 2.620 383.200,2.800 383.520,2.800 383.912 C 2.800 384.303,3.160 384.883,3.600 385.200 C 4.040 385.517,4.400 386.057,4.400 386.400 C 4.400 386.743,4.760 387.283,5.200 387.600 C 5.640 387.917,6.003 388.362,6.008 388.588 C 6.017 389.103,10.941 394.000,11.450 394.000 C 11.655 394.000,12.083 394.360,12.400 394.800 C 12.717 395.240,13.257 395.600,13.600 395.600 C 13.943 395.600,14.483 395.960,14.800 396.400 C 15.117 396.840,15.697 397.200,16.088 397.200 C 16.480 397.200,16.800 397.380,16.800 397.600 C 16.800 397.820,17.239 398.000,17.776 398.000 C 18.313 398.000,18.864 398.180,19.000 398.400 C 19.136 398.620,19.582 398.800,19.990 398.800 C 20.399 398.800,20.808 399.025,20.900 399.300 C 21.145 400.036,378.855 400.036,379.100 399.300 C 379.192 399.025,379.601 398.800,380.010 398.800 C 380.418 398.800,380.864 398.620,381.000 398.400 C 381.136 398.180,381.687 398.000,382.224 398.000 C 382.761 398.000,383.200 397.820,383.200 397.600 C 383.200 397.380,383.520 397.200,383.912 397.200 C 384.303 397.200,384.883 396.840,385.200 396.400 C 385.517 395.960,386.057 395.600,386.400 395.600 C 386.743 395.600,387.283 395.240,387.600 394.800 C 387.917 394.360,388.322 394.000,388.499 394.000 C 388.856 394.000,391.379 391.819,392.367 390.655 C 392.715 390.246,393.225 389.674,393.500 389.384 C 393.775 389.094,394.000 388.704,394.000 388.517 C 394.000 388.330,394.360 387.917,394.800 387.600 C 395.240 387.283,395.600 386.743,395.600 386.400 C 395.600 386.057,395.960 385.517,396.400 385.200 C 396.840 384.883,397.200 384.303,397.200 383.912 C 397.200 383.520,397.380 383.200,397.600 383.200 C 397.820 383.200,398.000 382.761,398.000 382.224 C 398.000 381.687,398.180 381.136,398.400 381.000 C 398.620 380.864,398.800 380.418,398.800 380.010 C 398.800 379.601,399.025 379.192,399.300 379.100 C 400.036 378.855,400.036 21.145,399.300 20.900 C 399.025 20.808,398.800 20.399,398.800 19.990 C 398.800 19.582,398.620 19.136,398.400 19.000 C 398.180 18.864,398.000 18.313,398.000 17.776 C 398.000 17.239,397.820 16.800,397.600 16.800 C 397.380 16.800,397.200 16.480,397.200 16.088 C 397.200 15.697,396.840 15.117,396.400 14.800 C 395.960 14.483,395.600 13.943,395.600 13.600 C 395.600 13.257,395.240 12.717,394.800 12.400 C 394.360 12.083,394.000 11.655,394.000 11.450 C 394.000 10.941,389.103 6.017,388.588 6.008 C 388.362 6.003,387.917 5.640,387.600 5.200 C 387.283 4.760,386.743 4.400,386.400 4.400 C 386.057 4.400,385.517 4.040,385.200 3.600 C 384.883 3.160,384.303 2.800,383.912 2.800 C 383.520 2.800,383.200 2.620,383.200 2.400 C 383.200 2.180,382.838 2.000,382.395 2.000 C 381.646 2.000,381.064 1.767,379.000 0.638 C 378.243 0.224,26.994 -0.118,22.500 0.291 M209.782 46.424 C 224.846 47.869,236.465 51.049,248.800 57.105 C 252.889 59.112,259.865 63.009,260.400 63.585 C 260.510 63.703,261.050 64.050,261.600 64.355 C 262.150 64.661,264.580 66.396,267.000 68.212 C 275.078 74.275,282.344 81.455,288.229 89.192 C 289.313 90.617,290.515 92.136,290.900 92.567 C 291.285 92.998,291.600 93.504,291.600 93.692 C 291.600 93.880,291.960 94.420,292.400 94.892 C 292.840 95.364,293.200 95.987,293.200 96.275 C 293.200 96.564,293.350 96.800,293.532 96.800 C 293.715 96.800,294.115 97.295,294.420 97.900 C 294.726 98.505,295.449 99.720,296.028 100.600 C 297.190 102.365,301.397 110.768,302.537 113.600 C 302.936 114.590,303.410 115.760,303.591 116.200 C 303.771 116.640,304.136 117.630,304.400 118.400 C 304.901 119.859,305.196 120.644,305.950 122.519 C 306.198 123.134,306.400 124.069,306.400 124.595 C 306.400 125.122,306.559 125.651,306.754 125.771 C 306.949 125.892,307.207 126.487,307.329 127.095 C 307.451 127.703,307.753 129.010,308.000 130.000 C 308.432 131.728,308.720 133.110,309.605 137.700 C 310.580 142.761,310.973 147.976,310.982 156.000 C 310.992 164.003,310.747 166.961,309.594 172.800 C 309.355 174.010,309.059 175.676,308.937 176.503 C 308.815 177.329,308.555 178.105,308.358 178.226 C 308.161 178.348,308.000 178.889,308.000 179.429 C 308.000 179.969,307.838 180.723,307.639 181.105 C 307.440 181.487,307.060 182.610,306.793 183.600 C 306.340 185.285,306.164 185.794,305.239 188.100 C 305.040 188.595,304.472 190.080,303.975 191.400 C 302.830 194.443,298.005 204.368,296.391 207.000 C 295.716 208.100,295.062 209.315,294.936 209.700 C 294.810 210.085,294.548 210.400,294.353 210.400 C 294.159 210.400,294.000 210.593,294.000 210.828 C 294.000 211.063,293.460 212.041,292.800 213.000 C 292.140 213.959,291.600 214.903,291.600 215.097 C 291.600 215.291,291.285 215.808,290.900 216.246 C 290.515 216.685,290.020 217.326,289.800 217.671 C 287.729 220.916,280.008 231.466,277.822 234.037 C 277.150 234.828,276.330 235.821,276.000 236.243 C 274.704 237.904,271.727 241.454,270.346 242.987 C 269.546 243.874,267.408 246.310,265.594 248.400 C 263.781 250.490,261.734 252.830,261.045 253.600 C 260.355 254.370,259.168 255.810,258.406 256.800 C 257.644 257.790,256.915 258.690,256.786 258.800 C 256.343 259.176,249.174 268.921,248.500 270.061 C 248.130 270.688,247.686 271.200,247.514 271.200 C 247.341 271.200,247.200 271.442,247.200 271.738 C 247.200 272.034,246.840 272.602,246.400 273.000 C 245.960 273.398,245.593 273.921,245.584 274.162 C 245.575 274.403,245.035 275.223,244.384 275.985 C 243.733 276.747,243.200 277.602,243.200 277.885 C 243.200 278.168,243.020 278.400,242.800 278.400 C 242.580 278.400,242.400 278.593,242.400 278.828 C 242.400 279.063,241.882 280.009,241.248 280.930 C 240.615 281.851,239.734 283.233,239.292 284.002 C 238.850 284.771,237.543 287.020,236.389 289.000 C 232.573 295.545,227.015 306.316,223.487 314.000 C 221.527 318.270,220.400 320.826,220.400 321.000 C 220.400 321.097,219.977 322.127,219.459 323.288 C 218.465 325.520,214.867 334.690,213.529 338.400 C 213.093 339.610,212.570 340.913,212.368 341.295 C 212.166 341.677,212.000 342.264,212.000 342.600 C 212.000 343.193,211.834 343.616,210.862 345.495 C 210.608 345.987,210.400 346.664,210.400 347.000 C 210.400 347.336,210.241 347.923,210.047 348.305 C 209.852 348.687,209.456 349.540,209.166 350.200 C 206.087 357.214,194.875 357.208,191.653 350.191 C 191.353 349.536,190.948 348.687,190.753 348.305 C 190.559 347.923,190.400 347.284,190.400 346.885 C 190.400 346.486,190.257 345.989,190.082 345.780 C 189.907 345.571,189.535 344.680,189.255 343.800 C 188.976 342.920,188.591 341.840,188.400 341.400 C 188.210 340.960,187.478 338.980,186.773 337.000 C 185.563 333.596,182.978 326.950,181.757 324.100 C 181.451 323.385,180.930 322.170,180.600 321.400 C 180.270 320.630,179.711 319.325,179.358 318.500 C 177.950 315.208,177.162 313.531,173.949 307.000 C 169.793 298.551,164.646 288.903,163.139 286.738 C 162.733 286.154,162.400 285.561,162.400 285.420 C 162.400 285.279,161.500 283.830,160.400 282.200 C 159.300 280.570,158.400 279.124,158.400 278.986 C 158.400 278.715,154.085 272.282,152.373 270.000 C 151.795 269.230,149.729 266.440,147.781 263.800 C 145.833 261.160,144.141 258.910,144.020 258.800 C 143.899 258.690,143.175 257.790,142.412 256.800 C 141.648 255.810,140.459 254.370,139.769 253.600 C 139.079 252.830,137.029 250.490,135.212 248.400 C 133.395 246.310,131.434 244.055,130.854 243.390 C 124.208 235.762,117.408 227.059,113.202 220.800 C 112.242 219.370,111.308 218.140,111.128 218.067 C 110.947 217.993,110.800 217.760,110.800 217.549 C 110.800 217.337,109.900 215.830,108.800 214.200 C 107.700 212.570,106.800 211.121,106.800 210.980 C 106.800 210.839,106.461 210.246,106.046 209.662 C 104.542 207.543,100.942 200.741,99.028 196.400 C 98.204 194.530,97.185 192.237,96.765 191.304 C 96.344 190.372,96.000 189.347,96.000 189.028 C 96.000 188.709,95.820 188.336,95.600 188.200 C 95.380 188.064,95.200 187.549,95.200 187.056 C 95.200 186.563,95.051 185.989,94.870 185.780 C 94.688 185.571,94.310 184.590,94.031 183.600 C 93.751 182.610,93.360 181.487,93.161 181.105 C 92.962 180.723,92.800 179.969,92.800 179.429 C 92.800 178.889,92.639 178.348,92.442 178.226 C 92.245 178.105,91.985 177.329,91.863 176.503 C 91.741 175.676,91.445 174.010,91.206 172.800 C 90.055 166.970,89.808 163.995,89.814 156.000 C 89.820 148.074,90.122 144.155,91.218 137.800 C 91.445 136.480,91.733 134.680,91.857 133.800 C 91.981 132.920,92.244 132.029,92.441 131.820 C 92.638 131.611,92.800 130.857,92.800 130.144 C 92.800 129.431,92.980 128.736,93.200 128.600 C 93.420 128.464,93.600 127.834,93.600 127.200 C 93.600 126.566,93.780 125.936,94.000 125.800 C 94.220 125.664,94.400 125.034,94.400 124.400 C 94.400 123.766,94.580 123.136,94.800 123.000 C 95.020 122.864,95.200 122.401,95.200 121.971 C 95.200 121.541,95.366 120.877,95.569 120.495 C 95.772 120.113,96.523 118.270,97.239 116.400 C 99.857 109.559,106.134 97.358,107.287 96.867 C 107.459 96.793,107.600 96.512,107.600 96.242 C 107.600 95.972,107.922 95.402,108.317 94.975 C 108.711 94.549,109.645 93.300,110.393 92.200 C 116.029 83.908,125.050 74.758,134.736 67.510 C 137.301 65.591,139.610 64.016,139.867 64.010 C 140.123 64.005,140.393 63.861,140.467 63.690 C 140.898 62.688,153.555 56.081,159.800 53.598 C 174.794 47.638,193.877 44.898,209.782 46.424 M192.800 121.004 C 157.417 129.046,153.692 177.219,187.400 190.824 C 187.840 191.002,188.875 191.339,189.700 191.574 C 190.525 191.808,191.875 192.211,192.700 192.469 C 194.679 193.087,206.121 193.087,208.100 192.469 C 208.925 192.211,210.275 191.808,211.100 191.574 C 220.077 189.022,228.662 181.799,233.041 173.115 C 240.782 157.765,235.868 136.740,222.400 127.590 C 221.630 127.067,220.910 126.540,220.800 126.419 C 220.124 125.678,214.801 123.034,212.400 122.247 C 206.686 120.373,198.000 119.822,192.800 121.004 " stroke="none" fill="#fbe404" fill-rule="evenodd"></path><path id="path2" d="M192.000 46.360 C 191.010 46.492,194.790 46.600,200.400 46.600 C 206.010 46.600,209.700 46.481,208.600 46.335 C 206.158 46.011,194.483 46.029,192.000 46.360 M184.000 47.220 C 183.326 47.449,183.651 47.484,185.000 47.328 C 186.100 47.201,187.075 47.031,187.167 46.949 C 187.482 46.668,184.999 46.880,184.000 47.220 M213.633 46.949 C 213.725 47.031,214.700 47.201,215.800 47.328 C 217.149 47.484,217.474 47.449,216.800 47.220 C 215.801 46.880,213.318 46.668,213.633 46.949 M179.200 48.000 C 178.408 48.254,178.367 48.320,179.000 48.320 C 179.440 48.320,180.250 48.176,180.800 48.000 C 181.592 47.746,181.633 47.680,181.000 47.680 C 180.560 47.680,179.750 47.824,179.200 48.000 M220.000 48.000 C 220.550 48.176,221.360 48.320,221.800 48.320 C 222.433 48.320,222.392 48.254,221.600 48.000 C 221.050 47.824,220.240 47.680,219.800 47.680 C 219.167 47.680,219.208 47.746,220.000 48.000 M175.400 48.800 C 174.896 49.017,174.822 49.144,175.200 49.144 C 175.530 49.144,176.160 48.989,176.600 48.800 C 177.104 48.583,177.178 48.456,176.800 48.456 C 176.470 48.456,175.840 48.611,175.400 48.800 M224.200 48.800 C 224.640 48.989,225.270 49.144,225.600 49.144 C 225.978 49.144,225.904 49.017,225.400 48.800 C 224.960 48.611,224.330 48.456,224.000 48.456 C 223.622 48.456,223.696 48.583,224.200 48.800 M172.200 49.600 C 171.696 49.817,171.622 49.944,172.000 49.944 C 172.330 49.944,172.960 49.789,173.400 49.600 C 173.904 49.383,173.978 49.256,173.600 49.256 C 173.270 49.256,172.640 49.411,172.200 49.600 M227.400 49.600 C 227.840 49.789,228.470 49.944,228.800 49.944 C 229.178 49.944,229.104 49.817,228.600 49.600 C 228.160 49.411,227.530 49.256,227.200 49.256 C 226.822 49.256,226.896 49.383,227.400 49.600 M169.200 50.400 C 168.376 50.664,168.341 50.726,169.000 50.754 C 169.440 50.773,170.070 50.613,170.400 50.400 C 171.101 49.947,170.614 49.947,169.200 50.400 M230.400 50.382 C 230.730 50.605,231.345 50.791,231.767 50.794 C 232.790 50.802,232.471 50.573,231.000 50.244 C 230.124 50.048,229.962 50.085,230.400 50.382 M164.400 51.864 C 162.226 52.591,155.594 55.328,155.715 55.448 C 155.835 55.568,161.604 53.419,165.000 51.991 C 165.859 51.630,165.394 51.531,164.400 51.864 M235.800 51.976 C 236.240 52.171,238.580 53.095,241.000 54.029 C 243.420 54.963,245.580 55.851,245.800 56.002 C 246.383 56.402,247.600 56.804,247.600 56.597 C 247.600 56.208,238.132 52.292,236.179 51.874 C 235.307 51.687,235.208 51.714,235.800 51.976 M145.100 60.629 C 143.605 61.440,143.696 61.778,145.200 61.000 C 145.860 60.659,146.400 60.294,146.400 60.190 C 146.400 59.932,146.357 59.947,145.100 60.629 M254.400 60.179 C 254.400 60.289,254.940 60.659,255.600 61.000 C 256.260 61.341,256.800 61.531,256.800 61.421 C 256.800 61.311,256.260 60.941,255.600 60.600 C 254.940 60.259,254.400 60.069,254.400 60.179 M141.300 62.888 C 140.805 63.127,140.400 63.479,140.400 63.670 C 140.400 63.862,140.850 63.724,141.400 63.363 C 142.867 62.402,142.816 62.157,141.300 62.888 M258.400 62.563 C 258.400 62.643,258.850 63.003,259.400 63.363 C 259.950 63.724,260.400 63.863,260.400 63.673 C 260.400 63.484,259.950 63.123,259.400 62.873 C 258.850 62.622,258.400 62.483,258.400 62.563 M137.800 65.232 C 135.251 67.159,135.203 67.428,137.700 65.793 C 138.965 64.964,140.000 64.222,140.000 64.143 C 140.000 63.763,139.257 64.130,137.800 65.232 M262.407 65.101 C 262.415 65.406,266.400 68.141,266.400 67.841 C 266.400 67.750,265.500 67.028,264.400 66.238 C 263.300 65.448,262.403 64.936,262.407 65.101 M132.600 69.066 C 129.815 71.229,127.103 73.600,127.411 73.600 C 127.528 73.600,128.748 72.655,130.123 71.500 C 131.497 70.345,133.247 68.913,134.011 68.319 C 134.775 67.724,135.310 67.229,135.200 67.219 C 135.090 67.209,133.920 68.040,132.600 69.066 M266.800 68.133 C 266.800 68.243,267.520 68.903,268.400 69.600 C 269.280 70.297,270.000 70.777,270.000 70.667 C 270.000 70.557,269.280 69.897,268.400 69.200 C 267.520 68.503,266.800 68.023,266.800 68.133 M271.288 71.813 C 271.886 72.443,272.447 72.877,272.535 72.779 C 272.623 72.680,272.133 72.165,271.447 71.634 L 270.200 70.669 271.288 71.813 M276.311 76.404 C 277.691 77.783,278.898 78.835,278.993 78.741 C 279.087 78.646,277.957 77.518,276.482 76.232 L 273.800 73.895 276.311 76.404 M122.692 77.825 C 119.785 80.694,114.715 86.287,113.816 87.615 C 113.587 87.954,114.202 87.324,115.182 86.215 C 116.162 85.107,119.033 82.085,121.561 79.500 C 126.684 74.261,127.448 73.129,122.692 77.825 M281.400 81.657 C 282.720 83.069,283.869 84.180,283.953 84.126 C 284.177 83.982,279.974 79.427,279.448 79.244 C 279.201 79.159,280.080 80.244,281.400 81.657 M285.755 86.519 C 286.603 87.553,287.380 88.400,287.482 88.400 C 287.755 88.400,285.221 85.260,284.677 84.924 C 284.422 84.766,284.907 85.484,285.755 86.519 M112.344 89.500 C 111.193 90.889,110.706 91.600,110.904 91.600 C 111.014 91.600,111.586 90.970,112.173 90.200 C 113.263 88.771,113.395 88.232,112.344 89.500 M290.645 93.012 C 291.010 93.569,291.386 93.947,291.482 93.851 C 291.719 93.614,290.684 92.000,290.295 92.000 C 290.122 92.000,290.280 92.456,290.645 93.012 M108.057 95.257 C 107.775 95.709,107.632 96.166,107.740 96.273 C 107.847 96.381,108.144 96.078,108.400 95.600 C 109.005 94.470,108.724 94.190,108.057 95.257 M105.353 99.700 C 103.976 102.036,103.886 102.235,104.587 101.400 C 105.400 100.432,106.100 99.200,105.838 99.200 C 105.733 99.200,105.515 99.425,105.353 99.700 M295.960 101.000 C 296.634 102.305,297.188 103.028,297.185 102.600 C 297.183 102.380,296.814 101.750,296.364 101.200 C 295.821 100.536,295.685 100.469,295.960 101.000 M101.849 105.946 C 100.832 107.916,100.006 109.678,100.013 109.864 C 100.020 110.049,100.912 108.498,101.996 106.417 C 103.080 104.336,103.907 102.573,103.833 102.500 C 103.759 102.426,102.867 103.977,101.849 105.946 M298.000 104.800 C 298.449 105.680,298.906 106.400,299.016 106.400 C 299.126 106.400,298.849 105.680,298.400 104.800 C 297.951 103.920,297.494 103.200,297.384 103.200 C 297.274 103.200,297.551 103.920,298.000 104.800 M300.034 108.600 C 300.034 108.820,300.378 109.630,300.800 110.400 C 301.222 111.170,301.566 111.620,301.566 111.400 C 301.566 111.180,301.222 110.370,300.800 109.600 C 300.378 108.830,300.034 108.380,300.034 108.600 M198.500 120.294 C 199.545 120.376,201.255 120.376,202.300 120.294 C 203.345 120.212,202.490 120.144,200.400 120.144 C 198.310 120.144,197.455 120.212,198.500 120.294 M192.400 120.800 C 191.608 121.054,191.567 121.120,192.200 121.120 C 192.640 121.120,193.450 120.976,194.000 120.800 C 194.792 120.546,194.833 120.480,194.200 120.480 C 193.760 120.480,192.950 120.624,192.400 120.800 M206.800 120.800 C 207.350 120.976,208.160 121.120,208.600 121.120 C 209.233 121.120,209.192 121.054,208.400 120.800 C 207.850 120.624,207.040 120.480,206.600 120.480 C 205.967 120.480,206.008 120.546,206.800 120.800 M179.896 126.208 C 178.413 127.203,177.200 128.104,177.200 128.212 C 177.200 128.319,178.460 127.569,180.000 126.545 C 182.450 124.916,183.098 124.400,182.696 124.400 C 182.638 124.400,181.378 125.214,179.896 126.208 M218.800 125.164 C 219.350 125.614,219.980 125.983,220.200 125.985 C 220.628 125.988,219.905 125.434,218.600 124.760 C 218.069 124.485,218.136 124.621,218.800 125.164 M220.833 126.530 C 220.925 126.601,221.630 127.066,222.400 127.563 L 223.800 128.466 222.600 127.435 C 221.940 126.868,221.235 126.403,221.033 126.402 C 220.832 126.401,220.742 126.458,220.833 126.530 M93.067 128.667 C 92.920 128.813,92.811 129.308,92.825 129.767 C 92.849 130.533,92.882 130.523,93.234 129.642 C 93.626 128.663,93.544 128.189,93.067 128.667 M174.181 130.900 L 172.600 132.600 174.300 131.019 C 175.881 129.548,176.184 129.200,175.881 129.200 C 175.816 129.200,175.051 129.965,174.181 130.900 M226.200 130.800 C 227.059 131.680,227.852 132.400,227.962 132.400 C 228.072 132.400,227.459 131.680,226.600 130.800 C 225.741 129.920,224.948 129.200,224.838 129.200 C 224.728 129.200,225.341 129.920,226.200 130.800 M308.244 132.200 C 308.573 133.671,308.802 133.990,308.794 132.967 C 308.791 132.545,308.605 131.930,308.382 131.600 C 308.085 131.162,308.048 131.324,308.244 132.200 M92.267 131.867 C 92.120 132.013,92.011 132.508,92.025 132.967 C 92.049 133.733,92.082 133.723,92.434 132.842 C 92.826 131.863,92.744 131.389,92.267 131.867 M91.449 135.815 C 91.312 136.173,91.221 136.946,91.246 137.533 C 91.280 138.332,91.370 138.198,91.604 137.000 C 91.935 135.300,91.862 134.740,91.449 135.815 M309.058 136.400 C 309.375 138.125,309.602 138.451,309.594 137.167 C 309.591 136.635,309.411 135.930,309.194 135.600 C 308.918 135.178,308.877 135.415,309.058 136.400 M167.800 139.600 C 167.459 140.260,167.269 140.800,167.379 140.800 C 167.489 140.800,167.859 140.260,168.200 139.600 C 168.541 138.940,168.731 138.400,168.621 138.400 C 168.511 138.400,168.141 138.940,167.800 139.600 M309.859 141.000 C 309.993 142.100,310.169 143.075,310.251 143.167 C 310.564 143.517,310.326 140.561,309.980 139.800 C 309.735 139.261,309.695 139.654,309.859 141.000 M90.656 140.484 C 90.521 140.988,90.431 142.030,90.455 142.800 C 90.489 143.869,90.575 143.680,90.818 142.002 C 91.153 139.692,91.072 138.933,90.656 140.484 M166.196 143.072 C 165.858 143.881,165.633 144.700,165.697 144.891 C 165.761 145.082,166.116 144.420,166.487 143.419 C 167.293 141.245,167.070 140.979,166.196 143.072 M89.857 147.100 C 89.540 149.018,89.613 163.821,89.947 165.374 C 90.086 166.020,90.200 161.835,90.200 156.074 C 90.200 150.313,90.179 145.600,90.152 145.600 C 90.126 145.600,89.993 146.275,89.857 147.100 M165.049 146.215 C 164.912 146.573,164.815 147.166,164.834 147.533 C 164.853 147.900,165.027 147.669,165.221 147.020 C 165.598 145.758,165.465 145.133,165.049 146.215 M235.444 146.600 C 235.773 148.071,236.002 148.390,235.994 147.367 C 235.991 146.945,235.805 146.330,235.582 146.000 C 235.285 145.562,235.248 145.724,235.444 146.600 M310.600 155.994 C 310.600 161.799,310.714 166.020,310.853 165.374 C 310.992 164.728,311.105 160.510,311.105 156.000 C 311.105 151.490,310.992 147.269,310.853 146.620 C 310.714 145.972,310.600 150.190,310.600 155.994 M164.101 151.400 C 164.105 152.280,164.187 152.593,164.283 152.095 C 164.379 151.598,164.375 150.878,164.275 150.495 C 164.175 150.113,164.096 150.520,164.101 151.400 M236.942 156.600 C 236.941 158.580,237.008 159.440,237.092 158.512 C 237.176 157.584,237.177 155.964,237.095 154.912 C 237.012 153.860,236.943 154.620,236.942 156.600 M163.737 156.600 C 163.739 158.360,163.809 159.030,163.893 158.089 C 163.978 157.149,163.977 155.709,163.891 154.889 C 163.805 154.070,163.736 154.840,163.737 156.600 M164.101 161.800 C 164.105 162.680,164.187 162.993,164.283 162.495 C 164.379 161.998,164.375 161.278,164.275 160.895 C 164.175 160.513,164.096 160.920,164.101 161.800 M236.493 162.400 C 236.493 163.170,236.575 163.485,236.676 163.100 C 236.776 162.715,236.776 162.085,236.676 161.700 C 236.575 161.315,236.493 161.630,236.493 162.400 M90.406 168.833 C 90.409 169.585,90.577 170.461,90.779 170.779 C 91.016 171.154,91.065 170.730,90.918 169.579 C 90.635 167.370,90.398 167.025,90.406 168.833 M310.060 168.867 C 310.027 169.454,309.896 170.264,309.770 170.667 C 309.552 171.360,309.565 171.361,309.995 170.690 C 310.246 170.299,310.377 169.489,310.286 168.890 L 310.120 167.800 310.060 168.867 M91.206 173.233 C 91.209 173.765,91.389 174.470,91.606 174.800 C 91.882 175.222,91.923 174.985,91.742 174.000 C 91.425 172.275,91.198 171.949,91.206 173.233 M309.246 173.267 C 309.221 173.634,309.096 174.264,308.970 174.667 C 308.752 175.362,308.763 175.363,309.197 174.687 C 309.448 174.296,309.573 173.666,309.473 173.287 C 309.311 172.668,309.288 172.666,309.246 173.267 M92.028 177.076 C 92.013 177.558,92.180 178.064,92.400 178.200 C 92.873 178.492,92.873 178.101,92.400 177.000 C 92.069 176.229,92.055 176.231,92.028 177.076 M308.446 176.667 C 308.421 176.924,308.284 177.464,308.141 177.867 C 307.940 178.436,307.994 178.497,308.379 178.142 C 308.652 177.891,308.789 177.351,308.684 176.942 C 308.579 176.534,308.472 176.410,308.446 176.667 M92.828 179.876 C 92.813 180.358,92.980 180.864,93.200 181.000 C 93.673 181.292,93.673 180.901,93.200 179.800 C 92.869 179.029,92.855 179.031,92.828 179.876 M176.000 184.200 C 176.746 184.970,177.447 185.600,177.557 185.600 C 177.667 185.600,177.146 184.970,176.400 184.200 C 175.654 183.430,174.953 182.800,174.843 182.800 C 174.733 182.800,175.254 183.430,176.000 184.200 M224.378 184.300 L 223.000 185.800 224.500 184.422 C 225.896 183.138,226.184 182.800,225.878 182.800 C 225.812 182.800,225.137 183.475,224.378 184.300 M178.894 186.490 C 180.082 187.500,182.400 188.947,182.400 188.679 C 182.400 188.588,181.365 187.849,180.100 187.037 C 178.835 186.225,178.292 185.979,178.894 186.490 M220.687 186.968 C 218.326 188.602,217.764 189.175,219.506 188.172 C 220.850 187.399,223.156 185.623,222.800 185.636 C 222.690 185.641,221.739 186.240,220.687 186.968 M190.833 192.144 C 190.925 192.223,191.540 192.408,192.200 192.556 C 193.076 192.752,193.238 192.715,192.800 192.418 C 192.260 192.053,190.432 191.798,190.833 192.144 M208.000 192.418 C 207.562 192.715,207.724 192.752,208.600 192.556 C 210.071 192.227,210.390 191.998,209.367 192.006 C 208.945 192.009,208.330 192.195,208.000 192.418 M197.490 193.334 C 199.331 193.527,202.061 193.526,203.690 193.332 C 206.251 193.028,205.856 192.987,200.400 192.989 C 194.651 192.991,194.439 193.016,197.490 193.334 M100.000 198.553 C 100.000 198.982,101.190 201.200,101.421 201.200 C 101.531 201.200,101.323 200.615,100.959 199.900 C 100.217 198.440,100.000 198.136,100.000 198.553 M299.283 201.013 C 298.582 202.436,298.093 203.600,298.198 203.600 C 298.466 203.600,300.885 198.751,300.706 198.572 C 300.625 198.492,299.985 199.590,299.283 201.013 M297.053 205.300 L 296.333 206.600 297.158 205.600 C 297.889 204.713,298.214 204.000,297.886 204.000 C 297.824 204.000,297.449 204.585,297.053 205.300 M104.415 207.000 C 104.417 207.220,104.786 207.850,105.236 208.400 C 105.779 209.064,105.915 209.131,105.640 208.600 C 104.966 207.295,104.412 206.572,104.415 207.000 M295.453 208.100 L 294.733 209.400 295.558 208.400 C 296.289 207.513,296.614 206.800,296.286 206.800 C 296.224 206.800,295.849 207.385,295.453 208.100 M106.815 211.000 C 106.817 211.220,107.186 211.850,107.636 212.400 C 108.179 213.064,108.315 213.131,108.040 212.600 C 107.366 211.295,106.812 210.572,106.815 211.000 M290.645 215.788 C 290.280 216.344,290.122 216.800,290.295 216.800 C 290.684 216.800,291.719 215.186,291.482 214.949 C 291.386 214.853,291.010 215.231,290.645 215.788 M115.775 224.532 C 116.391 225.339,116.976 226.000,117.075 226.000 C 117.353 226.000,115.621 223.660,115.109 223.344 C 114.859 223.189,115.159 223.724,115.775 224.532 M285.144 223.900 C 283.875 225.432,283.419 226.142,283.881 225.865 C 284.393 225.558,286.169 223.200,285.889 223.200 C 285.798 223.200,285.463 223.515,285.144 223.900 M118.585 228.300 C 119.937 230.155,122.044 232.652,121.554 231.819 C 121.037 230.938,117.535 226.400,117.372 226.400 C 117.278 226.400,117.824 227.255,118.585 228.300 M280.723 229.857 C 279.776 231.098,278.460 232.763,277.800 233.557 C 277.140 234.350,276.921 234.748,277.313 234.440 C 278.088 233.831,282.934 227.600,282.632 227.600 C 282.530 227.600,281.671 228.615,280.723 229.857 M273.968 238.300 C 271.486 241.080,271.085 241.599,271.430 241.578 C 271.634 241.565,272.574 240.575,273.519 239.378 C 275.351 237.056,275.590 236.482,273.968 238.300 M127.130 239.100 C 127.561 239.705,128.329 240.560,128.837 241.000 C 129.345 241.440,129.072 240.945,128.232 239.900 C 126.574 237.839,125.863 237.322,127.130 239.100 M131.669 244.331 C 132.401 245.173,134.784 247.915,136.964 250.424 C 139.145 252.933,140.855 254.776,140.764 254.519 C 140.574 253.979,130.808 242.800,130.526 242.800 C 130.422 242.800,130.937 243.489,131.669 244.331 M267.749 245.482 C 266.457 246.957,265.606 248.037,265.859 247.883 C 266.424 247.539,270.553 242.800,270.288 242.800 C 270.184 242.800,269.041 244.007,267.749 245.482 M262.666 251.227 C 259.639 254.823,259.968 254.806,263.172 251.200 C 264.541 249.660,265.512 248.412,265.330 248.427 C 265.149 248.441,263.950 249.701,262.666 251.227 M257.821 257.000 C 257.010 257.990,256.493 258.793,256.673 258.784 C 256.999 258.769,259.774 255.200,259.461 255.200 C 259.370 255.200,258.633 256.010,257.821 257.000 M145.140 260.316 C 145.633 261.009,146.244 261.704,146.497 261.860 C 146.750 262.017,146.554 261.577,146.060 260.884 C 145.567 260.191,144.956 259.496,144.703 259.340 C 144.450 259.183,144.646 259.623,145.140 260.316 M147.827 263.800 C 149.200 265.600,149.468 265.603,148.304 263.805 C 147.807 263.038,147.256 262.408,147.080 262.405 C 146.903 262.402,147.240 263.030,147.827 263.800 M253.144 263.100 C 251.993 264.489,251.506 265.200,251.704 265.200 C 251.814 265.200,252.386 264.570,252.973 263.800 C 254.063 262.371,254.195 261.832,253.144 263.100 M150.645 267.700 C 152.517 270.296,154.000 272.131,154.000 271.849 C 154.000 271.732,153.100 270.433,152.000 268.961 C 150.900 267.489,150.000 266.131,150.000 265.943 C 150.000 265.754,149.805 265.600,149.566 265.600 C 149.327 265.600,149.813 266.545,150.645 267.700 M249.372 268.218 C 248.344 269.659,247.570 270.897,247.652 270.971 C 247.733 271.045,248.658 269.866,249.707 268.353 C 250.755 266.839,251.530 265.600,251.427 265.600 C 251.324 265.600,250.400 266.778,249.372 268.218 M154.799 273.500 C 155.322 274.215,155.813 274.800,155.889 274.800 C 156.193 274.800,155.201 273.300,154.545 272.767 C 154.113 272.416,154.210 272.696,154.799 273.500 M244.606 275.088 L 243.904 276.200 244.830 275.311 C 245.339 274.822,245.655 274.322,245.532 274.199 C 245.409 274.076,244.992 274.476,244.606 275.088 M158.400 278.920 C 158.400 279.304,160.445 282.400,160.699 282.400 C 160.878 282.400,160.241 281.319,158.939 279.411 C 158.642 278.977,158.400 278.756,158.400 278.920 M241.453 280.100 L 240.733 281.400 241.558 280.400 C 242.289 279.513,242.614 278.800,242.286 278.800 C 242.224 278.800,241.849 279.385,241.453 280.100 M236.614 287.835 C 236.241 288.404,236.005 288.938,236.089 289.022 C 236.173 289.107,236.558 288.641,236.944 287.988 C 237.806 286.528,237.548 286.409,236.614 287.835 M235.000 290.800 C 234.659 291.460,234.469 292.000,234.579 292.000 C 234.689 292.000,235.059 291.460,235.400 290.800 C 235.741 290.140,235.931 289.600,235.821 289.600 C 235.711 289.600,235.341 290.140,235.000 290.800 M166.760 293.000 C 167.434 294.305,167.988 295.028,167.985 294.600 C 167.983 294.380,167.614 293.750,167.164 293.200 C 166.621 292.536,166.485 292.469,166.760 293.000 M169.600 298.400 C 170.049 299.280,170.506 300.000,170.616 300.000 C 170.726 300.000,170.449 299.280,170.000 298.400 C 169.551 297.520,169.094 296.800,168.984 296.800 C 168.874 296.800,169.151 297.520,169.600 298.400 M230.800 298.400 C 230.351 299.280,230.074 300.000,230.184 300.000 C 230.294 300.000,230.751 299.280,231.200 298.400 C 231.649 297.520,231.926 296.800,231.816 296.800 C 231.706 296.800,231.249 297.520,230.800 298.400 M170.849 300.600 C 171.367 301.904,172.848 304.800,172.997 304.800 C 173.248 304.800,172.787 303.640,171.884 302.000 C 171.120 300.610,170.545 299.833,170.849 300.600 M173.200 305.250 C 173.200 305.598,174.437 308.000,174.617 308.000 C 174.704 308.000,174.661 307.685,174.521 307.300 C 174.233 306.506,173.200 304.903,173.200 305.250 M182.828 326.492 C 182.782 326.965,184.086 330.048,184.258 329.875 C 184.345 329.788,184.066 328.925,183.637 327.958 C 183.208 326.991,182.844 326.331,182.828 326.492 M216.996 328.272 C 216.658 329.081,216.433 329.900,216.497 330.091 C 216.561 330.282,216.916 329.620,217.287 328.619 C 218.093 326.445,217.870 326.179,216.996 328.272 M213.456 337.481 C 212.318 340.468,212.008 341.642,212.426 341.384 C 212.632 341.257,212.800 340.908,212.800 340.610 C 212.800 340.311,213.166 339.213,213.613 338.171 C 214.059 337.128,214.372 336.115,214.306 335.918 C 214.241 335.722,213.858 336.425,213.456 337.481 M186.830 336.892 C 186.793 337.251,188.104 340.827,189.141 343.200 C 189.562 344.161,189.569 344.153,189.338 343.000 C 189.205 342.340,188.940 341.629,188.748 341.420 C 188.557 341.211,188.387 340.761,188.370 340.420 C 188.338 339.751,186.879 336.409,186.830 336.892 M211.646 342.267 C 211.621 342.524,211.484 343.064,211.341 343.467 C 211.140 344.036,211.194 344.097,211.579 343.742 C 211.852 343.491,211.989 342.951,211.884 342.542 C 211.779 342.134,211.672 342.010,211.646 342.267 M207.225 352.569 L 205.850 354.200 207.405 352.713 C 208.260 351.896,208.879 351.162,208.780 351.083 C 208.681 351.003,207.981 351.672,207.225 352.569 M193.801 353.202 C 194.069 353.636,196.400 354.934,196.400 354.650 C 196.400 354.556,195.759 354.101,194.976 353.639 C 194.193 353.177,193.664 352.980,193.801 353.202 M197.900 355.267 C 198.285 355.419,199.410 355.544,200.400 355.544 C 201.390 355.544,202.515 355.419,202.900 355.267 C 203.285 355.114,202.160 354.989,200.400 354.989 C 198.640 354.989,197.515 355.114,197.900 355.267 " stroke="none" fill="#9abb66" fill-rule="evenodd"></path><path id="path3" d="" stroke="none" fill="#8ab48e" fill-rule="evenodd"></path><path id="path4" d="M198.300 46.695 C 199.455 46.776,201.345 46.776,202.500 46.695 C 203.655 46.614,202.710 46.548,200.400 46.548 C 198.090 46.548,197.145 46.614,198.300 46.695 M189.300 47.094 C 190.345 47.176,192.055 47.176,193.100 47.094 C 194.145 47.012,193.290 46.944,191.200 46.944 C 189.110 46.944,188.255 47.012,189.300 47.094 M208.112 47.095 C 209.164 47.177,210.784 47.176,211.712 47.092 C 212.640 47.008,211.780 46.941,209.800 46.942 C 207.820 46.943,207.060 47.012,208.112 47.095 M183.600 47.600 L 181.800 47.880 183.400 47.893 C 184.280 47.900,185.540 47.768,186.200 47.600 C 187.800 47.193,186.219 47.193,183.600 47.600 M216.705 47.883 C 217.202 47.979,217.922 47.975,218.305 47.875 C 218.687 47.775,218.280 47.696,217.400 47.701 C 216.520 47.705,216.207 47.787,216.705 47.883 M177.000 48.819 C 176.442 49.071,176.685 49.107,177.800 48.938 C 178.680 48.804,179.475 48.628,179.567 48.547 C 179.910 48.244,177.768 48.471,177.000 48.819 M221.233 48.547 C 221.325 48.628,222.120 48.804,223.000 48.938 C 224.115 49.107,224.358 49.071,223.800 48.819 C 223.032 48.471,220.890 48.244,221.233 48.547 M173.400 49.619 C 172.842 49.871,173.085 49.907,174.200 49.738 C 175.080 49.604,175.875 49.428,175.967 49.347 C 176.310 49.044,174.168 49.271,173.400 49.619 M224.833 49.347 C 224.925 49.428,225.720 49.604,226.600 49.738 C 227.715 49.907,227.958 49.871,227.400 49.619 C 226.632 49.271,224.490 49.044,224.833 49.347 M170.400 50.400 C 169.867 50.745,169.867 50.788,170.400 50.788 C 170.730 50.788,171.270 50.613,171.600 50.400 C 172.133 50.055,172.133 50.012,171.600 50.012 C 171.270 50.012,170.730 50.187,170.400 50.400 M229.200 50.400 C 229.530 50.613,230.070 50.788,230.400 50.788 C 230.933 50.788,230.933 50.745,230.400 50.400 C 230.070 50.187,229.530 50.012,229.200 50.012 C 228.667 50.012,228.667 50.055,229.200 50.400 M232.000 51.200 C 232.330 51.413,232.870 51.588,233.200 51.588 C 233.733 51.588,233.733 51.545,233.200 51.200 C 232.870 50.987,232.330 50.812,232.000 50.812 C 231.467 50.812,231.467 50.855,232.000 51.200 M162.800 52.800 C 162.267 53.145,162.267 53.188,162.800 53.188 C 163.130 53.188,163.670 53.013,164.000 52.800 C 164.533 52.455,164.533 52.412,164.000 52.412 C 163.670 52.412,163.130 52.587,162.800 52.800 M236.800 52.800 C 237.130 53.013,237.670 53.188,238.000 53.188 C 238.533 53.188,238.533 53.145,238.000 52.800 C 237.670 52.587,237.130 52.412,236.800 52.412 C 236.267 52.412,236.267 52.455,236.800 52.800 M149.490 58.668 C 148.000 59.463,146.842 60.175,146.917 60.250 C 147.080 60.413,152.400 57.622,152.400 57.373 C 152.400 57.115,152.412 57.110,149.490 58.668 M252.400 59.564 C 252.950 60.014,253.580 60.383,253.800 60.385 C 254.228 60.388,253.505 59.834,252.200 59.160 C 251.669 58.885,251.736 59.021,252.400 59.564 M145.000 61.200 C 144.340 61.637,143.980 61.992,144.200 61.988 C 144.601 61.982,146.776 60.423,146.400 60.412 C 146.290 60.408,145.660 60.763,145.000 61.200 M254.400 60.579 C 254.400 60.689,254.940 61.059,255.600 61.400 C 256.260 61.741,256.800 61.931,256.800 61.821 C 256.800 61.711,256.260 61.341,255.600 61.000 C 254.940 60.659,254.400 60.469,254.400 60.579 M138.932 64.982 C 136.478 66.622,134.349 68.159,134.201 68.398 C 133.967 68.777,142.373 63.225,143.380 62.336 C 144.411 61.425,142.985 62.274,138.932 64.982 M257.974 62.724 C 258.509 63.159,259.499 63.819,260.174 64.191 L 261.400 64.867 260.426 64.076 C 259.891 63.641,258.901 62.981,258.226 62.609 L 257.000 61.933 257.974 62.724 M261.600 64.954 C 261.600 65.055,262.782 65.965,264.227 66.975 C 265.672 67.985,266.741 68.628,266.602 68.404 C 266.308 67.928,261.600 64.681,261.600 64.954 M130.687 71.030 C 129.209 72.257,128.000 73.345,128.000 73.448 C 128.000 73.550,129.260 72.616,130.800 71.372 C 133.289 69.361,133.875 68.800,133.487 68.800 C 133.425 68.800,132.165 69.804,130.687 71.030 M267.340 69.103 C 267.496 69.356,268.191 69.967,268.884 70.460 C 269.577 70.954,270.017 71.150,269.860 70.897 C 269.704 70.644,269.009 70.033,268.316 69.540 C 267.623 69.046,267.183 68.850,267.340 69.103 M270.422 71.500 C 270.434 71.665,271.019 72.238,271.722 72.774 L 273.000 73.749 271.825 72.474 C 270.603 71.149,270.385 70.997,270.422 71.500 M273.200 73.652 C 273.200 73.783,275.019 75.670,277.243 77.845 C 281.878 82.379,286.143 87.278,289.364 91.768 C 290.594 93.482,291.600 94.753,291.600 94.593 C 291.600 94.071,288.062 89.328,284.834 85.521 C 281.785 81.926,273.200 73.168,273.200 73.652 M122.180 78.913 L 117.800 83.400 122.187 79.200 C 124.600 76.890,126.655 74.955,126.754 74.900 C 126.853 74.845,126.849 74.716,126.747 74.613 C 126.644 74.511,124.589 76.446,122.180 78.913 M115.400 86.092 C 113.363 88.584,111.944 90.523,112.688 89.800 C 113.917 88.603,117.990 83.603,117.719 83.623 C 117.543 83.635,116.500 84.746,115.400 86.092 M110.614 92.300 C 109.847 93.345,109.215 94.365,109.210 94.567 C 109.204 94.768,109.256 94.858,109.323 94.767 C 110.683 92.931,112.352 90.400,112.203 90.400 C 112.096 90.400,111.380 91.255,110.614 92.300 M108.024 96.118 C 107.723 96.603,107.215 97.405,106.893 97.900 C 106.571 98.395,106.395 98.800,106.501 98.800 C 106.783 98.800,108.886 95.553,108.715 95.381 C 108.635 95.302,108.324 95.633,108.024 96.118 M292.013 95.456 C 292.031 95.944,293.157 97.376,293.361 97.171 C 293.455 97.077,293.187 96.575,292.766 96.056 C 292.345 95.536,292.006 95.266,292.013 95.456 M293.615 97.800 C 293.617 98.020,293.986 98.650,294.436 99.200 C 294.979 99.864,295.115 99.931,294.840 99.400 C 294.166 98.095,293.612 97.372,293.615 97.800 M104.600 101.600 C 104.259 102.260,104.069 102.800,104.179 102.800 C 104.289 102.800,104.659 102.260,105.000 101.600 C 105.341 100.940,105.531 100.400,105.421 100.400 C 105.311 100.400,104.941 100.940,104.600 101.600 M297.600 104.553 C 297.600 104.982,298.790 107.200,299.021 107.200 C 299.131 107.200,298.923 106.615,298.559 105.900 C 297.817 104.440,297.600 104.136,297.600 104.553 M101.800 106.800 C 101.243 107.900,100.877 108.800,100.987 108.800 C 101.097 108.800,101.643 107.900,102.200 106.800 C 102.757 105.700,103.123 104.800,103.013 104.800 C 102.903 104.800,102.357 105.700,101.800 106.800 M99.072 112.619 C 98.132 114.589,98.264 114.924,99.247 113.062 C 99.693 112.216,99.987 111.454,99.901 111.367 C 99.814 111.281,99.441 111.844,99.072 112.619 M97.096 117.498 C 96.009 120.345,95.257 122.936,95.964 121.400 C 96.836 119.506,98.423 115.089,98.282 114.949 C 98.198 114.864,97.664 116.011,97.096 117.498 M304.257 119.900 C 304.578 121.192,305.562 123.546,305.584 123.075 C 305.608 122.589,304.333 118.800,304.146 118.800 C 304.057 118.800,304.107 119.295,304.257 119.900 M198.300 119.895 C 199.455 119.976,201.345 119.976,202.500 119.895 C 203.655 119.814,202.710 119.748,200.400 119.748 C 198.090 119.748,197.145 119.814,198.300 119.895 M194.100 120.276 C 194.485 120.376,195.115 120.376,195.500 120.276 C 195.885 120.175,195.570 120.093,194.800 120.093 C 194.030 120.093,193.715 120.175,194.100 120.276 M205.300 120.276 C 205.685 120.376,206.315 120.376,206.700 120.276 C 207.085 120.175,206.770 120.093,206.000 120.093 C 205.230 120.093,204.915 120.175,205.300 120.276 M190.800 120.800 C 189.996 121.057,189.957 121.123,190.600 121.132 C 191.040 121.138,191.760 120.989,192.200 120.800 C 193.219 120.362,192.168 120.362,190.800 120.800 M186.365 122.321 C 184.916 122.914,183.296 123.729,182.765 124.130 L 181.800 124.861 182.800 124.297 C 183.350 123.987,185.105 123.225,186.700 122.603 C 189.341 121.575,190.113 121.164,189.300 121.221 C 189.135 121.232,187.814 121.727,186.365 122.321 M216.800 123.620 C 218.187 124.561,218.978 124.835,218.000 124.036 C 217.450 123.586,216.820 123.217,216.600 123.215 C 216.380 123.213,216.470 123.396,216.800 123.620 M305.844 124.600 C 306.173 126.071,306.402 126.390,306.394 125.367 C 306.391 124.945,306.205 124.330,305.982 124.000 C 305.685 123.562,305.648 123.724,305.844 124.600 M94.043 126.716 C 93.756 127.752,93.448 128.960,93.358 129.400 L 93.196 130.200 93.555 129.400 C 94.170 128.032,94.939 125.205,94.747 125.014 C 94.647 124.914,94.330 125.680,94.043 126.716 M179.585 126.029 L 178.200 127.258 179.800 126.145 C 180.680 125.533,181.475 124.980,181.567 124.916 C 181.658 124.852,181.562 124.800,181.352 124.800 C 181.142 124.800,180.347 125.353,179.585 126.029 M219.233 124.925 C 221.661 126.742,223.695 128.077,223.461 127.699 C 223.116 127.140,219.806 124.800,219.361 124.800 C 219.199 124.800,219.142 124.856,219.233 124.925 M306.662 127.600 C 306.798 128.370,307.062 129.270,307.248 129.600 C 307.452 129.961,307.488 129.643,307.338 128.800 C 307.202 128.030,306.938 127.130,306.752 126.800 C 306.548 126.439,306.512 126.757,306.662 127.600 M174.000 130.600 C 173.028 131.590,172.323 132.400,172.433 132.400 C 172.543 132.400,173.428 131.590,174.400 130.600 C 175.372 129.610,176.077 128.800,175.967 128.800 C 175.857 128.800,174.972 129.610,174.000 130.600 M226.800 131.000 C 227.995 132.210,229.063 133.200,229.173 133.200 C 229.283 133.200,228.395 132.210,227.200 131.000 C 226.005 129.790,224.937 128.800,224.827 128.800 C 224.717 128.800,225.605 129.790,226.800 131.000 M307.606 131.233 C 307.609 131.765,307.789 132.470,308.006 132.800 C 308.282 133.222,308.323 132.985,308.142 132.000 C 307.825 130.275,307.598 129.949,307.606 131.233 M92.849 131.200 C 92.816 131.530,92.689 132.250,92.567 132.800 C 92.375 133.664,92.407 133.703,92.799 133.088 C 93.048 132.697,93.175 131.977,93.081 131.488 C 92.986 131.000,92.882 130.870,92.849 131.200 M170.674 134.433 C 170.055 135.295,169.628 136.000,169.727 136.000 C 170.003 136.000,172.099 133.166,171.940 133.007 C 171.863 132.930,171.293 133.572,170.674 134.433 M229.999 134.700 C 230.522 135.415,231.013 136.000,231.089 136.000 C 231.393 136.000,230.401 134.500,229.745 133.967 C 229.313 133.616,229.410 133.896,229.999 134.700 M92.054 134.800 C 92.019 135.350,91.896 136.250,91.783 136.800 L 91.577 137.800 92.007 136.815 C 92.243 136.274,92.365 135.374,92.278 134.815 L 92.120 133.800 92.054 134.800 M308.428 135.033 C 308.444 135.675,308.616 136.560,308.810 137.000 C 309.047 137.534,309.086 137.202,308.927 136.000 C 308.646 133.880,308.388 133.380,308.428 135.033 M167.800 138.800 C 167.459 139.460,167.269 140.000,167.379 140.000 C 167.489 140.000,167.859 139.460,168.200 138.800 C 168.541 138.140,168.731 137.600,168.621 137.600 C 168.511 137.600,168.141 138.140,167.800 138.800 M309.286 139.600 C 309.283 140.370,309.424 141.450,309.600 142.000 C 310.050 143.404,310.065 141.937,309.623 139.800 L 309.292 138.200 309.286 139.600 M91.264 139.450 C 91.229 139.917,91.105 140.907,90.989 141.650 C 90.796 142.886,90.815 142.917,91.208 142.014 C 91.445 141.472,91.568 140.482,91.483 139.814 C 91.391 139.097,91.302 138.948,91.264 139.450 M310.124 146.200 C 310.126 147.520,310.201 148.012,310.290 147.293 C 310.379 146.574,310.377 145.494,310.286 144.893 C 310.195 144.292,310.122 144.880,310.124 146.200 M90.228 148.332 C 90.065 150.605,90.019 152.552,90.126 152.660 C 90.388 152.922,90.939 145.414,90.707 144.735 C 90.607 144.441,90.391 146.060,90.228 148.332 M164.200 148.000 C 164.048 148.691,164.007 149.341,164.109 149.442 C 164.211 149.544,164.409 149.053,164.550 148.350 C 164.883 146.683,164.560 146.360,164.200 148.000 M236.056 147.200 C 236.056 147.530,236.211 148.160,236.400 148.600 C 236.617 149.104,236.744 149.178,236.744 148.800 C 236.744 148.470,236.589 147.840,236.400 147.400 C 236.183 146.896,236.056 146.822,236.056 147.200 M310.520 150.800 C 310.520 152.010,310.595 152.505,310.687 151.900 C 310.778 151.295,310.778 150.305,310.687 149.700 C 310.595 149.095,310.520 149.590,310.520 150.800 M163.450 152.050 C 163.133 153.637,163.196 160.304,163.540 161.520 C 163.683 162.026,163.800 159.821,163.800 156.620 C 163.800 150.209,163.805 150.275,163.450 152.050 M237.000 156.800 C 237.000 160.126,237.117 162.432,237.260 161.924 C 237.403 161.416,237.520 159.110,237.520 156.800 C 237.520 154.490,237.403 152.184,237.260 151.676 C 237.117 151.168,237.000 153.474,237.000 156.800 M90.080 161.800 C 90.068 162.680,90.203 164.210,90.380 165.200 L 90.700 167.000 90.720 165.400 C 90.732 164.520,90.597 162.990,90.420 162.000 L 90.100 160.200 90.080 161.800 M310.211 163.811 C 310.053 165.706,310.009 167.342,310.113 167.446 C 310.217 167.550,310.432 166.085,310.589 164.189 C 310.747 162.294,310.791 160.658,310.687 160.554 C 310.583 160.450,310.368 161.915,310.211 163.811 M236.446 164.467 C 236.421 164.834,236.296 165.464,236.170 165.867 C 235.952 166.562,235.963 166.563,236.397 165.887 C 236.648 165.496,236.773 164.866,236.673 164.487 C 236.511 163.868,236.488 163.866,236.446 164.467 M90.875 169.000 C 90.886 169.440,91.032 170.340,91.200 171.000 L 91.505 172.200 91.525 171.000 C 91.535 170.340,91.389 169.440,91.200 169.000 L 90.856 168.200 90.875 169.000 M309.456 169.684 C 309.321 170.188,309.228 171.050,309.249 171.600 C 309.272 172.189,309.431 171.871,309.636 170.825 C 310.003 168.952,309.873 168.127,309.456 169.684 M91.858 174.400 C 92.175 176.125,92.402 176.451,92.394 175.167 C 92.391 174.635,92.211 173.930,91.994 173.600 C 91.718 173.178,91.677 173.415,91.858 174.400 M232.108 175.454 C 231.397 176.655,230.975 177.539,231.170 177.419 C 231.620 177.140,233.716 173.582,233.535 173.404 C 233.461 173.330,232.818 174.253,232.108 175.454 M308.649 173.815 C 308.512 174.173,308.418 174.856,308.441 175.333 C 308.467 175.881,308.603 175.686,308.810 174.803 C 309.160 173.316,309.065 172.733,308.649 173.815 M168.411 175.600 C 169.195 177.112,171.779 180.525,172.639 181.185 C 173.058 181.507,172.928 181.236,172.352 180.585 C 171.775 179.933,170.634 178.410,169.816 177.200 C 168.103 174.668,167.672 174.176,168.411 175.600 M92.640 177.866 C 93.008 179.399,93.200 179.544,93.200 178.290 C 93.200 177.717,93.013 177.132,92.784 176.990 C 92.511 176.821,92.462 177.123,92.640 177.866 M307.849 177.415 C 307.712 177.773,307.615 178.366,307.634 178.733 C 307.653 179.100,307.827 178.869,308.021 178.220 C 308.398 176.958,308.265 176.333,307.849 177.415 M229.065 179.800 C 228.237 180.790,227.684 181.600,227.836 181.600 C 228.111 181.600,228.484 181.176,230.033 179.100 C 231.313 177.386,230.731 177.806,229.065 179.800 M93.444 180.600 C 93.773 182.071,94.002 182.390,93.994 181.367 C 93.991 180.945,93.805 180.330,93.582 180.000 C 93.285 179.562,93.248 179.724,93.444 180.600 M307.049 180.215 C 306.912 180.573,306.815 181.166,306.834 181.533 C 306.853 181.900,307.027 181.669,307.221 181.020 C 307.598 179.758,307.465 179.133,307.049 180.215 M305.829 184.429 C 305.458 185.561,305.227 186.560,305.315 186.649 C 305.403 186.737,305.776 185.879,306.143 184.743 C 306.510 183.607,306.741 182.608,306.656 182.523 C 306.572 182.438,306.199 183.296,305.829 184.429 M174.835 183.700 C 174.928 183.755,175.633 184.340,176.402 185.000 L 177.800 186.200 176.625 184.900 C 175.979 184.185,175.274 183.600,175.058 183.600 C 174.843 183.600,174.743 183.645,174.835 183.700 M224.175 184.900 L 223.000 186.200 224.398 185.000 C 225.167 184.340,225.872 183.755,225.965 183.700 C 226.057 183.645,225.957 183.600,225.742 183.600 C 225.526 183.600,224.821 184.185,224.175 184.900 M221.281 186.972 C 219.648 188.127,219.366 188.403,219.833 188.389 C 220.035 188.383,220.830 187.848,221.600 187.200 C 223.273 185.791,223.113 185.676,221.281 186.972 M303.113 191.781 C 302.742 192.781,302.517 193.600,302.614 193.600 C 302.893 193.600,304.031 190.694,303.903 190.309 C 303.839 190.118,303.484 190.780,303.113 191.781 M191.600 192.794 C 191.930 193.011,192.635 193.191,193.167 193.194 C 194.451 193.202,194.125 192.975,192.400 192.658 C 191.415 192.477,191.178 192.518,191.600 192.794 M207.800 192.800 C 206.693 193.082,206.677 193.109,207.600 193.147 C 208.150 193.169,208.870 193.013,209.200 192.800 C 209.881 192.360,209.529 192.360,207.800 192.800 M198.700 193.893 C 199.635 193.977,201.165 193.977,202.100 193.893 C 203.035 193.809,202.270 193.740,200.400 193.740 C 198.530 193.740,197.765 193.809,198.700 193.893 M98.434 194.200 C 98.434 194.420,98.778 195.230,99.200 196.000 C 99.622 196.770,99.966 197.220,99.966 197.000 C 99.966 196.780,99.622 195.970,99.200 195.200 C 98.778 194.430,98.434 193.980,98.434 194.200 M299.078 200.605 C 298.712 201.372,298.495 202.000,298.596 202.000 C 298.870 202.000,300.084 199.551,299.901 199.368 C 299.814 199.281,299.444 199.838,299.078 200.605 M294.214 209.435 C 293.841 210.004,293.605 210.538,293.689 210.622 C 293.773 210.707,294.158 210.241,294.544 209.588 C 295.406 208.128,295.148 208.009,294.214 209.435 M106.986 210.700 C 107.335 211.415,107.706 212.000,107.810 212.000 C 108.208 212.000,107.952 211.363,107.167 210.400 L 106.352 209.400 106.986 210.700 M109.013 214.000 C 109.766 215.368,114.036 221.600,114.221 221.600 C 114.444 221.600,109.725 214.429,109.088 213.800 C 108.815 213.531,108.791 213.596,109.013 214.000 M288.660 218.200 C 286.975 220.730,285.683 222.800,285.789 222.800 C 285.895 222.800,287.214 220.955,288.719 218.700 C 291.867 213.983,292.105 213.600,291.885 213.600 C 291.796 213.600,290.345 215.670,288.660 218.200 M115.832 224.100 C 116.656 225.255,117.683 226.560,118.114 227.000 C 118.545 227.440,117.961 226.495,116.816 224.900 C 115.672 223.305,114.645 222.000,114.534 222.000 C 114.423 222.000,115.007 222.945,115.832 224.100 M282.975 226.268 C 282.359 227.076,282.059 227.611,282.309 227.456 C 282.821 227.140,284.553 224.800,284.275 224.800 C 284.176 224.800,283.591 225.461,282.975 226.268 M119.540 229.116 C 120.033 229.809,120.644 230.504,120.897 230.660 C 121.150 230.817,120.954 230.377,120.460 229.684 C 119.967 228.991,119.356 228.296,119.103 228.140 C 118.850 227.983,119.046 228.423,119.540 229.116 M276.962 234.100 C 275.681 235.695,274.914 236.775,275.258 236.500 C 275.991 235.913,279.738 231.200,279.472 231.200 C 279.372 231.200,278.242 232.505,276.962 234.100 M128.236 239.900 C 129.520 241.385,131.830 244.040,133.370 245.800 C 134.911 247.560,136.222 249.075,136.285 249.167 C 136.348 249.258,136.474 249.258,136.564 249.167 C 136.654 249.075,135.578 247.740,134.171 246.200 C 132.765 244.660,130.486 242.017,129.107 240.326 C 127.728 238.636,126.443 237.241,126.251 237.226 C 126.059 237.212,126.953 238.415,128.236 239.900 M273.548 238.300 C 271.213 240.864,267.834 244.930,268.236 244.691 C 268.727 244.399,274.942 237.200,274.703 237.200 C 274.619 237.200,274.099 237.695,273.548 238.300 M266.496 246.325 C 265.999 246.916,264.857 248.255,263.959 249.300 C 261.379 252.301,262.385 251.512,265.361 248.200 C 266.843 246.550,267.909 245.211,267.728 245.225 C 267.548 245.239,266.993 245.734,266.496 246.325 M138.949 252.118 C 140.241 253.593,141.384 254.800,141.488 254.800 C 141.753 254.800,137.624 250.061,137.059 249.717 C 136.806 249.563,137.657 250.643,138.949 252.118 M260.834 252.953 L 259.869 254.200 261.013 253.112 C 261.643 252.514,262.077 251.953,261.979 251.865 C 261.880 251.777,261.365 252.267,260.834 252.953 M257.800 256.493 C 255.827 259.031,252.554 263.295,251.039 265.300 C 250.415 266.125,250.006 266.800,250.130 266.800 C 250.254 266.800,251.391 265.405,252.657 263.700 C 253.924 261.995,256.099 259.205,257.491 257.500 C 258.884 255.795,259.883 254.408,259.712 254.417 C 259.540 254.426,258.680 255.360,257.800 256.493 M145.027 259.500 C 146.067 260.875,146.994 262.000,147.086 262.000 C 147.334 262.000,145.845 260.007,144.397 258.400 C 143.703 257.630,143.986 258.125,145.027 259.500 M147.600 262.648 C 147.600 262.858,148.153 263.653,148.829 264.415 L 150.058 265.800 148.945 264.200 C 148.333 263.320,147.780 262.525,147.716 262.433 C 147.652 262.342,147.600 262.438,147.600 262.648 M151.612 268.322 C 152.566 269.708,153.536 270.960,153.767 271.103 C 154.241 271.396,151.392 267.329,150.472 266.400 C 150.145 266.070,150.658 266.935,151.612 268.322 M248.319 269.100 C 247.403 270.160,243.548 276.000,243.765 276.000 C 243.869 276.000,245.122 274.290,246.549 272.200 C 249.084 268.488,249.542 267.685,248.319 269.100 M242.253 277.991 C 241.674 278.867,241.200 279.717,241.200 279.880 C 241.200 280.044,241.442 279.823,241.739 279.389 C 243.041 277.481,243.678 276.400,243.499 276.400 C 243.393 276.400,242.832 277.116,242.253 277.991 M158.605 278.565 C 158.989 279.206,159.659 280.331,160.092 281.065 C 160.525 281.799,160.963 282.400,161.065 282.400 C 161.344 282.400,159.679 279.543,158.733 278.400 L 157.905 277.400 158.605 278.565 M161.549 283.400 C 161.765 283.840,162.234 284.560,162.593 285.000 L 163.244 285.800 162.851 285.000 C 162.635 284.560,162.166 283.840,161.807 283.400 L 161.156 282.600 161.549 283.400 M238.953 283.300 C 237.576 285.636,237.486 285.835,238.187 285.000 C 239.000 284.032,239.700 282.800,239.438 282.800 C 239.333 282.800,239.115 283.025,238.953 283.300 M236.653 287.300 L 235.933 288.600 236.758 287.600 C 237.489 286.713,237.814 286.000,237.486 286.000 C 237.424 286.000,237.049 286.585,236.653 287.300 M166.000 291.000 C 166.726 292.320,167.502 293.580,167.725 293.800 C 167.948 294.020,167.541 293.120,166.821 291.800 C 166.101 290.480,165.325 289.220,165.096 289.000 C 164.867 288.780,165.274 289.680,166.000 291.000 M235.000 290.000 C 234.659 290.660,234.469 291.200,234.579 291.200 C 234.689 291.200,235.059 290.660,235.400 290.000 C 235.741 289.340,235.931 288.800,235.821 288.800 C 235.711 288.800,235.341 289.340,235.000 290.000 M233.400 292.800 C 233.059 293.460,232.869 294.000,232.979 294.000 C 233.089 294.000,233.459 293.460,233.800 292.800 C 234.141 292.140,234.331 291.600,234.221 291.600 C 234.111 291.600,233.741 292.140,233.400 292.800 M225.846 307.258 C 225.271 308.412,224.809 309.547,224.819 309.779 C 224.830 310.010,225.382 309.147,226.046 307.860 C 226.710 306.573,227.172 305.439,227.073 305.339 C 226.973 305.240,226.421 306.103,225.846 307.258 M175.007 308.279 C 175.682 309.893,176.000 310.358,176.000 309.728 C 176.000 309.231,174.809 306.800,174.565 306.800 C 174.468 306.800,174.667 307.466,175.007 308.279 M177.130 312.700 C 177.297 313.085,177.764 314.172,178.167 315.117 C 178.570 316.061,178.975 316.758,179.067 316.666 C 179.256 316.477,177.273 312.000,177.001 312.000 C 176.905 312.000,176.963 312.315,177.130 312.700 M221.467 316.793 C 220.014 320.051,220.155 320.423,221.641 317.251 C 222.297 315.849,222.767 314.634,222.685 314.551 C 222.602 314.469,222.054 315.478,221.467 316.793 M179.807 318.679 C 180.407 320.114,180.800 320.762,180.800 320.316 C 180.800 319.884,179.585 317.200,179.389 317.200 C 179.279 317.200,179.467 317.866,179.807 318.679 M182.046 323.800 C 182.053 324.020,182.406 324.920,182.829 325.800 C 183.252 326.680,183.486 326.950,183.349 326.400 C 183.067 325.267,182.025 323.188,182.046 323.800 M191.600 349.489 C 191.600 349.721,191.971 350.336,192.424 350.856 L 193.247 351.800 192.545 350.600 C 191.620 349.021,191.600 348.997,191.600 349.489 M208.597 350.008 C 208.446 350.486,207.574 351.614,206.661 352.516 C 205.269 353.889,205.206 354.011,206.272 353.270 C 207.568 352.368,209.461 349.728,209.082 349.349 C 208.967 349.234,208.749 349.531,208.597 350.008 M193.200 352.146 C 193.200 352.256,193.740 352.730,194.400 353.200 C 195.060 353.670,195.600 353.964,195.600 353.854 C 195.600 353.744,195.060 353.270,194.400 352.800 C 193.740 352.330,193.200 352.036,193.200 352.146 M199.700 355.076 C 200.085 355.176,200.715 355.176,201.100 355.076 C 201.485 354.975,201.170 354.893,200.400 354.893 C 199.630 354.893,199.315 354.975,199.700 355.076 " stroke="none" fill="#74ac8c" fill-rule="evenodd"></path></g></svg>