<svg clip-rule="evenodd" fill-rule="evenodd" height="800" image-rendering="optimizeQuality" shape-rendering="geometricPrecision" text-rendering="geometricPrecision" width="800" xmlns="http://www.w3.org/2000/svg"><path d="m-.5-.5h800v800c-266.667 0-533.333 0-800 0 0-266.667 0-533.333 0-800z" fill="#ff6400"/><path d="m383.5 99.5c87.294-2.5536 157.461 30.446 210.5 99 48.607 70.521 58.274 146.188 29 227-19.835 48.431-46.168 92.764-79 133-43.126 52.294-91.292 99.294-144.5 141-71.805-55.295-132.971-120.295-183.5-195-24.167-37.341-41.501-77.675-52-121-14.049-86.853 10.451-160.687 73.5-221.5 41.677-37.001 90.344-57.835 146-62.5z" fill="#fefefe"/><path d="m288.5 290.5c21.168-.88 31.668 9.12 31.5 30-4.808 17.13-15.975 23.964-33.5 20.5-16.368-8.629-20.868-21.463-13.5-38.5 4.184-5.36 9.351-9.36 15.5-12z" fill="#13120f"/><path d="m504.5 290.5c21.676-.823 32.176 9.51 31.5 31-5.12 15.817-15.954 22.317-32.5 19.5-15.259-6.757-20.759-18.257-16.5-34.5 4.126-7.297 9.96-12.63 17.5-16z" fill="#13120f"/><path d="m329.5 364.5c3.773-.237 7.44.263 11 1.5 35.879 27.419 73.879 30.752 114 10 3.181-2.092 6.181-4.425 9-7 9.878-4.491 17.378-1.991 22.5 7.5 1.224 5.804.224 11.138-3 16-41.545 30.689-86.045 35.522-133.5 14.5-10.116-4.804-19.283-10.971-27.5-18.5-5.316-10.607-2.816-18.607 7.5-24z" fill="#12110e"/></svg>