<?xml version="1.0" encoding="UTF-8"?>
<!DOCTYPE svg PUBLIC "-//W3C//DTD SVG 1.1//EN" "http://www.w3.org/Graphics/SVG/1.1/DTD/svg11.dtd">
<svg xmlns="http://www.w3.org/2000/svg" version="1.1" width="240px" height="240px" style="shape-rendering:geometricPrecision; text-rendering:geometricPrecision; image-rendering:optimizeQuality; fill-rule:evenodd; clip-rule:evenodd" xmlns:xlink="http://www.w3.org/1999/xlink">
<g><path style="opacity:1" fill="#ff6301" d="M -0.5,-0.5 C 40.5,-0.5 81.5,-0.5 122.5,-0.5C 122.5,40.5 122.5,81.5 122.5,122.5C 81.5,122.5 40.5,122.5 -0.5,122.5C -0.5,81.5 -0.5,40.5 -0.5,-0.5 Z"/></g>
<g><path style="opacity:1" fill="#fefffe" d="M 123.5,-0.5 C 125.167,-0.5 126.833,-0.5 128.5,-0.5C 128.5,40.8333 128.5,82.1667 128.5,123.5C 165.5,123.5 202.5,123.5 239.5,123.5C 239.5,125.167 239.5,126.833 239.5,128.5C 202.5,128.5 165.5,128.5 128.5,128.5C 128.5,165.5 128.5,202.5 128.5,239.5C 126.833,239.5 125.167,239.5 123.5,239.5C 123.5,202.5 123.5,165.5 123.5,128.5C 82.1667,128.5 40.8333,128.5 -0.5,128.5C -0.5,126.833 -0.5,125.167 -0.5,123.5C 40.8333,123.5 82.1667,123.5 123.5,123.5C 123.5,82.1667 123.5,40.8333 123.5,-0.5 Z"/></g>
<g><path style="opacity:1" fill="#00a04d" d="M 129.5,-0.5 C 166.167,-0.5 202.833,-0.5 239.5,-0.5C 239.5,40.5 239.5,81.5 239.5,122.5C 202.833,122.5 166.167,122.5 129.5,122.5C 129.5,81.5 129.5,40.5 129.5,-0.5 Z"/></g>
<g><path style="opacity:1" fill="#fefcfc" d="M 58.5,12.5 C 88.3994,14.6407 102.233,30.6407 100,60.5C 96.4861,71.1966 91.1527,80.8632 84,89.5C 76.9696,96.8648 69.6363,103.865 62,110.5C 46.2775,98.7872 34.2775,84.1206 26,66.5C 19.2797,37.7556 30.1131,19.7556 58.5,12.5 Z"/></g>
<g><path style="opacity:1" fill="#f8fbf9" d="M 161.5,33.5 C 175.171,33.3334 188.837,33.5001 202.5,34C 206.694,36.2125 209.028,39.7125 209.5,44.5C 210.478,44.9767 211.311,45.6433 212,46.5C 212.667,49.5 212.667,52.5 212,55.5C 210.989,56.3366 209.822,56.67 208.5,56.5C 208.666,66.5056 208.5,76.5056 208,86.5C 206.309,90.2127 203.475,91.3794 199.5,90C 196.961,88.195 195.961,85.695 196.5,82.5C 187.167,82.5 177.833,82.5 168.5,82.5C 168.632,88.873 165.632,91.373 159.5,90C 158.333,89.5 157.5,88.6667 157,87.5C 156.5,77.172 156.334,66.8387 156.5,56.5C 155.178,56.67 154.011,56.3366 153,55.5C 152.333,52.1667 152.333,48.8333 153,45.5C 154.011,44.6634 155.178,44.33 156.5,44.5C 155.925,39.7616 157.592,36.0949 161.5,33.5 Z"/></g>
<g><path style="opacity:1" fill="#00a04b" d="M 201.5,41.5 C 201.5,48.1667 201.5,54.8333 201.5,61.5C 188.5,61.5 175.5,61.5 162.5,61.5C 162.187,54.2454 162.52,47.0787 163.5,40C 169.833,39.8333 176.167,39.6667 182.5,39.5C 189.204,39.5036 195.537,40.1702 201.5,41.5 Z"/></g>
<g><path style="opacity:1" fill="#050505" d="M 42.5,44.5 C 48.4877,44.664 49.821,47.164 46.5,52C 40.8121,51.7902 39.4788,49.2902 42.5,44.5 Z"/></g>
<g><path style="opacity:1" fill="#0a0a0a" d="M 77.5,44.5 C 83.704,44.3137 85.0374,46.8137 81.5,52C 75.8339,51.835 74.5006,49.335 77.5,44.5 Z"/></g>
<g><path style="opacity:1" fill="#060606" d="M 49.5,56.5 C 53.7211,58.1056 58.0545,59.4389 62.5,60.5C 66.45,59.961 70.1167,58.6276 73.5,56.5C 75.5962,57.6197 75.9295,59.1197 74.5,61C 66.5278,65.6108 58.5278,65.6108 50.5,61C 48.4523,59.7741 48.119,58.2741 49.5,56.5 Z"/></g>
<g><path style="opacity:1" fill="#6abc89" d="M 201.5,41.5 C 202.491,48.3134 202.825,55.3134 202.5,62.5C 188.99,62.8289 175.656,62.4956 162.5,61.5C 175.5,61.5 188.5,61.5 201.5,61.5C 201.5,54.8333 201.5,48.1667 201.5,41.5 Z"/></g>
<g><path style="opacity:1" fill="#19a14c" d="M 163.5,68.5 C 170.536,67.6026 172.203,70.1026 168.5,76C 162.785,76.401 161.119,73.901 163.5,68.5 Z"/></g>
<g><path style="opacity:1" fill="#18a24d" d="M 195.5,68.5 C 201.729,68.0267 203.395,70.36 200.5,75.5C 196.895,77.0312 194.562,75.8645 193.5,72C 193.978,70.6974 194.645,69.5307 195.5,68.5 Z"/></g>
<g><path style="opacity:1" fill="#ff987f" d="M 122.5,-0.5 C 122.833,-0.5 123.167,-0.5 123.5,-0.5C 123.5,40.8333 123.5,82.1667 123.5,123.5C 82.1667,123.5 40.8333,123.5 -0.5,123.5C -0.5,123.167 -0.5,122.833 -0.5,122.5C 40.5,122.5 81.5,122.5 122.5,122.5C 122.5,81.5 122.5,40.5 122.5,-0.5 Z"/></g>
<g><path style="opacity:1" fill="#8abf98" d="M 128.5,-0.5 C 128.833,-0.5 129.167,-0.5 129.5,-0.5C 129.5,40.5 129.5,81.5 129.5,122.5C 166.167,122.5 202.833,122.5 239.5,122.5C 239.5,122.833 239.5,123.167 239.5,123.5C 202.5,123.5 165.5,123.5 128.5,123.5C 128.5,82.1667 128.5,40.8333 128.5,-0.5 Z"/></g>
<g><path style="opacity:1" fill="#fdd3a2" d="M 239.5,128.5 C 239.5,128.833 239.5,129.167 239.5,129.5C 202.833,129.5 166.167,129.5 129.5,129.5C 129.5,166.167 129.5,202.833 129.5,239.5C 129.167,239.5 128.833,239.5 128.5,239.5C 128.5,202.5 128.5,165.5 128.5,128.5C 165.5,128.5 202.5,128.5 239.5,128.5 Z"/></g>
<g><path style="opacity:1" fill="#1a64e4" d="M -0.5,129.5 C 40.5,129.5 81.5,129.5 122.5,129.5C 122.5,166.167 122.5,202.833 122.5,239.5C 81.5,239.5 40.5,239.5 -0.5,239.5C -0.5,202.833 -0.5,166.167 -0.5,129.5 Z"/></g>
<g><path style="opacity:1" fill="#8ca0ec" d="M -0.5,129.5 C -0.5,129.167 -0.5,128.833 -0.5,128.5C 40.8333,128.5 82.1667,128.5 123.5,128.5C 123.5,165.5 123.5,202.5 123.5,239.5C 123.167,239.5 122.833,239.5 122.5,239.5C 122.5,202.833 122.5,166.167 122.5,129.5C 81.5,129.5 40.5,129.5 -0.5,129.5 Z"/></g>
<g><path style="opacity:1" fill="#fcb314" d="M 239.5,129.5 C 239.5,166.167 239.5,202.833 239.5,239.5C 202.833,239.5 166.167,239.5 129.5,239.5C 129.5,202.833 129.5,166.167 129.5,129.5C 166.167,129.5 202.833,129.5 239.5,129.5 Z"/></g>
<g><path style="opacity:1" fill="#fffaf3" d="M 170.5,144.5 C 200.832,141.67 215.332,155.337 214,185.5C 213.108,188.952 211.442,191.952 209,194.5C 208.847,185.45 208.18,176.45 207,167.5C 201.951,154.968 192.618,149.302 179,150.5C 165.687,149.992 156.687,155.992 152,168.5C 151.667,177.167 151.333,185.833 151,194.5C 146.103,189.906 144.269,184.239 145.5,177.5C 145.959,160.392 154.292,149.392 170.5,144.5 Z"/></g>
<g><path style="opacity:1" fill="#f5f7fd" d="M 48.5,150.5 C 57.8393,150.334 67.1726,150.5 76.5,151C 79.2953,152.793 81.7953,154.96 84,157.5C 85.6245,169.404 85.9579,181.404 85,193.5C 83.8333,196 82,197.833 79.5,199C 81.5431,202.253 83.7098,205.42 86,208.5C 86.5,212 85,213.5 81.5,213C 80.6433,212.311 79.9767,211.478 79.5,210.5C 68.5151,209.334 57.5151,209.168 46.5,210C 42.4243,215.078 40.2577,214.578 40,208.5C 41.6349,205.368 43.4682,202.368 45.5,199.5C 42.7758,197.934 40.9424,195.601 40,192.5C 39.3333,181.833 39.3333,171.167 40,160.5C 41.9779,156.362 44.8112,153.029 48.5,150.5 Z"/></g>
<g><path style="opacity:1" fill="#fffaf4" d="M 172.5,155.5 C 180.704,154.462 188.371,155.962 195.5,160C 198.057,162.892 200.224,166.059 202,169.5C 202.667,177.5 202.667,185.5 202,193.5C 200.833,196 199,197.833 196.5,199C 198.543,202.253 200.71,205.42 203,208.5C 203.5,212 202,213.5 198.5,213C 197.643,212.311 196.977,211.478 196.5,210.5C 185.515,209.334 174.515,209.168 163.5,210C 162.028,212.996 159.862,213.829 157,212.5C 157.267,207.453 159.1,202.953 162.5,199C 159.619,197.749 157.786,195.583 157,192.5C 156.333,185.5 156.333,178.5 157,171.5C 159.685,163.65 164.852,158.316 172.5,155.5 Z"/></g>
<g><path style="opacity:1" fill="#1963e4" d="M 50.5,156.5 C 58.84,156.334 67.1733,156.5 75.5,157C 76.6667,158.167 77.8333,159.333 79,160.5C 79.4995,166.491 79.6662,172.491 79.5,178.5C 68.1667,178.5 56.8333,178.5 45.5,178.5C 45.3339,172.824 45.5006,167.157 46,161.5C 47.025,159.313 48.525,157.646 50.5,156.5 Z"/></g>
<g><path style="opacity:1" fill="#fcb316" d="M 173.5,161.5 C 183.141,159.539 190.641,162.539 196,170.5C 196.497,173.146 196.664,175.813 196.5,178.5C 185.167,178.5 173.833,178.5 162.5,178.5C 162.431,170.283 166.097,164.616 173.5,161.5 Z"/></g>
<g><path style="opacity:1" fill="#2063e5" d="M 48.5,184.5 C 53.2624,185.092 54.5957,187.592 52.5,192C 45.1859,192.537 43.8525,190.037 48.5,184.5 Z"/></g>
<g><path style="opacity:1" fill="#2766e5" d="M 73.5,184.5 C 78.9836,184.481 80.6503,186.981 78.5,192C 71.3691,193.211 69.7024,190.711 73.5,184.5 Z"/></g>
<g><path style="opacity:1" fill="#fcb41a" d="M 164.5,184.5 C 169.984,184.481 171.65,186.981 169.5,192C 162.745,192.756 161.078,190.256 164.5,184.5 Z"/></g>
<g><path style="opacity:1" fill="#fcb41a" d="M 190.5,184.5 C 195.984,184.481 197.65,186.981 195.5,192C 188.683,192.861 187.016,190.361 190.5,184.5 Z"/></g>
<g><path style="opacity:1" fill="#fcb20a" d="M 190.5,201.5 C 183.352,202.492 176.019,202.825 168.5,202.5C 168.414,201.504 168.748,200.671 169.5,200C 176.167,199.333 182.833,199.333 189.5,200C 190.056,200.383 190.389,200.883 190.5,201.5 Z"/></g>
<g><path style="opacity:1" fill="#0e5fe4" d="M 73.5,201.5 C 66.3524,202.492 59.0191,202.825 51.5,202.5C 51.4142,201.504 51.7476,200.671 52.5,200C 59.1667,199.333 65.8333,199.333 72.5,200C 73.056,200.383 73.3893,200.883 73.5,201.5 Z"/></g>
<g><path style="opacity:1" fill="#618eea" d="M 73.5,201.5 C 74.0431,201.56 74.3764,201.893 74.5,202.5C 70.5,202.833 66.5,203.167 62.5,203.5C 58.0755,203.536 54.4088,203.202 51.5,202.5C 59.0191,202.825 66.3524,202.492 73.5,201.5 Z"/></g>
<g><path style="opacity:1" fill="#fccb71" d="M 190.5,201.5 C 191.043,201.56 191.376,201.893 191.5,202.5C 187.5,202.833 183.5,203.167 179.5,203.5C 175.075,203.536 171.409,203.202 168.5,202.5C 176.019,202.825 183.352,202.492 190.5,201.5 Z"/></g>
</svg>
