<?xml version="1.0" encoding="UTF-8"?>
<!DOCTYPE svg PUBLIC "-//W3C//DTD SVG 1.1//EN" "http://www.w3.org/Graphics/SVG/1.1/DTD/svg11.dtd">
<svg xmlns="http://www.w3.org/2000/svg" version="1.1" width="800px" height="800px" style="shape-rendering:geometricPrecision; text-rendering:geometricPrecision; image-rendering:optimizeQuality; fill-rule:evenodd; clip-rule:evenodd" xmlns:xlink="http://www.w3.org/1999/xlink">
<g><path style="opacity:1" fill="#ff6400" d="M -0.5,-0.5 C 266.167,-0.5 532.833,-0.5 799.5,-0.5C 799.5,266.167 799.5,532.833 799.5,799.5C 532.833,799.5 266.167,799.5 -0.5,799.5C -0.5,532.833 -0.5,266.167 -0.5,-0.5 Z"/></g>
<g><path style="opacity:1" fill="#fefefe" d="M 383.5,99.5 C 470.794,96.9464 540.961,129.946 594,198.5C 642.607,269.021 652.274,344.688 623,425.5C 603.165,473.931 576.832,518.264 544,558.5C 500.874,610.794 452.708,657.794 399.5,699.5C 327.695,644.205 266.529,579.205 216,504.5C 191.833,467.159 174.499,426.825 164,383.5C 149.951,296.647 174.451,222.813 237.5,162C 279.177,124.999 327.844,104.165 383.5,99.5 Z"/></g>
<g><path style="opacity:1" fill="#13120f" d="M 288.5,290.5 C 309.668,289.62 320.168,299.62 320,320.5C 315.192,337.63 304.025,344.464 286.5,341C 270.132,332.371 265.632,319.537 273,302.5C 277.184,297.14 282.351,293.14 288.5,290.5 Z"/></g>
<g><path style="opacity:1" fill="#13120f" d="M 504.5,290.5 C 526.176,289.677 536.676,300.01 536,321.5C 530.88,337.317 520.046,343.817 503.5,341C 488.241,334.243 482.741,322.743 487,306.5C 491.126,299.203 496.96,293.87 504.5,290.5 Z"/></g>
<g><path style="opacity:1" fill="#12110e" d="M 329.5,364.5 C 333.273,364.263 336.94,364.763 340.5,366C 376.379,393.419 414.379,396.752 454.5,376C 457.681,373.908 460.681,371.575 463.5,369C 473.378,364.509 480.878,367.009 486,376.5C 487.224,382.304 486.224,387.638 483,392.5C 441.455,423.189 396.955,428.022 349.5,407C 339.384,402.196 330.217,396.029 322,388.5C 316.684,377.893 319.184,369.893 329.5,364.5 Z"/></g>
</svg>
