<svg id="svg" version="1.1" xmlns="http://www.w3.org/2000/svg" xmlns:xlink="http://www.w3.org/1999/xlink" width="400" height="400" viewBox="0, 0, 400,400"><g id="svgg"><path id="path0" d="M137.200 43.198 C 59.685 50.161,16.955 140.447,60.627 204.991 C 65.502 212.195,77.363 229.514,94.877 255.000 C 98.505 260.280,107.593 273.510,115.073 284.400 C 130.283 306.546,132.900 310.352,138.524 318.509 C 140.683 321.639,143.251 325.410,144.232 326.890 C 147.752 332.201,148.494 331.941,154.334 323.342 C 157.226 319.083,167.702 303.750,171.921 297.600 C 173.808 294.850,177.627 289.270,180.408 285.200 C 183.188 281.130,186.770 275.910,188.366 273.600 C 189.963 271.290,193.873 265.530,197.057 260.800 C 200.240 256.070,204.333 250.040,206.153 247.400 C 207.972 244.760,211.687 239.360,214.408 235.400 C 217.130 231.440,220.446 226.620,221.778 224.689 C 237.217 202.303,239.177 199.306,241.719 194.200 C 278.626 120.063,220.258 35.737,137.200 43.198 M145.315 124.500 C 150.469 132.035,155.837 139.941,157.243 142.068 C 158.649 144.195,159.933 145.950,160.096 145.968 C 160.258 145.986,160.438 138.125,160.496 128.500 L 160.600 111.000 173.600 111.000 L 186.600 111.000 186.702 146.105 L 186.804 181.211 173.345 181.105 L 159.886 181.000 155.089 174.000 C 152.450 170.150,147.157 162.410,143.325 156.800 C 139.494 151.190,136.190 146.541,135.984 146.468 C 135.755 146.388,135.568 153.102,135.504 163.668 L 135.400 181.000 122.300 181.105 L 109.200 181.211 109.200 146.272 C 109.200 127.056,109.320 111.213,109.467 111.067 C 109.613 110.920,115.631 110.800,122.839 110.800 L 135.944 110.800 145.315 124.500 " stroke="none" fill="#04df47" fill-rule="evenodd"></path><path id="path1" d="M190.982 269.807 C 188.792 273.001,185.650 277.566,184.000 279.952 C 182.350 282.338,179.233 286.880,177.074 290.045 C 174.915 293.210,169.395 301.290,164.807 308.000 C 160.220 314.710,155.506 321.614,154.333 323.342 C 153.160 325.070,151.521 327.365,150.691 328.442 L 149.181 330.400 206.724 330.400 C 238.373 330.400,294.807 330.280,332.134 330.134 L 400.000 329.867 400.000 297.194 L 400.000 264.520 396.339 264.260 C 394.325 264.117,348.192 264.000,293.820 264.000 L 194.963 264.000 190.982 269.807 " stroke="none" fill="#4454f3" fill-rule="evenodd"></path><path id="path2" d="M55.700 0.292 C 54.545 0.374,53.600 0.612,53.600 0.821 C 53.600 1.029,52.981 1.200,52.224 1.200 C 51.467 1.200,50.736 1.380,50.600 1.600 C 50.464 1.820,49.823 2.000,49.176 2.000 C 48.529 2.000,48.000 2.180,48.000 2.400 C 48.000 2.620,47.561 2.800,47.024 2.800 C 46.487 2.800,45.936 2.980,45.800 3.200 C 45.664 3.420,45.203 3.600,44.776 3.600 C 44.349 3.600,44.000 3.780,44.000 4.000 C 44.000 4.220,43.550 4.400,43.000 4.400 C 42.450 4.400,42.000 4.580,42.000 4.800 C 42.000 5.020,41.640 5.200,41.200 5.200 C 40.760 5.200,40.400 5.380,40.400 5.600 C 40.400 5.820,40.040 6.000,39.600 6.000 C 39.160 6.000,38.800 6.180,38.800 6.400 C 38.800 6.620,38.440 6.800,38.000 6.800 C 37.560 6.800,37.200 6.980,37.200 7.200 C 37.200 7.420,36.840 7.600,36.400 7.600 C 35.960 7.600,35.600 7.758,35.600 7.951 C 35.600 8.145,35.032 8.538,34.338 8.826 C 33.183 9.304,28.454 12.373,27.324 13.377 C 27.062 13.610,25.726 14.790,24.356 16.000 C 19.093 20.647,12.000 28.430,12.000 29.558 C 12.000 29.801,11.841 30.000,11.646 30.000 C 11.451 30.000,10.993 30.585,10.628 31.300 C 10.263 32.015,9.626 33.140,9.211 33.800 C 8.797 34.460,8.445 35.315,8.429 35.700 C 8.413 36.085,8.220 36.400,8.000 36.400 C 7.780 36.400,7.600 36.760,7.600 37.200 C 7.600 37.640,7.420 38.000,7.200 38.000 C 6.980 38.000,6.800 38.360,6.800 38.800 C 6.800 39.240,6.620 39.600,6.400 39.600 C 6.180 39.600,6.000 39.960,6.000 40.400 C 6.000 40.840,5.820 41.200,5.600 41.200 C 5.380 41.200,5.200 41.560,5.200 42.000 C 5.200 42.440,5.020 42.800,4.800 42.800 C 4.580 42.800,4.400 43.250,4.400 43.800 C 4.400 44.350,4.220 44.800,4.000 44.800 C 3.780 44.800,3.600 45.239,3.600 45.776 C 3.600 46.313,3.420 46.864,3.200 47.000 C 2.980 47.136,2.800 47.676,2.800 48.200 C 2.800 48.724,2.620 49.264,2.400 49.400 C 2.180 49.536,2.000 50.094,2.000 50.640 C 2.000 51.187,1.665 51.993,1.256 52.432 C 0.008 53.772,0.006 54.044,0.006 200.000 C 0.006 345.931,0.013 346.774,1.263 347.101 C 1.817 347.245,2.000 347.673,2.000 348.823 C 2.000 349.664,2.180 350.464,2.400 350.600 C 2.620 350.736,2.800 351.276,2.800 351.800 C 2.800 352.324,2.980 352.864,3.200 353.000 C 3.420 353.136,3.600 353.697,3.600 354.247 C 3.600 354.812,3.774 355.140,4.000 355.000 C 4.233 354.856,4.400 355.263,4.400 355.976 C 4.400 356.649,4.580 357.200,4.800 357.200 C 5.020 357.200,5.200 357.560,5.200 358.000 C 5.200 358.440,5.380 358.800,5.600 358.800 C 5.820 358.800,6.000 359.160,6.000 359.600 C 6.000 360.040,6.135 360.401,6.300 360.403 C 6.659 360.407,7.600 362.344,7.600 363.080 C 7.600 363.366,7.780 363.600,8.000 363.600 C 8.220 363.600,8.400 363.938,8.400 364.351 C 8.400 364.764,8.668 365.324,8.996 365.596 C 9.323 365.868,9.500 366.238,9.389 366.418 C 9.278 366.598,9.365 366.855,9.583 366.989 C 9.800 367.124,10.273 367.855,10.633 368.613 C 10.993 369.372,11.448 369.894,11.644 369.773 C 11.840 369.652,12.000 369.832,12.000 370.173 C 12.000 370.945,14.627 374.440,14.958 374.109 C 15.091 373.976,15.200 374.094,15.200 374.373 C 15.200 374.651,15.740 375.383,16.400 376.000 C 17.060 376.617,17.600 377.281,17.600 377.476 C 17.600 377.918,21.308 381.600,21.753 381.600 C 21.932 381.600,22.556 382.108,23.140 382.729 C 23.723 383.350,24.695 384.181,25.300 384.575 C 25.905 384.969,26.400 385.541,26.400 385.846 C 26.400 386.151,26.670 386.400,27.000 386.400 C 27.330 386.400,27.600 386.580,27.600 386.800 C 27.600 387.020,27.882 387.200,28.227 387.200 C 28.571 387.200,29.486 387.797,30.259 388.526 C 31.032 389.255,32.505 390.290,33.532 390.826 C 34.559 391.362,35.460 391.935,35.533 392.100 C 35.607 392.265,36.102 392.400,36.633 392.400 C 37.165 392.400,37.600 392.580,37.600 392.800 C 37.600 393.020,37.870 393.200,38.200 393.200 C 38.530 393.200,38.800 393.380,38.800 393.600 C 38.800 393.820,39.261 394.000,39.824 394.000 C 40.404 394.000,40.740 394.173,40.600 394.400 C 40.464 394.620,40.723 394.800,41.176 394.800 C 41.629 394.800,42.000 394.980,42.000 395.200 C 42.000 395.420,42.450 395.600,43.000 395.600 C 43.550 395.600,44.000 395.746,44.000 395.924 C 44.000 396.103,44.900 396.479,46.000 396.761 C 47.100 397.043,48.000 397.437,48.000 397.637 C 48.000 397.837,48.529 398.000,49.176 398.000 C 49.823 398.000,50.464 398.180,50.600 398.400 C 50.736 398.620,51.452 398.800,52.190 398.800 C 52.929 398.800,53.608 399.025,53.700 399.300 C 53.882 399.846,334.830 400.313,343.155 399.781 C 345.790 399.613,347.107 399.387,346.755 399.164 C 346.390 398.932,346.841 398.810,348.076 398.806 C 349.108 398.803,350.064 398.620,350.200 398.400 C 350.336 398.180,350.987 398.000,351.647 398.000 C 352.345 398.000,352.744 397.833,352.600 397.600 C 352.460 397.373,352.798 397.200,353.384 397.200 C 353.952 397.200,355.113 396.760,355.964 396.223 C 356.815 395.685,357.622 395.355,357.756 395.489 C 357.890 395.624,358.000 395.523,358.000 395.267 C 358.000 395.010,358.354 394.800,358.786 394.800 C 359.218 394.800,360.365 394.357,361.335 393.816 C 362.305 393.274,363.240 392.959,363.413 393.116 C 363.586 393.272,363.599 393.175,363.441 392.900 C 363.183 392.452,363.879 392.191,364.900 392.353 C 365.065 392.379,365.200 392.220,365.200 392.000 C 365.200 391.780,365.481 391.600,365.824 391.600 C 366.167 391.600,366.337 391.422,366.203 391.205 C 366.063 390.978,366.223 390.911,366.576 391.046 C 366.939 391.185,367.294 391.020,367.439 390.644 C 367.573 390.292,367.845 390.104,368.042 390.226 C 368.239 390.348,368.400 390.167,368.400 389.824 C 368.400 389.481,368.591 389.200,368.824 389.200 C 369.057 389.200,369.133 389.425,368.993 389.700 C 368.853 389.975,369.113 389.775,369.570 389.256 C 370.026 388.736,370.400 388.428,370.400 388.571 C 370.400 388.853,370.996 388.397,372.800 386.735 C 373.531 386.061,374.026 385.841,374.147 386.135 C 374.251 386.391,374.351 386.207,374.368 385.727 C 374.386 385.243,374.735 384.748,375.152 384.615 C 376.187 384.287,377.643 382.976,377.326 382.659 C 377.082 382.415,377.786 382.284,378.185 382.500 C 378.875 382.874,383.853 376.890,383.384 376.251 C 383.283 376.113,383.322 376.092,383.470 376.204 C 383.831 376.475,385.600 374.791,385.600 374.177 C 385.600 373.911,385.983 373.593,386.452 373.471 C 387.073 373.308,387.230 373.054,387.031 372.536 C 386.881 372.145,386.872 371.939,387.013 372.079 C 387.346 372.412,388.800 371.163,388.800 370.544 C 388.800 370.282,388.991 370.003,389.225 369.925 C 389.459 369.847,389.706 369.276,389.774 368.657 C 389.842 368.038,390.216 367.232,390.605 366.866 C 391.048 366.449,391.194 366.410,390.995 366.762 C 390.782 367.138,390.829 367.229,391.138 367.038 C 391.392 366.881,391.600 366.347,391.600 365.852 C 391.600 365.356,391.960 364.564,392.400 364.092 C 392.840 363.620,393.200 363.080,393.200 362.892 C 393.200 362.704,393.588 361.751,394.063 360.775 C 394.537 359.799,394.927 358.783,394.929 358.518 C 394.932 358.252,395.083 358.128,395.267 358.241 C 395.450 358.355,395.600 358.167,395.600 357.824 C 395.600 357.481,395.795 357.200,396.033 357.200 C 396.272 357.200,396.385 356.975,396.286 356.700 C 396.186 356.425,396.396 355.854,396.752 355.431 C 397.108 355.008,397.191 354.784,396.935 354.933 C 396.680 355.082,396.815 354.491,397.235 353.621 C 397.656 352.751,398.000 351.668,398.000 351.214 C 398.000 350.760,398.223 350.032,398.496 349.595 C 398.894 348.958,398.888 348.633,398.467 347.958 C 398.178 347.495,398.114 347.223,398.325 347.354 C 398.774 347.631,399.833 346.499,399.467 346.133 C 399.331 345.997,398.900 346.137,398.510 346.443 C 397.880 346.938,397.856 346.929,398.297 346.363 C 398.570 346.013,398.704 345.637,398.595 345.528 C 398.310 345.244,399.225 342.768,399.542 342.964 C 399.688 343.054,399.829 340.444,399.856 337.164 L 399.906 331.200 391.653 331.254 C 387.114 331.284,379.800 331.431,375.400 331.581 L 367.400 331.853 374.600 331.929 C 384.610 332.036,387.200 332.309,387.200 333.258 C 387.200 333.733,386.913 334.000,386.400 334.000 C 385.960 334.000,385.600 334.180,385.600 334.400 C 385.600 334.620,385.780 334.800,386.000 334.800 C 386.220 334.800,386.400 335.120,386.400 335.512 C 386.400 335.903,386.760 336.483,387.200 336.800 C 388.617 337.822,388.226 338.800,386.400 338.800 C 385.067 338.800,384.800 338.667,384.800 338.000 C 384.800 337.467,384.533 337.200,384.000 337.200 C 382.732 337.200,382.964 339.059,384.400 340.400 C 385.944 341.842,385.917 342.392,384.300 342.432 C 383.585 342.449,383.225 342.554,383.500 342.665 C 384.672 343.138,384.085 345.600,382.800 345.600 C 381.557 345.600,381.004 344.265,382.096 343.901 C 382.445 343.785,382.365 343.508,381.829 342.971 C 381.292 342.435,381.015 342.355,380.899 342.704 C 380.808 342.977,380.388 343.200,379.967 343.200 C 378.978 343.200,378.991 343.673,380.000 344.400 C 380.440 344.717,380.800 345.297,380.800 345.688 C 380.800 346.133,380.500 346.400,380.000 346.400 C 379.467 346.400,379.200 346.667,379.200 347.200 C 379.200 348.397,377.315 348.308,377.082 347.100 L 376.909 346.200 376.854 347.100 C 376.813 347.779,376.554 348.000,375.800 348.000 C 375.250 348.000,374.800 348.180,374.800 348.400 C 374.800 348.620,374.440 348.800,374.000 348.800 C 373.560 348.800,373.200 348.940,373.200 349.112 C 373.200 349.283,373.560 349.683,374.000 350.000 C 375.239 350.893,375.036 352.000,373.633 352.000 C 372.992 352.000,372.386 351.775,372.288 351.500 C 372.190 351.225,371.973 351.126,371.807 351.281 C 371.403 351.657,372.580 352.800,373.371 352.800 C 374.151 352.800,374.167 353.090,373.429 353.829 C 372.285 354.972,370.000 354.173,370.000 352.629 C 370.000 352.267,369.661 352.000,369.200 352.000 C 368.667 352.000,368.400 352.267,368.400 352.800 C 368.400 353.240,368.580 353.600,368.800 353.600 C 369.020 353.600,369.200 354.140,369.200 354.800 C 369.200 355.733,369.022 356.000,368.400 356.000 C 367.960 356.000,367.600 355.820,367.600 355.600 C 367.600 355.380,367.060 355.200,366.400 355.200 C 365.467 355.200,365.200 355.378,365.200 356.000 C 365.200 356.533,365.467 356.800,366.000 356.800 C 366.440 356.800,366.800 356.980,366.800 357.200 C 366.800 357.420,366.337 357.600,365.771 357.600 C 365.206 357.600,364.473 357.870,364.143 358.200 C 363.813 358.530,362.836 358.800,361.971 358.800 C 361.107 358.800,360.400 358.980,360.400 359.200 C 360.400 359.420,360.130 359.600,359.800 359.600 C 359.470 359.600,359.200 359.361,359.200 359.069 C 359.200 358.707,358.819 358.594,358.000 358.715 C 356.537 358.929,356.370 360.000,357.800 360.000 C 358.422 360.000,358.800 360.227,358.800 360.600 C 358.800 360.973,358.422 361.200,357.800 361.200 C 357.067 361.200,356.800 361.413,356.800 362.000 C 356.800 362.533,356.533 362.800,356.000 362.800 C 355.560 362.800,355.200 362.980,355.200 363.200 C 355.200 363.437,353.733 363.600,351.600 363.600 C 349.467 363.600,348.000 363.763,348.000 364.000 C 348.000 364.220,347.460 364.400,346.800 364.400 C 346.140 364.400,345.600 364.580,345.600 364.800 C 345.600 365.020,345.240 365.200,344.800 365.200 C 344.360 365.200,344.000 365.380,344.000 365.600 C 344.000 365.820,343.730 366.000,343.400 366.000 C 343.070 366.000,342.800 365.820,342.800 365.600 C 342.800 365.380,342.440 365.200,342.000 365.200 C 341.560 365.200,341.200 365.380,341.200 365.600 C 341.200 365.820,340.840 366.000,340.400 366.000 C 339.960 366.000,339.600 366.180,339.600 366.400 C 339.600 366.620,338.700 366.800,337.600 366.800 C 336.500 366.800,335.600 366.980,335.600 367.200 C 335.600 367.420,335.060 367.600,334.400 367.600 C 333.467 367.600,333.200 367.778,333.200 368.400 C 333.200 368.933,332.933 369.200,332.400 369.200 C 331.960 369.200,331.600 369.020,331.600 368.800 C 331.600 368.580,330.880 368.400,330.000 368.400 C 329.120 368.400,328.400 368.580,328.400 368.800 C 328.400 369.020,327.860 369.200,327.200 369.200 C 326.540 369.200,326.000 369.380,326.000 369.600 C 326.000 369.820,325.770 370.000,325.488 370.000 C 325.207 370.000,324.717 370.360,324.400 370.800 C 323.944 371.433,323.361 371.601,321.612 371.605 C 318.844 371.612,317.600 371.935,317.600 372.647 C 317.600 372.995,317.155 373.200,316.400 373.200 C 315.740 373.200,315.200 373.380,315.200 373.600 C 315.200 374.181,312.909 374.092,312.633 373.500 C 312.447 373.100,312.353 373.100,312.167 373.500 C 312.038 373.775,311.333 374.000,310.600 374.000 C 309.867 374.000,309.176 373.775,309.065 373.500 C 308.904 373.100,308.857 373.100,308.832 373.500 C 308.814 373.775,308.607 374.000,308.371 374.000 C 308.136 374.000,307.673 374.270,307.343 374.600 C 306.543 375.399,304.400 375.399,304.400 374.600 C 304.400 373.942,303.746 373.774,303.533 374.378 C 303.416 374.712,299.476 375.034,293.400 375.206 C 292.300 375.238,291.625 375.354,291.900 375.465 C 292.175 375.576,292.397 375.967,292.394 376.333 C 292.389 376.911,292.335 376.920,291.994 376.400 C 291.644 375.867,291.556 375.867,291.200 376.400 C 290.844 376.933,290.752 376.933,290.370 376.400 C 290.045 375.948,289.889 375.924,289.736 376.300 C 289.379 377.180,287.200 376.922,287.200 376.000 C 287.200 375.435,286.935 375.202,286.300 375.206 C 285.632 375.211,285.542 375.302,285.951 375.561 C 286.254 375.753,286.379 376.111,286.228 376.355 C 285.847 376.971,282.517 376.925,282.264 376.300 C 282.120 375.945,281.965 375.928,281.730 376.238 C 281.549 376.480,280.918 376.795,280.328 376.939 C 279.738 377.083,278.986 377.471,278.657 377.801 C 277.815 378.642,276.821 378.546,275.947 377.539 C 275.536 377.065,275.200 376.885,275.200 377.139 C 275.200 377.451,274.101 377.600,271.800 377.600 C 269.800 377.600,268.400 377.765,268.400 378.000 C 268.400 378.220,267.500 378.400,266.400 378.400 C 265.300 378.400,264.400 378.580,264.400 378.800 C 264.400 379.031,263.144 379.200,261.433 379.200 C 259.435 379.200,258.400 379.363,258.264 379.700 C 258.111 380.078,257.948 380.053,257.600 379.600 C 257.252 379.147,257.089 379.122,256.936 379.500 C 256.825 379.775,256.334 380.000,255.847 380.000 C 255.359 380.000,254.740 380.220,254.470 380.490 C 254.083 380.877,253.815 380.877,253.195 380.490 C 252.255 379.903,247.351 379.832,247.000 380.400 C 246.668 380.937,244.904 380.912,244.723 380.368 C 244.624 380.071,244.216 380.101,243.421 380.463 C 242.511 380.878,242.228 380.885,242.098 380.495 C 241.838 379.713,241.200 379.919,241.200 380.786 C 241.200 381.534,240.141 382.400,239.226 382.400 C 238.992 382.400,238.800 382.040,238.800 381.600 C 238.800 381.160,238.620 380.800,238.400 380.800 C 238.180 380.800,238.000 380.980,238.000 381.200 C 238.000 381.420,237.460 381.600,236.800 381.600 C 236.140 381.600,235.600 381.420,235.600 381.200 C 235.600 380.980,234.880 380.800,234.000 380.800 C 233.120 380.800,232.400 380.980,232.400 381.200 C 232.400 381.420,232.760 381.600,233.200 381.600 C 234.141 381.600,234.285 382.716,233.388 383.060 C 233.035 383.196,232.465 382.937,232.041 382.447 C 231.637 381.981,231.027 381.600,230.686 381.600 C 230.346 381.600,229.986 381.375,229.887 381.100 C 229.765 380.761,229.450 380.890,228.907 381.500 C 228.036 382.479,226.587 382.699,226.265 381.900 C 226.154 381.625,226.049 381.824,226.032 382.343 C 226.007 383.074,225.843 383.224,225.300 383.009 C 223.888 382.450,222.097 382.320,221.827 382.756 C 221.651 383.041,219.845 383.200,216.776 383.200 C 212.186 383.200,212.000 383.233,212.000 384.043 C 212.000 384.647,211.821 384.817,211.367 384.643 C 211.019 384.509,210.569 384.400,210.367 384.400 C 210.165 384.400,210.000 384.130,210.000 383.800 C 210.000 382.857,208.037 383.067,207.190 384.100 C 206.554 384.876,206.339 384.931,205.631 384.500 C 204.157 383.601,198.137 383.834,197.884 384.800 C 197.686 385.556,197.338 385.600,191.607 385.600 L 185.538 385.600 184.469 384.494 C 182.220 382.168,176.920 374.940,166.733 360.300 C 158.486 348.450,147.963 333.270,147.115 332.000 C 146.747 331.450,145.903 330.399,145.239 329.663 C 144.574 328.928,143.922 327.983,143.788 327.563 C 143.655 327.144,143.390 326.800,143.200 326.800 C 143.010 326.800,142.740 326.441,142.601 326.002 C 142.462 325.564,142.128 324.979,141.859 324.702 C 141.413 324.244,136.396 316.954,130.226 307.800 C 128.892 305.820,127.665 304.140,127.500 304.067 C 127.335 303.993,127.200 303.693,127.200 303.400 C 127.200 303.107,127.049 302.807,126.865 302.733 C 126.680 302.660,124.894 300.170,122.896 297.200 C 120.898 294.230,117.882 289.820,116.195 287.400 C 113.046 282.884,108.108 275.662,101.423 265.800 C 99.336 262.720,97.264 259.750,96.819 259.200 C 96.375 258.650,96.008 257.990,96.005 257.733 C 96.002 257.477,95.850 257.207,95.668 257.133 C 95.485 257.060,94.194 255.290,92.800 253.200 C 91.406 251.110,90.115 249.340,89.932 249.267 C 89.750 249.193,89.600 248.893,89.600 248.600 C 89.600 248.307,89.447 248.007,89.260 247.933 C 89.073 247.860,87.849 246.180,86.539 244.200 C 85.230 242.220,83.527 239.700,82.755 238.600 C 81.984 237.500,79.659 234.080,77.589 231.000 C 75.519 227.920,73.639 225.201,73.413 224.957 C 73.186 224.713,70.120 220.244,66.600 215.025 C 63.080 209.806,59.795 205.055,59.300 204.468 C 58.806 203.881,58.401 203.175,58.400 202.900 C 58.400 202.625,58.253 202.400,58.074 202.400 C 57.754 202.400,57.462 201.911,54.332 196.126 C 51.439 190.779,48.085 182.625,46.752 177.700 C 46.558 176.985,46.208 175.725,45.973 174.900 C 44.008 167.989,43.268 163.171,42.827 154.400 C 42.466 147.215,42.836 135.513,43.573 130.800 C 43.797 129.370,44.093 127.390,44.231 126.400 C 44.369 125.410,44.644 124.429,44.841 124.220 C 45.038 124.011,45.200 123.344,45.200 122.739 C 45.200 122.133,45.361 121.224,45.558 120.719 C 45.755 120.213,46.141 118.990,46.415 118.000 C 47.359 114.592,49.282 108.999,49.641 108.620 C 49.838 108.411,50.000 108.000,50.000 107.708 C 50.000 107.115,55.005 96.775,56.606 94.061 C 63.633 82.149,76.013 68.550,85.800 61.993 C 86.900 61.256,87.890 60.551,88.000 60.426 C 88.110 60.301,88.695 59.944,89.300 59.632 C 89.905 59.320,90.400 58.915,90.400 58.732 C 90.400 58.550,90.597 58.400,90.838 58.400 C 91.079 58.400,91.754 58.061,92.338 57.647 C 98.618 53.192,111.838 47.596,122.200 45.006 C 131.178 42.761,136.272 42.209,148.000 42.209 C 159.358 42.209,164.617 42.753,173.000 44.793 C 183.703 47.397,197.174 53.045,203.662 57.647 C 204.246 58.061,204.921 58.400,205.162 58.400 C 205.403 58.400,205.600 58.550,205.600 58.732 C 205.600 58.915,206.095 59.320,206.700 59.632 C 207.305 59.944,207.890 60.295,208.000 60.413 C 208.110 60.531,209.450 61.510,210.977 62.589 C 216.103 66.209,226.196 75.657,229.151 79.600 C 229.728 80.370,230.609 81.450,231.109 82.000 C 232.345 83.361,238.044 91.775,239.236 94.000 C 239.766 94.990,240.298 95.890,240.417 96.000 C 241.439 96.941,246.790 109.117,248.592 114.600 C 255.727 136.318,255.014 164.860,246.832 185.000 C 246.653 185.440,246.324 186.250,246.100 186.800 C 243.613 192.915,239.458 200.397,234.996 206.800 C 233.233 209.330,230.095 213.920,228.024 217.000 C 225.952 220.080,224.152 222.690,224.023 222.800 C 223.893 222.910,222.702 224.620,221.374 226.600 C 215.324 235.625,210.205 243.011,209.916 243.133 C 209.742 243.207,209.600 243.488,209.600 243.758 C 209.600 244.028,209.285 244.608,208.900 245.046 C 208.515 245.485,208.020 246.133,207.800 246.486 C 207.580 246.840,206.426 248.540,205.236 250.264 C 204.046 251.989,201.559 255.605,199.709 258.300 L 196.346 263.200 298.180 263.200 L 400.013 263.200 399.907 158.420 C 399.822 75.244,399.697 53.537,399.300 53.140 C 399.025 52.865,398.800 52.147,398.800 51.544 C 398.800 50.941,398.620 50.336,398.400 50.200 C 398.180 50.064,398.000 49.344,398.000 48.600 C 398.000 47.856,397.820 47.136,397.600 47.000 C 397.380 46.864,397.200 46.313,397.200 45.776 C 397.200 45.239,397.020 44.800,396.800 44.800 C 396.580 44.800,396.400 44.350,396.400 43.800 C 396.400 43.250,396.220 42.800,396.000 42.800 C 395.780 42.800,395.600 42.440,395.600 42.000 C 395.600 41.560,395.420 41.200,395.200 41.200 C 394.980 41.200,394.800 40.840,394.800 40.400 C 394.800 39.960,394.620 39.600,394.400 39.600 C 394.180 39.600,394.000 39.240,394.000 38.800 C 394.000 38.360,393.820 38.000,393.600 38.000 C 393.380 38.000,393.200 37.640,393.200 37.200 C 393.200 36.760,393.020 36.400,392.800 36.400 C 392.580 36.400,392.400 36.040,392.400 35.600 C 392.400 35.160,392.220 34.800,392.000 34.800 C 391.780 34.800,391.600 34.538,391.600 34.218 C 391.600 33.690,390.218 31.322,389.206 30.117 C 388.983 29.851,388.800 29.517,388.800 29.375 C 388.800 28.855,383.832 23.086,380.753 20.032 C 375.689 15.008,370.288 10.712,367.065 9.146 C 366.039 8.648,365.200 8.096,365.200 7.920 C 365.200 7.744,364.840 7.600,364.400 7.600 C 363.960 7.600,363.600 7.420,363.600 7.200 C 363.600 6.980,363.240 6.800,362.800 6.800 C 362.360 6.800,362.000 6.620,362.000 6.400 C 362.000 6.180,361.640 6.000,361.200 6.000 C 360.760 6.000,360.400 5.820,360.400 5.600 C 360.400 5.380,360.040 5.200,359.600 5.200 C 359.160 5.200,358.800 5.020,358.800 4.800 C 358.800 4.580,358.445 4.400,358.012 4.400 C 357.579 4.400,356.583 4.040,355.800 3.600 C 355.017 3.160,354.021 2.800,353.588 2.800 C 353.155 2.800,352.800 2.620,352.800 2.400 C 352.800 2.180,352.271 2.000,351.624 2.000 C 350.977 2.000,350.336 1.820,350.200 1.600 C 350.064 1.380,349.348 1.200,348.610 1.200 C 347.871 1.200,347.192 0.975,347.100 0.700 C 346.944 0.232,62.145 -0.167,55.700 0.292 M110.186 111.574 C 109.941 111.819,109.873 124.511,110.000 146.280 L 110.200 180.600 121.600 180.712 C 127.870 180.774,133.360 180.736,133.800 180.628 C 134.583 180.436,134.602 180.067,134.680 162.916 C 134.779 141.095,134.253 141.890,141.400 152.749 C 141.620 153.083,142.115 153.715,142.500 154.154 C 142.885 154.592,143.200 155.172,143.200 155.442 C 143.200 155.712,143.343 155.993,143.517 156.067 C 143.809 156.189,147.204 161.061,153.367 170.200 C 154.702 172.180,156.021 174.038,156.297 174.329 C 156.574 174.619,156.800 174.996,156.800 175.166 C 156.800 175.336,157.250 175.999,157.800 176.638 C 158.349 177.277,158.799 177.937,158.800 178.103 C 158.800 178.270,159.282 178.948,159.871 179.609 L 160.942 180.811 173.371 180.706 L 185.800 180.600 185.910 146.800 C 185.971 128.210,185.922 112.595,185.802 112.100 L 185.585 111.200 173.396 111.200 L 161.208 111.200 161.104 129.095 C 161.006 146.039,160.961 146.997,160.272 147.129 C 159.800 147.220,159.466 146.976,159.325 146.435 C 159.205 145.976,158.948 145.600,158.753 145.600 C 158.559 145.600,158.400 145.364,158.400 145.075 C 158.400 144.787,158.085 144.195,157.700 143.760 C 156.764 142.704,156.476 142.288,147.864 129.600 C 143.758 123.550,139.273 116.980,137.898 115.000 L 135.398 111.400 122.984 111.294 C 115.405 111.230,110.421 111.339,110.186 111.574 M376.800 349.029 C 376.800 349.421,375.678 350.400,375.229 350.400 C 374.993 350.400,374.800 350.040,374.800 349.600 C 374.800 349.013,375.067 348.800,375.800 348.800 C 376.350 348.800,376.800 348.903,376.800 349.029 M362.800 357.200 C 362.800 357.420,362.260 357.600,361.600 357.600 C 360.940 357.600,360.400 357.780,360.400 358.000 C 360.400 358.220,361.120 358.400,362.000 358.400 C 363.333 358.400,363.600 358.267,363.600 357.600 C 363.600 357.160,363.420 356.800,363.200 356.800 C 362.980 356.800,362.800 356.980,362.800 357.200 " stroke="none" fill="#f8fbfb" fill-rule="evenodd"></path><path id="path3" d="M141.600 42.239 C 141.270 42.320,139.020 42.571,136.600 42.797 C 94.585 46.718,59.358 76.334,46.433 118.600 C 41.830 133.652,41.439 154.882,45.450 171.885 C 47.942 182.448,55.119 199.210,59.044 203.636 C 59.354 203.986,62.480 208.486,65.990 213.636 C 79.930 234.088,82.828 238.332,85.088 241.600 C 87.770 245.478,98.689 261.409,108.392 275.600 C 110.724 279.010,113.266 282.700,114.041 283.800 C 115.270 285.546,123.992 298.258,128.000 304.146 C 131.988 310.004,141.452 323.799,143.395 326.585 C 144.617 328.337,146.174 330.317,146.855 330.985 C 147.932 332.041,150.465 335.543,157.280 345.400 C 158.193 346.720,159.052 347.890,159.189 348.000 C 159.326 348.110,159.874 348.830,160.406 349.600 C 160.938 350.370,161.598 351.232,161.873 351.515 C 162.147 351.798,162.687 352.563,163.072 353.215 C 163.791 354.431,164.678 354.875,164.243 353.800 C 164.109 353.470,163.893 352.936,163.762 352.613 C 163.586 352.178,163.819 352.028,164.662 352.035 C 166.126 352.045,167.288 351.840,167.899 351.463 C 168.165 351.298,168.736 351.352,169.167 351.583 C 169.688 351.861,170.035 351.867,170.199 351.601 C 170.336 351.380,171.753 351.200,173.348 351.200 C 175.696 351.200,176.413 351.048,177.108 350.400 C 177.683 349.864,178.519 349.600,179.639 349.600 C 180.732 349.600,181.479 349.371,181.794 348.940 C 182.237 348.335,182.382 348.332,183.538 348.909 C 184.232 349.255,184.800 349.372,184.800 349.169 C 184.800 348.966,184.620 348.800,184.400 348.800 C 184.180 348.800,184.000 348.620,184.000 348.400 C 184.000 348.180,184.889 348.000,185.976 348.000 C 187.063 348.000,188.064 347.820,188.200 347.600 C 188.336 347.380,188.872 347.200,189.390 347.200 C 189.909 347.200,190.402 346.994,190.486 346.743 C 190.600 346.399,190.852 346.399,191.493 346.743 C 192.544 347.305,193.887 347.337,194.067 346.804 C 194.140 346.586,195.370 346.381,196.800 346.349 C 198.891 346.303,199.542 346.128,200.123 345.458 C 200.688 344.806,200.916 344.741,201.173 345.156 C 201.402 345.527,201.582 345.553,201.774 345.243 C 201.924 344.999,202.397 344.800,202.824 344.800 C 203.251 344.800,203.600 344.620,203.600 344.400 C 203.600 344.180,204.500 344.000,205.600 344.000 C 206.700 344.000,207.600 343.846,207.600 343.657 C 207.600 343.469,208.600 343.314,209.823 343.314 C 211.045 343.314,212.251 343.109,212.503 342.857 C 212.754 342.606,213.284 342.400,213.680 342.400 C 214.076 342.400,214.400 342.243,214.400 342.052 C 214.400 341.860,215.255 341.589,216.300 341.450 C 217.345 341.310,218.789 340.837,219.510 340.398 C 220.230 339.959,221.164 339.600,221.586 339.600 C 222.008 339.600,222.464 339.420,222.600 339.200 C 222.736 338.980,223.272 338.800,223.790 338.800 C 224.309 338.800,224.809 338.575,224.902 338.300 C 225.033 337.909,225.214 337.919,225.728 338.343 C 226.302 338.817,226.435 338.761,226.759 337.908 C 227.071 337.088,227.337 336.959,228.393 337.114 C 229.358 337.255,229.795 337.099,230.250 336.449 C 230.720 335.778,231.260 335.600,232.823 335.600 C 234.533 335.600,234.800 335.492,234.800 334.800 C 234.800 334.267,235.067 334.000,235.600 334.000 C 236.040 334.000,236.400 333.820,236.400 333.600 C 236.400 333.380,236.749 333.200,237.176 333.200 C 238.823 333.200,238.399 332.398,236.724 332.343 C 235.776 332.312,234.640 332.253,234.200 332.212 C 233.760 332.171,231.150 332.070,228.400 331.989 L 223.400 331.841 229.600 331.603 C 233.010 331.473,242.100 331.300,249.800 331.219 C 257.500 331.138,264.520 331.040,265.400 331.002 C 266.280 330.964,296.925 330.903,333.500 330.867 C 378.541 330.821,400.000 330.668,400.000 330.391 C 400.000 330.112,359.807 330.069,273.897 330.256 C 176.717 330.469,147.590 330.423,146.904 330.056 C 146.415 329.794,145.212 328.369,144.232 326.890 C 143.251 325.410,140.683 321.639,138.524 318.509 C 132.900 310.352,130.283 306.546,115.073 284.400 C 107.593 273.510,98.505 260.280,94.877 255.000 C 77.363 229.514,65.502 212.195,60.627 204.991 C 30.572 160.571,40.186 98.999,82.400 65.553 C 108.059 45.224,142.124 37.871,173.800 45.826 C 238.623 62.105,271.607 134.161,241.719 194.200 C 239.177 199.306,237.217 202.303,221.778 224.689 C 218.913 228.844,210.489 241.101,206.995 246.200 C 205.638 248.180,202.502 252.754,200.027 256.364 C 195.006 263.686,194.831 264.000,195.781 264.000 C 196.147 264.000,196.337 263.821,196.201 263.602 C 196.066 263.384,196.391 262.619,196.924 261.902 C 197.456 261.186,200.404 256.910,203.473 252.400 C 206.543 247.890,210.853 241.590,213.052 238.400 C 215.250 235.210,218.568 230.373,220.424 227.651 C 222.281 224.929,225.365 220.429,227.278 217.651 C 239.935 199.273,242.657 194.660,246.311 185.400 C 248.882 178.886,251.002 171.228,251.958 165.000 C 252.194 163.460,252.570 161.015,252.794 159.567 C 253.017 158.119,253.200 152.554,253.200 147.200 C 253.200 141.846,253.017 136.281,252.794 134.833 C 252.570 133.385,252.194 130.940,251.958 129.400 C 248.934 109.704,238.369 89.083,223.548 73.947 C 219.309 69.618,217.499 67.982,212.253 63.732 C 201.696 55.181,183.107 46.834,168.400 44.042 C 159.735 42.397,145.010 41.406,141.600 42.239 M109.467 111.067 C 108.751 111.782,109.180 181.201,109.900 181.168 C 110.318 181.150,110.399 181.056,110.100 180.935 C 109.705 180.776,109.600 173.406,109.600 145.967 L 109.600 111.200 122.553 111.200 L 135.505 111.200 136.488 112.500 C 137.029 113.215,139.971 117.490,143.026 122.000 C 155.596 140.555,159.965 146.800,160.380 146.800 C 161.115 146.800,161.200 144.890,161.200 128.367 L 161.200 111.200 173.573 111.200 C 185.017 111.200,185.961 111.253,186.139 111.900 C 186.246 112.285,186.213 128.035,186.066 146.900 C 185.854 174.295,185.901 181.200,186.302 181.200 C 186.702 181.200,186.784 174.049,186.702 146.100 L 186.600 111.000 173.600 111.000 L 160.600 111.000 160.496 128.500 C 160.438 138.125,160.258 145.986,160.096 145.968 C 159.933 145.950,158.649 144.195,157.243 142.068 C 155.837 139.941,150.469 132.035,145.315 124.500 L 135.944 110.800 122.839 110.800 C 115.631 110.800,109.613 110.920,109.467 111.067 M135.067 145.867 C 134.920 146.013,134.800 153.918,134.800 163.433 C 134.800 176.886,134.689 180.784,134.300 180.960 C 134.025 181.084,134.160 181.142,134.600 181.088 C 135.384 180.991,135.402 180.650,135.504 163.663 C 135.568 153.100,135.755 146.388,135.984 146.468 C 136.190 146.541,139.494 151.190,143.325 156.800 C 158.901 179.606,159.895 181.002,160.642 181.136 C 161.343 181.262,161.349 181.231,160.724 180.736 C 159.890 180.074,157.628 176.967,153.056 170.200 C 151.123 167.340,147.936 162.660,145.972 159.800 C 144.009 156.940,141.026 152.575,139.343 150.100 C 136.501 145.917,135.754 145.179,135.067 145.867 M116.700 181.099 C 119.835 181.167,124.965 181.167,128.100 181.099 C 131.235 181.032,128.670 180.976,122.400 180.976 C 116.130 180.976,113.565 181.032,116.700 181.099 M166.523 181.099 C 169.341 181.168,173.841 181.168,176.523 181.099 C 179.205 181.030,176.900 180.973,171.400 180.973 C 165.900 180.974,163.705 181.030,166.523 181.099 M240.300 263.900 C 264.335 263.957,303.665 263.957,327.700 263.900 C 351.735 263.843,332.070 263.796,284.000 263.796 C 235.930 263.796,216.265 263.843,240.300 263.900 M396.300 264.289 C 397.015 264.378,398.185 264.378,398.900 264.289 C 399.615 264.201,399.030 264.128,397.600 264.128 C 396.170 264.128,395.585 264.201,396.300 264.289 " stroke="none" fill="#aae5e1" fill-rule="evenodd"></path><path id="path4" d="M137.000 42.417 C 136.268 42.614,136.969 42.653,138.800 42.518 C 140.450 42.396,141.875 42.229,141.967 42.148 C 142.277 41.872,138.208 42.093,137.000 42.417 M154.033 42.148 C 154.125 42.229,155.550 42.396,157.200 42.518 C 159.031 42.653,159.732 42.614,159.000 42.417 C 157.792 42.093,153.723 41.872,154.033 42.148 M131.000 43.200 C 129.981 43.638,131.032 43.638,132.400 43.200 C 133.204 42.943,133.243 42.877,132.600 42.868 C 132.160 42.862,131.440 43.011,131.000 43.200 M163.600 43.200 C 164.968 43.638,166.019 43.638,165.000 43.200 C 164.560 43.011,163.840 42.862,163.400 42.868 C 162.757 42.877,162.796 42.943,163.600 43.200 M126.400 44.000 C 125.596 44.257,125.557 44.323,126.200 44.332 C 126.640 44.338,127.360 44.189,127.800 44.000 C 128.819 43.562,127.768 43.562,126.400 44.000 M168.200 44.000 C 168.640 44.189,169.360 44.338,169.800 44.332 C 170.443 44.323,170.404 44.257,169.600 44.000 C 168.232 43.562,167.181 43.562,168.200 44.000 M101.100 52.629 C 99.549 53.470,99.725 53.761,101.300 52.959 C 102.808 52.193,103.075 51.994,102.567 52.016 C 102.365 52.025,101.705 52.301,101.100 52.629 M193.600 52.179 C 193.600 52.289,194.140 52.659,194.800 53.000 C 195.460 53.341,196.000 53.531,196.000 53.421 C 196.000 53.311,195.460 52.941,194.800 52.600 C 194.140 52.259,193.600 52.069,193.600 52.179 M83.585 63.629 L 82.200 64.858 83.700 63.781 C 85.026 62.830,85.457 62.400,85.085 62.400 C 85.022 62.400,84.347 62.953,83.585 63.629 M77.906 68.211 C 77.084 68.975,76.554 69.600,76.727 69.600 C 76.901 69.600,77.654 68.970,78.400 68.200 C 80.141 66.403,79.843 66.410,77.906 68.211 M68.420 77.779 L 66.640 79.800 68.601 77.914 C 69.679 76.877,70.480 75.967,70.381 75.893 C 70.281 75.819,69.399 76.667,68.420 77.779 M225.600 75.850 C 225.600 76.061,226.455 77.036,227.500 78.017 L 229.400 79.800 227.600 77.807 C 226.610 76.712,225.755 75.737,225.700 75.641 C 225.645 75.545,225.600 75.639,225.600 75.850 M65.200 81.600 C 64.503 82.480,64.023 83.200,64.133 83.200 C 64.243 83.200,64.903 82.480,65.600 81.600 C 66.297 80.720,66.777 80.000,66.667 80.000 C 66.557 80.000,65.897 80.720,65.200 81.600 M231.775 83.332 C 232.391 84.139,232.976 84.800,233.075 84.800 C 233.353 84.800,231.621 82.460,231.109 82.144 C 230.859 81.989,231.159 82.524,231.775 83.332 M57.414 92.635 C 57.041 93.204,56.805 93.738,56.889 93.822 C 56.973 93.907,57.358 93.441,57.744 92.788 C 58.606 91.328,58.348 91.209,57.414 92.635 M238.200 92.800 C 238.541 93.460,238.911 94.000,239.021 94.000 C 239.131 94.000,238.941 93.460,238.600 92.800 C 238.259 92.140,237.889 91.600,237.779 91.600 C 237.669 91.600,237.859 92.140,238.200 92.800 M54.000 98.800 C 53.551 99.680,53.274 100.400,53.384 100.400 C 53.494 100.400,53.951 99.680,54.400 98.800 C 54.849 97.920,55.126 97.200,55.016 97.200 C 54.906 97.200,54.449 97.920,54.000 98.800 M185.907 117.136 C 186.074 126.314,186.250 127.274,186.322 119.400 C 186.358 115.440,186.256 111.991,186.094 111.736 C 185.932 111.481,185.848 113.911,185.907 117.136 M109.698 146.457 C 109.610 177.384,109.662 180.738,110.233 180.957 C 111.236 181.342,111.409 181.242,110.676 180.700 C 110.051 180.238,109.992 177.599,109.898 146.200 L 109.795 112.200 109.698 146.457 M138.381 115.772 C 139.485 117.407,140.566 118.855,140.784 118.990 C 141.002 119.125,140.183 117.787,138.964 116.017 C 137.745 114.248,136.664 112.800,136.562 112.800 C 136.459 112.800,137.278 114.138,138.381 115.772 M249.044 117.000 C 249.373 118.471,249.602 118.790,249.594 117.767 C 249.591 117.345,249.405 116.730,249.182 116.400 C 248.885 115.962,248.848 116.124,249.044 117.000 M43.849 128.215 C 43.712 128.573,43.615 129.166,43.634 129.533 C 43.653 129.900,43.827 129.669,44.021 129.020 C 44.398 127.758,44.265 127.133,43.849 128.215 M149.600 132.200 C 150.281 133.190,150.928 134.000,151.038 134.000 C 151.148 134.000,150.681 133.190,150.000 132.200 C 149.319 131.210,148.672 130.400,148.562 130.400 C 148.452 130.400,148.919 131.210,149.600 132.200 M43.049 133.415 C 42.912 133.773,42.821 134.726,42.847 135.533 C 42.890 136.883,42.920 136.842,43.226 135.013 C 43.568 132.970,43.490 132.267,43.049 133.415 M155.200 140.400 C 155.670 141.060,156.144 141.600,156.254 141.600 C 156.364 141.600,156.070 141.060,155.600 140.400 C 155.130 139.740,154.656 139.200,154.546 139.200 C 154.436 139.200,154.730 139.740,155.200 140.400 M253.358 147.000 C 253.358 150.080,253.421 151.287,253.497 149.682 C 253.573 148.078,253.573 145.558,253.496 144.082 C 253.419 142.607,253.357 143.920,253.358 147.000 M42.537 147.400 C 42.539 149.160,42.609 149.830,42.693 148.889 C 42.778 147.949,42.777 146.509,42.691 145.689 C 42.605 144.870,42.536 145.640,42.537 147.400 M134.684 145.450 C 134.528 145.606,134.405 146.018,134.412 146.367 C 134.422 146.903,134.487 146.893,134.832 146.300 C 135.386 145.348,136.167 145.421,136.983 146.500 C 137.662 147.397,137.662 147.397,137.086 146.400 C 136.514 145.410,135.231 144.902,134.684 145.450 M159.268 146.400 C 159.377 146.730,159.797 147.000,160.200 147.000 C 160.603 147.000,161.007 146.730,161.097 146.400 C 161.237 145.887,161.203 145.883,160.861 146.374 C 160.513 146.873,160.370 146.873,159.765 146.374 C 159.158 145.872,159.095 145.876,159.268 146.400 M42.828 159.033 C 42.844 159.895,43.017 160.960,43.214 161.400 C 43.448 161.922,43.488 161.437,43.332 160.000 C 43.043 157.358,42.789 156.870,42.828 159.033 M134.573 169.800 C 134.573 175.300,134.630 177.605,134.699 174.923 C 134.768 172.241,134.768 167.741,134.699 164.923 C 134.630 162.105,134.574 164.300,134.573 169.800 M43.606 165.033 C 43.609 165.455,43.795 166.070,44.018 166.400 C 44.315 166.838,44.352 166.676,44.156 165.800 C 43.827 164.329,43.598 164.010,43.606 165.033 M44.406 169.033 C 44.409 169.455,44.595 170.070,44.818 170.400 C 45.115 170.838,45.152 170.676,44.956 169.800 C 44.627 168.329,44.398 168.010,44.406 169.033 M183.400 180.800 L 181.000 181.066 183.276 181.133 C 184.528 181.170,185.664 181.020,185.800 180.800 C 185.936 180.580,185.992 180.430,185.924 180.467 C 185.856 180.504,184.720 180.654,183.400 180.800 M238.039 201.824 C 237.577 202.607,237.380 203.136,237.602 202.999 C 238.036 202.731,239.334 200.400,239.050 200.400 C 238.956 200.400,238.501 201.041,238.039 201.824 M234.400 207.200 C 233.930 207.860,233.636 208.400,233.746 208.400 C 233.856 208.400,234.330 207.860,234.800 207.200 C 235.270 206.540,235.564 206.000,235.454 206.000 C 235.344 206.000,234.870 206.540,234.400 207.200 M72.437 223.600 C 73.596 225.396,73.600 225.401,73.598 224.967 C 73.597 224.765,73.132 224.060,72.565 223.400 L 71.534 222.200 72.437 223.600 M87.696 245.968 C 88.412 247.050,89.061 247.873,89.138 247.796 C 89.300 247.633,86.850 244.000,86.578 244.000 C 86.477 244.000,86.980 244.885,87.696 245.968 M207.006 247.088 L 206.304 248.200 207.230 247.311 C 207.739 246.822,208.055 246.322,207.932 246.199 C 207.809 246.076,207.392 246.476,207.006 247.088 M200.400 256.800 C 199.930 257.460,199.636 258.000,199.746 258.000 C 199.856 258.000,200.330 257.460,200.800 256.800 C 201.270 256.140,201.564 255.600,201.454 255.600 C 201.344 255.600,200.870 256.140,200.400 256.800 M196.392 262.610 C 196.114 262.945,195.957 263.288,196.043 263.371 C 196.349 263.667,400.000 263.795,400.000 263.500 C 400.000 263.335,354.168 263.200,298.151 263.200 C 207.664 263.200,196.358 263.133,196.800 262.600 C 197.074 262.270,197.208 262.000,197.098 262.000 C 196.988 262.000,196.670 262.274,196.392 262.610 M102.800 268.000 C 103.270 268.660,103.744 269.200,103.854 269.200 C 103.964 269.200,103.670 268.660,103.200 268.000 C 102.730 267.340,102.256 266.800,102.146 266.800 C 102.036 266.800,102.330 267.340,102.800 268.000 M104.364 270.333 C 104.580 270.736,105.071 271.321,105.455 271.633 C 105.887 271.984,105.790 271.704,105.201 270.900 C 104.151 269.465,103.757 269.198,104.364 270.333 M112.836 282.500 C 113.551 283.545,114.201 284.400,114.282 284.400 C 114.553 284.400,113.646 283.008,112.588 281.800 C 111.792 280.892,111.852 281.062,112.836 282.500 M115.200 286.000 C 115.670 286.660,116.144 287.200,116.254 287.200 C 116.364 287.200,116.070 286.660,115.600 286.000 C 115.130 285.340,114.656 284.800,114.546 284.800 C 114.436 284.800,114.730 285.340,115.200 286.000 M142.473 325.800 C 142.723 326.350,143.084 326.800,143.273 326.800 C 143.463 326.800,143.324 326.350,142.963 325.800 C 142.603 325.250,142.243 324.800,142.163 324.800 C 142.083 324.800,142.222 325.250,142.473 325.800 M144.073 328.200 C 144.323 328.750,144.684 329.200,144.873 329.200 C 145.063 329.200,144.924 328.750,144.563 328.200 C 144.203 327.650,143.843 327.200,143.763 327.200 C 143.683 327.200,143.822 327.650,144.073 328.200 M146.142 330.814 C 146.770 331.576,150.203 336.430,153.772 341.600 C 174.206 371.207,181.570 381.497,184.469 384.494 L 185.538 385.600 191.607 385.600 C 197.338 385.600,197.686 385.556,197.884 384.800 C 198.137 383.834,204.157 383.601,205.631 384.500 C 206.339 384.931,206.554 384.876,207.190 384.100 C 208.037 383.067,210.000 382.857,210.000 383.800 C 210.000 384.130,210.165 384.400,210.367 384.400 C 210.569 384.400,211.019 384.509,211.367 384.643 C 211.821 384.817,212.000 384.647,212.000 384.043 C 212.000 383.233,212.186 383.200,216.776 383.200 C 219.845 383.200,221.651 383.041,221.827 382.756 C 222.097 382.320,223.888 382.450,225.300 383.009 C 225.843 383.224,226.007 383.074,226.032 382.343 C 226.049 381.824,226.154 381.625,226.265 381.900 C 226.587 382.699,228.036 382.479,228.907 381.500 C 229.450 380.890,229.765 380.761,229.887 381.100 C 229.986 381.375,230.346 381.600,230.686 381.600 C 231.027 381.600,231.637 381.981,232.041 382.447 C 232.465 382.937,233.035 383.196,233.388 383.060 C 234.285 382.716,234.141 381.600,233.200 381.600 C 232.760 381.600,232.400 381.420,232.400 381.200 C 232.400 380.980,233.120 380.800,234.000 380.800 C 234.880 380.800,235.600 380.980,235.600 381.200 C 235.600 381.420,236.140 381.600,236.800 381.600 C 237.460 381.600,238.000 381.420,238.000 381.200 C 238.000 380.980,238.180 380.800,238.400 380.800 C 238.620 380.800,238.800 381.160,238.800 381.600 C 238.800 382.040,238.992 382.400,239.226 382.400 C 240.141 382.400,241.200 381.534,241.200 380.786 C 241.200 379.919,241.838 379.713,242.098 380.495 C 242.228 380.885,242.511 380.878,243.421 380.463 C 244.216 380.101,244.624 380.071,244.723 380.368 C 244.904 380.912,246.668 380.937,247.000 380.400 C 247.358 379.821,252.537 379.897,253.130 380.490 C 253.517 380.877,253.785 380.877,254.405 380.490 C 254.836 380.220,255.537 380.000,255.961 380.000 C 256.386 380.000,256.825 379.775,256.936 379.500 C 257.089 379.122,257.252 379.147,257.600 379.600 C 257.948 380.053,258.111 380.078,258.264 379.700 C 258.400 379.363,259.435 379.200,261.433 379.200 C 263.144 379.200,264.400 379.031,264.400 378.800 C 264.400 378.580,265.300 378.400,266.400 378.400 C 267.500 378.400,268.400 378.220,268.400 378.000 C 268.400 377.765,269.800 377.600,271.800 377.600 C 274.101 377.600,275.200 377.451,275.200 377.139 C 275.200 376.885,275.536 377.065,275.947 377.539 C 276.821 378.546,277.815 378.642,278.657 377.801 C 278.986 377.471,279.738 377.083,280.328 376.939 C 280.918 376.795,281.549 376.480,281.730 376.238 C 281.965 375.928,282.120 375.945,282.264 376.300 C 282.517 376.925,285.847 376.971,286.228 376.355 C 286.379 376.111,286.254 375.753,285.951 375.561 C 285.542 375.302,285.632 375.211,286.300 375.206 C 286.935 375.202,287.200 375.435,287.200 376.000 C 287.200 376.922,289.379 377.180,289.736 376.300 C 289.889 375.924,290.045 375.948,290.370 376.400 C 290.752 376.933,290.844 376.933,291.200 376.400 C 291.556 375.867,291.644 375.867,291.994 376.400 C 292.335 376.920,292.389 376.911,292.394 376.333 C 292.397 375.967,292.175 375.576,291.900 375.465 C 291.625 375.354,292.300 375.238,293.400 375.206 C 299.476 375.034,303.416 374.712,303.533 374.378 C 303.746 373.774,304.400 373.942,304.400 374.600 C 304.400 374.997,304.797 375.200,305.571 375.200 C 306.216 375.200,307.013 374.930,307.343 374.600 C 307.673 374.270,308.121 374.000,308.338 374.000 C 308.555 374.000,308.824 373.775,308.935 373.500 C 309.096 373.100,309.143 373.100,309.168 373.500 C 309.187 373.796,309.757 374.000,310.567 374.000 C 311.318 374.000,312.038 373.775,312.167 373.500 C 312.353 373.100,312.447 373.100,312.633 373.500 C 312.909 374.092,315.200 374.181,315.200 373.600 C 315.200 373.380,315.740 373.200,316.400 373.200 C 317.155 373.200,317.600 372.995,317.600 372.647 C 317.600 371.935,318.844 371.612,321.612 371.605 C 323.361 371.601,323.944 371.433,324.400 370.800 C 324.717 370.360,325.207 370.000,325.488 370.000 C 325.770 370.000,326.000 369.820,326.000 369.600 C 326.000 369.380,326.540 369.200,327.200 369.200 C 327.860 369.200,328.400 369.020,328.400 368.800 C 328.400 368.580,329.120 368.400,330.000 368.400 C 330.880 368.400,331.600 368.580,331.600 368.800 C 331.600 369.020,331.960 369.200,332.400 369.200 C 332.933 369.200,333.200 368.933,333.200 368.400 C 333.200 367.778,333.467 367.600,334.400 367.600 C 335.060 367.600,335.600 367.420,335.600 367.200 C 335.600 366.980,336.500 366.800,337.600 366.800 C 338.700 366.800,339.600 366.620,339.600 366.400 C 339.600 366.180,339.960 366.000,340.400 366.000 C 340.840 366.000,341.200 365.820,341.200 365.600 C 341.200 365.380,341.560 365.200,342.000 365.200 C 342.440 365.200,342.800 365.380,342.800 365.600 C 342.800 365.820,343.070 366.000,343.400 366.000 C 343.730 366.000,344.000 365.820,344.000 365.600 C 344.000 365.380,344.360 365.200,344.800 365.200 C 345.240 365.200,345.600 365.020,345.600 364.800 C 345.600 364.580,346.140 364.400,346.800 364.400 C 347.460 364.400,348.000 364.220,348.000 364.000 C 348.000 363.763,349.467 363.600,351.600 363.600 C 353.733 363.600,355.200 363.437,355.200 363.200 C 355.200 362.980,355.560 362.800,356.000 362.800 C 356.533 362.800,356.800 362.533,356.800 362.000 C 356.800 361.413,357.067 361.200,357.800 361.200 C 358.422 361.200,358.800 360.973,358.800 360.600 C 358.800 360.227,358.422 360.000,357.800 360.000 C 356.370 360.000,356.537 358.929,358.000 358.715 C 358.819 358.594,359.200 358.707,359.200 359.069 C 359.200 359.361,359.470 359.600,359.800 359.600 C 360.130 359.600,360.400 359.420,360.400 359.200 C 360.400 358.980,361.107 358.800,361.971 358.800 C 362.836 358.800,363.813 358.530,364.143 358.200 C 364.473 357.870,365.206 357.600,365.771 357.600 C 366.337 357.600,366.800 357.420,366.800 357.200 C 366.800 356.980,366.440 356.800,366.000 356.800 C 365.467 356.800,365.200 356.533,365.200 356.000 C 365.200 355.378,365.467 355.200,366.400 355.200 C 367.060 355.200,367.600 355.380,367.600 355.600 C 367.600 355.820,367.960 356.000,368.400 356.000 C 369.022 356.000,369.200 355.733,369.200 354.800 C 369.200 354.140,369.020 353.600,368.800 353.600 C 368.580 353.600,368.400 353.240,368.400 352.800 C 368.400 352.267,368.667 352.000,369.200 352.000 C 369.661 352.000,370.000 352.267,370.000 352.629 C 370.000 354.173,372.285 354.972,373.429 353.829 C 374.167 353.090,374.151 352.800,373.371 352.800 C 372.580 352.800,371.403 351.657,371.807 351.281 C 371.973 351.126,372.190 351.225,372.288 351.500 C 372.386 351.775,372.992 352.000,373.633 352.000 C 375.036 352.000,375.239 350.893,374.000 350.000 C 373.560 349.683,373.200 349.283,373.200 349.112 C 373.200 348.940,373.560 348.800,374.000 348.800 C 374.440 348.800,374.800 348.620,374.800 348.400 C 374.800 348.180,375.237 348.000,375.772 348.000 C 376.462 348.000,376.795 347.739,376.918 347.100 L 377.091 346.200 377.146 347.100 C 377.220 348.323,379.200 348.420,379.200 347.200 C 379.200 346.667,379.467 346.400,380.000 346.400 C 380.500 346.400,380.800 346.133,380.800 345.688 C 380.800 345.297,380.440 344.717,380.000 344.400 C 378.991 343.673,378.978 343.200,379.967 343.200 C 380.388 343.200,380.808 342.977,380.899 342.704 C 381.015 342.355,381.292 342.435,381.829 342.971 C 382.365 343.508,382.445 343.785,382.096 343.901 C 381.004 344.265,381.557 345.600,382.800 345.600 C 384.085 345.600,384.672 343.138,383.500 342.665 C 383.225 342.554,383.585 342.449,384.300 342.432 C 385.917 342.392,385.944 341.842,384.400 340.400 C 382.964 339.059,382.732 337.200,384.000 337.200 C 384.533 337.200,384.800 337.467,384.800 338.000 C 384.800 338.667,385.067 338.800,386.400 338.800 C 388.226 338.800,388.617 337.822,387.200 336.800 C 386.760 336.483,386.400 335.903,386.400 335.512 C 386.400 335.120,386.220 334.800,386.000 334.800 C 385.780 334.800,385.600 334.620,385.600 334.400 C 385.600 334.180,385.960 334.000,386.400 334.000 C 386.913 334.000,387.200 333.733,387.200 333.258 C 387.200 332.311,384.638 332.039,374.600 331.921 C 366.521 331.827,368.482 331.718,387.200 331.220 C 395.454 331.001,370.408 330.929,318.600 331.023 C 273.720 331.105,236.550 331.246,236.000 331.335 C 235.450 331.425,232.405 331.521,229.233 331.549 C 221.525 331.617,222.213 331.846,231.000 332.136 C 234.960 332.267,238.256 332.380,238.324 332.387 C 238.851 332.442,237.781 333.200,237.176 333.200 C 236.749 333.200,236.400 333.380,236.400 333.600 C 236.400 333.820,236.040 334.000,235.600 334.000 C 235.067 334.000,234.800 334.267,234.800 334.800 C 234.800 335.492,234.533 335.600,232.823 335.600 C 231.260 335.600,230.720 335.778,230.250 336.449 C 229.795 337.099,229.358 337.255,228.393 337.114 C 227.337 336.959,227.071 337.088,226.759 337.908 C 226.435 338.761,226.302 338.817,225.728 338.343 C 225.214 337.919,225.033 337.909,224.902 338.300 C 224.809 338.575,224.309 338.800,223.790 338.800 C 223.272 338.800,222.736 338.980,222.600 339.200 C 222.464 339.420,222.008 339.600,221.586 339.600 C 221.164 339.600,220.230 339.959,219.510 340.398 C 218.789 340.837,217.345 341.310,216.300 341.450 C 215.255 341.589,214.400 341.860,214.400 342.052 C 214.400 342.243,214.076 342.400,213.680 342.400 C 213.284 342.400,212.754 342.606,212.503 342.857 C 212.251 343.109,211.045 343.314,209.823 343.314 C 208.600 343.314,207.600 343.469,207.600 343.657 C 207.600 343.846,206.700 344.000,205.600 344.000 C 204.500 344.000,203.600 344.180,203.600 344.400 C 203.600 344.620,203.251 344.800,202.824 344.800 C 202.397 344.800,201.924 344.999,201.774 345.243 C 201.582 345.553,201.402 345.527,201.173 345.156 C 200.916 344.741,200.688 344.806,200.123 345.458 C 199.542 346.128,198.891 346.303,196.800 346.349 C 195.370 346.381,194.140 346.586,194.067 346.804 C 193.887 347.337,192.544 347.305,191.493 346.743 C 190.852 346.399,190.600 346.399,190.486 346.743 C 190.402 346.994,189.909 347.200,189.390 347.200 C 188.872 347.200,188.336 347.380,188.200 347.600 C 188.064 347.820,187.063 348.000,185.976 348.000 C 184.889 348.000,184.000 348.180,184.000 348.400 C 184.000 348.620,184.180 348.800,184.400 348.800 C 184.620 348.800,184.800 348.966,184.800 349.169 C 184.800 349.372,184.232 349.255,183.538 348.909 C 182.382 348.332,182.237 348.335,181.794 348.940 C 181.479 349.371,180.732 349.600,179.639 349.600 C 178.519 349.600,177.683 349.864,177.108 350.400 C 176.413 351.048,175.696 351.200,173.348 351.200 C 171.753 351.200,170.336 351.380,170.199 351.601 C 170.035 351.867,169.688 351.861,169.167 351.583 C 168.736 351.352,168.165 351.298,167.899 351.463 C 167.288 351.840,166.126 352.045,164.662 352.035 C 163.819 352.028,163.586 352.178,163.762 352.613 C 163.893 352.936,164.109 353.470,164.243 353.800 C 164.678 354.875,163.791 354.431,163.072 353.215 C 162.687 352.563,162.147 351.798,161.873 351.515 C 161.598 351.232,160.938 350.370,160.406 349.600 C 159.874 348.830,159.326 348.110,159.189 348.000 C 159.052 347.890,158.193 346.720,157.280 345.400 C 156.368 344.080,153.906 340.587,151.810 337.637 C 149.715 334.688,148.000 332.144,148.000 331.985 C 148.000 331.825,147.325 331.185,146.500 330.562 L 145.000 329.429 146.142 330.814 M399.033 343.633 C 398.667 344.550,398.462 345.396,398.580 345.513 C 398.697 345.630,398.570 345.997,398.297 346.327 C 397.862 346.853,397.905 346.863,398.635 346.408 C 399.180 346.069,399.445 345.525,399.397 344.844 C 399.357 344.270,399.491 343.470,399.694 343.066 C 399.898 342.662,399.983 342.249,399.882 342.149 C 399.782 342.049,399.400 342.717,399.033 343.633 M374.800 349.600 C 374.800 350.537,375.421 350.637,376.229 349.829 C 377.036 349.021,376.944 348.800,375.800 348.800 C 375.067 348.800,374.800 349.013,374.800 349.600 M363.600 357.600 C 363.600 358.267,363.333 358.400,362.000 358.400 C 361.120 358.400,360.400 358.220,360.400 358.000 C 360.400 357.780,360.940 357.600,361.600 357.600 C 362.260 357.600,362.800 357.420,362.800 357.200 C 362.800 356.980,362.980 356.800,363.200 356.800 C 363.420 356.800,363.600 357.160,363.600 357.600 " stroke="none" fill="#caeff1" fill-rule="evenodd"></path></g></svg>