<svg xmlns="http://www.w3.org/2000/svg" width="1024" height="1024" fill="none"><g clip-path="url(#clip0_2071_3744)"><path fill="#fff" d="M0 0h1024v1024H0z"/><path fill="#EF5E60" d="m702.602 15.62 4.694-.052c17.426.054 34.78 3.99 47.464 16.698 13.5 15.56 21.524 36.034 30.366 54.484l4.22 8.762c16.976 35.28 33.628 70.724 49.31 106.6 3.77 8.56 7.868 16.852 12.22 25.138 39.234 77.934 52.184 169.54 32.874 254.876-4.796 21.456-7.122 38.27 3.672 58.342 9.054 19.428 10.782 46.368 3.454 66.658-7.642 15.848-19.85 28.628-36.352 34.984-14.568 4.872-28.7 7.328-43.9 8.906-6.242.928-11.06 2.02-16.624 4.984l-2 6c-3.226 3.54-6.496 6.748-10 10l-3.914 3.734C752.614 699.426 724.696 719.646 694 736l-4.024 2.146c-79.026 41.286-166.452 42.732-253.39 47.954-4.54.272-9.082.548-13.624.824-109.192 6.616-109.192 6.616-130.564-11.956-19.06-21.532-30.22-50.364-42.288-76.1-9.59-20.36-19.84-40.396-30.014-60.466a13077.92 13077.92 0 0 1-11.332-22.436 4690.55 4690.55 0 0 0-5.788-11.41c-15.96-31.368-30.942-62.882-39.476-97.18l-1.47-5.878c-15.708-64.884-14.344-131.58 2.714-196.066 3.964-17.14.36-29.326-6.252-45.378-8.87-21.552-9.206-42.69-.992-64.54 8.274-18.252 20.924-28.402 39.626-35.444 13.134-3.928 26.512-5.458 40.108-6.82 12.75-2.356 22.136-10.62 31.14-19.624C303.036 98.966 344.82 74.406 390 56l6.946-2.86c27.58-10.584 56.88-16.546 86.156-19.976l6.312-.746c32.23-3.662 64.576-6.204 96.902-8.852 9.554-.784 19.106-1.59 28.658-2.4 7.498-.634 14.998-1.254 22.496-1.87 3.52-.29 7.04-.586 10.558-.886 18.194-1.552 36.308-2.678 54.574-2.79Z"/><path fill="#EEE" d="m562 184 7.36 2.062C598.572 195.05 624.45 208.414 648 228l5.29 4.368C695.26 268.538 721.07 320.964 726 376c3.696 57.438-12.264 113.92-50 158l-4.172 4.976c-50.88 58.824-127.112 73.168-201.2 78.57-30.88 2.156-61.67 3.034-92.628 2.454l-2.1-4.05-6.23-11.996c-2.387-4.597-4.772-9.195-7.154-13.794-7.612-14.68-7.612-14.68-15.476-29.222C309.496 492.844 278.914 412.2 300 334c17.288-56.95 56.466-104.31 108.836-132.376C455.864 177.414 510.604 169.486 562 184Z"/><path fill="#474747" d="m702.602 15.62 4.694-.052c17.426.054 34.78 3.99 47.464 16.698 13.5 15.56 21.524 36.034 30.366 54.484l4.22 8.762c16.976 35.28 33.628 70.724 49.31 106.6 3.77 8.56 7.868 16.852 12.22 25.138 39.234 77.934 52.184 169.54 32.874 254.876-4.796 21.456-7.122 38.27 3.672 58.342 9.054 19.428 10.782 46.368 3.454 66.658-7.642 15.848-19.85 28.628-36.352 34.984-14.568 4.872-28.7 7.328-43.9 8.906-6.242.928-11.06 2.02-16.624 4.984l-2 6c-3.226 3.54-6.496 6.748-10 10l-3.914 3.734C752.614 699.426 724.696 719.646 694 736l-4.024 2.146c-79.026 41.286-166.452 42.732-253.39 47.954-4.54.272-9.082.548-13.624.824-109.192 6.616-109.192 6.616-130.564-11.956-19.06-21.532-30.22-50.364-42.288-76.1-9.59-20.36-19.84-40.396-30.014-60.466a13077.92 13077.92 0 0 1-11.332-22.436 4690.55 4690.55 0 0 0-5.788-11.41c-15.96-31.368-30.942-62.882-39.476-97.18l-1.47-5.878c-15.708-64.884-14.344-131.58 2.714-196.066 3.964-17.14.36-29.326-6.252-45.378-8.87-21.552-9.206-42.69-.992-64.54 8.274-18.252 20.924-28.402 39.626-35.444 13.134-3.928 26.512-5.458 40.108-6.82 12.75-2.356 22.136-10.62 31.14-19.624C303.036 98.966 344.82 74.406 390 56l6.946-2.86c27.58-10.584 56.88-16.546 86.156-19.976l6.312-.746c32.23-3.662 64.576-6.204 96.902-8.852 9.554-.784 19.106-1.59 28.658-2.4 7.498-.634 14.998-1.254 22.496-1.87 3.52-.29 7.04-.586 10.558-.886 18.194-1.552 36.308-2.678 54.574-2.79Zm-5.406 29.022-5.46.434-5.978.48-6.31.504c-6.918.552-13.836 1.108-20.752 1.666l-7.188.58c-12.586 1.014-25.172 2.034-37.758 3.054-10.356.84-20.712 1.672-31.068 2.496-12.548 1-25.094 2.014-37.64 3.036-4.75.384-9.5.764-14.254 1.14-53.434 3.88-53.434 3.88-105.662 15.218l-5.18 1.53c-52.654 16.18-113.956 46.624-147.662 92.25-6.194 8.026-10.826 13.966-20.78 16.856-7.346.758-14.498 1-21.88.99-4.944.1-9.89.22-14.834.366l-6.572.028c-9.802 1.152-16.262 4.564-22.842 11.856-6.08 8.78-7.056 16.362-5.376 26.874 4.36 10.11 10.24 19.402 15.996 28.77 8.246 14.436 8.246 14.436 7.528 22.734-1.502 5.06-3.326 9.702-5.524 14.496-18.916 54.804-23.832 119.318-10 176l1.072 4.66c6.36 27.432 15.504 52.934 28.256 78.05a2446.922 2446.922 0 0 1 19.07 38.658l4.426 9.136c15.928 32.856 32.108 65.582 48.426 98.246l3.108 6.232c2.902 5.816 5.81 11.628 8.72 17.44l2.652 5.316 2.424 4.828 2.114 4.226c1.526 3.194 1.526 3.194 3.732 5.208 2.946.108 5.898.068 8.844-.032l5.954-.198 6.702-.27 7.1-.274c29.106-1.234 58.16-3.308 87.222-5.31l5.81-.4 5.774-.4c16.192-1.108 32.39-2.07 48.592-3 104.7-6.072 196.024-34.948 268.252-115.24l4.14-4.76L764 604l2.504-3.206c4.994-3.992 8.7-3.564 15.036-3.606l6.886-.134 7.2-.054c20.196.544 20.196.544 38.374-7 7.38-8.178 10.968-13.832 10.83-25.07-2.142-12.734-10.3-24.258-16.474-35.42-8.346-15.692-8.346-15.692-8.396-24.986L822 498l2.172-7.766 1.256-4.122C841.328 433.646 844.62 373.55 832 320l-1.108-4.844C823.646 284.506 811.36 256.416 798 228l-2.044-4.35c-9.5-20.16-19.06-40.292-28.68-60.396a10730.738 10730.738 0 0 1-24.65-52.004l-2.012-4.268C730.79 86.114 721.166 65.166 712 44c-5.006 0-9.82.246-14.804.642Z"/><path fill="#163F58" d="M212 218c24.056 12.984 47.758 26.586 71.446 40.226 4.006 2.306 8.012 4.61 12.02 6.906 4.313 2.479 8.616 4.977 12.908 7.492l6.836 3.978C320 280 320 280 322 286a193.85 193.85 0 0 1-6.5 14.25c-1.32 2.736-2.632 5.476-3.938 8.22l-1.898 3.98c-25.056 53.462-14.7 116.98 3.73 170.438 16.004 43.684 37.464 88.952 61.996 128.588C378 616 378 616 378 620c144.8-1.386 144.8-1.386 272-62 1.62-1.33 3.24-2.66 4.906-4.032C672.832 538.682 685.994 520.14 698 500c9.062 3.308 17.236 7.794 25.626 12.5l4.66 2.6c15.628 8.764 31.096 17.81 46.536 26.902A1187.266 1187.266 0 0 0 814 564c-4 4-4 4-9.246 4.226l-6.62-.312c-27.22-2.2-27.22-2.2-51.61 6.868-4.688 5.264-8.252 11.244-11.874 17.27-5.122 7.63-11.754 13.894-18.274 20.322l-4.146 4.122c-32.468 31.674-74.88 54.808-118.106 68.004l-4.614 1.42A362.21 362.21 0 0 1 574 690l-6.248 1.53c-27.08 5.84-54.72 6.774-82.306 8.352-7.07.41-14.138.84-21.206 1.268-11.084.67-22.17 1.326-33.256 1.972-12.556.732-25.11 1.494-37.664 2.276l-13.8.848c-3.994.244-7.986.492-11.98.74l-7.14.42-5.886.354c-8.84.326-17.67.286-26.514.24l-1.472-3.136c-11.982-25.448-24.376-50.666-37.06-75.77l-4.412-8.75c-6.04-11.972-12.08-23.944-18.156-35.9C234.34 520.35 234.34 520.35 224 488l-2.46-7.37c-20.532-62.978-16.956-143.194 13.12-202.592 2.152-6.486.06-10.462-2.692-16.492l-2.468-4.796-2.688-5.28L224 246a3017.53 3017.53 0 0 1-5.5-10.75l-2.468-4.796c-1.896-4.154-3.096-7.998-4.032-12.454Z"/><path fill="#ECECEC" d="m712 44 1.664 3.63A7939.476 7939.476 0 0 0 752.5 131l4.344 9.196c6.52 13.8 13.054 27.596 19.62 41.378C823.078 279.458 823.078 279.458 832 320l.974 4.224c11.966 53.804 7.732 113.766-9.186 165.93l-1.57 4.964-1.44 4.33c-1.714 10.018 1.512 18.094 6.23 26.786l2.988 5.68c2.08 3.88 4.174 7.756 6.28 11.626 6.018 11.494 9.374 19.444 7.724 32.46-5.4 10.604-11.668 14.834-22 20-3.8.188-7.608.264-11.414.28l-6.934.12c-4.828.066-9.656.102-14.484.108-13.436.016-13.436.016-25.106 5.804L760 608a335.207 335.207 0 0 1-5.524 6.032l-2.87 3.176C706.302 667.224 646.38 703.888 580 718l-7.704 1.656c-15.942 3.208-31.924 5.02-48.124 6.328l-6.292.516c-24.228 1.924-48.486 3.22-72.754 4.5-9.478.51-18.954 1.024-28.43 1.54l-6.98.376a7068.991 7068.991 0 0 0-66.68 3.966l-7.224.454-6.104.392c-5.912.28-11.792.32-17.708.272-14.9-27.94-29.23-56.15-43.372-84.482-3.486-6.984-6.98-13.96-10.476-20.94-12.766-25.526-25.312-51.144-37.548-76.93-3.984-8.388-8.092-16.71-12.23-25.024-33.49-72.2-37.186-163.144-10.624-237.874l2.028-5.208c3.596-9.53 3.596-9.53 3.254-19.55-5.062-10.004-10.476-19.8-16.118-29.488-6.006-10.882-9.1-20.012-6.914-32.504 5.308-10.236 11.062-16.354 22-20 3.996-.134 7.994-.172 11.992-.156 30.07.904 30.07.904 55.396-12.406a201.175 201.175 0 0 0 10.266-14.108C315.942 107.826 396.792 77.086 456 66c7.31-1.114 14.634-1.958 21.984-2.75l6.822-.746c39.732-4.18 79.59-7.136 119.41-10.332 9.14-.736 18.282-1.48 27.424-2.224 10.932-.89 21.864-1.774 32.798-2.66l6.28-.508c5.82-.472 11.644-.94 17.466-1.406l5.23-.426C699.626 44.454 705.766 44 712 44Zm-57.54 33.374-5.576.444c-6.028.48-12.054.976-18.08 1.472l-12.718 1.032c-8.872.722-17.742 1.452-26.612 2.184-11.278.932-22.556 1.84-33.834 2.742-8.758.706-17.514 1.424-26.27 2.148-4.152.34-8.306.676-12.46 1.006C435.924 95.024 362.396 118.448 302 178l-3.35 3.266c-12.72 11.994-12.72 11.994-23.946 25.296C272 210 272 210 266 212c-3.258.272-6.522.448-9.79.562l-5.792.228-6.044.21c-17.28.542-17.28.542-34.374 3a204.318 204.318 0 0 0 8.696 19.446l2.668 5.26c1.846 3.622 3.694 7.242 5.546 10.86l2.66 5.254 2.43 4.76c3.27 7.226 4.628 10.646 1.92 18.288l-3.17 7.008C200.078 358.726 204.662 440.122 232 512c3.884 8.916 8.116 17.634 12.42 26.352l3.658 7.484c3.946 8.068 7.928 16.12 11.922 24.164l2.08 4.19a15969.5 15969.5 0 0 0 32.546 65.06c5.214 10.38 10.426 20.764 15.63 31.152 2.054 4.094 4.114 8.188 6.172 12.28l3.73 7.44 3.284 6.536C326 702 326 702 328 708c38.07-1.204 76.072-3.094 114.092-5.35 5.966-.352 11.934-.7 17.902-1.04 58.744-2.07 58.744-2.07 116.38-12.11l5.008-1.32C631.4 674.606 676.62 650.076 714 614l3.15-3.026c3.424-3.308 6.833-6.633 10.226-9.974l3.168-3.088c4.708-4.7 8.872-8.952 12.352-14.666 4.936-7.86 8.132-12.51 17.396-14.804 7.5-.52 14.818-.534 22.332-.318 5.076.04 10.152.064 15.228.072l6.776.156c5.68.22 5.68.22 9.372-4.352l-1.74-3.298-7.884-14.952-2.74-5.188c-1.76-3.34-3.516-6.686-5.266-10.034a1467.287 1467.287 0 0 0-6.026-11.364c-3.896-8.584-1.696-15.384 1.396-24.026l2.034-5.38c11.564-31.636 15.174-62.272 15.1-95.758v-4.734c-.082-27.834-2.174-55.058-10.124-81.892l-1.586-5.404C791.656 283.874 784.208 267.01 776 250l-2.838-5.918a7848.25 7848.25 0 0 0-12.91-26.796c-8.91-18.412-17.578-36.928-26.16-55.494a11278.374 11278.374 0 0 0-26.716-57.292l-2.042-4.352C701.556 92.098 697.78 84.048 694 76c-13.194-.178-26.39.28-39.54 1.374Z"/><path fill="#38B798" d="M470 242c9.062 2.61 15.65 6.282 23.376 11.626 8.636 5.278 8.636 5.278 18.436 5.952a213.8 213.8 0 0 0 11.056-3.72c17.37-6.292 36.424.216 53.132 6.142 19.576 9.434 35.184 24.152 44.648 43.82C622 310 622 310 622.164 314.742c.264 6.28.772 9.68 3.836 15.258 10.2 8.296 22.274 14.176 34 20-2.596 9.04-6.23 15.474-11.626 23.126-4.346 7.21-6.486 11.11-5.952 19.578 1.66 6.506 3.602 12.88 5.578 19.296 3.35 21.564-6.072 43.54-18.062 60.992-12.3 15.644-26.656 25.596-45.938 31.008-6.726.25-6.726.25-12 0l-1.57 4.22c-2.688 6.392-5.86 12.262-9.304 18.28l-3.62 6.406C554 538 554 538 548 540c-3.4-2.11-6.792-4.244-10.076-6.532-11.986-8.644-11.986-8.644-26.018-11.336A163.66 163.66 0 0 0 501.204 526c-17.528 6.738-36.556.668-53.204-6-21.616-10.32-37.508-25.38-46-48l-.742-5.016c-1.172-7.71-2.496-12.804-8.836-17.806C382.686 442.734 372.43 437.234 362 432l2.414-4.39c2.182-3.984 4.352-7.972 6.508-11.97 2.24-4.09 4.558-8.138 6.952-12.14 3.162-8.18 1.48-14.86-.928-23.11-4.63-21.496-.56-42.82 10.07-61.764C399.936 298.914 415.864 286.044 438 278l7.054-1.25c9.822-3.888 12.27-9.836 16.82-19l2.412-4.57A691.215 691.215 0 0 0 470 242Z"/><path fill="#DA5557" d="M690 78c6 2 6 2 8.48 6.188l2.426 5.522c.9 2.016 1.8 4.03 2.73 6.104l2.864 6.56a9019.41 9019.41 0 0 0 5.984 13.368l2.904 6.5a437.634 437.634 0 0 0 9.362 19.258c7.46 14.65 14.296 29.58 21.174 44.508a2299.763 2299.763 0 0 0 22.568 47.56c37.596 77.016 56.274 165.102 28.02 248.84-2.14 6.054-4.378 11.992-6.872 17.912-4.1 14.194 4.054 25.9 10.486 38.18 1.862 3.59 3.72 7.184 5.57 10.78l2.5 4.784C810 558 810 558 810 562c-12.444-3.268-22.8-9.974-33.75-16.5l-12.804-7.57-6.664-3.946a1788.558 1788.558 0 0 0-20.54-11.852l-6.66-3.814a2395.89 2395.89 0 0 0-12.772-7.254l-5.802-3.338-5.136-2.92C702 502 702 502 700 496c1.71-4.484 1.71-4.484 4.376-9.75 24.204-51.158 26.524-110.114 8.374-163.5-8.81-24.316-21.812-47.188-38.75-66.75l-3.954-4.82C655.14 233.64 637.16 220.58 618 208c2.794-7.396 6.132-14.192 9.968-21.1l3.63-6.546 3.902-6.98 1.996-3.58c11.872-21.312 24.084-42.41 36.458-63.434A1100.053 1100.053 0 0 0 690 78Z"/><path fill="#234F69" d="M212 218c24.056 12.984 47.758 26.586 71.446 40.226 4.006 2.306 8.012 4.61 12.02 6.906 4.313 2.479 8.616 4.977 12.908 7.492l6.836 3.978C320 280 320 280 322 286a193.85 193.85 0 0 1-6.5 14.25c-1.32 2.736-2.632 5.476-3.938 8.22l-1.898 3.98c-25.056 53.462-14.7 116.98 3.73 170.438 16.004 43.684 37.464 88.952 61.996 128.588C378 616 378 616 378 620h18v2l-3.406-.42c-5.594-.124-9.36.354-14.594 2.42-6.436 7.31-10.68 15.768-15.126 24.376a1498.495 1498.495 0 0 1-3.898 7.154c-2.55 4.675-5.071 9.366-7.564 14.072-4.26 7.986-8.74 15.824-13.286 23.648-2.044 3.582-4.086 7.166-6.126 10.75l16 2v2h-20l-3.6-7.654c-11.314-23.922-22.998-47.634-34.932-71.252l-4.412-8.75c-6.04-11.972-12.08-23.944-18.156-35.9C234.34 520.35 234.34 520.35 224 488l-2.46-7.37c-20.532-62.978-16.956-143.194 13.12-202.592 2.152-6.486.06-10.462-2.692-16.492l-2.468-4.796-2.688-5.28L224 246a3017.53 3017.53 0 0 1-5.5-10.75l-2.468-4.796c-1.896-4.154-3.096-7.998-4.032-12.454Z"/><path fill="#DB5557" d="m406 802 .036 4.46c.116 13.92.26 27.836.436 41.752.088 7.154.168 14.308.22 21.462.054 6.912.134 13.824.234 20.736.05 3.902.07 7.806.09 11.708.208 12.666.386 22.874 6.984 33.882 7.508 5.006 13.4 4.578 22.096 4.55l4.97.03c5.428.028 10.856.026 16.286.02l11.322.028c7.918.014 15.834.014 23.752.004 10.134-.012 20.268.02 30.404.068 7.798.03 15.596.032 23.394.026 3.736 0 7.472.01 11.208.03 5.232.026 10.462.012 15.696-.012l4.658.046c9.53-.092 16.174-1.614 24.214-6.79 4.426-8.826 4.434-17 4.25-26.75l-.11-7.546L606 894c10.826-2.016 21.04-2.148 32-2l.304 3.36c.466 5.05.956 10.094 1.446 15.14l.476 5.29.508 5.116.444 4.698c.9 4.82 2.218 8.242 4.822 12.396 7.304 3.818 10.564 4.44 18.5 2 6.878-5 7.472-7.828 9.5-16 .27-5.336.384-10.432.25-15.75l-.054-4.172c-.048-3.36-.12-6.72-.196-10.078 8.026-1.248 15.75-2.25 23.876-2.126l4.68.056L706 892c2.936 8.81 2.776 17.676 3.242 26.914.74 6.904 2.31 12.612 4.758 19.086l14 2c7.46-9.456 6.708-18.164 6.376-29.626l-.084-5.354c-.07-4.34-.178-8.68-.292-13.02l32-4c3.912 7.822 3.44 17.832 4.148 26.52.89 9.212 1.97 15.958 7.852 23.48 5.61 2.804 10.37 2.34 16.626 2.376l6.85.084c6.6-.466 10.83-1.104 16.524-4.46 9.55-16.77 3.39-40.204 0-58l32-8c8.346 23.586 13.318 51.82 4 76-7.18 13.756-15.082 22.796-30 28.156-9.922 2.722-19.904 2.504-30.126 2.47l-5.862.096c-14.08.01-22.246-2.88-34.012-10.722l-4.626 3.876c-8.56 6.568-15.44 6.55-26 6.75l-7.85.226c-8.644-.98-12.552-3.866-19.524-8.852-8.148-.69-8.148-.69-14.626 4-12.27 6.446-25.922 5.51-39.374 4-6.236-2.03-10.436-4.4-16-8l-4-2c-3.47 1.928-6.938 3.868-10.296 5.984-6.414 3.492-12.594 4.266-19.82 4.324l-4.84.052-5.26.026-5.58.05c-6.094.048-12.188.082-18.282.11l-6.32.034c-11.046.052-22.092.092-33.14.12-9.12.026-18.24.082-27.36.164-11.034.1-22.064.148-33.098.162-4.192.014-8.384.044-12.576.092-43.068.466-43.068.466-57.428-11.118-4.508-5.07-4.508-5.07-7.126-10.126l-2.756-5.07c-3.794-8.606-4.364-15.874-4.346-25.28v-7.64l.032-8.228.01-8.44c.006-7.392.026-14.782.048-22.174.02-7.548.03-15.096.04-22.644.02-14.8.056-29.6.098-44.398 4.58-1.674 9.164-3.34 13.75-5l3.946-1.446C401.546 802 401.546 802 406 802Zm-68 40c1.598 4.286 3.178 8.58 4.75 12.876l2.672 7.24c8.918 26.108 11.448 56.832 1.1 82.86-9.162 18.242-22.696 31.108-41.32 39.306-15.624 5.16-30.412 6.434-46.826 6.342l-6.444-.034c-25.402-.392-46.58-4.888-66.002-22.222-16.882-17.744-20.584-39.344-20.368-63.086 1.204-20.04 6.006-39.09 14.438-57.282 12.612 2.22 22.75 5.864 34 12l-1.172 4.04c-10.194 35.404-10.194 35.404-3.454 70.836 5.412 9.516 12.62 13.738 22.86 17.28 19.27 4.576 43.966 5.298 62-3.624C304.086 941.91 309.37 933.618 312 922c4.17-25.38-2.376-44.566-12-68 29.476-12 29.476-12 38-12Z"/><path fill="#DB5557" d="M662 826c7.252 1.14 10.51 3.848 15.5 9.126l3.72 3.88c.916.99 1.834 1.976 2.78 2.994 7.492-3.31 11.604-7.594 16.876-13.71C704 826 704 826 707.78 826.078c5.81 2.648 9.314 6.45 13.718 11.048l4.844 5.006L730 846a1288.403 1288.403 0 0 1-12 14l-4.25 5c-3.75 3-3.75 3-7.516 2.696-5.518-2.21-7.968-5.26-11.734-9.82l-3.72-4.446L688 850c-2.212 1.872-4.42 3.748-6.626 5.626l-3.726 3.164A175.104 175.104 0 0 0 668 868c-6.904-2.954-11.3-6.876-16.5-12.25l-4.28-4.39L644 848l2.414-2.78c5.408-6.266 10.746-12.498 15.586-19.22Zm-406 4c18.876 15.914 18.876 15.914 24 22-.394 8.124-5.504 12.116-11.126 17.5l-5.006 4.844L260 878c-6.74-2.924-11.214-6.676-16.376-11.876l-4.21-4.18C236 858 236 858 234 852l22-22Zm545.92-16.032c5.63 2.804 9.24 6.626 13.58 11.158l4.844 5.006L824 834c-3.072 7.36-7.564 11.976-13.25 17.5l-4.954 4.844L802 860c-8.368-7.018-16.392-14.16-24-22 2.932-6.696 6.674-11.386 11.75-16.626l4.11-4.35C798 814 798 814 801.92 813.968Z"/><path fill="#DB5557" d="M684 790c6.904 2.954 11.3 6.876 16.5 12.25l4.28 4.39L708 810c-2.954 6.904-6.876 11.3-12.25 16.5l-4.39 4.28L688 834c-6.904-2.954-11.3-6.876-16.5-12.25l-4.28-4.39L664 814c2.954-6.904 6.876-11.3 12.25-16.5l4.39-4.28L684 790Z"/></g><defs><clipPath id="clip0_2071_3744"><path fill="#fff" d="M0 0h1024v1024H0z"/></clipPath></defs></svg>