<?xml version="1.0" encoding="UTF-8"?>
<svg version="1.1" xmlns="http://www.w3.org/2000/svg" width="512" height="512">
<path d="M0 0 C0.77425764 -0.00825397 1.54851528 -0.01650793 2.34623528 -0.02501202 C11.05962587 0.0018881 19.73685945 1.97017254 26.07885742 8.32348633 C32.82836803 16.10347987 36.84084402 26.34071031 41.26123047 35.56567383 C41.96486204 37.02611128 42.66864035 38.48647804 43.37255859 39.94677734 C51.8594482 57.58744065 60.18560197 75.30852867 68.02709961 93.24658203 C69.91136606 97.52690957 71.96075271 101.67285058 74.13623047 105.81567383 C93.75410377 144.78268244 100.22892222 190.58483421 90.57373047 233.25317383 C88.17534034 243.98177495 87.01277924 252.38872944 92.40966797 262.42504883 C96.93712018 272.13849176 97.80097906 285.60826893 94.13623047 295.75317383 C90.31564784 303.67784522 84.21132003 310.0674225 75.96044922 313.24536133 C68.67686646 315.68211551 61.61045535 316.90958375 54.01123047 317.69848633 C50.88977453 318.16228756 48.47985514 318.70808898 45.69873047 320.19067383 C45.36873047 321.18067383 45.03873047 322.17067383 44.69873047 323.19067383 C43.08572957 324.95977159 41.45097925 326.56504443 39.69873047 328.19067383 C39.05291016 328.8068457 38.40708984 329.42301758 37.74169922 330.05786133 C25.00611425 341.903908 11.04641875 352.01406676 -4.30126953 360.19067383 C-4.96529785 360.54468262 -5.62932617 360.89869141 -6.31347656 361.26342773 C-45.82659686 381.90634496 -89.5389724 382.63006736 -133.00846481 385.24020386 C-135.27907061 385.376838 -137.54958783 385.51487748 -139.82009888 385.65307617 C-194.41638727 388.96025734 -194.41638727 388.96025734 -205.10205078 379.67504883 C-214.63229426 368.90908995 -220.21227328 354.49285244 -226.24658203 341.62426758 C-231.04165923 331.44475634 -236.16548543 321.4270452 -241.25311279 311.39164734 C-243.14612947 307.65439007 -245.033336 303.91421406 -246.91967773 300.17358398 C-247.88132951 298.27044016 -248.84584352 296.36873987 -249.81323242 294.46850586 C-257.79302967 278.78430954 -265.28434776 263.02724198 -269.55126953 245.87817383 C-269.79377441 244.90855713 -270.0362793 243.93894043 -270.28613281 242.93994141 C-278.13989202 210.49763077 -277.45832849 177.15021706 -268.92944336 144.90673828 C-266.94742169 136.33697881 -268.74958399 130.24320785 -272.05517578 122.21801758 C-276.49072455 111.44199785 -276.65854163 100.87268921 -272.55126953 89.94848633 C-268.41469605 80.82217108 -262.08908554 75.74645211 -252.73876953 72.22583008 C-246.17122604 70.26143091 -239.48233141 69.49691803 -232.68408203 68.81567383 C-226.30975428 67.63796893 -221.61596536 63.50536965 -217.11376953 59.00317383 C-199.78499046 41.67439476 -178.89199596 29.39410471 -156.30126953 20.19067383 C-155.15529297 19.71887695 -154.00931641 19.24708008 -152.82861328 18.76098633 C-139.0391549 13.46872697 -124.38891038 10.48756685 -109.75048828 8.77270508 C-108.70895599 8.64961472 -107.66742371 8.52652435 -106.59432983 8.39970398 C-90.47949724 6.56838566 -74.30579322 5.29738857 -58.14306641 3.97363281 C-53.36607526 3.58211468 -48.59012332 3.17916715 -43.81433296 2.77329731 C-40.06531936 2.45639246 -36.3157272 2.14679242 -32.56594467 1.83913231 C-30.80630876 1.69370613 -29.04686873 1.54588449 -27.28766251 1.3953495 C-18.19054574 0.62008843 -9.13284984 0.05542015 0 0 Z " fill="#EF5E60" transform="translate(351.30126953125,7.809326171875)"/>
<path d="M0 0 C1.21429688 0.3403125 2.42859375 0.680625 3.6796875 1.03125 C18.28557277 5.52536855 31.22462418 12.20678445 43 22 C43.87269531 22.72058594 44.74539063 23.44117187 45.64453125 24.18359375 C66.63136924 42.26902556 79.53409789 68.48196196 82 96 C83.84835717 124.71864858 75.86789385 152.9606942 57 175 C55.96746094 176.23169922 55.96746094 176.23169922 54.9140625 177.48828125 C29.47445381 206.90003937 -8.64214297 214.07230375 -45.68617249 216.77268982 C-61.1254381 217.85084794 -76.5208736 218.28978779 -92 218 C-92.52001587 216.99755249 -92.52001587 216.99755249 -93.05053711 215.97485352 C-94.08813906 213.97529559 -95.12618283 211.97596689 -96.16455078 209.97680664 C-97.35804875 207.67839448 -98.55041049 205.37939199 -99.74169922 203.07983398 C-103.54790481 195.74060089 -103.54790481 195.74060089 -107.48046875 188.46875 C-126.25198666 154.42208211 -141.54266188 114.10032843 -131 75 C-122.35640676 46.5254601 -102.76745866 22.84489934 -76.58203125 8.8125 C-53.0679543 -3.29401139 -25.69759696 -7.25854675 0 0 Z " fill="#EEEEEE" transform="translate(281,92)"/>
<path d="M0 0 C0.77425764 -0.00825397 1.54851528 -0.01650793 2.34623528 -0.02501202 C11.05962587 0.0018881 19.73685945 1.97017254 26.07885742 8.32348633 C32.82836803 16.10347987 36.84084402 26.34071031 41.26123047 35.56567383 C41.96486204 37.02611128 42.66864035 38.48647804 43.37255859 39.94677734 C51.8594482 57.58744065 60.18560197 75.30852867 68.02709961 93.24658203 C69.91136606 97.52690957 71.96075271 101.67285058 74.13623047 105.81567383 C93.75410377 144.78268244 100.22892222 190.58483421 90.57373047 233.25317383 C88.17534034 243.98177495 87.01277924 252.38872944 92.40966797 262.42504883 C96.93712018 272.13849176 97.80097906 285.60826893 94.13623047 295.75317383 C90.31564784 303.67784522 84.21132003 310.0674225 75.96044922 313.24536133 C68.67686646 315.68211551 61.61045535 316.90958375 54.01123047 317.69848633 C50.88977453 318.16228756 48.47985514 318.70808898 45.69873047 320.19067383 C45.36873047 321.18067383 45.03873047 322.17067383 44.69873047 323.19067383 C43.08572957 324.95977159 41.45097925 326.56504443 39.69873047 328.19067383 C39.05291016 328.8068457 38.40708984 329.42301758 37.74169922 330.05786133 C25.00611425 341.903908 11.04641875 352.01406676 -4.30126953 360.19067383 C-4.96529785 360.54468262 -5.62932617 360.89869141 -6.31347656 361.26342773 C-45.82659686 381.90634496 -89.5389724 382.63006736 -133.00846481 385.24020386 C-135.27907061 385.376838 -137.54958783 385.51487748 -139.82009888 385.65307617 C-194.41638727 388.96025734 -194.41638727 388.96025734 -205.10205078 379.67504883 C-214.63229426 368.90908995 -220.21227328 354.49285244 -226.24658203 341.62426758 C-231.04165923 331.44475634 -236.16548543 321.4270452 -241.25311279 311.39164734 C-243.14612947 307.65439007 -245.033336 303.91421406 -246.91967773 300.17358398 C-247.88132951 298.27044016 -248.84584352 296.36873987 -249.81323242 294.46850586 C-257.79302967 278.78430954 -265.28434776 263.02724198 -269.55126953 245.87817383 C-269.79377441 244.90855713 -270.0362793 243.93894043 -270.28613281 242.93994141 C-278.13989202 210.49763077 -277.45832849 177.15021706 -268.92944336 144.90673828 C-266.94742169 136.33697881 -268.74958399 130.24320785 -272.05517578 122.21801758 C-276.49072455 111.44199785 -276.65854163 100.87268921 -272.55126953 89.94848633 C-268.41469605 80.82217108 -262.08908554 75.74645211 -252.73876953 72.22583008 C-246.17122604 70.26143091 -239.48233141 69.49691803 -232.68408203 68.81567383 C-226.30975428 67.63796893 -221.61596536 63.50536965 -217.11376953 59.00317383 C-199.78499046 41.67439476 -178.89199596 29.39410471 -156.30126953 20.19067383 C-155.15529297 19.71887695 -154.00931641 19.24708008 -152.82861328 18.76098633 C-139.0391549 13.46872697 -124.38891038 10.48756685 -109.75048828 8.77270508 C-108.70895599 8.64961472 -107.66742371 8.52652435 -106.59432983 8.39970398 C-90.47949724 6.56838566 -74.30579322 5.29738857 -58.14306641 3.97363281 C-53.36607526 3.58211468 -48.59012332 3.17916715 -43.81433296 2.77329731 C-40.06531936 2.45639246 -36.3157272 2.14679242 -32.56594467 1.83913231 C-30.80630876 1.69370613 -29.04686873 1.54588449 -27.28766251 1.3953495 C-18.19054574 0.62008843 -9.13284984 0.05542015 0 0 Z M-2.70347595 14.51216125 C-3.60425369 14.58355316 -4.50503143 14.65494507 -5.43310547 14.72850037 C-6.41947998 14.80794388 -7.40585449 14.88738739 -8.42211914 14.96923828 C-9.46332413 15.05220154 -10.50452911 15.13516479 -11.57728577 15.22064209 C-15.03618981 15.49683904 -18.49492168 15.77511081 -21.95361328 16.05395508 C-23.13948092 16.14950369 -24.32534855 16.2450523 -25.54715157 16.34349632 C-31.84024627 16.85101685 -38.13318329 17.3604513 -44.42602539 17.87109375 C-49.60379117 18.29086669 -54.78184406 18.70677673 -59.96020508 19.11914062 C-66.23414927 19.61875934 -72.50750576 20.12523949 -78.78051949 20.63640404 C-81.15576128 20.82885977 -83.53118962 21.01902922 -85.90681267 21.20672035 C-112.62413238 23.14596618 -112.62413238 23.14596618 -138.73876953 28.81567383 C-139.5930957 29.06800781 -140.44742188 29.3203418 -141.32763672 29.58032227 C-167.65511348 37.66998539 -198.30665622 52.89248687 -215.15942383 75.70605469 C-218.25659258 79.71893927 -220.57213977 82.68871033 -225.55004883 84.13378906 C-229.22182545 84.51242443 -232.79788571 84.63396194 -236.48876953 84.62817383 C-238.96167867 84.67811865 -241.43439739 84.73893483 -243.90673828 84.81176758 C-244.99108154 84.81619873 -246.0754248 84.82062988 -247.19262695 84.82519531 C-252.09338676 85.4013704 -255.32348357 87.10718128 -258.61376953 90.75317383 C-261.6530982 95.14331523 -262.14150791 98.93506517 -261.30126953 104.19067383 C-259.1211953 109.2461674 -256.18055339 113.89162922 -253.30322266 118.57543945 C-249.1804524 125.79390387 -249.1804524 125.79390387 -249.53930664 129.94262695 C-250.29042218 132.47260105 -251.2019242 134.79384693 -252.30126953 137.19067383 C-261.75886263 164.5925215 -264.21765538 196.84954535 -257.30126953 225.19067383 C-257.1243457 225.95976074 -256.94742188 226.72884766 -256.76513672 227.52124023 C-253.58534809 241.23716785 -249.01311927 253.98738553 -242.63720703 266.54614258 C-239.77257003 272.23283397 -236.94806726 277.93660252 -234.17236328 283.66723633 C-233.81930618 284.39567245 -233.46624908 285.12410858 -233.10249329 285.87461853 C-232.3645976 287.39730173 -231.62680166 288.92003327 -230.88909912 290.44281006 C-222.92515057 306.87059315 -214.83513178 323.23388481 -206.67626953 339.56567383 C-205.90692581 341.1081076 -205.90692581 341.1081076 -205.12203979 342.68170166 C-203.67106001 345.58949419 -202.21719716 348.4958238 -200.76220703 351.40161133 C-200.32456528 352.27887878 -199.88692352 353.15614624 -199.4360199 354.05999756 C-199.03625443 354.85641663 -198.63648895 355.65283569 -198.22460938 356.47338867 C-197.87554535 357.17072113 -197.52648132 357.86805359 -197.1668396 358.58651733 C-196.40416016 360.1832892 -196.40416016 360.1832892 -195.30126953 361.19067383 C-193.82830562 361.24505783 -192.35254074 361.22424795 -190.87939453 361.17504883 C-189.89696777 361.1422583 -188.91454102 361.10946777 -187.90234375 361.07568359 C-186.79648926 361.03113037 -185.69063477 360.98657715 -184.55126953 360.94067383 C-183.37967285 360.89547607 -182.20807617 360.85027832 -181.00097656 360.80371094 C-166.448062 360.18668796 -151.92048764 359.15013239 -137.38999939 358.1486969 C-135.95195702 358.04959267 -135.95195702 358.04959267 -134.48486328 357.94848633 C-133.53225113 357.88277939 -132.57963898 357.81707245 -131.59815979 357.74937439 C-123.50243652 357.19516234 -115.40356279 356.71321553 -107.30233765 356.24783325 C-54.95251162 353.21224166 -9.29025582 338.77430421 26.82373047 298.62817383 C27.50693359 297.84313477 28.19013672 297.0580957 28.89404297 296.24926758 C29.48958984 295.56993164 30.08513672 294.8905957 30.69873047 294.19067383 C31.31856812 293.39705444 31.31856812 293.39705444 31.95092773 292.58740234 C34.44768188 290.59216132 36.30154873 290.80610858 39.46826172 290.78442383 C40.60457031 290.76250977 41.74087891 290.7405957 42.91162109 290.71801758 C44.09949219 290.70899414 45.28736328 290.6999707 46.51123047 290.69067383 C56.6093586 290.96242057 56.6093586 290.96242057 65.69873047 287.19067383 C69.38845368 283.10206162 71.18302732 280.2750027 71.11328125 274.65600586 C70.04258725 268.28859241 65.96297804 262.52692165 62.87646484 256.9465332 C58.70347795 249.09934247 58.70347795 249.09934247 58.67919922 244.45239258 C59.01564453 243.37602539 59.35208984 242.2996582 59.69873047 241.19067383 C60.06089655 239.89645528 60.4228643 238.60218123 60.78466797 237.30786133 C60.99196533 236.62763916 61.1992627 235.94741699 61.4128418 235.24658203 C69.36242972 209.01323556 71.00895792 178.96556157 64.69873047 152.19067383 C64.42464355 150.9918457 64.42464355 150.9918457 64.14501953 149.76879883 C60.52192698 134.4435338 54.37765157 120.39949489 47.69873047 106.19067383 C47.36147949 105.472948 47.02422852 104.75522217 46.67675781 104.01574707 C41.93306112 93.93244154 37.14072704 83.87246385 32.33740234 73.81745911 C28.20398471 65.16183246 24.09838268 56.49323649 20.01123047 47.81567383 C19.51352646 46.75925186 19.51352646 46.75925186 19.00576782 45.68148804 C14.09410495 35.24718933 9.28185419 24.77407136 4.69873047 14.19067383 C2.19543122 14.19067383 -0.21151276 14.31319354 -2.70347595 14.51216125 Z " fill="#474747" transform="translate(351.30126953125,7.809326171875)"/>
<path d="M0 0 C12.02821457 6.49212038 23.87895493 13.29339402 35.72314453 20.11328125 C37.72561822 21.26624777 39.72897991 22.41767593 41.73388672 23.56640625 C43.89098547 24.80533717 46.0408536 26.05557488 48.1875 27.3125 C49.31542969 27.96863281 50.44335938 28.62476563 51.60546875 29.30078125 C54 31 54 31 55 34 C53.9981197 36.45755345 52.94044399 38.76211385 51.75 41.125 C51.09064802 42.49330123 50.43436857 43.8630875 49.78125 45.234375 C49.46800781 45.89115234 49.15476563 46.54792969 48.83203125 47.22460938 C36.30426766 73.95638662 41.48227583 105.71518363 50.69726562 132.44384766 C58.69859487 154.28555714 69.42853972 176.91998005 81.69482422 196.73828125 C83 199 83 199 83 201 C155.39941013 200.30670427 155.39941013 200.30670427 219 170 C219.80953125 169.33484375 220.6190625 168.6696875 221.453125 167.984375 C230.41566366 160.34147393 236.99747808 151.06874645 243 141 C247.53129877 142.65414402 251.61848245 144.89720147 255.8125 147.25 C256.58150635 147.67893555 257.3505127 148.10787109 258.14282227 148.54980469 C265.95749289 152.93249712 273.69071673 157.45516135 281.41137695 162.00097656 C287.87336067 165.79746687 294.39891351 169.45083813 301 173 C299 175 299 175 296.37719727 175.11254883 C295.28463623 175.06122803 294.1920752 175.00990723 293.06640625 174.95703125 C279.45640178 173.85692856 279.45640178 173.85692856 267.26171875 178.390625 C264.91843699 181.02267653 263.13633074 184.01341581 261.32470703 187.02636719 C258.76399076 190.84148519 255.44839679 193.97273 252.1875 197.1875 C251.50349121 197.86756104 250.81948242 198.54762207 250.11474609 199.24829102 C233.88067195 215.08486654 212.67493634 226.65208235 191.0625 233.25 C189.92047119 233.60118896 189.92047119 233.60118896 188.75537109 233.95947266 C186.18321293 234.70653921 183.60271585 235.36725225 181 236 C179.96907227 236.25257568 178.93814453 236.50515137 177.87597656 236.76538086 C164.33544159 239.68486393 150.51610594 240.15195858 136.72304916 240.9412384 C133.18839685 241.1455318 129.65442234 241.36095783 126.12036133 241.57519531 C120.57782042 241.90988246 115.03494464 242.23823384 109.49169922 242.56103516 C103.21365702 242.92719252 96.93669611 243.30826408 90.66015625 243.69921875 C88.36003638 243.84099091 86.05988503 243.98223051 83.75970459 244.12301636 C81.76309451 244.24536761 79.76655549 244.36887685 77.77001953 244.49243164 C76.59165527 244.56196045 75.41329102 244.63148926 74.19921875 244.703125 C73.22815186 244.76145508 72.25708496 244.81978516 71.2565918 244.87988281 C66.83696408 245.04289779 62.42207392 245.02343329 58 245 C57.63566864 244.22393402 57.63566864 244.22393402 57.26397705 243.43218994 C51.27277865 230.7076394 45.07648514 218.09903635 38.734375 205.546875 C37.99871391 204.08855448 37.26315974 202.63018002 36.52770996 201.17175293 C33.50802739 195.18558922 30.48787873 189.19971095 27.45019531 183.22265625 C11.17088834 151.17423456 11.17088834 151.17423456 6 135 C5.59394531 133.7838501 5.18789062 132.5677002 4.76953125 131.31469727 C-5.4963802 99.8261772 -3.70849211 59.71781375 11.33032227 30.01879883 C12.4059664 26.77618076 11.35941379 24.78794561 9.984375 21.7734375 C9.57703125 20.98195312 9.1696875 20.19046875 8.75 19.375 C8.3065625 18.50359375 7.863125 17.6321875 7.40625 16.734375 C6.9421875 15.83203125 6.478125 14.9296875 6 14 C5.07956543 12.2102661 4.16275213 10.41866406 3.25 8.625 C2.84265625 7.83351563 2.4353125 7.04203125 2.015625 6.2265625 C1.06832982 4.14979998 0.46798473 2.22801428 0 0 Z " fill="#163F58" transform="translate(106,109)"/>
<path d="M0 0 C0.27448975 0.5990918 0.54897949 1.19818359 0.83178711 1.81542969 C7.22312732 15.74925612 13.69771245 29.64122619 20.25 43.5 C20.97398124 45.03254126 21.69793943 46.56509341 22.421875 48.09765625 C25.68276651 54.9983652 28.94893771 61.89646008 32.23155212 68.78686523 C55.5393501 117.7285165 55.5393501 117.7285165 60 138 C60.16081055 138.69706055 60.32162109 139.39412109 60.48730469 140.11230469 C66.46967321 167.01446089 64.35316673 196.99476401 55.89404297 223.07666016 C55.63510254 223.89569824 55.37616211 224.71473633 55.109375 225.55859375 C54.87186523 226.27329834 54.63435547 226.98800293 54.38964844 227.72436523 C53.53212199 232.73251311 55.14491824 236.77131004 57.50390625 241.1171875 C57.99697266 242.05433594 58.49003906 242.99148438 58.99804688 243.95703125 C60.03863981 245.89791246 61.08549719 247.83544837 62.13867188 249.76953125 C65.14659101 255.51729808 66.82522033 259.49234141 66 266 C63.29918937 271.30159123 60.16614277 273.41692862 55 276 C53.09942525 276.09447034 51.19586964 276.131839 49.29296875 276.140625 C47.5769043 276.16962891 47.5769043 276.16962891 45.82617188 276.19921875 C43.41227561 276.23290705 40.99811428 276.25128931 38.58398438 276.25390625 C31.86631079 276.2624283 31.86631079 276.2624283 26.03125 279.15625 C25.3609375 280.0946875 24.690625 281.033125 24 282 C23.09200274 283.01658215 22.17063084 284.02133001 21.23828125 285.015625 C20.76471191 285.53987061 20.29114258 286.06411621 19.80322266 286.60424805 C-2.84859975 311.61177095 -32.81022987 329.94447403 -66 337 C-67.27101563 337.27328125 -68.54203125 337.5465625 -69.8515625 337.828125 C-77.82304594 339.43247815 -85.81362501 340.3384181 -93.9140625 340.9921875 C-94.95228653 341.07714478 -95.99051056 341.16210205 -97.06019592 341.24963379 C-109.1739188 342.21245315 -121.30327517 342.85990668 -133.4375 343.5 C-138.17586639 343.75494471 -142.91410519 344.01222312 -147.65234375 344.26953125 C-148.80394989 344.33175369 -149.95555603 344.39397614 -151.14205933 344.45808411 C-162.25906842 345.06146114 -173.37140646 345.73297623 -184.48217773 346.44140625 C-186.26990601 346.55355469 -186.26990601 346.55355469 -188.09375 346.66796875 C-189.60485352 346.76501099 -189.60485352 346.76501099 -191.14648438 346.86401367 C-194.10202673 347.00486216 -197.04156382 347.02333585 -200 347 C-207.45085779 333.02950906 -214.61541511 318.92524055 -221.68579102 304.75878906 C-223.4288228 301.267381 -225.17610852 297.77812586 -226.92382812 294.2890625 C-233.30729029 281.52557036 -239.57980224 268.71667016 -245.69824219 255.82397461 C-247.69032696 251.62966889 -249.74380393 247.46947251 -251.8125 243.3125 C-268.5580987 207.21107737 -270.4064925 161.73961212 -257.125 124.375 C-256.79040771 123.51551758 -256.45581543 122.65603516 -256.11108398 121.77050781 C-254.31290455 117.00588309 -254.31290455 117.00588309 -254.484375 111.99609375 C-257.01499808 106.99354761 -259.7223491 102.09673645 -262.54296875 97.25195312 C-265.54586806 91.81083966 -267.09209664 87.24645002 -266 81 C-263.34641502 75.88237182 -260.46882174 72.82294058 -255 71 C-253.00224538 70.93330659 -251.0027588 70.91412809 -249.00390625 70.921875 C-233.9686246 71.37364896 -233.9686246 71.37364896 -221.30566406 64.71948242 C-219.48675448 62.43351165 -217.78771497 60.09888713 -216.17285156 57.66455078 C-198.02850321 31.9134752 -157.60449181 16.54264019 -128 11 C-124.3453724 10.44333718 -120.68300941 10.02137755 -117.0078125 9.625 C-115.31936218 9.44048531 -115.31936218 9.44048531 -113.59680176 9.25224304 C-93.73107018 7.16161541 -73.80170334 5.68377202 -53.8918457 4.08551025 C-49.32111358 3.71761123 -44.7507078 3.34574534 -40.18030548 2.97377491 C-34.71408219 2.52910388 -29.24767237 2.08674701 -23.78125 1.64453125 C-22.74500992 1.56049356 -21.70876984 1.47645588 -20.64112854 1.3898716 C-17.73025554 1.15421313 -14.81925429 0.92021365 -11.90820312 0.68676758 C-11.04503479 0.6166748 -10.18186646 0.54658203 -9.2925415 0.47436523 C-6.18651791 0.22666051 -3.1173043 0 0 0 Z M-28.76977539 16.68676758 C-30.15014984 16.79658211 -30.15014984 16.79658211 -31.55841064 16.90861511 C-34.57185571 17.14963543 -37.58476384 17.39670441 -40.59765625 17.64453125 C-42.71739203 17.81683072 -44.83713811 17.98900358 -46.95689392 18.16105652 C-51.39264767 18.52219973 -55.82811354 18.88667372 -60.26342773 19.25317383 C-65.90169985 19.71855663 -71.54079798 20.17293391 -77.18019962 20.62439442 C-81.55886848 20.97666603 -85.93691032 21.3363081 -90.31481743 21.69791222 C-92.39107955 21.86828159 -94.46755019 22.03613196 -96.54423714 22.20124245 C-138.03912026 25.51222732 -174.80258061 37.22433227 -205 67 C-205.55268555 67.53898926 -206.10537109 68.07797852 -206.67480469 68.63330078 C-213.03418276 74.62971895 -213.03418276 74.62971895 -218.6484375 81.28125 C-220 83 -220 83 -223 84 C-224.62851435 84.13622153 -226.26132433 84.22423711 -227.89453125 84.28125 C-229.32829102 84.33732422 -229.32829102 84.33732422 -230.79101562 84.39453125 C-232.28665039 84.44673828 -232.28665039 84.44673828 -233.8125 84.5 C-242.45337296 84.77132953 -242.45337296 84.77132953 -251 86 C-249.70789687 89.3387649 -248.28216805 92.5358289 -246.65234375 95.72265625 C-246.21212891 96.59083984 -245.77191406 97.45902344 -245.31835938 98.35351562 C-244.39540001 100.16418696 -243.47091236 101.97408006 -242.54492188 103.78320312 C-241.8865332 105.08354492 -241.8865332 105.08354492 -241.21484375 106.41015625 C-240.81386475 107.19527588 -240.41288574 107.98039551 -239.99975586 108.78930664 C-238.36535301 112.40335249 -237.68589501 114.11318477 -239.0390625 117.93359375 C-239.56242187 119.08988281 -240.08578125 120.24617188 -240.625 121.4375 C-255.96068275 157.36308976 -253.66868837 198.06249953 -240 234 C-238.05848288 238.45758429 -235.94235288 242.81715348 -233.7890625 247.17578125 C-233.17932774 248.42302031 -232.57007389 249.67049456 -231.96125793 250.91818237 C-229.98801566 254.95234175 -227.99657028 258.97734329 -226 263 C-225.48537138 264.03692175 -225.48537138 264.03692175 -224.96034622 265.09479141 C-219.56695473 275.95367925 -214.13004804 286.79069067 -208.6875 297.625 C-206.08019223 302.8158288 -203.47433354 308.00737667 -200.87174416 313.20057297 C-199.84466988 315.24828834 -198.81518827 317.29478082 -197.78556824 319.34121704 C-197.16381402 320.58109813 -196.54216972 321.82103435 -195.9206543 323.06103516 C-195.37886032 324.13938629 -194.83706635 325.21773743 -194.27885437 326.32876587 C-193 329 -193 329 -192 332 C-172.96481881 331.39819394 -153.96418152 330.45322674 -134.95410156 329.32543945 C-131.97056294 329.14856374 -128.98685561 328.975148 -126.00292969 328.80493164 C-96.63133331 327.7696565 -96.63133331 327.7696565 -67.8125 322.75 C-66.9862915 322.53239014 -66.16008301 322.31478027 -65.30883789 322.09057617 C-40.30142015 315.30233249 -17.69026235 303.0369553 1 285 C1.51981445 284.50064941 2.03962891 284.00129883 2.57519531 283.48681641 C4.28848354 281.83368717 5.99000581 280.16933613 7.6875 278.5 C8.21029541 277.99041748 8.73309082 277.48083496 9.27172852 276.95581055 C11.62586342 274.60611811 13.70762279 272.47983767 15.44848633 269.62280273 C17.91626603 265.69338294 19.51357425 263.36800141 24.14575195 262.22119141 C27.89652718 261.96170862 31.55461299 261.95360343 35.3125 262.0625 C37.85021589 262.08156146 40.38799694 262.09365133 42.92578125 262.09765625 C44.04380127 262.12351807 45.16182129 262.14937988 46.3137207 262.17602539 C49.15313569 262.28643611 49.15313569 262.28643611 51 260 C50.56917114 259.18378174 50.56917114 259.18378174 50.12963867 258.35107422 C48.81492688 255.85940001 47.50120609 253.36720459 46.1875 250.875 C45.73568359 250.0190625 45.28386719 249.163125 44.81835938 248.28125 C43.93788299 246.61027292 43.06012136 244.93786208 42.18530273 243.26391602 C41.19091201 241.36463998 40.18298426 239.47245988 39.171875 237.58203125 C37.22379502 233.28976169 38.32388975 229.8898069 39.86987305 225.56860352 C40.20543213 224.68100342 40.54099121 223.79340332 40.88671875 222.87890625 C46.66912025 207.06114761 48.47352063 191.74331157 48.4375 175 C48.43756042 173.8282724 48.43756042 173.8282724 48.43762207 172.63287354 C48.39595242 158.7163071 47.35010407 145.10397867 43.375 131.6875 C43.11340088 130.79562988 42.85180176 129.90375977 42.58227539 128.98486328 C39.82777215 119.93722489 36.10421409 111.50411157 32 103 C31.29762207 101.53530273 31.29762207 101.53530273 30.58105469 100.04101562 C28.43678375 95.57138369 26.28686404 91.10456483 24.1262207 86.64282227 C19.67070546 77.43696492 15.3373445 68.17904543 11.04541016 58.89599609 C6.6234918 49.33281065 2.1627613 39.78832169 -2.3125 30.25 C-2.64940857 29.53180084 -2.98631714 28.81360168 -3.33343506 28.07363892 C-5.22158364 24.04876083 -7.11044581 20.02421843 -9 16 C-15.6310681 15.91317845 -22.16237525 16.13826885 -28.76977539 16.68676758 Z " fill="#ECECEC" transform="translate(356,22)"/>
<path d="M0 0 C4.53122092 1.30515226 7.82530634 3.14110548 11.6875 5.8125 C16.00557152 8.451975 16.00557152 8.451975 20.90625 8.7890625 C22.76497944 8.21995714 24.6087058 7.59941878 26.43359375 6.9296875 C35.11906803 3.78335131 44.64585476 7.03703978 53 10 C62.78836055 14.71698773 70.59198992 22.07568892 75.32421875 31.91015625 C76 34 76 34 76.08203125 36.37109375 C76.21428851 39.51097916 76.46795438 41.21142651 78 44 C83.09911564 48.14775616 89.13654153 51.08793423 95 54 C93.70192627 58.5199593 91.8848332 61.73728782 89.1875 65.5625 C87.01353151 69.16788806 85.94446487 71.11760848 86.2109375 75.3515625 C87.04143505 78.60497951 88.01215432 81.79157684 89 85 C90.67514925 95.78154572 85.96430885 106.76950703 79.96875 115.49609375 C73.81829419 123.31839965 66.64127734 128.29367654 57 131 C53.63671875 131.125 53.63671875 131.125 51 131 C50.74089844 131.69609375 50.48179687 132.3921875 50.21484375 133.109375 C48.87136133 136.30608559 47.28554224 139.24116066 45.5625 142.25 C44.66724609 143.83554687 44.66724609 143.83554687 43.75390625 145.453125 C42 148 42 148 39 149 C37.29913149 147.94529477 35.604015 146.87818562 33.96191406 145.73413086 C27.96934795 141.41159169 27.96934795 141.41159169 20.953125 140.06640625 C19.14782582 140.64817174 17.36190797 141.29378471 15.6015625 142 C6.83798159 145.36858365 -2.6759599 142.33375735 -11 139 C-21.80781144 133.84033861 -29.75419222 126.31069442 -34 115 C-34.12246094 114.17242187 -34.24492187 113.34484375 -34.37109375 112.4921875 C-34.95715385 108.6374829 -35.61890209 106.0896459 -38.78857422 103.58886719 C-43.65707682 100.36650177 -48.78545406 97.61694979 -54 95 C-53.40251953 93.91332031 -53.40251953 93.91332031 -52.79296875 92.8046875 C-51.7017825 90.81347171 -50.617382 88.81852541 -49.5390625 86.8203125 C-48.42208289 84.77346154 -47.25652673 82.75288354 -46.0625 80.75 C-44.48202093 76.65934829 -45.32235044 73.31906739 -46.52734375 69.1953125 C-48.84158971 58.44650069 -46.80708289 47.78568142 -41.4921875 38.3125 C-35.03197787 28.45692437 -27.06753264 22.02172313 -16 18 C-14.83597656 17.79375 -13.67195313 17.5875 -12.47265625 17.375 C-7.56193501 15.43059744 -6.33772189 12.45709905 -4.0625 7.875 C-3.46598633 6.74384766 -3.46598633 6.74384766 -2.85742188 5.58984375 C-1.88424548 3.73729109 -0.93925056 1.86998183 0 0 Z " fill="#38B798" transform="translate(235,121)"/>
<path d="M0 0 C3 1 3 1 4.23925781 3.09448242 C4.63983398 4.00560791 5.04041016 4.9167334 5.453125 5.85546875 C5.90349121 6.86254883 6.35385742 7.86962891 6.81787109 8.90722656 C7.29047363 9.9897168 7.76307617 11.07220703 8.25 12.1875 C9.24560111 14.4161672 10.24298522 16.64403878 11.2421875 18.87109375 C11.96100098 20.47960205 11.96100098 20.47960205 12.69433594 22.12060547 C14.17265224 25.38075177 15.7398475 28.56597188 17.375 31.75 C21.10419888 39.07521209 24.52271933 46.53953302 27.96212769 54.00439453 C31.63590948 61.97567979 35.3902954 69.89906178 39.24560547 77.78417969 C58.04357474 116.29153492 67.3827084 160.33516368 53.25634766 202.20410156 C52.18668094 205.23092521 51.06696172 208.20029748 49.8203125 211.16015625 C47.77021281 218.25740614 51.84659481 224.11014249 55.0625 230.25 C55.99436226 232.04507437 56.92292396 233.84186725 57.84765625 235.640625 C58.26023682 236.42985352 58.67281738 237.21908203 59.09790039 238.03222656 C60 240 60 240 60 242 C53.7782379 240.36600187 48.59964145 237.01343161 43.125 233.75 C40.99118345 232.48777728 38.85705922 231.22607459 36.72265625 229.96484375 C35.62324707 229.31370605 34.52383789 228.66256836 33.39111328 227.99169922 C29.98253029 225.98973953 26.55580232 224.02315821 23.12109375 222.06640625 C22.02200684 221.43702148 20.92291992 220.80763672 19.79052734 220.15917969 C17.66569808 218.94361408 15.53719338 217.73444713 13.40478516 216.53222656 C11.9688501 215.70609863 11.9688501 215.70609863 10.50390625 214.86328125 C9.65642822 214.38157471 8.8089502 213.89986816 7.93579102 213.40356445 C6 212 6 212 5 209 C5.85546875 206.7578125 5.85546875 206.7578125 7.1875 204.125 C19.28955834 178.54641133 20.44974223 149.06775407 11.375 122.375 C6.96953263 110.21658717 0.46866245 98.78149003 -8 89 C-8.65226562 88.20464844 -9.30453125 87.40929687 -9.9765625 86.58984375 C-17.43087037 77.82086703 -26.41954813 71.29121127 -36 65 C-34.6027689 61.30186644 -32.93435305 57.90404002 -31.015625 54.44921875 C-30.41669434 53.36946777 -29.81776367 52.2897168 -29.20068359 51.17724609 C-28.55695801 50.02562988 -27.91323242 48.87401367 -27.25 47.6875 C-26.92074524 47.09640442 -26.59149048 46.50530884 -26.2522583 45.89630127 C-20.31630042 35.24109033 -14.20985266 24.69160124 -8.0234375 14.1796875 C-5.27184098 9.49481961 -2.61157082 4.76417382 0 0 Z " fill="#DA5557" transform="translate(345,39)"/>
<path d="M0 0 C12.02821457 6.49212038 23.87895493 13.29339402 35.72314453 20.11328125 C37.72561822 21.26624777 39.72897991 22.41767593 41.73388672 23.56640625 C43.89098547 24.80533717 46.0408536 26.05557488 48.1875 27.3125 C49.31542969 27.96863281 50.44335938 28.62476563 51.60546875 29.30078125 C54 31 54 31 55 34 C53.9981197 36.45755345 52.94044399 38.76211385 51.75 41.125 C51.09064802 42.49330123 50.43436857 43.8630875 49.78125 45.234375 C49.46800781 45.89115234 49.15476563 46.54792969 48.83203125 47.22460938 C36.30426766 73.95638662 41.48227583 105.71518363 50.69726562 132.44384766 C58.69859487 154.28555714 69.42853972 176.91998005 81.69482422 196.73828125 C83 199 83 199 83 201 C85.97 201 88.94 201 92 201 C92 201.33 92 201.66 92 202 C91.43804932 201.93079346 90.87609863 201.86158691 90.29711914 201.7902832 C87.49950646 201.72769613 85.61659846 201.96687429 83 203 C79.78203887 206.65511225 77.66003929 210.88424985 75.4375 215.1875 C74.79080611 216.38174421 74.14097413 217.57429438 73.48803711 218.76513672 C72.21125878 221.10280341 70.9544312 223.44795121 69.70605469 225.80126953 C67.57663249 229.79378378 65.33574184 233.71331844 63.0625 237.625 C62.04105754 239.41631947 61.01991787 241.20781204 60 243 C62.64 243.33 65.28 243.66 68 244 C68 244.33 68 244.66 68 245 C64.7 245 61.4 245 58 245 C57.40606445 243.73704102 56.81212891 242.47408203 56.20019531 241.17285156 C50.54264265 229.21164089 44.70101448 217.35591328 38.734375 205.546875 C37.99871391 204.08855448 37.26315974 202.63018002 36.52770996 201.17175293 C33.50802739 195.18558922 30.48787873 189.19971095 27.45019531 183.22265625 C11.17088834 151.17423456 11.17088834 151.17423456 6 135 C5.59394531 133.7838501 5.18789062 132.5677002 4.76953125 131.31469727 C-5.4963802 99.8261772 -3.70849211 59.71781375 11.33032227 30.01879883 C12.4059664 26.77618076 11.35941379 24.78794561 9.984375 21.7734375 C9.57703125 20.98195312 9.1696875 20.19046875 8.75 19.375 C8.3065625 18.50359375 7.863125 17.6321875 7.40625 16.734375 C6.9421875 15.83203125 6.478125 14.9296875 6 14 C5.07956543 12.2102661 4.16275213 10.41866406 3.25 8.625 C2.84265625 7.83351563 2.4353125 7.04203125 2.015625 6.2265625 C1.06832982 4.14979998 0.46798473 2.22801428 0 0 Z " fill="#234F69" transform="translate(106,109)"/>
<path d="M0 0 C0.00879936 1.10421043 0.00879936 1.10421043 0.01777649 2.23072815 C0.07583122 9.18948105 0.14798075 16.14796271 0.23571491 23.10640049 C0.28032303 26.68329653 0.31959953 30.26008118 0.34643555 33.8371582 C0.37256487 37.29331807 0.4130335 40.7490471 0.46318626 44.20493889 C0.4878363 46.15618491 0.49787487 48.10759796 0.50764465 50.05897522 C0.61204614 56.39198381 0.70078067 61.49578701 4 67 C7.7544421 69.5029614 10.70062477 69.28856278 15.0480957 69.2746582 C15.86794952 69.27976913 16.68780334 69.28488007 17.53250122 69.29014587 C20.24700187 69.30406306 22.96124913 69.30308314 25.67578125 69.30078125 C27.56284174 69.30466778 29.44990136 69.30900236 31.33695984 69.31376648 C35.29555087 69.32123382 39.25405273 69.32093425 43.21264648 69.31567383 C48.28016557 69.30988667 53.34731827 69.32678946 58.4147768 69.3500185 C62.31390002 69.36476924 66.21293535 69.36562557 70.11208153 69.36250877 C71.97994905 69.36302158 73.84782155 69.3682517 75.715662 69.37832069 C78.33192148 69.39069005 80.94747213 69.38388993 83.5637207 69.37231445 C84.71651268 69.38378006 84.71651268 69.38378006 85.89259338 69.39547729 C90.65815692 69.3489936 93.97987528 68.58844401 98 66 C100.21272309 61.58719796 100.21698017 57.49994887 100.125 52.625 C100.10695313 51.37976563 100.08890625 50.13453125 100.0703125 48.8515625 C100.04710937 47.91054688 100.02390625 46.96953125 100 46 C105.41266176 44.99207032 110.52057814 44.92595376 116 45 C116.0501123 45.55461914 116.10022461 46.10923828 116.15185547 46.68066406 C116.38461674 49.20461964 116.62968036 51.72723539 116.875 54.25 C116.95363281 55.12269531 117.03226563 55.99539063 117.11328125 56.89453125 C117.19707031 57.73886719 117.28085937 58.58320313 117.3671875 59.453125 C117.44050293 60.22817383 117.51381836 61.00322266 117.58935547 61.80175781 C118.03972559 64.21265707 118.69762631 65.92316606 120 68 C123.6515745 69.90877758 125.28216388 70.22087265 129.25 69 C132.68878577 66.4990649 132.98573392 65.08550169 134 61 C134.13474123 58.33212358 134.19197861 55.78353559 134.125 53.125 C134.11597656 52.43664062 134.10695313 51.74828125 134.09765625 51.0390625 C134.07432513 49.35922162 134.03846326 47.67956254 134 46 C138.01270513 45.376238 141.87508134 44.87500125 145.9375 44.9375 C146.70964844 44.94652344 147.48179687 44.95554687 148.27734375 44.96484375 C148.84582031 44.97644531 149.41429687 44.98804688 150 45 C151.46849562 49.40548686 151.38842575 53.83832393 151.62109375 58.45703125 C151.99027881 61.90910185 152.77566234 64.7631883 154 68 C156.31 68.33 158.62 68.66 161 69 C164.72943753 64.27213037 164.35415147 59.9177468 164.1875 54.1875 C164.17396484 53.30384766 164.16042969 52.42019531 164.14648438 51.50976562 C164.11129217 49.33957977 164.05748985 47.16970967 164 45 C171.92 44.01 171.92 44.01 180 43 C181.95553919 46.91107838 181.72057689 51.91551812 182.07421875 56.25976562 C182.51935233 60.86576653 183.05899813 64.23876897 186 68 C188.80497823 69.40248912 191.18501365 69.16979056 194.3125 69.1875 C196.00826172 69.20876953 196.00826172 69.20876953 197.73828125 69.23046875 C201.03715689 68.99737454 203.15335762 68.6777556 206 67 C210.77517804 58.6146723 207.69492013 46.8983307 206 38 C211.28 36.68 216.56 35.36 222 34 C226.17281231 45.79273044 228.65870319 59.90955601 224 72 C220.41033526 78.87833274 216.45897435 83.39755609 209 86.078125 C204.03897544 87.43919484 199.04795817 87.32959183 193.9375 87.3125 C192.97005859 87.32861328 192.00261719 87.34472656 191.00585938 87.36132812 C183.96604877 87.36614661 179.88278249 85.92185499 174 82 C172.8553125 82.9590625 172.8553125 82.9590625 171.6875 83.9375 C167.40745029 87.22218931 163.96738664 87.21327364 158.6875 87.3125 C156.74423828 87.36857422 156.74423828 87.36857422 154.76171875 87.42578125 C150.43995405 86.93660954 148.48628817 85.49301566 145 83 C140.92580102 82.6554206 140.92580102 82.6554206 137.6875 85 C131.55228984 88.22299971 124.72596421 87.75547908 118 87 C114.88235325 85.98505806 112.78156441 84.79983579 110 83 C109.34 82.67 108.68 82.34 108 82 C106.26485727 82.96396819 104.53102998 83.93419697 102.8515625 84.9921875 C99.64479664 86.73764233 96.55520615 87.1247718 92.94174194 87.15390015 C91.74353317 87.16680084 91.74353317 87.16680084 90.52111816 87.17996216 C89.21974915 87.18635208 89.21974915 87.18635208 87.89208984 87.19287109 C86.97122589 87.20104858 86.05036194 87.20922607 85.10159302 87.21765137 C82.05471437 87.24245751 79.00788225 87.2590111 75.9609375 87.2734375 C74.91796131 87.27876118 73.87498512 87.28408485 72.80040359 87.28956985 C67.27758774 87.31628338 61.75479433 87.33566222 56.23193359 87.35009766 C51.67118213 87.36342416 47.11087941 87.39125611 42.55029297 87.43212891 C37.03429421 87.48155943 31.51870177 87.50623174 26.002491 87.51332474 C23.90623158 87.52001939 21.80998059 87.53519461 19.71384811 87.55921555 C-1.8202055 87.79186791 -1.8202055 87.79186791 -9 82 C-11.25390625 79.46484375 -11.25390625 79.46484375 -12.5625 76.9375 C-13.01753906 76.10089844 -13.47257813 75.26429688 -13.94140625 74.40234375 C-15.83774344 70.0988479 -16.12293076 66.46538142 -16.11352539 61.76269531 C-16.11344986 60.50169006 -16.11337433 59.24068481 -16.11329651 57.94146729 C-16.10819028 56.57035279 -16.1029743 55.19923869 -16.09765625 53.828125 C-16.09579028 52.42136689 -16.09436722 51.01460812 -16.09336853 49.60784912 C-16.08955744 45.91219273 -16.0797392 42.21657587 -16.06866455 38.52093506 C-16.05842014 34.74703506 -16.05386442 30.97312865 -16.04882812 27.19921875 C-16.03811564 19.79946118 -16.02105616 12.39973614 -16 5 C-13.70967689 4.16280617 -11.41789043 3.3301071 -9.125 2.5 C-8.47402344 2.26152344 -7.82304687 2.02304687 -7.15234375 1.77734375 C-2.2265625 0 -2.2265625 0 0 0 Z " fill="#DB5557" transform="translate(203,401)"/>
<path d="M0 0 C0.79874865 2.14320727 1.58861858 4.28972416 2.375 6.4375 C2.81585938 7.63246094 3.25671875 8.82742188 3.7109375 10.05859375 C8.16970384 23.11167364 9.43476544 38.47398483 4.26171875 51.48828125 C-0.32007864 60.60932063 -7.08694403 67.0421298 -16.3984375 71.140625 C-24.21128227 73.72144459 -31.60484987 74.35780323 -39.8125 74.3125 C-41.40698975 74.30404053 -41.40698975 74.30404053 -43.03369141 74.29541016 C-55.7353213 74.09850077 -66.32404188 71.85090312 -76.03515625 63.18359375 C-84.47615721 54.31247809 -86.32716468 43.51203215 -86.21875 31.640625 C-85.61672237 21.62116516 -83.21603734 12.09551204 -79 3 C-72.69403048 4.10938353 -67.62470514 5.93197901 -62 9 C-62.19335938 9.66644531 -62.38671875 10.33289063 -62.5859375 11.01953125 C-67.68290259 28.722387 -67.68290259 28.722387 -64.3125 46.4375 C-61.60699906 51.19645668 -58.00378644 53.30696108 -52.8828125 55.078125 C-43.24807072 57.36564921 -30.89960511 57.72689521 -21.8828125 53.265625 C-16.95726202 49.95467406 -14.31513672 45.80852053 -13 40 C-10.91521317 27.31086477 -14.18843307 17.71671642 -19 6 C-4.26213592 0 -4.26213592 0 0 0 Z " fill="#DB5557" transform="translate(169,421)"/>
<path d="M0 0 C3.62613199 0.56959153 5.25517741 1.92374534 7.75 4.5625 C8.36359375 5.20316406 8.9771875 5.84382813 9.609375 6.50390625 C10.06828125 6.99761719 10.5271875 7.49132812 11 8 C14.74636902 6.34481541 16.80194852 4.20263039 19.4375 1.14453125 C21 0 21 0 22.890625 0.0390625 C25.79588755 1.36257099 27.54841087 3.26378194 29.75 5.5625 C30.54921875 6.38878906 31.3484375 7.21507812 32.171875 8.06640625 C32.77515625 8.70449219 33.3784375 9.34257812 34 10 C32.01929563 12.35043586 30.01418678 14.67822804 28 17 C26.948125 18.2375 26.948125 18.2375 25.875 19.5 C24 21 24 21 22.1171875 20.84765625 C19.35799743 19.74296207 18.13269344 18.21845552 16.25 15.9375 C15.63640625 15.20402344 15.0228125 14.47054688 14.390625 13.71484375 C13.93171875 13.14894531 13.4728125 12.58304687 13 12 C11.8944811 12.93590504 10.79064547 13.87379858 9.6875 14.8125 C9.07261719 15.33457031 8.45773437 15.85664063 7.82421875 16.39453125 C6.14575321 17.87172469 4.56117966 19.40039131 3 21 C-0.45201639 19.52278578 -2.64961936 17.56205999 -5.25 14.875 C-5.95640625 14.15054687 -6.6628125 13.42609375 -7.390625 12.6796875 C-7.92171875 12.12539063 -8.4528125 11.57109375 -9 11 C-8.60167969 10.54109375 -8.20335937 10.0821875 -7.79296875 9.609375 C-5.08857938 6.47728415 -2.42008229 3.36122541 0 0 Z " fill="#DB5557" transform="translate(331,413)"/>
<path d="M0 0 C9.43772242 7.95729537 9.43772242 7.95729537 12 11 C11.80290269 15.06191857 9.24803827 17.05821687 6.4375 19.75 C5.61121094 20.54921875 4.78492188 21.3484375 3.93359375 22.171875 C3.29550781 22.77515625 2.65742188 23.3784375 2 24 C-1.36997254 22.5384164 -3.60745127 20.6619112 -6.1875 18.0625 C-7.22970703 17.02802734 -7.22970703 17.02802734 -8.29296875 15.97265625 C-10 14 -10 14 -11 11 C-7.37 7.37 -3.74 3.74 0 0 Z " fill="#DB5557" transform="translate(128,415)"/>
<path d="M0 0 C2.814387 1.40180195 4.61923772 3.31257266 6.7890625 5.578125 C7.58828125 6.40441406 8.3875 7.23070312 9.2109375 8.08203125 C9.81421875 8.72011719 10.4175 9.35820312 11.0390625 10.015625 C9.50262398 13.69632387 7.25755305 16.00337704 4.4140625 18.765625 C3.59679687 19.56484375 2.77953125 20.3640625 1.9375 21.1875 C1.31101562 21.79078125 0.68453125 22.3940625 0.0390625 23.015625 C-4.14517642 19.50665231 -8.15681916 15.93501965 -11.9609375 12.015625 C-10.49467894 8.66741602 -8.62435303 6.32296141 -6.0859375 3.703125 C-5.06886719 2.62611328 -5.06886719 2.62611328 -4.03125 1.52734375 C-1.9609375 0.015625 -1.9609375 0.015625 0 0 Z " fill="#DB5557" transform="translate(400.9609375,406.984375)"/>
<path d="M0 0 C3.45201639 1.47721422 5.64961936 3.43794001 8.25 6.125 C8.95640625 6.84945313 9.6628125 7.57390625 10.390625 8.3203125 C11.18726563 9.15175781 11.18726563 9.15175781 12 10 C10.52278578 13.45201639 8.56205999 15.64961936 5.875 18.25 C5.15054687 18.95640625 4.42609375 19.6628125 3.6796875 20.390625 C3.12539063 20.92171875 2.57109375 21.4528125 2 22 C-1.45201639 20.52278578 -3.64961936 18.56205999 -6.25 15.875 C-6.95640625 15.15054687 -7.6628125 14.42609375 -8.390625 13.6796875 C-8.92171875 13.12539063 -9.4528125 12.57109375 -10 12 C-8.52278578 8.54798361 -6.56205999 6.35038064 -3.875 3.75 C-3.15054687 3.04359375 -2.42609375 2.3371875 -1.6796875 1.609375 C-1.12539063 1.07828125 -0.57109375 0.5471875 0 0 Z " fill="#DB5557" transform="translate(342,395)"/>
</svg>
