<svg width="230" height="230" viewBox="0 0 230 230" fill="none" xmlns="http://www.w3.org/2000/svg">
<path d="M230 0H0V230H230V0Z" fill="white"/>
<path d="M62.1 0H0V62.1H62.1V0Z" fill="#DBEBFA"/>
<path d="M62.1 86.8H0V147.4H62.1V86.8Z" fill="#DBEBFA"/>
<path d="M62.1 162.9H0V230H62.1V162.9Z" fill="#DBEBFA"/>
<path d="M150.1 162.9H86.8V230H150.1V162.9Z" fill="#DBEBFA"/>
<path d="M150.1 86.8H86.8V147.4H150.1V86.8Z" fill="#B5E3F3"/>
<path d="M150.1 0H86.8V62.1H150.1V0Z" fill="#DBEBFA"/>
<path d="M230 0H165.6V62.1H230V0Z" fill="#DBEBFA"/>
<path d="M230 86H165.6V147.3H230V86Z" fill="#DBEBFA"/>
<path d="M230 162.9H165.6V230H230V162.9Z" fill="#DBEBFA"/>
<path d="M165.6 0H150.1V230H165.6V0Z" fill="url(#paint0_linear)"/>
<path d="M230.017 162.817V147.317L0.017395 147.317V162.817L230.017 162.817Z" fill="#B5E3F3"/>
<path d="M230.048 86.8483V62.1483L0.0482941 62.1483V86.8483L230.048 86.8483Z" fill="white"/>
<path d="M62.0967 230H86.7967L86.7967 0H62.0967L62.0967 230Z" fill="white"/>
<g filter="url(#filter0_d)">
<path d="M22.8 192.4C30.3 173 51 122.8 78.3 87.4L132.6 141.7C103.5 166.1 48.5 189.2 27.9 197.3C24.6 198.6 21.5 195.5 22.8 192.4Z" fill="#137DFF"/>
<path d="M188 36.8C180.5 56.2 159.8 106.4 132.5 141.8L78.2 87.4C107.4 63.1 162.4 40 183 31.8C186.1 30.6 189.2 33.6 188 36.8Z" fill="#FF2B00"/>
</g>
<defs>
<filter id="filter0_d" x="22.4967" y="31.5298" width="180.768" height="181.074" filterUnits="userSpaceOnUse" color-interpolation-filters="sRGB">
<feFlood flood-opacity="0" result="BackgroundImageFix"/>
<feColorMatrix in="SourceAlpha" type="matrix" values="0 0 0 0 0 0 0 0 0 0 0 0 0 0 0 0 0 0 127 0"/>
<feOffset dx="10" dy="10"/>
<feGaussianBlur stdDeviation="2.5"/>
<feColorMatrix type="matrix" values="0 0 0 0 0.4025 0 0 0 0 0.45885 0 0 0 0 0.525 0 0 0 0.16 0"/>
<feBlend mode="normal" in2="BackgroundImageFix" result="effect1_dropShadow"/>
<feBlend mode="normal" in="SourceGraphic" in2="effect1_dropShadow" result="shape"/>
</filter>
<linearGradient id="paint0_linear" x1="158.921" y1="6.6577" x2="156.649" y2="231.582" gradientUnits="userSpaceOnUse">
<stop stop-color="#CBDBF1"/>
<stop offset="0.7587" stop-color="#B6E3F2"/>
<stop offset="0.8822" stop-color="#B8D5EC"/>
<stop offset="1" stop-color="#B9CDEA"/>
</linearGradient>
</defs>
</svg>
