<?xml version="1.0" standalone="no"?>
<!DOCTYPE svg PUBLIC "-//W3C//DTD SVG 20010904//EN"
 "http://www.w3.org/TR/2001/REC-SVG-20010904/DTD/svg10.dtd">
<svg version="1.0" xmlns="http://www.w3.org/2000/svg"
 width="480.000000pt" height="480.000000pt" viewBox="0 0 480.000000 480.000000"
 preserveAspectRatio="xMidYMid meet">

<g transform="translate(0.000000,480.000000) scale(0.100000,-0.100000)"
fill="#000000" stroke="none">
<path d="M1892 3364 c-56 -28 -92 -68 -111 -123 -7 -22 -11 -123 -11 -282 l0
-249 -54 0 c-72 0 -86 -18 -86 -116 0 -86 12 -101 85 -106 47 -3 50 -5 53 -32
2 -18 -8 -50 -30 -90 l-33 -61 -3 -317 c-4 -386 -13 -362 135 -356 123 4 123
4 123 156 l0 114 43 -6 c218 -33 551 -33 760 0 l37 6 0 -115 c0 -113 1 -116
26 -136 22 -18 41 -21 111 -21 76 0 86 2 108 25 l25 24 0 264 c0 283 -8 357
-46 426 -14 25 -24 60 -24 82 l0 39 50 0 c68 0 84 24 78 119 -5 86 -16 101
-79 101 l-49 0 0 233 c0 254 -7 300 -54 361 -14 19 -49 46 -78 60 l-52 26
-436 0 -436 0 -52 -26z m859 -574 c50 -14 66 -52 78 -191 6 -63 11 -121 11
-127 0 -9 -110 -12 -455 -12 l-455 0 0 23 c0 60 23 253 32 270 22 43 55 46
413 47 197 0 355 -4 376 -10z m-823 -516 c31 -36 29 -79 -7 -115 -38 -38 -74
-38 -112 0 -45 45 -37 105 19 136 34 19 71 11 100 -21z m998 26 c38 -15 53
-38 54 -82 0 -28 -7 -42 -31 -62 -40 -34 -74 -33 -110 3 -45 46 -34 106 26
139 25 14 28 14 61 2z m-276 -307 c0 -39 -104 -50 -397 -45 -88 2 -106 5 -123
22 -11 11 -20 23 -20 28 0 4 122 7 270 7 207 0 270 -3 270 -12z"/>
<path d="M3643 3018 c-47 -10 -107 -66 -131 -120 -13 -31 -42 -168 -56 -270
l-7 -48 -54 0 c-67 0 -75 -12 -75 -109 0 -61 3 -72 22 -85 12 -9 33 -16 45
-16 30 0 31 -37 3 -73 -51 -64 -54 -87 -58 -359 l-4 -257 26 -26 c22 -22 33
-25 96 -25 69 0 107 11 122 34 4 6 8 46 8 89 l0 79 78 -9 c100 -10 514 -10
615 0 l77 9 0 -80 c0 -75 2 -82 26 -101 22 -17 41 -21 101 -21 65 0 77 3 98
25 l25 24 0 230 c0 246 -8 310 -45 365 -13 18 -26 48 -30 65 -6 28 -4 31 19
31 46 0 66 32 66 106 0 91 -9 104 -70 104 -58 0 -50 -17 -81 180 -30 192 -58
237 -160 259 -62 13 -596 13 -656 -1z m677 -368 c11 -6 24 -20 30 -31 10 -19
41 -247 35 -259 -2 -3 -191 -4 -420 -2 l-417 2 7 68 c16 181 17 185 41 209
l23 23 341 0 c214 0 348 -4 360 -10z m-775 -465 c29 -28 32 -61 9 -93 -34 -49
-97 -48 -130 2 -48 75 58 155 121 91z m950 0 c31 -30 32 -66 2 -101 -56 -65
-166 4 -126 79 28 52 84 63 124 22z m-530 -257 c99 0 195 3 213 7 35 7 40 -1
18 -31 -13 -18 -28 -19 -231 -19 -203 0 -218 1 -231 19 -22 30 -17 38 18 31
18 -4 114 -7 213 -7z"/>
<path d="M569 2527 c-56 -30 -80 -65 -114 -171 l-28 -85 -48 6 c-58 7 -99 -14
-99 -51 0 -31 23 -49 60 -48 32 1 39 -12 16 -25 -8 -4 -25 -26 -37 -48 -23
-38 -24 -51 -27 -233 -4 -239 -8 -232 114 -232 74 0 84 2 98 22 9 12 16 31 16
41 0 17 6 18 73 10 92 -10 448 -10 550 0 71 7 77 6 77 -10 0 -10 7 -29 16 -41
14 -20 24 -22 98 -22 118 0 116 -4 116 206 0 189 -12 254 -55 294 -34 32 -32
40 10 40 28 0 38 5 46 24 23 51 -24 85 -101 72 l-39 -6 -27 86 c-35 109 -58
143 -114 172 -42 21 -55 22 -301 22 -248 0 -257 -1 -300 -23z m600 -64 c22
-20 40 -58 65 -134 20 -58 36 -109 36 -112 0 -10 -788 -9 -793 1 -3 4 11 54
29 112 26 78 42 112 64 133 l30 27 270 0 270 0 29 -27z m-700 -408 c53 -27 48
-101 -8 -125 -26 -10 -35 -10 -56 4 -52 34 -55 79 -8 116 31 24 36 24 72 5z
m882 -14 c34 -35 36 -50 9 -84 -27 -34 -53 -41 -88 -23 -29 15 -42 34 -42 63
0 20 54 73 75 73 9 0 30 -13 46 -29z m-373 -234 c64 5 119 8 121 6 3 -2 -5
-14 -17 -26 -22 -21 -29 -22 -212 -22 -169 1 -191 3 -209 19 -11 10 -19 22
-17 25 3 4 52 3 111 -2 62 -5 154 -5 223 0z"/>
</g>
</svg>
