<svg id="svg" version="1.1" xmlns="http://www.w3.org/2000/svg" xmlns:xlink="http://www.w3.org/1999/xlink" width="400" height="400" viewBox="0, 0, 400,400"><g id="svgg"><path id="path0" d="M144.000 68.631 C 139.161 69.385,138.020 69.645,137.771 70.046 C 137.651 70.241,137.248 70.406,136.876 70.413 C 136.504 70.419,135.120 70.980,133.800 71.658 C 132.480 72.336,130.996 73.095,130.503 73.345 C 130.010 73.595,129.605 73.935,129.603 74.100 C 129.601 74.265,129.409 74.400,129.177 74.400 C 128.049 74.400,122.315 79.745,119.723 83.212 C 117.175 86.620,115.862 89.615,112.599 99.462 C 110.934 104.488,109.419 108.960,109.231 109.400 C 109.044 109.840,108.659 111.010,108.376 112.000 C 108.093 112.990,107.712 113.971,107.530 114.180 C 107.349 114.389,107.200 114.886,107.200 115.285 C 107.200 115.684,107.038 116.323,106.839 116.705 C 106.640 117.087,106.249 118.210,105.969 119.200 C 105.690 120.190,105.312 121.171,105.130 121.380 C 104.949 121.589,104.800 122.086,104.800 122.485 C 104.800 122.884,104.638 123.523,104.441 123.905 C 104.244 124.287,103.673 125.905,103.174 127.500 C 102.215 130.559,101.735 130.930,100.163 129.829 C 96.336 127.148,81.243 126.620,76.587 129.004 C 71.061 131.833,68.757 139.446,72.033 144.047 C 72.455 144.639,72.800 145.255,72.800 145.415 C 72.800 147.840,79.594 150.000,87.220 150.000 C 93.115 150.000,93.254 150.097,90.014 151.953 C 84.325 155.210,78.749 162.835,76.378 170.600 C 76.109 171.480,75.753 172.560,75.586 173.000 C 75.420 173.440,75.093 174.790,74.860 176.000 C 74.627 177.210,74.203 179.370,73.918 180.800 C 73.516 182.819,73.400 191.856,73.400 221.227 L 73.400 259.055 74.387 260.974 C 75.583 263.301,77.568 265.349,79.765 266.525 C 82.360 267.914,113.283 267.890,115.889 266.497 C 120.471 264.049,122.100 260.969,122.393 254.200 L 122.600 249.400 124.000 249.452 C 124.770 249.480,126.930 249.699,128.800 249.937 C 137.290 251.021,139.392 251.257,145.400 251.807 C 189.405 255.830,231.525 255.211,271.400 249.956 C 273.380 249.695,275.540 249.463,276.200 249.441 L 277.400 249.400 277.614 254.000 C 277.731 256.530,277.976 258.960,278.157 259.400 C 281.350 267.163,283.690 268.000,302.200 268.000 C 319.857 268.000,322.491 267.215,325.607 261.027 L 326.600 259.054 326.600 221.027 C 326.600 193.127,326.473 182.414,326.124 180.800 C 325.862 179.590,325.433 177.520,325.171 176.200 C 322.895 164.752,315.115 153.290,307.839 150.668 C 306.407 150.152,308.904 149.776,314.933 149.600 C 321.466 149.410,321.888 149.348,323.600 148.338 C 325.601 147.158,327.200 145.860,327.200 145.415 C 327.200 145.255,327.535 144.646,327.945 144.062 C 330.682 140.161,329.425 133.243,325.424 130.191 C 322.597 128.035,320.471 127.600,312.765 127.600 C 305.534 127.600,304.615 127.742,300.889 129.439 C 298.332 130.603,297.600 130.644,297.600 129.624 C 297.600 129.197,297.420 128.736,297.200 128.600 C 296.980 128.464,296.800 127.924,296.800 127.400 C 296.800 126.876,296.620 126.336,296.400 126.200 C 296.180 126.064,296.000 125.524,296.000 125.000 C 296.000 124.476,295.820 123.936,295.600 123.800 C 295.380 123.664,295.200 123.124,295.200 122.600 C 295.200 122.076,295.020 121.536,294.800 121.400 C 294.580 121.264,294.400 120.724,294.400 120.200 C 294.400 119.676,294.220 119.136,294.000 119.000 C 293.780 118.864,293.600 118.324,293.600 117.800 C 293.600 117.276,293.420 116.736,293.200 116.600 C 292.980 116.464,292.800 116.001,292.800 115.571 C 292.800 115.141,292.621 114.477,292.403 114.095 C 292.184 113.713,290.395 108.497,288.427 102.504 C 284.474 90.468,283.346 87.653,281.174 84.400 C 278.862 80.937,272.095 74.400,270.823 74.400 C 270.591 74.400,270.400 74.241,270.400 74.047 C 270.400 73.852,270.085 73.590,269.700 73.464 C 269.315 73.338,268.260 72.794,267.355 72.254 C 263.470 69.939,258.826 68.779,251.885 68.391 C 241.090 67.788,148.078 67.995,144.000 68.631 M255.094 80.053 C 263.748 82.112,273.600 90.620,273.600 96.033 C 273.600 96.429,273.780 96.864,274.000 97.000 C 274.220 97.136,274.400 97.676,274.400 98.200 C 274.400 98.724,274.580 99.264,274.800 99.400 C 275.020 99.536,275.200 100.076,275.200 100.600 C 275.200 101.124,275.380 101.664,275.600 101.800 C 275.820 101.936,276.000 102.476,276.000 103.000 C 276.000 103.524,276.180 104.064,276.400 104.200 C 276.620 104.336,276.800 104.876,276.800 105.400 C 276.800 105.924,276.980 106.464,277.200 106.600 C 277.420 106.736,277.600 107.251,277.600 107.744 C 277.600 108.237,277.749 108.811,277.930 109.020 C 278.112 109.229,278.508 110.210,278.811 111.200 C 279.113 112.190,281.215 118.628,283.480 125.507 C 288.014 139.271,287.924 138.863,286.811 140.690 C 285.157 143.402,291.852 143.216,199.644 143.103 C 106.805 142.988,114.486 143.244,113.062 140.219 C 112.312 138.626,112.420 137.535,113.618 134.600 C 113.797 134.160,114.149 133.080,114.400 132.200 C 114.651 131.320,115.017 130.240,115.214 129.800 C 115.411 129.360,115.965 127.740,116.445 126.200 C 119.450 116.553,127.020 94.247,127.904 92.432 C 130.538 87.027,137.358 82.029,144.600 80.195 C 147.344 79.500,252.204 79.366,255.094 80.053 M109.509 174.466 C 120.375 178.193,123.769 191.672,115.974 200.137 C 114.305 201.949,113.109 202.734,109.285 204.523 C 105.025 206.517,96.651 204.187,92.746 199.921 C 82.014 188.199,94.458 169.303,109.509 174.466 M300.709 174.465 C 304.208 175.662,307.989 178.959,309.504 182.134 C 311.030 185.333,311.200 186.060,311.200 189.400 C 311.200 192.738,311.030 193.467,309.507 196.661 C 306.451 203.068,296.341 207.198,290.515 204.420 C 289.902 204.127,288.792 203.598,288.049 203.244 C 279.529 199.183,277.121 186.735,283.409 179.263 C 284.642 177.797,288.866 174.800,289.698 174.800 C 289.996 174.800,290.411 174.633,290.620 174.429 C 291.537 173.533,298.053 173.556,300.709 174.465 M158.600 228.809 C 183.542 231.242,217.068 231.233,242.000 228.787 C 249.661 228.036,249.382 228.013,249.518 229.407 C 249.851 232.793,245.869 237.396,241.676 238.475 C 231.540 241.081,168.725 241.074,158.324 238.465 C 154.350 237.469,150.439 233.071,150.409 229.567 C 150.397 228.133,150.757 227.901,152.599 228.157 C 153.480 228.280,156.180 228.573,158.600 228.809 M119.600 298.754 C 107.025 302.820,103.110 317.399,112.141 326.531 C 121.627 336.121,137.843 331.846,141.465 318.800 C 144.843 306.633,131.908 294.775,119.600 298.754 M158.600 298.561 C 149.867 301.330,148.242 304.617,148.083 319.832 L 147.966 331.064 150.129 331.583 C 151.958 332.022,152.565 332.012,154.047 331.518 L 155.800 330.934 156.000 320.767 C 156.110 315.175,156.362 310.240,156.560 309.800 C 158.556 305.358,164.870 304.724,167.876 308.664 L 169.000 310.137 169.200 320.533 L 169.400 330.930 170.800 331.435 C 172.604 332.085,173.744 332.109,175.654 331.537 L 177.200 331.073 177.200 321.730 C 177.200 309.658,178.114 307.015,182.576 306.178 C 188.808 305.009,190.398 307.869,190.405 320.260 C 190.408 325.287,190.515 329.786,190.641 330.258 C 191.138 332.109,197.308 332.438,198.506 330.677 C 199.364 329.415,198.613 308.685,197.636 306.688 C 193.466 298.164,180.183 295.031,174.559 301.245 C 173.663 302.235,173.339 302.201,171.694 300.946 C 168.424 298.452,162.402 297.355,158.600 298.561 M250.279 298.416 C 233.902 302.512,232.644 324.141,248.400 330.712 C 257.021 334.307,267.987 329.120,270.995 320.024 C 275.072 307.694,263.103 295.209,250.279 298.416 M288.114 298.580 C 283.091 300.150,279.513 304.012,278.045 309.446 C 277.096 312.957,277.463 330.295,278.500 330.952 C 280.822 332.422,285.410 331.979,285.804 330.246 C 285.910 329.781,286.042 325.066,286.098 319.768 L 286.200 310.136 287.324 308.663 C 289.313 306.057,292.958 305.246,295.558 306.831 C 298.930 308.887,298.969 309.036,299.200 320.781 L 299.400 330.962 301.300 331.551 C 302.974 332.070,303.426 332.070,305.100 331.551 L 307.000 330.962 307.205 320.781 C 307.441 309.033,307.481 308.880,310.842 306.831 C 313.948 304.938,318.379 306.474,319.835 309.949 C 320.269 310.986,320.400 313.554,320.400 321.059 L 320.400 330.820 321.500 331.269 C 323.227 331.974,326.525 331.872,327.739 331.076 L 328.800 330.382 328.800 320.519 C 328.800 310.406,328.694 309.524,327.047 306.000 C 323.338 298.063,312.595 295.575,304.899 300.870 L 303.131 302.086 301.442 300.873 C 297.860 298.301,292.151 297.319,288.114 298.580 M72.605 299.849 C 71.879 301.588,71.853 302.417,72.463 304.454 L 72.927 306.000 77.763 306.005 C 80.423 306.008,83.005 306.119,83.500 306.252 L 84.400 306.493 84.400 318.214 C 84.400 324.660,84.506 330.210,84.635 330.546 C 85.029 331.574,88.680 332.141,90.800 331.505 L 92.600 330.965 92.706 318.728 L 92.811 306.490 93.706 306.251 C 94.198 306.119,96.777 306.008,99.437 306.005 L 104.273 306.000 104.737 304.454 C 105.345 302.423,105.321 301.464,104.620 299.787 L 104.041 298.400 88.626 298.400 L 73.211 298.400 72.605 299.849 M202.904 298.900 C 201.828 300.264,202.087 305.302,203.271 306.052 C 203.562 306.237,206.185 306.391,209.100 306.394 L 214.400 306.400 214.406 318.300 C 214.409 324.845,214.549 330.415,214.716 330.677 C 215.677 332.190,221.515 332.174,222.494 330.656 C 222.656 330.405,222.791 324.845,222.794 318.300 L 222.800 306.400 227.700 306.395 C 235.109 306.386,236.731 304.838,234.620 299.787 L 234.041 298.400 218.669 298.400 C 206.849 298.400,203.207 298.516,202.904 298.900 M127.853 306.530 C 132.540 308.288,134.933 314.074,132.844 318.600 C 128.942 327.054,115.600 324.277,115.600 315.012 C 115.600 309.799,119.359 306.061,124.600 306.061 C 125.700 306.061,127.164 306.272,127.853 306.530 M257.736 306.599 C 262.588 308.626,264.835 313.840,262.794 318.337 C 259.395 325.828,248.493 325.228,245.769 317.399 C 243.434 310.691,251.060 303.810,257.736 306.599 " stroke="none" fill="#fafafa" fill-rule="evenodd"></path><path id="path1" d="M0.000 200.000 L 0.000 400.000 200.000 400.000 L 400.000 400.000 400.000 200.000 L 400.000 0.000 200.000 0.000 L 0.000 0.000 0.000 200.000 M257.680 68.033 C 265.096 69.547,271.721 73.217,277.414 78.962 C 282.838 84.436,284.178 86.924,287.778 98.200 C 289.042 102.160,290.239 105.713,290.438 106.095 C 290.637 106.477,290.800 107.141,290.800 107.571 C 290.800 108.001,290.980 108.464,291.200 108.600 C 291.420 108.736,291.600 109.276,291.600 109.800 C 291.600 110.324,291.780 110.864,292.000 111.000 C 292.220 111.136,292.400 111.687,292.400 112.224 C 292.400 112.761,292.580 113.200,292.800 113.200 C 293.020 113.200,293.203 113.515,293.206 113.900 C 293.213 114.718,294.127 117.461,294.526 117.859 C 294.677 118.010,294.800 118.543,294.800 119.043 C 294.800 119.543,294.980 120.064,295.200 120.200 C 295.420 120.336,295.600 120.876,295.600 121.400 C 295.600 121.924,295.780 122.464,296.000 122.600 C 296.220 122.736,296.400 123.276,296.400 123.800 C 296.400 124.324,296.580 124.864,296.800 125.000 C 297.020 125.136,297.200 125.676,297.200 126.200 C 297.200 126.724,297.380 127.264,297.600 127.400 C 297.820 127.536,298.000 128.087,298.000 128.624 C 298.000 129.859,298.138 129.850,301.336 128.400 L 303.982 127.200 312.716 127.200 C 322.874 127.200,323.570 127.384,327.000 130.983 C 329.687 133.801,331.036 139.574,329.647 142.305 C 329.452 142.687,329.047 143.525,328.747 144.166 C 326.658 148.622,322.649 150.400,314.694 150.400 L 309.018 150.400 311.209 151.832 C 316.150 155.063,321.257 161.519,323.208 167.000 C 323.365 167.440,323.675 168.250,323.897 168.800 C 324.119 169.350,324.503 170.303,324.750 170.919 C 324.998 171.534,325.200 172.469,325.200 172.995 C 325.200 173.522,325.380 174.064,325.600 174.200 C 325.820 174.336,326.000 175.247,326.000 176.224 C 326.000 177.201,326.165 178.000,326.367 178.000 C 327.285 178.000,328.139 257.485,327.242 259.400 C 327.036 259.840,326.628 260.785,326.336 261.500 C 326.044 262.215,325.669 262.800,325.502 262.800 C 325.336 262.800,325.200 263.056,325.200 263.369 C 325.200 264.039,322.519 266.419,320.919 267.169 C 320.303 267.457,319.487 267.852,319.105 268.047 C 318.199 268.508,286.201 268.508,285.295 268.047 C 284.913 267.852,284.110 267.464,283.511 267.185 C 281.404 266.201,278.000 262.425,278.000 261.072 C 278.000 260.739,277.832 260.407,277.627 260.333 C 277.422 260.260,277.126 257.980,276.969 255.267 L 276.683 250.335 274.441 250.555 C 273.209 250.675,270.850 250.950,269.200 251.165 C 245.886 254.202,231.803 254.894,197.800 254.673 C 171.764 254.503,163.278 254.234,152.400 253.229 C 143.265 252.386,135.742 251.617,132.800 251.225 C 121.584 249.731,122.800 249.271,122.800 255.009 C 122.800 261.432,120.961 264.658,115.843 267.215 L 113.472 268.400 97.893 268.400 L 82.314 268.400 79.838 267.218 C 76.325 265.542,74.077 262.892,72.865 259.000 C 71.855 255.758,72.583 179.310,73.634 178.220 C 73.835 178.011,74.000 177.077,74.000 176.144 C 74.000 175.211,74.180 174.336,74.400 174.200 C 74.620 174.064,74.800 173.423,74.800 172.776 C 74.800 172.129,74.980 171.600,75.200 171.600 C 75.420 171.600,75.600 171.060,75.600 170.400 C 75.600 169.740,75.780 169.200,76.000 169.200 C 76.220 169.200,76.400 168.870,76.400 168.466 C 76.400 165.142,85.860 152.000,88.253 152.000 C 88.554 152.000,88.800 151.848,88.800 151.661 C 88.800 151.475,89.205 151.127,89.700 150.888 C 90.392 150.554,89.208 150.448,84.575 150.427 C 79.313 150.403,78.325 150.293,76.775 149.558 C 74.713 148.580,70.800 144.669,70.800 143.587 C 70.800 143.180,70.620 142.736,70.400 142.600 C 69.559 142.080,69.929 135.408,70.900 133.589 C 73.932 127.907,75.760 127.200,87.420 127.200 C 92.585 127.200,97.123 127.354,97.505 127.543 C 97.887 127.731,98.768 128.181,99.462 128.543 C 101.262 129.480,102.000 129.387,102.000 128.224 C 102.000 127.687,102.180 127.136,102.400 127.000 C 102.620 126.864,102.800 126.324,102.800 125.800 C 102.800 125.276,102.980 124.736,103.200 124.600 C 103.420 124.464,103.600 123.924,103.600 123.400 C 103.600 122.876,103.780 122.336,104.000 122.200 C 104.220 122.064,104.400 121.524,104.400 121.000 C 104.400 120.476,104.580 119.936,104.800 119.800 C 105.020 119.664,105.200 119.124,105.200 118.600 C 105.200 118.076,105.344 117.558,105.521 117.449 C 105.697 117.340,106.093 116.328,106.400 115.200 C 106.707 114.072,107.103 113.060,107.279 112.951 C 107.456 112.842,107.600 112.324,107.600 111.800 C 107.600 111.276,107.780 110.736,108.000 110.600 C 108.220 110.464,108.400 109.924,108.400 109.400 C 108.400 108.876,108.580 108.336,108.800 108.200 C 109.020 108.064,109.200 107.601,109.200 107.171 C 109.200 106.741,109.362 106.077,109.560 105.695 C 109.758 105.313,110.957 101.760,112.224 97.800 C 114.939 89.318,115.535 87.920,118.036 84.175 C 120.337 80.731,126.984 74.000,128.085 74.000 C 128.277 74.000,128.820 73.640,129.292 73.200 C 129.764 72.760,130.387 72.400,130.675 72.400 C 130.964 72.400,131.200 72.220,131.200 72.000 C 131.200 71.780,131.560 71.600,132.000 71.600 C 132.440 71.600,132.800 71.464,132.800 71.298 C 132.800 71.131,133.385 70.760,134.100 70.471 C 134.815 70.183,135.713 69.779,136.095 69.574 C 136.477 69.368,137.141 69.200,137.571 69.200 C 138.001 69.200,138.464 69.020,138.600 68.800 C 138.736 68.580,139.332 68.397,139.924 68.394 C 140.516 68.391,141.270 68.213,141.600 68.000 C 142.478 67.432,254.896 67.464,257.680 68.033 M143.800 81.200 C 143.664 81.420,143.229 81.600,142.833 81.600 C 142.199 81.600,137.326 83.861,136.800 84.400 C 136.690 84.512,135.970 85.078,135.200 85.656 C 133.005 87.305,130.254 90.093,129.632 91.300 C 129.320 91.905,128.915 92.400,128.732 92.400 C 128.550 92.400,128.400 92.760,128.400 93.200 C 128.400 93.640,128.220 94.000,128.000 94.000 C 127.780 94.000,127.600 94.439,127.600 94.976 C 127.600 95.513,127.420 96.064,127.200 96.200 C 126.980 96.336,126.800 96.876,126.800 97.400 C 126.800 97.924,126.620 98.464,126.400 98.600 C 126.180 98.736,126.000 99.276,126.000 99.800 C 126.000 100.324,125.820 100.864,125.600 101.000 C 125.380 101.136,125.200 101.676,125.200 102.200 C 125.200 102.724,125.020 103.264,124.800 103.400 C 124.580 103.536,124.400 104.076,124.400 104.600 C 124.400 105.124,124.220 105.664,124.000 105.800 C 123.780 105.936,123.600 106.399,123.600 106.829 C 123.600 107.259,123.440 107.923,123.245 108.305 C 123.050 108.687,122.385 110.710,121.769 112.800 C 121.152 114.890,120.502 116.771,120.324 116.980 C 120.146 117.189,120.000 117.763,120.000 118.256 C 120.000 118.749,119.820 119.264,119.600 119.400 C 119.380 119.536,119.200 120.076,119.200 120.600 C 119.200 121.124,119.020 121.664,118.800 121.800 C 118.580 121.936,118.400 122.476,118.400 123.000 C 118.400 123.524,118.220 124.064,118.000 124.200 C 117.780 124.336,117.600 124.876,117.600 125.400 C 117.600 125.924,117.420 126.464,117.200 126.600 C 116.980 126.736,116.800 127.276,116.800 127.800 C 116.800 128.324,116.620 128.864,116.400 129.000 C 116.180 129.136,116.000 129.676,116.000 130.200 C 116.000 130.724,115.820 131.264,115.600 131.400 C 115.380 131.536,115.200 132.076,115.200 132.600 C 115.200 133.124,115.020 133.664,114.800 133.800 C 114.580 133.936,114.400 134.476,114.400 135.000 C 114.400 135.524,114.220 136.064,114.000 136.200 C 113.154 136.723,113.548 139.984,114.582 141.018 L 115.564 142.000 200.112 142.000 L 284.661 142.000 285.530 141.074 C 286.945 139.568,286.653 137.532,283.753 128.680 C 278.294 112.020,275.558 103.776,275.230 103.000 C 275.044 102.560,274.659 101.390,274.376 100.400 C 274.093 99.410,273.712 98.429,273.530 98.220 C 273.349 98.011,273.196 97.471,273.191 97.020 C 273.139 92.062,265.646 84.729,257.081 81.254 C 255.599 80.653,144.171 80.600,143.800 81.200 M100.600 174.906 C 98.110 175.778,97.200 176.205,97.200 176.498 C 97.200 176.664,96.948 176.800,96.641 176.800 C 95.619 176.800,92.063 180.716,90.941 183.076 C 88.958 187.246,89.697 196.465,92.100 197.533 C 92.265 197.607,92.400 197.864,92.400 198.105 C 92.400 198.715,95.989 202.000,96.656 202.000 C 96.955 202.000,97.200 202.136,97.200 202.302 C 97.200 202.613,98.327 203.121,100.828 203.935 C 102.577 204.504,107.460 204.550,107.800 204.000 C 107.936 203.780,108.380 203.600,108.786 203.600 C 111.042 203.600,116.270 199.260,117.744 196.163 C 118.154 195.303,118.649 194.287,118.844 193.905 C 121.769 188.195,114.781 175.200,108.786 175.200 C 108.380 175.200,107.936 175.020,107.800 174.800 C 107.480 174.282,102.158 174.360,100.600 174.906 M291.800 174.800 C 291.664 175.020,291.209 175.200,290.789 175.200 C 288.449 175.200,283.722 179.415,281.977 183.057 C 280.337 186.481,280.366 194.549,282.024 196.000 C 282.150 196.110,282.805 197.012,283.480 198.005 C 285.229 200.576,289.394 203.600,291.187 203.600 C 291.608 203.600,292.064 203.780,292.200 204.000 C 293.977 206.875,308.400 200.635,308.400 196.991 C 308.400 196.666,308.580 196.400,308.800 196.400 C 309.020 196.400,309.200 196.051,309.200 195.624 C 309.200 195.197,309.360 194.748,309.556 194.627 C 309.751 194.506,310.039 193.731,310.194 192.904 C 310.755 189.909,310.373 184.678,309.556 184.173 C 309.360 184.052,309.200 183.603,309.200 183.176 C 309.200 182.749,309.020 182.400,308.800 182.400 C 308.580 182.400,308.400 182.142,308.400 181.826 C 308.400 181.187,304.173 176.800,303.557 176.800 C 303.342 176.800,302.780 176.440,302.308 176.000 C 301.836 175.560,301.044 175.200,300.548 175.200 C 300.053 175.200,299.536 175.020,299.400 174.800 C 299.264 174.580,297.554 174.400,295.600 174.400 C 293.646 174.400,291.936 174.580,291.800 174.800 M151.200 229.854 C 151.200 232.217,153.983 235.911,156.638 237.072 C 160.313 238.679,173.459 239.372,200.200 239.371 C 223.774 239.370,239.045 238.730,241.800 237.627 C 244.811 236.422,246.634 234.928,247.587 232.885 C 247.866 232.288,248.252 231.487,248.447 231.105 C 249.559 228.919,249.339 228.898,236.800 230.001 C 211.545 232.222,181.355 231.872,152.700 229.025 C 151.335 228.890,151.200 228.964,151.200 229.854 M190.440 298.457 C 194.582 300.387,198.800 304.995,198.800 307.589 C 198.800 308.009,198.980 308.464,199.200 308.600 C 199.451 308.755,199.600 312.989,199.600 319.978 L 199.600 331.108 198.614 331.754 C 197.926 332.205,196.714 332.400,194.600 332.400 C 192.486 332.400,191.274 332.205,190.586 331.754 L 189.600 331.108 189.600 320.949 C 189.600 310.404,189.525 309.864,187.837 308.303 C 185.324 305.978,180.631 306.816,178.900 309.899 C 178.538 310.544,178.400 313.507,178.400 320.669 C 178.400 332.819,178.584 332.400,173.262 332.400 C 168.121 332.400,168.400 333.038,168.400 321.264 C 168.400 310.375,168.074 308.730,165.696 307.619 C 165.093 307.337,164.287 306.948,163.905 306.753 C 162.978 306.282,161.706 306.305,161.400 306.800 C 161.264 307.020,160.839 307.200,160.455 307.200 C 160.071 307.200,159.137 307.842,158.378 308.626 L 157.000 310.052 156.990 319.926 C 156.976 333.064,157.246 332.400,151.915 332.400 C 146.823 332.400,147.106 333.171,147.267 319.722 L 147.400 308.580 148.717 305.907 C 152.806 297.606,164.593 294.676,171.797 300.171 C 173.135 301.191,174.000 301.477,174.000 300.900 C 174.001 300.472,177.844 298.370,179.772 297.745 C 182.486 296.864,187.780 297.217,190.440 298.457 M234.493 297.987 C 235.670 298.913,236.156 301.613,235.633 304.319 C 235.125 306.944,234.572 307.173,228.700 307.187 L 223.600 307.200 223.600 318.874 C 223.600 333.081,223.858 332.400,218.477 332.400 C 213.320 332.400,213.600 333.174,213.600 318.939 L 213.600 307.200 208.500 307.187 C 205.123 307.179,203.186 307.010,202.765 306.687 C 200.486 304.937,200.715 298.475,203.090 297.537 C 205.033 296.769,233.462 297.176,234.493 297.987 M260.077 297.926 C 274.253 302.603,277.247 322.487,264.837 329.538 C 261.683 331.329,261.102 331.600,260.411 331.600 C 259.991 331.600,259.536 331.780,259.400 332.000 C 259.102 332.483,249.928 332.546,249.380 332.070 C 249.171 331.888,248.240 331.501,247.310 331.209 C 246.381 330.917,245.264 330.346,244.827 329.939 C 244.391 329.533,243.881 329.200,243.695 329.200 C 242.267 329.200,237.200 322.344,237.200 320.411 C 237.200 319.991,237.020 319.536,236.800 319.400 C 235.519 318.608,237.093 306.400,238.476 306.400 C 238.654 306.400,238.800 306.130,238.800 305.800 C 238.800 305.470,238.980 305.200,239.200 305.200 C 239.420 305.200,239.600 305.015,239.600 304.789 C 239.600 303.632,243.835 300.133,247.200 298.510 C 250.254 297.038,256.522 296.753,260.077 297.926 M297.400 297.815 C 298.500 298.148,300.345 299.048,301.500 299.815 C 302.655 300.581,303.600 301.064,303.600 300.889 C 303.600 299.239,310.514 297.043,314.968 297.276 C 319.761 297.528,326.800 301.514,326.800 303.977 C 326.800 304.209,326.936 304.400,327.102 304.400 C 327.269 304.400,327.640 304.985,327.929 305.700 C 328.217 306.415,328.621 307.313,328.826 307.695 C 329.033 308.079,329.200 313.469,329.200 319.749 L 329.200 331.108 328.214 331.754 C 326.573 332.829,321.811 332.648,320.629 331.465 C 319.715 330.552,319.688 330.303,319.424 320.565 C 319.090 308.226,318.592 307.029,313.800 307.029 C 308.707 307.029,308.000 308.794,308.000 321.505 C 308.000 333.084,308.314 332.368,303.226 332.387 C 297.800 332.408,298.000 332.854,298.000 320.710 C 298.000 308.674,297.923 308.422,293.800 307.004 C 292.188 306.450,290.231 307.060,288.534 308.647 L 287.200 309.894 287.200 320.166 L 287.200 330.438 286.142 331.419 C 284.899 332.571,279.242 332.862,277.900 331.843 C 277.114 331.246,276.808 309.132,277.566 307.695 C 277.768 307.313,278.206 306.370,278.540 305.600 C 281.308 299.213,290.074 295.595,297.400 297.815 M104.954 298.586 C 105.395 299.259,105.600 300.471,105.600 302.405 C 105.600 306.801,104.996 307.200,98.342 307.200 L 93.200 307.200 93.200 319.177 C 93.200 333.232,93.491 332.400,88.569 332.400 C 86.096 332.400,85.576 332.270,84.658 331.419 L 83.600 330.438 83.600 318.819 L 83.600 307.200 78.655 307.200 C 73.845 307.200,73.680 307.171,72.655 306.145 C 71.356 304.847,71.111 300.318,72.246 298.586 L 72.892 297.600 88.600 297.600 L 104.308 297.600 104.954 298.586 M132.521 299.089 C 136.692 301.064,141.600 306.538,141.600 309.214 C 141.600 309.620,141.780 310.064,142.000 310.200 C 142.227 310.340,142.400 312.330,142.400 314.800 C 142.400 317.270,142.227 319.260,142.000 319.400 C 141.780 319.536,141.600 319.991,141.600 320.411 C 141.600 321.853,139.043 325.852,136.814 327.896 C 127.943 336.031,112.966 332.858,108.041 321.800 C 107.747 321.140,107.334 320.266,107.123 319.857 C 106.573 318.792,106.632 311.394,107.202 309.878 C 111.197 299.255,122.606 294.393,132.521 299.089 M123.000 306.800 C 122.864 307.020,122.305 307.200,121.757 307.200 C 118.610 307.200,115.487 313.113,116.604 316.956 C 119.241 326.024,132.800 324.392,132.800 315.007 C 132.800 311.314,129.929 307.200,127.352 307.200 C 126.854 307.200,126.336 307.020,126.200 306.800 C 126.064 306.580,125.344 306.400,124.600 306.400 C 123.856 306.400,123.136 306.580,123.000 306.800 M252.600 307.045 C 250.399 307.585,247.200 310.156,247.200 311.387 C 247.200 311.724,247.020 312.000,246.800 312.000 C 246.222 312.000,246.304 317.040,246.900 318.105 C 247.655 319.456,250.827 322.400,251.527 322.400 C 251.866 322.400,252.748 322.619,253.488 322.886 C 254.543 323.268,255.000 323.268,255.611 322.886 C 256.039 322.619,256.842 322.400,257.395 322.400 C 257.948 322.400,258.400 322.250,258.400 322.068 C 258.400 321.885,258.844 321.497,259.387 321.207 C 266.734 317.275,260.861 305.020,252.600 307.045 " stroke="none" fill="#28282c" fill-rule="evenodd"></path><path id="path2" d="M143.200 68.407 C 142.579 68.611,143.109 68.651,144.600 68.512 C 145.920 68.389,147.075 68.224,147.167 68.144 C 147.489 67.865,144.188 68.084,143.200 68.407 M248.000 68.223 C 249.272 68.499,257.746 68.637,256.800 68.366 C 256.250 68.209,253.910 68.083,251.600 68.086 C 249.290 68.090,247.670 68.151,248.000 68.223 M139.200 69.200 C 138.667 69.545,138.667 69.588,139.200 69.588 C 139.530 69.588,140.070 69.413,140.400 69.200 C 140.933 68.855,140.933 68.812,140.400 68.812 C 140.070 68.812,139.530 68.987,139.200 69.200 M145.676 79.940 C 145.168 80.083,169.596 80.200,199.961 80.200 C 230.326 80.200,254.862 80.078,254.485 79.928 C 253.609 79.581,146.911 79.592,145.676 79.940 M120.344 81.900 C 119.193 83.289,118.706 84.000,118.904 84.000 C 119.014 84.000,119.586 83.370,120.173 82.600 C 121.263 81.171,121.395 80.632,120.344 81.900 M137.900 82.629 C 136.405 83.440,136.496 83.778,138.000 83.000 C 138.660 82.659,139.200 82.294,139.200 82.190 C 139.200 81.932,139.157 81.947,137.900 82.629 M133.172 85.972 C 131.408 87.485,128.000 91.566,128.000 92.168 C 128.000 92.329,128.641 91.592,129.424 90.531 C 130.208 89.469,131.873 87.655,133.124 86.501 C 135.786 84.045,135.817 83.705,133.172 85.972 M267.397 86.912 C 268.935 88.390,270.277 89.600,270.380 89.600 C 270.719 89.600,267.023 85.951,265.800 85.079 C 265.140 84.608,265.859 85.433,267.397 86.912 M116.580 87.640 C 116.011 88.762,115.613 89.747,115.695 89.829 C 115.777 89.911,116.327 88.993,116.918 87.789 C 117.508 86.585,117.906 85.600,117.802 85.600 C 117.698 85.600,117.148 86.518,116.580 87.640 M282.834 87.000 C 282.834 87.220,283.178 88.030,283.600 88.800 C 284.022 89.570,284.366 90.020,284.366 89.800 C 284.366 89.580,284.022 88.770,283.600 88.000 C 283.178 87.230,282.834 86.780,282.834 87.000 M112.657 98.057 C 112.290 99.193,112.059 100.192,112.144 100.277 C 112.228 100.362,112.601 99.504,112.971 98.371 C 113.342 97.239,113.573 96.240,113.485 96.151 C 113.397 96.063,113.024 96.921,112.657 98.057 M83.700 127.498 C 85.625 127.571,88.775 127.571,90.700 127.498 C 92.625 127.425,91.050 127.365,87.200 127.365 C 83.350 127.365,81.775 127.425,83.700 127.498 M102.600 128.000 C 102.450 128.473,102.417 128.950,102.527 129.060 C 102.637 129.170,102.850 128.873,103.000 128.400 C 103.150 127.927,103.183 127.450,103.073 127.340 C 102.963 127.230,102.750 127.527,102.600 128.000 M310.118 127.498 C 311.833 127.573,314.533 127.572,316.118 127.497 C 317.703 127.421,316.300 127.359,313.000 127.360 C 309.700 127.361,308.403 127.422,310.118 127.498 M96.800 128.390 C 99.373 129.311,99.781 129.373,98.400 128.631 C 97.850 128.336,96.770 127.984,96.000 127.849 C 95.026 127.677,95.270 127.842,96.800 128.390 M75.578 129.132 C 74.600 129.754,73.530 130.607,73.200 131.027 C 72.870 131.448,73.230 131.271,74.000 130.634 C 74.770 129.997,76.120 129.148,77.000 128.747 C 77.880 128.346,78.320 128.014,77.978 128.009 C 77.636 128.004,76.556 128.509,75.578 129.132 M300.200 129.374 C 299.100 129.903,298.312 130.351,298.449 130.368 C 298.816 130.415,302.400 128.794,302.400 128.581 C 302.400 128.316,302.380 128.324,300.200 129.374 M100.176 129.778 C 101.040 130.470,102.400 130.613,102.400 130.013 C 102.400 129.799,102.144 129.723,101.831 129.843 C 101.518 129.963,100.843 129.858,100.331 129.609 C 99.443 129.177,99.436 129.185,100.176 129.778 M324.600 129.457 C 326.637 131.264,327.387 131.791,326.602 130.863 C 326.166 130.348,325.447 129.741,325.004 129.514 C 324.562 129.287,324.380 129.262,324.600 129.457 M70.629 135.829 C 70.481 136.415,70.438 136.972,70.532 137.066 C 70.627 137.160,70.824 136.758,70.971 136.171 C 71.119 135.585,71.162 135.028,71.068 134.934 C 70.973 134.840,70.776 135.242,70.629 135.829 M328.856 135.200 C 328.856 135.530,329.011 136.160,329.200 136.600 C 329.417 137.104,329.544 137.178,329.544 136.800 C 329.544 136.470,329.389 135.840,329.200 135.400 C 328.983 134.896,328.856 134.822,328.856 135.200 M286.977 138.308 C 286.994 139.896,287.089 140.217,287.359 139.612 C 287.575 139.130,287.566 138.288,287.336 137.504 C 286.978 136.286,286.955 136.340,286.977 138.308 M112.572 137.771 C 112.437 138.305,112.483 139.020,112.673 139.359 C 112.912 139.786,113.018 139.488,113.018 138.388 C 113.018 136.555,112.913 136.410,112.572 137.771 M113.200 140.752 C 113.200 141.142,114.755 142.598,114.923 142.364 C 114.987 142.274,114.626 141.801,114.120 141.314 C 113.614 140.827,113.200 140.574,113.200 140.752 M116.315 142.872 C 117.247 143.242,283.281 143.264,283.862 142.894 C 284.116 142.732,246.367 142.600,199.977 142.600 C 153.586 142.600,115.938 142.722,116.315 142.872 M71.786 144.300 C 72.135 145.015,72.506 145.600,72.610 145.600 C 73.008 145.600,72.752 144.963,71.967 144.000 L 71.152 143.000 71.786 144.300 M327.814 144.235 C 327.441 144.804,327.205 145.338,327.289 145.422 C 327.373 145.507,327.758 145.041,328.144 144.388 C 329.006 142.928,328.748 142.809,327.814 144.235 M78.800 149.594 C 79.130 149.811,79.835 149.991,80.367 149.994 C 81.651 150.002,81.325 149.775,79.600 149.458 C 78.615 149.277,78.378 149.318,78.800 149.594 M314.800 149.600 L 308.600 149.832 314.600 149.910 C 317.942 149.953,320.866 149.816,321.200 149.600 C 321.530 149.387,321.620 149.247,321.400 149.290 C 321.180 149.333,318.210 149.473,314.800 149.600 M313.800 154.800 C 314.659 155.680,315.452 156.400,315.562 156.400 C 315.672 156.400,315.059 155.680,314.200 154.800 C 313.341 153.920,312.548 153.200,312.438 153.200 C 312.328 153.200,312.941 153.920,313.800 154.800 M82.268 158.531 C 80.359 161.166,79.068 163.200,79.304 163.200 C 79.405 163.200,80.165 162.165,80.994 160.900 C 81.823 159.635,82.869 158.196,83.319 157.702 C 83.768 157.207,84.056 156.723,83.958 156.624 C 83.859 156.526,83.099 157.384,82.268 158.531 M320.800 163.650 C 320.800 163.998,322.037 166.400,322.217 166.400 C 322.304 166.400,322.261 166.085,322.121 165.700 C 321.833 164.906,320.800 163.303,320.800 163.650 M78.000 165.284 C 78.000 165.404,77.728 166.154,77.395 166.951 C 77.062 167.748,76.879 168.400,76.989 168.400 C 77.306 168.400,78.433 165.500,78.205 165.272 C 78.092 165.159,78.000 165.165,78.000 165.284 M103.300 173.887 C 103.905 173.978,104.895 173.978,105.500 173.887 C 106.105 173.795,105.610 173.720,104.400 173.720 C 103.190 173.720,102.695 173.795,103.300 173.887 M294.500 173.887 C 295.105 173.978,296.095 173.978,296.700 173.887 C 297.305 173.795,296.810 173.720,295.600 173.720 C 294.390 173.720,293.895 173.795,294.500 173.887 M99.600 174.418 C 99.162 174.715,99.324 174.752,100.200 174.556 C 101.671 174.227,101.990 173.998,100.967 174.006 C 100.545 174.009,99.930 174.195,99.600 174.418 M324.868 174.600 C 324.862 175.040,325.011 175.760,325.200 176.200 C 325.638 177.219,325.638 176.168,325.200 174.800 C 324.943 173.996,324.877 173.957,324.868 174.600 M302.000 175.220 C 303.387 176.161,304.178 176.435,303.200 175.636 C 302.650 175.186,302.020 174.817,301.800 174.815 C 301.580 174.813,301.670 174.996,302.000 175.220 M94.313 177.302 C 93.007 178.380,90.408 181.639,90.407 182.200 C 90.406 182.420,90.759 182.064,91.191 181.409 C 91.622 180.754,92.819 179.359,93.850 178.309 C 95.872 176.249,96.047 175.870,94.313 177.302 M304.400 176.525 C 304.400 176.624,305.061 177.209,305.868 177.825 C 306.676 178.441,307.211 178.741,307.056 178.491 C 306.740 177.979,304.400 176.247,304.400 176.525 M115.768 178.800 C 117.864 181.243,118.285 181.626,117.304 180.200 C 116.850 179.540,115.971 178.550,115.350 178.000 C 114.601 177.336,114.741 177.604,115.768 178.800 M284.158 178.500 C 282.931 179.829,281.497 181.722,282.263 181.000 C 283.117 180.195,285.688 177.200,285.525 177.200 C 285.433 177.200,284.817 177.785,284.158 178.500 M325.628 178.633 C 325.644 179.275,325.816 180.160,326.010 180.600 C 326.247 181.134,326.286 180.802,326.127 179.600 C 325.846 177.480,325.588 176.980,325.628 178.633 M73.840 179.640 C 73.693 180.557,73.652 181.385,73.747 181.480 C 73.842 181.576,74.046 180.910,74.200 180.000 C 74.354 179.090,74.396 178.262,74.293 178.160 C 74.190 178.057,73.987 178.723,73.840 179.640 M308.304 180.756 C 308.907 181.612,309.458 182.259,309.529 182.194 C 309.731 182.009,307.835 179.210,307.504 179.205 C 307.341 179.202,307.701 179.900,308.304 180.756 M326.600 221.121 C 326.600 242.308,326.717 259.228,326.860 258.721 C 327.193 257.543,327.184 189.130,326.850 185.400 C 326.713 183.860,326.600 199.935,326.600 221.121 M73.062 186.900 C 72.727 191.194,72.800 256.716,73.140 257.921 C 73.283 258.428,73.400 241.913,73.400 221.221 C 73.400 200.529,73.382 183.600,73.359 183.600 C 73.337 183.600,73.203 185.085,73.062 186.900 M310.682 186.421 C 310.808 187.399,310.975 188.275,311.055 188.367 C 311.381 188.742,311.160 185.755,310.821 185.221 C 310.584 184.846,310.535 185.270,310.682 186.421 M88.942 189.400 C 88.941 191.380,89.008 192.240,89.092 191.312 C 89.176 190.384,89.177 188.764,89.095 187.712 C 89.012 186.660,88.943 187.420,88.942 189.400 M119.800 189.400 C 119.800 191.254,119.922 192.462,120.072 192.085 C 120.221 191.708,120.344 190.500,120.344 189.400 C 120.344 188.300,120.221 187.092,120.072 186.715 C 119.922 186.338,119.800 187.546,119.800 189.400 M279.852 186.900 C 279.536 188.078,279.582 191.214,279.928 192.085 C 280.078 192.462,280.200 191.247,280.200 189.385 C 280.200 185.646,280.196 185.617,279.852 186.900 M310.864 191.467 C 310.829 192.164,310.696 193.064,310.570 193.467 C 310.353 194.159,310.365 194.160,310.794 193.491 C 311.045 193.102,311.177 192.202,311.089 191.491 L 310.928 190.200 310.864 191.467 M90.400 196.539 C 90.400 197.015,92.187 199.590,92.520 199.595 C 92.697 199.598,92.344 198.925,91.737 198.100 C 91.129 197.275,90.580 196.525,90.516 196.433 C 90.452 196.342,90.400 196.389,90.400 196.539 M282.682 198.600 C 283.762 200.134,285.473 201.710,287.000 202.579 C 288.165 203.241,288.171 203.240,287.200 202.556 C 286.650 202.168,285.218 200.849,284.019 199.625 C 282.819 198.401,282.217 197.940,282.682 198.600 M115.182 200.509 C 114.182 201.439,113.012 202.428,112.582 202.706 C 112.152 202.984,112.340 202.954,113.000 202.639 C 114.025 202.149,117.701 198.783,117.181 198.809 C 117.082 198.814,116.182 199.579,115.182 200.509 M306.000 200.874 C 305.010 201.776,304.560 202.324,305.000 202.092 C 305.752 201.694,308.352 199.181,307.975 199.216 C 307.879 199.225,306.990 199.971,306.000 200.874 M103.300 205.087 C 103.905 205.178,104.895 205.178,105.500 205.087 C 106.105 204.995,105.610 204.920,104.400 204.920 C 103.190 204.920,102.695 204.995,103.300 205.087 M294.500 205.087 C 295.105 205.178,296.095 205.178,296.700 205.087 C 297.305 204.995,296.810 204.920,295.600 204.920 C 294.390 204.920,293.895 204.995,294.500 205.087 M150.556 228.571 C 150.435 228.885,150.416 229.560,150.514 230.071 C 150.643 230.749,150.706 230.634,150.746 229.645 L 150.800 228.290 153.100 228.513 C 154.544 228.652,155.028 228.613,154.400 228.407 C 152.742 227.864,150.795 227.947,150.556 228.571 M246.000 228.404 C 245.318 228.638,245.659 228.677,247.073 228.526 L 249.146 228.304 249.309 229.652 L 249.472 231.000 249.436 229.600 C 249.397 228.064,248.204 227.649,246.000 228.404 M158.033 228.948 C 158.125 229.029,159.550 229.196,161.200 229.319 C 163.424 229.484,163.786 229.452,162.600 229.194 C 160.999 228.846,157.719 228.669,158.033 228.948 M239.705 229.087 C 240.314 229.179,241.214 229.177,241.705 229.082 C 242.197 228.987,241.700 228.911,240.600 228.914 C 239.500 228.917,239.097 228.995,239.705 229.087 M168.033 229.752 C 168.125 229.835,169.820 230.001,171.800 230.120 C 174.452 230.280,174.873 230.249,173.400 230.004 C 171.315 229.656,167.744 229.488,168.033 229.752 M226.800 230.022 C 225.682 230.209,226.364 230.244,228.600 230.114 C 230.580 229.998,232.275 229.835,232.367 229.752 C 232.637 229.506,228.754 229.694,226.800 230.022 M185.600 230.847 C 191.560 231.168,209.351 231.169,215.000 230.849 C 217.420 230.712,210.760 230.600,200.200 230.600 C 189.640 230.600,183.070 230.711,185.600 230.847 M151.917 233.800 C 152.145 234.240,152.932 235.140,153.666 235.799 L 155.000 236.998 153.601 235.399 C 152.832 234.520,152.045 233.620,151.852 233.400 C 151.660 233.180,151.689 233.360,151.917 233.800 M246.378 235.500 L 245.000 237.000 246.500 235.622 C 247.896 234.338,248.184 234.000,247.878 234.000 C 247.812 234.000,247.137 234.675,246.378 235.500 M160.200 238.789 C 161.416 239.109,165.073 239.322,164.767 239.055 C 164.675 238.975,163.340 238.811,161.800 238.691 C 160.102 238.559,159.472 238.598,160.200 238.789 M237.400 238.800 L 235.400 239.074 237.200 239.097 C 238.190 239.110,239.450 238.976,240.000 238.800 C 241.244 238.401,240.306 238.401,237.400 238.800 M169.105 239.483 C 169.602 239.579,170.322 239.575,170.705 239.475 C 171.087 239.375,170.680 239.296,169.800 239.301 C 168.920 239.305,168.607 239.387,169.105 239.483 M229.905 239.483 C 230.402 239.579,231.122 239.575,231.505 239.475 C 231.887 239.375,231.480 239.296,230.600 239.301 C 229.720 239.305,229.407 239.387,229.905 239.483 M172.900 239.891 C 173.725 239.978,175.075 239.978,175.900 239.891 C 176.725 239.805,176.050 239.734,174.400 239.734 C 172.750 239.734,172.075 239.805,172.900 239.891 M224.500 239.891 C 225.325 239.978,226.675 239.978,227.500 239.891 C 228.325 239.805,227.650 239.734,226.000 239.734 C 224.350 239.734,223.675 239.805,224.500 239.891 M186.000 240.448 C 187.650 240.584,193.950 240.695,200.000 240.695 C 206.050 240.695,212.350 240.584,214.000 240.448 C 215.650 240.311,209.350 240.200,200.000 240.200 C 190.650 240.200,184.350 240.311,186.000 240.448 M122.572 249.728 C 122.461 250.019,122.429 252.044,122.501 254.228 L 122.633 258.200 122.716 253.848 L 122.800 249.497 124.900 249.722 C 126.277 249.870,126.656 249.832,126.000 249.613 C 124.439 249.093,122.795 249.148,122.572 249.728 M274.200 249.617 C 273.318 249.866,273.552 249.899,275.086 249.742 L 277.171 249.529 277.308 253.565 L 277.444 257.602 277.422 253.501 C 277.398 248.936,277.248 248.756,274.200 249.617 M130.400 250.380 C 131.399 250.720,133.882 250.932,133.567 250.651 C 133.475 250.569,132.500 250.399,131.400 250.272 C 130.051 250.116,129.726 250.151,130.400 250.380 M268.000 250.400 C 266.643 250.686,266.637 250.695,267.800 250.707 C 268.460 250.715,269.450 250.576,270.000 250.400 C 271.312 249.980,269.996 249.980,268.000 250.400 M261.200 251.200 C 260.138 251.424,260.041 251.502,260.800 251.524 C 261.350 251.541,262.520 251.405,263.400 251.223 C 264.734 250.947,264.800 250.893,263.800 250.899 C 263.140 250.902,261.970 251.038,261.200 251.200 M138.500 251.476 C 138.885 251.576,139.515 251.576,139.900 251.476 C 140.285 251.375,139.970 251.293,139.200 251.293 C 138.430 251.293,138.115 251.375,138.500 251.476 M143.300 251.876 C 143.685 251.976,144.315 251.976,144.700 251.876 C 145.085 251.775,144.770 251.693,144.000 251.693 C 143.230 251.693,142.915 251.775,143.300 251.876 M255.905 251.883 C 256.402 251.979,257.122 251.975,257.505 251.875 C 257.887 251.775,257.480 251.696,256.600 251.701 C 255.720 251.705,255.407 251.787,255.905 251.883 M146.900 252.287 C 147.505 252.378,148.495 252.378,149.100 252.287 C 149.705 252.195,149.210 252.120,148.000 252.120 C 146.790 252.120,146.295 252.195,146.900 252.287 M251.700 252.287 C 252.305 252.378,253.295 252.378,253.900 252.287 C 254.505 252.195,254.010 252.120,252.800 252.120 C 251.590 252.120,251.095 252.195,251.700 252.287 M151.905 252.683 C 152.402 252.779,153.122 252.775,153.505 252.675 C 153.887 252.575,153.480 252.496,152.600 252.501 C 151.720 252.505,151.407 252.587,151.905 252.683 M247.105 252.683 C 247.602 252.779,248.322 252.775,248.705 252.675 C 249.087 252.575,248.680 252.496,247.800 252.501 C 246.920 252.505,246.607 252.587,247.105 252.683 M155.900 253.089 C 156.615 253.178,157.785 253.178,158.500 253.089 C 159.215 253.001,158.630 252.928,157.200 252.928 C 155.770 252.928,155.185 253.001,155.900 253.089 M242.300 253.089 C 243.015 253.178,244.185 253.178,244.900 253.089 C 245.615 253.001,245.030 252.928,243.600 252.928 C 242.170 252.928,241.585 253.001,242.300 253.089 M162.105 253.487 C 162.714 253.579,163.614 253.577,164.105 253.482 C 164.597 253.387,164.100 253.311,163.000 253.314 C 161.900 253.317,161.497 253.395,162.105 253.487 M236.505 253.487 C 237.114 253.579,238.014 253.577,238.505 253.482 C 238.997 253.387,238.500 253.311,237.400 253.314 C 236.300 253.317,235.897 253.395,236.505 253.487 M167.500 253.893 C 168.435 253.977,169.965 253.977,170.900 253.893 C 171.835 253.809,171.070 253.740,169.200 253.740 C 167.330 253.740,166.565 253.809,167.500 253.893 M230.300 253.893 C 231.235 253.977,232.765 253.977,233.700 253.893 C 234.635 253.809,233.870 253.740,232.000 253.740 C 230.130 253.740,229.365 253.809,230.300 253.893 M178.100 254.291 C 178.925 254.378,180.275 254.378,181.100 254.291 C 181.925 254.205,181.250 254.134,179.600 254.134 C 177.950 254.134,177.275 254.205,178.100 254.291 M219.300 254.291 C 220.125 254.378,221.475 254.378,222.300 254.291 C 223.125 254.205,222.450 254.134,220.800 254.134 C 219.150 254.134,218.475 254.205,219.300 254.291 M193.300 254.699 C 196.985 254.765,203.015 254.765,206.700 254.699 C 210.385 254.633,207.370 254.579,200.000 254.579 C 192.630 254.579,189.615 254.633,193.300 254.699 M325.429 261.261 C 325.083 261.955,324.800 262.625,324.800 262.750 C 324.800 263.097,325.833 261.494,326.121 260.700 C 326.536 259.555,326.106 259.904,325.429 261.261 M279.999 263.500 C 280.522 264.215,281.013 264.800,281.089 264.800 C 281.393 264.800,280.401 263.300,279.745 262.767 C 279.313 262.416,279.410 262.696,279.999 263.500 M281.982 265.378 C 282.680 266.219,284.795 267.338,285.104 267.029 C 285.230 266.903,285.148 266.800,284.922 266.800 C 284.697 266.800,283.816 266.328,282.967 265.752 C 282.117 265.175,281.674 265.007,281.982 265.378 M320.400 266.400 C 319.630 266.822,319.144 267.174,319.320 267.183 C 319.744 267.205,322.000 266.032,322.000 265.790 C 322.000 265.528,321.977 265.537,320.400 266.400 M98.000 267.600 L 82.600 267.814 97.800 267.901 C 107.090 267.954,113.233 267.837,113.600 267.600 C 113.930 267.387,114.020 267.251,113.800 267.299 C 113.580 267.347,106.470 267.482,98.000 267.600 M286.200 267.581 C 286.968 267.929,289.110 268.156,288.767 267.853 C 288.675 267.772,287.880 267.596,287.000 267.462 C 285.885 267.293,285.642 267.329,286.200 267.581 M316.600 267.600 C 315.511 267.877,315.493 267.907,316.400 267.925 C 316.950 267.935,317.760 267.789,318.200 267.600 C 319.186 267.176,318.266 267.176,316.600 267.600 M123.507 297.890 C 124.226 297.979,125.306 297.977,125.907 297.886 C 126.508 297.795,125.920 297.722,124.600 297.724 C 123.280 297.726,122.788 297.801,123.507 297.890 M161.705 297.887 C 162.314 297.979,163.214 297.977,163.705 297.882 C 164.197 297.787,163.700 297.711,162.600 297.714 C 161.500 297.717,161.097 297.795,161.705 297.887 M182.700 297.889 C 183.415 297.978,184.585 297.978,185.300 297.889 C 186.015 297.801,185.430 297.728,184.000 297.728 C 182.570 297.728,181.985 297.801,182.700 297.889 M253.100 297.889 C 253.815 297.978,254.985 297.978,255.700 297.889 C 256.415 297.801,255.830 297.728,254.400 297.728 C 252.970 297.728,252.385 297.801,253.100 297.889 M291.100 297.889 C 291.815 297.978,292.985 297.978,293.700 297.889 C 294.415 297.801,293.830 297.728,292.400 297.728 C 290.970 297.728,290.385 297.801,291.100 297.889 M312.707 297.890 C 313.426 297.979,314.506 297.977,315.107 297.886 C 315.708 297.795,315.120 297.722,313.800 297.724 C 312.480 297.726,311.988 297.801,312.707 297.890 M88.600 298.297 C 102.319 298.393,103.849 298.469,104.300 299.078 C 104.575 299.449,104.800 299.575,104.800 299.356 C 104.800 298.072,103.871 298.000,88.620 298.095 L 73.400 298.190 88.600 298.297 M202.900 298.265 C 202.625 298.376,202.400 298.668,202.400 298.913 C 202.400 299.224,202.546 299.214,202.880 298.880 C 203.237 298.523,207.302 298.400,218.699 298.400 L 234.039 298.400 234.604 299.700 C 234.914 300.415,235.176 300.725,235.184 300.389 C 235.193 300.053,234.920 299.378,234.577 298.889 L 233.955 298.000 218.677 298.032 C 210.275 298.049,203.175 298.154,202.900 298.265 M155.574 299.389 C 154.569 299.912,153.492 300.669,153.181 301.070 C 152.642 301.764,152.653 301.767,153.408 301.127 C 153.845 300.757,155.192 299.994,156.401 299.431 C 157.611 298.868,158.330 298.414,158.000 298.423 C 157.670 298.431,156.578 298.865,155.574 299.389 M167.946 299.016 C 168.686 299.337,169.406 299.594,169.546 299.586 C 170.066 299.557,167.776 298.428,167.200 298.430 C 166.870 298.431,167.206 298.694,167.946 299.016 M297.946 299.016 C 298.686 299.337,299.406 299.594,299.546 299.586 C 300.066 299.557,297.776 298.428,297.200 298.430 C 296.870 298.431,297.206 298.694,297.946 299.016 M307.600 299.000 C 306.294 299.747,306.751 299.755,308.454 299.016 C 309.194 298.694,309.530 298.431,309.200 298.430 C 308.870 298.429,308.150 298.686,307.600 299.000 M202.049 300.200 C 202.016 300.640,201.896 301.450,201.783 302.000 L 201.577 303.000 202.006 302.019 C 202.242 301.479,202.361 300.669,202.272 300.219 C 202.113 299.421,202.107 299.421,202.049 300.200 M300.000 299.711 C 300.000 299.787,300.585 300.278,301.300 300.801 C 302.104 301.390,302.384 301.487,302.033 301.055 C 301.500 300.399,300.000 299.407,300.000 299.711 M305.000 300.400 C 304.340 300.837,303.980 301.192,304.200 301.188 C 304.601 301.182,306.776 299.623,306.400 299.612 C 306.290 299.608,305.660 299.963,305.000 300.400 M134.652 301.139 C 135.517 301.765,137.009 303.160,137.968 304.239 C 138.926 305.318,139.514 305.822,139.273 305.360 C 138.721 304.300,134.104 300.000,133.517 300.000 C 133.277 300.000,133.788 300.513,134.652 301.139 M171.800 300.965 C 173.204 302.171,173.703 302.241,174.451 301.336 C 174.950 300.732,174.923 300.720,174.152 301.200 C 173.414 301.659,173.126 301.610,171.952 300.831 L 170.600 299.934 171.800 300.965 M264.246 300.866 C 264.881 301.342,266.132 302.377,267.026 303.166 C 267.920 303.955,267.580 303.565,266.271 302.300 C 264.962 301.035,263.711 300.000,263.491 300.000 C 263.272 300.000,263.611 300.390,264.246 300.866 M112.201 302.758 C 111.144 303.835,110.099 305.050,109.880 305.458 C 109.661 305.866,109.563 306.110,109.661 306.000 C 109.760 305.890,110.894 304.675,112.181 303.300 C 114.950 300.343,114.965 299.944,112.201 302.758 M194.400 302.200 C 195.146 302.970,195.847 303.600,195.957 303.600 C 196.067 303.600,195.546 302.970,194.800 302.200 C 194.054 301.430,193.353 300.800,193.243 300.800 C 193.133 300.800,193.654 301.430,194.400 302.200 M281.480 302.365 C 280.702 303.225,279.866 304.350,279.621 304.865 C 279.203 305.744,279.219 305.741,279.888 304.804 C 280.280 304.256,281.206 303.131,281.947 302.304 C 282.687 301.477,283.203 300.800,283.093 300.800 C 282.983 300.800,282.257 301.504,281.480 302.365 M324.425 302.231 C 325.181 303.128,325.881 303.797,325.980 303.717 C 326.079 303.638,325.460 302.904,324.605 302.087 L 323.050 300.600 324.425 302.231 M241.800 302.800 C 241.168 303.460,240.819 303.990,241.025 303.978 C 241.378 303.957,243.439 301.600,243.105 301.600 C 243.020 301.600,242.432 302.140,241.800 302.800 M75.300 306.297 C 76.785 306.374,79.215 306.374,80.700 306.297 C 82.185 306.220,80.970 306.157,78.000 306.157 C 75.030 306.157,73.815 306.220,75.300 306.297 M96.500 306.297 C 97.985 306.374,100.415 306.374,101.900 306.297 C 103.385 306.220,102.170 306.157,99.200 306.157 C 96.230 306.157,95.015 306.220,96.500 306.297 M123.507 306.290 C 124.226 306.379,125.306 306.377,125.907 306.286 C 126.508 306.195,125.920 306.122,124.600 306.124 C 123.280 306.126,122.788 306.201,123.507 306.290 M161.705 306.287 C 162.314 306.379,163.214 306.377,163.705 306.282 C 164.197 306.187,163.700 306.111,162.600 306.114 C 161.500 306.117,161.097 306.195,161.705 306.287 M183.100 306.282 C 183.595 306.378,184.405 306.378,184.900 306.282 C 185.395 306.187,184.990 306.109,184.000 306.109 C 183.010 306.109,182.605 306.187,183.100 306.282 M253.507 306.290 C 254.226 306.379,255.306 306.377,255.907 306.286 C 256.508 306.195,255.920 306.122,254.600 306.124 C 253.280 306.126,252.788 306.201,253.507 306.290 M291.000 306.198 C 292.018 306.543,295.262 306.685,294.754 306.363 C 294.449 306.170,293.390 306.024,292.400 306.038 C 291.410 306.052,290.780 306.124,291.000 306.198 M311.646 306.363 C 311.305 306.579,311.842 306.641,313.046 306.524 C 315.755 306.260,316.133 306.068,314.000 306.038 C 313.010 306.024,311.951 306.170,311.646 306.363 M179.601 307.847 C 178.721 308.642,178.000 309.476,178.000 309.700 C 178.000 309.925,178.389 309.613,178.865 309.009 C 179.340 308.404,180.285 307.571,180.965 307.156 C 181.644 306.742,181.976 306.402,181.701 306.401 C 181.427 306.401,180.482 307.051,179.601 307.847 M186.600 306.867 C 187.040 307.110,187.769 307.600,188.219 307.955 C 188.670 308.310,188.532 308.105,187.913 307.500 C 187.294 306.895,186.565 306.405,186.294 306.412 C 186.022 306.419,186.160 306.623,186.600 306.867 M214.088 318.200 C 214.046 324.800,214.144 330.408,214.306 330.663 C 214.574 331.086,214.555 317.121,214.278 309.400 C 214.215 307.640,214.129 311.600,214.088 318.200 M250.201 307.030 C 248.696 307.815,247.643 308.760,247.119 309.796 C 246.895 310.238,247.227 310.014,247.856 309.298 C 248.485 308.582,249.720 307.644,250.600 307.214 C 251.480 306.784,252.020 306.426,251.800 306.418 C 251.580 306.411,250.860 306.686,250.201 307.030 M157.804 307.996 C 157.174 308.654,156.735 309.242,156.829 309.303 C 156.923 309.364,157.570 308.826,158.266 308.107 C 158.962 307.388,159.401 306.800,159.241 306.800 C 159.081 306.800,158.434 307.338,157.804 307.996 M165.633 306.900 C 165.725 306.955,166.340 307.450,167.000 308.000 L 168.200 309.000 167.230 307.900 C 166.697 307.295,166.082 306.800,165.864 306.800 C 165.645 306.800,165.542 306.845,165.633 306.900 M288.096 307.700 C 286.880 308.998,285.999 310.846,286.045 312.000 C 286.072 312.670,286.211 312.440,286.465 311.304 C 286.688 310.312,287.395 309.026,288.170 308.204 C 288.898 307.432,289.370 306.800,289.217 306.800 C 289.064 306.800,288.560 307.205,288.096 307.700 M318.157 308.149 C 318.840 308.892,319.477 309.430,319.571 309.345 C 319.777 309.160,317.563 306.800,317.182 306.800 C 317.034 306.800,317.473 307.407,318.157 308.149 M260.800 309.000 C 261.546 309.770,262.247 310.400,262.357 310.400 C 262.467 310.400,261.946 309.770,261.200 309.000 C 260.454 308.230,259.753 307.600,259.643 307.600 C 259.533 307.600,260.054 308.230,260.800 309.000 M277.850 308.850 C 277.709 309.553,277.669 310.202,277.759 310.292 C 277.850 310.383,278.048 309.891,278.200 309.200 C 278.352 308.509,278.393 307.859,278.291 307.758 C 278.189 307.656,277.991 308.147,277.850 308.850 M308.065 309.417 C 307.809 309.978,307.607 310.654,307.616 310.919 C 307.624 311.183,307.897 310.788,308.222 310.039 C 308.905 308.465,308.761 307.890,308.065 309.417 M198.600 320.134 C 198.600 326.177,198.732 330.914,198.894 330.661 C 199.254 330.096,199.223 311.366,198.860 310.073 C 198.717 309.563,198.600 314.091,198.600 320.134 M107.429 310.629 C 107.281 311.215,107.238 311.772,107.332 311.866 C 107.427 311.960,107.624 311.558,107.771 310.971 C 107.919 310.385,107.962 309.828,107.868 309.734 C 107.773 309.640,107.576 310.042,107.429 310.629 M147.775 320.200 C 147.775 326.140,147.831 328.626,147.899 325.724 C 147.967 322.822,147.967 317.962,147.899 314.924 C 147.831 311.886,147.775 314.260,147.775 320.200 M298.709 318.671 C 298.769 323.472,298.872 328.120,298.939 329.000 C 299.006 329.880,299.074 326.370,299.090 321.200 C 299.107 316.030,299.003 311.382,298.860 310.871 C 298.717 310.360,298.649 313.870,298.709 318.671 M319.844 311.000 C 320.173 312.471,320.402 312.790,320.394 311.767 C 320.391 311.345,320.205 310.730,319.982 310.400 C 319.685 309.962,319.648 310.124,319.844 311.000 M132.849 312.009 C 133.454 313.800,133.795 314.148,133.428 312.600 C 133.271 311.940,132.971 311.224,132.761 311.009 C 132.550 310.794,132.590 311.244,132.849 312.009 M155.999 320.881 C 155.890 326.535,155.938 331.023,156.107 330.853 C 156.276 330.684,156.366 326.058,156.307 320.573 L 156.199 310.600 155.999 320.881 M177.449 311.415 C 177.312 311.773,177.239 316.326,177.286 321.533 L 177.373 331.000 177.586 321.000 C 177.816 310.234,177.819 310.451,177.449 311.415 M190.102 320.200 C 190.077 325.480,190.179 330.110,190.328 330.489 C 190.478 330.868,190.552 327.448,190.493 322.889 C 190.335 310.568,190.154 309.325,190.102 320.200 M237.052 311.700 C 236.733 312.892,236.784 317.219,237.128 318.083 C 237.278 318.458,237.400 316.973,237.400 314.783 C 237.400 310.413,237.399 310.405,237.052 311.700 M271.701 312.600 C 271.705 313.480,271.787 313.793,271.883 313.295 C 271.979 312.798,271.975 312.078,271.875 311.695 C 271.775 311.313,271.696 311.720,271.701 312.600 M168.882 321.276 C 168.837 326.488,168.935 330.837,169.100 330.939 C 169.265 331.041,169.354 328.307,169.297 324.863 C 169.101 313.008,168.964 311.822,168.882 321.276 M307.199 321.681 C 307.090 326.895,307.138 331.023,307.308 330.853 C 307.477 330.683,307.567 326.417,307.507 321.372 L 307.399 312.200 307.199 321.681 M245.443 313.433 C 245.104 314.315,245.150 316.103,245.527 316.696 C 245.701 316.970,245.833 316.210,245.821 314.996 C 245.798 312.567,245.789 312.531,245.443 313.433 M263.320 314.800 C 263.320 316.010,263.395 316.505,263.487 315.900 C 263.578 315.295,263.578 314.305,263.487 313.700 C 263.395 313.095,263.320 313.590,263.320 314.800 M271.667 316.867 C 271.630 317.674,271.496 318.664,271.370 319.067 C 271.153 319.757,271.166 319.759,271.594 319.093 C 271.843 318.704,271.977 317.714,271.891 316.893 L 271.734 315.400 271.667 316.867 M116.714 319.400 C 116.941 319.840,117.638 320.649,118.263 321.199 L 119.400 322.197 118.203 320.799 C 116.307 318.582,116.280 318.558,116.714 319.400 M131.226 320.507 C 130.087 321.911,130.042 322.029,130.963 321.200 C 131.920 320.338,133.056 318.786,132.714 318.807 C 132.651 318.811,131.982 319.576,131.226 320.507 M246.800 319.725 C 246.800 319.794,247.385 320.379,248.100 321.025 L 249.400 322.200 248.225 320.900 C 247.130 319.688,246.800 319.416,246.800 319.725 M239.000 323.200 C 239.341 323.860,239.711 324.400,239.821 324.400 C 239.931 324.400,239.741 323.860,239.400 323.200 C 239.059 322.540,238.689 322.000,238.579 322.000 C 238.469 322.000,238.659 322.540,239.000 323.200 M256.400 323.200 C 255.576 323.464,255.541 323.526,256.200 323.554 C 256.640 323.573,257.270 323.413,257.600 323.200 C 258.301 322.747,257.814 322.747,256.400 323.200 M110.751 325.538 C 111.421 326.385,112.287 327.330,112.674 327.638 C 113.061 327.947,112.590 327.255,111.626 326.100 C 109.606 323.678,108.938 323.249,110.751 325.538 M266.800 326.698 C 265.396 328.145,265.049 328.651,265.842 328.097 C 266.853 327.390,269.553 324.358,269.120 324.416 C 269.054 324.425,268.010 325.452,266.800 326.698 M241.791 326.791 C 242.869 327.886,243.811 328.723,243.883 328.650 C 244.045 328.489,240.385 324.800,240.062 324.800 C 239.935 324.800,240.712 325.696,241.791 326.791 M277.600 330.729 C 277.600 331.241,279.837 332.129,280.480 331.872 C 280.777 331.753,280.652 331.650,280.189 331.632 C 279.743 331.614,278.978 331.320,278.489 330.977 C 278.000 330.635,277.600 330.523,277.600 330.729 M90.400 331.600 C 89.576 331.864,89.541 331.926,90.200 331.954 C 90.640 331.973,91.270 331.813,91.600 331.600 C 92.301 331.147,91.814 331.147,90.400 331.600 M121.000 331.600 C 121.440 331.789,122.160 331.938,122.600 331.932 C 123.243 331.923,123.204 331.857,122.400 331.600 C 121.032 331.162,119.981 331.162,121.000 331.600 M126.800 331.600 C 125.996 331.857,125.957 331.923,126.600 331.932 C 127.040 331.938,127.760 331.789,128.200 331.600 C 129.219 331.162,128.168 331.162,126.800 331.600 M148.800 331.600 C 149.130 331.813,149.760 331.978,150.200 331.966 L 151.000 331.944 150.200 331.600 C 149.004 331.086,148.005 331.086,148.800 331.600 M250.600 331.600 C 251.040 331.789,251.760 331.938,252.200 331.932 C 252.843 331.923,252.804 331.857,252.000 331.600 C 250.632 331.162,249.581 331.162,250.600 331.600 M256.800 331.600 L 255.800 331.920 256.800 331.932 C 257.350 331.938,258.160 331.789,258.600 331.600 L 259.400 331.256 258.600 331.268 C 258.160 331.274,257.350 331.424,256.800 331.600 M300.200 331.600 C 300.336 331.820,300.842 331.987,301.324 331.972 C 302.169 331.945,302.171 331.931,301.400 331.600 C 300.299 331.127,299.908 331.127,300.200 331.600 M305.000 331.600 C 304.229 331.931,304.231 331.945,305.076 331.972 C 305.558 331.987,306.064 331.820,306.200 331.600 C 306.492 331.127,306.101 331.127,305.000 331.600 M321.600 331.582 C 321.930 331.805,322.545 331.991,322.967 331.994 C 323.990 332.002,323.671 331.773,322.200 331.444 C 321.324 331.248,321.162 331.285,321.600 331.582 " stroke="none" fill="#9c9c9c" fill-rule="evenodd"></path><path id="path3" d="M239.678 80.298 C 242.031 80.369,245.991 80.369,248.478 80.299 C 250.965 80.229,249.040 80.171,244.200 80.170 C 239.360 80.170,237.325 80.228,239.678 80.298 M70.093 138.800 C 70.093 139.570,70.175 139.885,70.276 139.500 C 70.376 139.115,70.376 138.485,70.276 138.100 C 70.175 137.715,70.093 138.030,70.093 138.800 M158.900 142.700 C 181.725 142.757,219.075 142.757,241.900 142.700 C 264.725 142.643,246.050 142.596,200.400 142.596 C 154.750 142.596,136.075 142.643,158.900 142.700 M103.300 174.287 C 103.905 174.378,104.895 174.378,105.500 174.287 C 106.105 174.195,105.610 174.120,104.400 174.120 C 103.190 174.120,102.695 174.195,103.300 174.287 M119.701 189.400 C 119.705 190.280,119.787 190.593,119.883 190.095 C 119.979 189.598,119.975 188.878,119.875 188.495 C 119.775 188.113,119.696 188.520,119.701 189.400 M327.391 224.000 C 327.391 241.930,327.440 249.265,327.500 240.300 C 327.560 231.335,327.560 216.665,327.500 207.700 C 327.440 198.735,327.391 206.070,327.391 224.000 M114.975 200.500 L 113.800 201.800 115.100 200.625 C 116.312 199.530,116.584 199.200,116.275 199.200 C 116.206 199.200,115.621 199.785,114.975 200.500 M177.105 230.683 C 177.602 230.779,178.322 230.775,178.705 230.675 C 179.087 230.575,178.680 230.496,177.800 230.501 C 176.920 230.505,176.607 230.587,177.105 230.683 M221.905 230.683 C 222.402 230.779,223.122 230.775,223.505 230.675 C 223.887 230.575,223.480 230.496,222.600 230.501 C 221.720 230.505,221.407 230.587,221.905 230.683 M184.705 231.083 C 185.202 231.179,185.922 231.175,186.305 231.075 C 186.687 230.975,186.280 230.896,185.400 230.901 C 184.520 230.905,184.207 230.987,184.705 231.083 M214.305 231.083 C 214.802 231.179,215.522 231.175,215.905 231.075 C 216.287 230.975,215.880 230.896,215.000 230.901 C 214.120 230.905,213.807 230.987,214.305 231.083 M180.100 239.887 C 180.705 239.978,181.695 239.978,182.300 239.887 C 182.905 239.795,182.410 239.720,181.200 239.720 C 179.990 239.720,179.495 239.795,180.100 239.887 M217.907 239.890 C 218.626 239.979,219.706 239.977,220.307 239.886 C 220.908 239.795,220.320 239.722,219.000 239.724 C 217.680 239.726,217.188 239.801,217.907 239.890 M194.300 240.289 C 195.015 240.378,196.185 240.378,196.900 240.289 C 197.615 240.201,197.030 240.128,195.600 240.128 C 194.170 240.128,193.585 240.201,194.300 240.289 M203.091 240.289 C 203.801 240.377,205.061 240.379,205.891 240.292 C 206.721 240.205,206.140 240.133,204.600 240.131 C 203.060 240.129,202.381 240.200,203.091 240.289 M226.500 254.276 C 226.885 254.376,227.515 254.376,227.900 254.276 C 228.285 254.175,227.970 254.093,227.200 254.093 C 226.430 254.093,226.115 254.175,226.500 254.276 M179.500 254.682 C 179.995 254.778,180.805 254.778,181.300 254.682 C 181.795 254.587,181.390 254.509,180.400 254.509 C 179.410 254.509,179.005 254.587,179.500 254.682 M218.700 254.682 C 219.195 254.778,220.005 254.778,220.500 254.682 C 220.995 254.587,220.590 254.509,219.600 254.509 C 218.610 254.509,218.205 254.587,218.700 254.682 M81.126 297.900 C 85.376 297.964,92.216 297.964,96.326 297.899 C 100.437 297.834,96.960 297.781,88.600 297.781 C 80.240 297.782,76.877 297.835,81.126 297.900 M203.061 297.900 C 202.892 298.173,214.716 298.167,228.400 297.886 C 231.370 297.825,226.926 297.736,218.524 297.688 C 210.122 297.639,203.164 297.735,203.061 297.900 M235.301 302.200 C 235.305 303.080,235.387 303.393,235.483 302.895 C 235.579 302.398,235.575 301.678,235.475 301.295 C 235.375 300.913,235.296 301.320,235.301 302.200 M76.117 306.697 C 77.611 306.774,79.951 306.774,81.317 306.696 C 82.682 306.618,81.460 306.555,78.600 306.555 C 75.740 306.556,74.622 306.620,76.117 306.697 M95.700 306.697 C 97.185 306.774,99.615 306.774,101.100 306.697 C 102.585 306.620,101.370 306.557,98.400 306.557 C 95.430 306.557,94.215 306.620,95.700 306.697 M84.177 318.800 C 84.177 325.290,84.232 327.945,84.299 324.700 C 84.366 321.455,84.366 316.145,84.299 312.900 C 84.232 309.655,84.177 312.310,84.177 318.800 M328.973 321.000 C 328.973 326.280,329.030 328.385,329.099 325.677 C 329.168 322.969,329.168 318.649,329.099 316.077 C 329.029 313.505,328.972 315.720,328.973 321.000 M298.572 321.400 C 298.572 326.460,298.629 328.475,298.699 325.877 C 298.769 323.280,298.768 319.140,298.698 316.677 C 298.628 314.215,298.571 316.340,298.572 321.400 M307.771 321.600 C 307.771 326.550,307.828 328.575,307.899 326.100 C 307.969 323.625,307.969 319.575,307.899 317.100 C 307.828 314.625,307.771 316.650,307.771 321.600 M151.300 332.276 C 151.685 332.376,152.315 332.376,152.700 332.276 C 153.085 332.175,152.770 332.093,152.000 332.093 C 151.230 332.093,150.915 332.175,151.300 332.276 M253.905 332.283 C 254.402 332.379,255.122 332.375,255.505 332.275 C 255.887 332.175,255.480 332.096,254.600 332.101 C 253.720 332.105,253.407 332.187,253.905 332.283 " stroke="none" fill="#7a7a7b" fill-rule="evenodd"></path><path id="path4" d="M92.977 318.800 C 92.977 325.290,93.032 327.945,93.099 324.700 C 93.166 321.455,93.166 316.145,93.099 312.900 C 93.032 309.655,92.977 312.310,92.977 318.800 M277.373 320.800 C 277.373 326.190,277.430 328.395,277.499 325.700 C 277.568 323.005,277.568 318.595,277.499 315.900 C 277.430 313.205,277.373 315.410,277.373 320.800 M320.151 316.800 C 320.151 319.330,320.216 320.365,320.296 319.100 C 320.375 317.835,320.375 315.765,320.296 314.500 C 320.216 313.235,320.151 314.270,320.151 316.800 M286.171 321.600 C 286.171 326.550,286.228 328.575,286.299 326.100 C 286.369 323.625,286.369 319.575,286.299 317.100 C 286.228 314.625,286.171 316.650,286.171 321.600 M106.893 314.800 C 106.893 315.570,106.975 315.885,107.076 315.500 C 107.176 315.115,107.176 314.485,107.076 314.100 C 106.975 313.715,106.893 314.030,106.893 314.800 " stroke="none" fill="#949495" fill-rule="evenodd"></path><path id="path5" d="M169.331 80.300 C 181.613 80.359,201.593 80.359,213.731 80.300 C 225.869 80.241,215.820 80.193,191.400 80.193 C 166.980 80.193,157.049 80.241,169.331 80.300 M190.505 240.287 C 191.114 240.379,192.014 240.377,192.505 240.282 C 192.997 240.187,192.500 240.111,191.400 240.114 C 190.300 240.117,189.897 240.195,190.505 240.287 M208.105 240.287 C 208.714 240.379,209.614 240.377,210.105 240.282 C 210.597 240.187,210.100 240.111,209.000 240.114 C 207.900 240.117,207.497 240.195,208.105 240.287 M182.705 254.683 C 183.202 254.779,183.922 254.775,184.305 254.675 C 184.687 254.575,184.280 254.496,183.400 254.501 C 182.520 254.505,182.207 254.587,182.705 254.683 M215.905 254.683 C 216.402 254.779,217.122 254.775,217.505 254.675 C 217.887 254.575,217.480 254.496,216.600 254.501 C 215.720 254.505,215.407 254.587,215.905 254.683 M206.300 306.696 C 207.675 306.774,209.925 306.774,211.300 306.696 C 212.675 306.618,211.550 306.554,208.800 306.554 C 206.050 306.554,204.925 306.618,206.300 306.696 M225.900 306.696 C 227.275 306.774,229.525 306.774,230.900 306.696 C 232.275 306.618,231.150 306.554,228.400 306.554 C 225.650 306.554,224.525 306.618,225.900 306.696 M222.977 318.600 C 222.977 324.980,223.032 327.534,223.099 324.276 C 223.167 321.017,223.166 315.797,223.099 312.676 C 223.031 309.554,222.976 312.220,222.977 318.600 M177.772 321.000 C 177.772 326.060,177.829 328.075,177.899 325.477 C 177.969 322.880,177.968 318.740,177.898 316.277 C 177.828 313.815,177.771 315.940,177.772 321.000 M320.153 325.800 C 320.153 328.440,320.218 329.468,320.297 328.084 C 320.375 326.701,320.374 324.541,320.295 323.284 C 320.216 322.028,320.152 323.160,320.153 325.800 " stroke="none" fill="#8c8c94" fill-rule="evenodd"></path><path id="path6" d="M171.100 67.900 C 185.235 67.958,208.365 67.958,222.500 67.900 C 236.635 67.842,225.070 67.794,196.800 67.794 C 168.530 67.794,156.965 67.842,171.100 67.900 M83.300 150.297 C 84.785 150.374,87.215 150.374,88.700 150.297 C 90.185 150.220,88.970 150.157,86.000 150.157 C 83.030 150.157,81.815 150.220,83.300 150.297 M294.900 174.276 C 295.285 174.376,295.915 174.376,296.300 174.276 C 296.685 174.175,296.370 174.093,295.600 174.093 C 294.830 174.093,294.515 174.175,294.900 174.276 M327.314 189.800 C 327.317 190.900,327.395 191.303,327.487 190.695 C 327.579 190.086,327.577 189.186,327.482 188.695 C 327.387 188.203,327.311 188.700,327.314 189.800 M72.589 216.200 C 72.589 231.160,72.639 237.222,72.700 229.671 C 72.761 222.120,72.761 209.880,72.700 202.471 C 72.639 195.062,72.589 201.240,72.589 216.200 M103.500 204.682 C 103.995 204.778,104.805 204.778,105.300 204.682 C 105.795 204.587,105.390 204.509,104.400 204.509 C 103.410 204.509,103.005 204.587,103.500 204.682 M294.700 204.682 C 295.195 204.778,296.005 204.778,296.500 204.682 C 296.995 204.587,296.590 204.509,295.600 204.509 C 294.610 204.509,294.205 204.587,294.700 204.682 M174.500 230.676 C 174.885 230.776,175.515 230.776,175.900 230.676 C 176.285 230.575,175.970 230.493,175.200 230.493 C 174.430 230.493,174.115 230.575,174.500 230.676 M224.500 230.676 C 224.885 230.776,225.515 230.776,225.900 230.676 C 226.285 230.575,225.970 230.493,225.200 230.493 C 224.430 230.493,224.115 230.575,224.500 230.676 M184.105 239.887 C 184.714 239.979,185.614 239.977,186.105 239.882 C 186.597 239.787,186.100 239.711,185.000 239.714 C 183.900 239.717,183.497 239.795,184.105 239.887 M214.300 239.882 C 214.795 239.978,215.605 239.978,216.100 239.882 C 216.595 239.787,216.190 239.709,215.200 239.709 C 214.210 239.709,213.805 239.787,214.300 239.882 M198.900 240.287 C 199.505 240.378,200.495 240.378,201.100 240.287 C 201.705 240.195,201.210 240.120,200.000 240.120 C 198.790 240.120,198.295 240.195,198.900 240.287 M222.307 254.690 C 223.026 254.779,224.106 254.777,224.707 254.686 C 225.308 254.595,224.720 254.522,223.400 254.524 C 222.080 254.526,221.588 254.601,222.307 254.690 M295.126 268.300 C 299.155 268.365,305.635 268.365,309.526 268.299 C 313.417 268.234,310.120 268.180,302.200 268.181 C 294.280 268.181,291.097 268.234,295.126 268.300 M189.772 320.800 C 189.772 325.970,189.829 328.085,189.899 325.500 C 189.968 322.915,189.968 318.685,189.899 316.100 C 189.829 313.515,189.772 315.630,189.772 320.800 M199.372 321.000 C 199.372 326.060,199.429 328.075,199.499 325.477 C 199.569 322.880,199.568 318.740,199.498 316.277 C 199.428 313.815,199.371 315.940,199.372 321.000 M286.572 321.400 C 286.572 326.460,286.629 328.475,286.699 325.877 C 286.769 323.280,286.768 319.140,286.698 316.677 C 286.628 314.215,286.571 316.340,286.572 321.400 M236.524 315.000 C 236.526 316.320,236.601 316.812,236.690 316.093 C 236.779 315.374,236.777 314.294,236.686 313.693 C 236.595 313.092,236.522 313.680,236.524 315.000 M123.905 332.283 C 124.402 332.379,125.122 332.375,125.505 332.275 C 125.887 332.175,125.480 332.096,124.600 332.101 C 123.720 332.105,123.407 332.187,123.905 332.283 " stroke="none" fill="#646465" fill-rule="evenodd"></path><path id="path7" d="M206.300 307.096 C 207.675 307.174,209.925 307.174,211.300 307.096 C 212.675 307.018,211.550 306.954,208.800 306.954 C 206.050 306.954,204.925 307.018,206.300 307.096 M226.316 307.097 C 227.699 307.175,229.859 307.174,231.116 307.095 C 232.372 307.016,231.240 306.952,228.600 306.953 C 225.960 306.953,224.932 307.018,226.316 307.097 M223.376 318.800 C 223.376 325.070,223.432 327.635,223.499 324.500 C 223.567 321.365,223.567 316.235,223.499 313.100 C 223.432 309.965,223.376 312.530,223.376 318.800 M147.372 321.000 C 147.372 326.060,147.429 328.075,147.499 325.477 C 147.569 322.880,147.568 318.740,147.498 316.277 C 147.428 313.815,147.371 315.940,147.372 321.000 M168.572 321.200 C 168.572 326.370,168.629 328.485,168.699 325.900 C 168.768 323.315,168.768 319.085,168.699 316.500 C 168.629 313.915,168.572 316.030,168.572 321.200 M319.748 316.400 C 319.748 318.710,319.814 319.655,319.895 318.500 C 319.976 317.345,319.976 315.455,319.895 314.300 C 319.814 313.145,319.748 314.090,319.748 316.400 " stroke="none" fill="#5c5c64" fill-rule="evenodd"></path><path id="path8" d="M141.600 67.995 C 141.191 68.255,141.510 68.299,142.600 68.132 C 144.577 67.829,144.914 67.598,143.367 67.606 C 142.725 67.609,141.930 67.784,141.600 67.995 M250.300 67.895 C 251.455 67.976,253.345 67.976,254.500 67.895 C 255.655 67.814,254.710 67.748,252.400 67.748 C 250.090 67.748,249.145 67.814,250.300 67.895 M127.029 74.629 C 126.605 74.938,126.336 75.269,126.430 75.363 C 126.524 75.457,126.948 75.281,127.371 74.971 C 127.795 74.662,128.064 74.331,127.970 74.237 C 127.876 74.143,127.452 74.319,127.029 74.629 M122.370 78.688 C 121.658 79.486,121.613 79.619,122.198 79.188 C 123.472 78.250,124.086 77.600,123.698 77.600 C 123.501 77.600,122.903 78.090,122.370 78.688 M173.900 80.700 C 188.695 80.758,212.905 80.758,227.700 80.700 C 242.495 80.642,230.390 80.594,200.800 80.594 C 171.210 80.594,159.105 80.642,173.900 80.700 M134.528 85.900 C 133.662 86.725,133.413 87.023,133.976 86.561 C 134.539 86.100,135.445 85.425,135.989 85.061 C 136.533 84.698,136.781 84.400,136.540 84.400 C 136.300 84.400,135.394 85.075,134.528 85.900 M120.800 114.503 C 120.800 114.559,120.623 115.222,120.407 115.976 C 120.191 116.729,120.168 117.178,120.355 116.973 C 120.764 116.526,121.303 114.400,121.008 114.400 C 120.893 114.400,120.800 114.446,120.800 114.503 M73.687 129.900 C 72.730 130.835,72.714 130.881,73.581 130.206 C 75.288 128.876,75.369 128.800,75.086 128.800 C 74.936 128.800,74.306 129.295,73.687 129.900 M286.509 138.400 C 286.509 139.390,286.587 139.795,286.682 139.300 C 286.778 138.805,286.778 137.995,286.682 137.500 C 286.587 137.005,286.509 137.410,286.509 138.400 M159.132 142.300 C 182.084 142.357,219.524 142.357,242.332 142.300 C 265.139 142.243,246.360 142.196,200.600 142.196 C 154.840 142.196,136.179 142.243,159.132 142.300 M77.941 150.101 C 78.143 150.303,78.733 150.401,79.254 150.319 C 80.055 150.193,79.998 150.137,78.887 149.952 C 78.093 149.821,77.719 149.879,77.941 150.101 M308.799 150.300 C 308.799 150.465,310.644 150.552,312.899 150.494 C 320.354 150.302,321.083 150.149,314.900 150.074 C 311.545 150.033,308.800 150.135,308.799 150.300 M89.600 151.000 C 89.050 151.314,88.780 151.572,89.000 151.572 C 89.220 151.572,89.850 151.314,90.400 151.000 C 90.950 150.686,91.220 150.428,91.000 150.428 C 90.780 150.428,90.150 150.686,89.600 151.000 M86.654 153.033 C 85.037 154.455,85.507 154.568,87.185 153.161 C 87.947 152.522,88.397 152.006,88.185 152.013 C 87.973 152.020,87.284 152.479,86.654 153.033 M315.000 155.200 C 316.083 156.300,317.060 157.200,317.170 157.200 C 317.280 157.200,316.483 156.300,315.400 155.200 C 314.317 154.100,313.340 153.200,313.230 153.200 C 313.120 153.200,313.917 154.100,315.000 155.200 M82.100 157.694 C 81.385 158.570,80.805 159.492,80.812 159.743 C 80.819 159.994,81.023 159.840,81.266 159.400 C 81.508 158.960,82.165 158.107,82.724 157.504 C 83.284 156.901,83.665 156.339,83.571 156.255 C 83.477 156.170,82.815 156.818,82.100 157.694 M79.400 161.600 C 79.059 162.260,78.869 162.800,78.979 162.800 C 79.089 162.800,79.459 162.260,79.800 161.600 C 80.141 160.940,80.331 160.400,80.221 160.400 C 80.111 160.400,79.741 160.940,79.400 161.600 M320.446 161.996 C 320.939 162.873,321.408 163.526,321.487 163.446 C 321.659 163.274,320.006 160.400,319.735 160.400 C 319.633 160.400,319.952 161.118,320.446 161.996 M284.581 178.900 L 283.000 180.600 284.700 179.019 C 286.281 177.548,286.584 177.200,286.281 177.200 C 286.216 177.200,285.451 177.965,284.581 178.900 M114.000 177.739 C 114.000 177.897,114.495 178.517,115.100 179.115 C 115.705 179.713,116.523 180.652,116.917 181.202 C 117.608 182.163,117.608 182.151,116.921 180.882 C 116.208 179.568,114.000 177.191,114.000 177.739 M72.649 183.815 C 72.512 184.173,72.424 185.306,72.452 186.333 C 72.505 188.188,72.507 188.185,72.813 185.800 C 73.132 183.318,73.080 182.692,72.649 183.815 M327.050 184.800 C 327.375 187.041,327.602 187.360,327.594 185.567 C 327.591 184.815,327.408 183.930,327.188 183.600 C 326.909 183.181,326.867 183.542,327.050 184.800 M89.443 186.633 C 89.103 187.517,89.150 191.703,89.506 192.262 C 89.668 192.516,89.800 191.211,89.800 189.362 C 89.800 185.710,89.799 185.704,89.443 186.633 M280.531 189.400 C 280.533 190.940,280.605 191.521,280.692 190.691 C 280.779 189.861,280.777 188.601,280.689 187.891 C 280.600 187.181,280.529 187.860,280.531 189.400 M119.324 189.400 C 119.326 190.720,119.401 191.212,119.490 190.493 C 119.579 189.774,119.577 188.694,119.486 188.093 C 119.395 187.492,119.322 188.080,119.324 189.400 M116.847 197.588 C 116.138 198.682,114.893 200.140,114.079 200.830 C 113.266 201.519,112.989 201.886,113.465 201.646 C 114.486 201.130,117.026 198.262,117.844 196.700 C 118.749 194.972,118.258 195.410,116.847 197.588 M284.770 200.132 C 285.789 201.254,286.008 201.393,285.987 200.900 C 285.981 200.735,285.486 200.254,284.887 199.832 L 283.800 199.064 284.770 200.132 M247.575 229.023 C 248.222 229.146,248.833 229.510,248.934 229.831 C 249.052 230.203,249.096 230.158,249.056 229.708 C 249.012 229.213,248.604 228.970,247.697 228.900 C 246.460 228.805,246.454 228.810,247.575 229.023 M160.705 229.883 C 161.202 229.979,161.922 229.975,162.305 229.875 C 162.687 229.775,162.280 229.696,161.400 229.701 C 160.520 229.705,160.207 229.787,160.705 229.883 M238.305 229.883 C 238.802 229.979,239.522 229.975,239.905 229.875 C 240.287 229.775,239.880 229.696,239.000 229.701 C 238.120 229.705,237.807 229.787,238.305 229.883 M170.100 230.687 C 170.705 230.778,171.695 230.778,172.300 230.687 C 172.905 230.595,172.410 230.520,171.200 230.520 C 169.990 230.520,169.495 230.595,170.100 230.687 M228.100 230.687 C 228.705 230.778,229.695 230.778,230.300 230.687 C 230.905 230.595,230.410 230.520,229.200 230.520 C 227.990 230.520,227.495 230.595,228.100 230.687 M180.100 231.076 C 180.485 231.176,181.115 231.176,181.500 231.076 C 181.885 230.975,181.570 230.893,180.800 230.893 C 180.030 230.893,179.715 230.975,180.100 231.076 M218.900 231.076 C 219.285 231.176,219.915 231.176,220.300 231.076 C 220.685 230.975,220.370 230.893,219.600 230.893 C 218.830 230.893,218.515 230.975,218.900 231.076 M192.926 231.500 C 197.066 231.565,203.726 231.565,207.726 231.499 C 211.727 231.434,208.340 231.381,200.200 231.381 C 192.060 231.381,188.787 231.434,192.926 231.500 M246.799 234.100 C 246.210 234.904,246.113 235.184,246.545 234.833 C 247.201 234.300,248.193 232.800,247.889 232.800 C 247.813 232.800,247.322 233.385,246.799 234.100 M161.105 238.283 C 161.602 238.379,162.322 238.375,162.705 238.275 C 163.087 238.175,162.680 238.096,161.800 238.101 C 160.920 238.105,160.607 238.187,161.105 238.283 M237.700 238.276 C 238.085 238.376,238.715 238.376,239.100 238.276 C 239.485 238.175,239.170 238.093,238.400 238.093 C 237.630 238.093,237.315 238.175,237.700 238.276 M171.107 239.090 C 171.826 239.179,172.906 239.177,173.507 239.086 C 174.108 238.995,173.520 238.922,172.200 238.924 C 170.880 238.926,170.388 239.001,171.107 239.090 M227.107 239.090 C 227.826 239.179,228.906 239.177,229.507 239.086 C 230.108 238.995,229.520 238.922,228.200 238.924 C 226.880 238.926,226.388 239.001,227.107 239.090 M194.100 239.899 C 197.565 239.966,203.235 239.966,206.700 239.899 C 210.165 239.833,207.330 239.778,200.400 239.778 C 193.470 239.778,190.635 239.833,194.100 239.899 M72.566 251.200 C 72.566 255.270,72.625 256.935,72.698 254.900 C 72.771 252.865,72.771 249.535,72.698 247.500 C 72.625 245.465,72.566 247.130,72.566 251.200 M125.300 250.276 C 125.685 250.376,126.315 250.376,126.700 250.276 C 127.085 250.175,126.770 250.093,126.000 250.093 C 125.230 250.093,124.915 250.175,125.300 250.276 M275.283 250.290 L 276.766 250.446 276.903 253.323 L 277.041 256.200 277.121 253.100 L 277.200 250.000 275.500 250.067 L 273.800 250.134 275.283 250.290 M269.800 250.800 L 268.200 251.086 269.800 251.137 C 270.680 251.165,271.670 251.013,272.000 250.800 C 272.715 250.338,272.381 250.338,269.800 250.800 M131.300 251.076 C 131.685 251.176,132.315 251.176,132.700 251.076 C 133.085 250.975,132.770 250.893,132.000 250.893 C 131.230 250.893,130.915 250.975,131.300 251.076 M263.400 251.600 L 261.400 251.874 263.200 251.909 C 264.190 251.928,265.360 251.789,265.800 251.600 C 266.713 251.208,266.262 251.208,263.400 251.600 M137.905 251.883 C 138.402 251.979,139.122 251.975,139.505 251.875 C 139.887 251.775,139.480 251.696,138.600 251.701 C 137.720 251.705,137.407 251.787,137.905 251.883 M146.500 252.676 C 146.885 252.776,147.515 252.776,147.900 252.676 C 148.285 252.575,147.970 252.493,147.200 252.493 C 146.430 252.493,146.115 252.575,146.500 252.676 M253.491 252.689 C 254.201 252.777,255.461 252.779,256.291 252.692 C 257.121 252.605,256.540 252.533,255.000 252.531 C 253.460 252.529,252.781 252.600,253.491 252.689 M155.500 253.482 C 155.995 253.578,156.805 253.578,157.300 253.482 C 157.795 253.387,157.390 253.309,156.400 253.309 C 155.410 253.309,155.005 253.387,155.500 253.482 M244.700 253.493 C 245.635 253.577,247.165 253.577,248.100 253.493 C 249.035 253.409,248.270 253.340,246.400 253.340 C 244.530 253.340,243.765 253.409,244.700 253.493 M232.313 254.295 C 233.476 254.376,235.276 254.376,236.313 254.293 C 237.351 254.211,236.400 254.145,234.200 254.146 C 232.000 254.147,231.151 254.214,232.313 254.295 M173.305 254.687 C 173.914 254.779,174.814 254.777,175.305 254.682 C 175.797 254.587,175.300 254.511,174.200 254.514 C 173.100 254.517,172.697 254.595,173.305 254.687 M227.305 254.687 C 227.914 254.779,228.814 254.777,229.305 254.682 C 229.797 254.587,229.300 254.511,228.200 254.514 C 227.100 254.517,226.697 254.595,227.305 254.687 M323.674 264.682 C 323.164 265.231,322.817 265.750,322.903 265.836 C 322.988 265.922,323.574 265.454,324.204 264.796 C 324.834 264.138,325.181 263.619,324.975 263.642 C 324.769 263.665,324.183 264.134,323.674 264.682 M89.673 268.299 C 94.004 268.364,101.204 268.364,105.673 268.300 C 110.143 268.235,106.600 268.182,97.800 268.182 C 89.000 268.182,85.343 268.235,89.673 268.299 M182.700 297.493 C 183.635 297.577,185.165 297.577,186.100 297.493 C 187.035 297.409,186.270 297.340,184.400 297.340 C 182.530 297.340,181.765 297.409,182.700 297.493 M211.126 297.500 C 215.376 297.564,222.216 297.564,226.326 297.499 C 230.437 297.434,226.960 297.381,218.600 297.381 C 210.240 297.382,206.877 297.435,211.126 297.500 M252.713 297.495 C 253.876 297.576,255.676 297.576,256.713 297.493 C 257.751 297.411,256.800 297.345,254.600 297.346 C 252.400 297.347,251.551 297.414,252.713 297.495 M290.912 297.495 C 291.964 297.577,293.584 297.576,294.512 297.492 C 295.440 297.408,294.580 297.341,292.600 297.342 C 290.620 297.343,289.860 297.412,290.912 297.495 M312.112 297.495 C 313.164 297.577,314.784 297.576,315.712 297.492 C 316.640 297.408,315.780 297.341,313.800 297.342 C 311.820 297.343,311.060 297.412,312.112 297.495 M299.232 298.909 C 300.204 299.409,301.495 300.150,302.100 300.555 C 302.705 300.960,303.200 301.195,303.200 301.077 C 303.200 300.710,298.659 298.000,298.045 298.000 C 297.726 298.000,298.260 298.409,299.232 298.909 M305.581 299.390 C 304.382 300.154,303.552 300.784,303.738 300.790 C 303.924 300.795,304.587 300.436,305.211 299.992 C 305.835 299.548,306.943 298.925,307.673 298.608 C 308.403 298.291,308.722 298.024,308.381 298.016 C 308.041 298.007,306.781 298.625,305.581 299.390 M190.400 298.596 C 190.400 298.870,192.849 300.084,193.032 299.901 C 193.119 299.814,192.562 299.444,191.795 299.078 C 191.028 298.712,190.400 298.495,190.400 298.596 M284.700 299.029 C 283.205 299.840,283.296 300.178,284.800 299.400 C 285.460 299.059,286.000 298.694,286.000 298.590 C 286.000 298.332,285.957 298.347,284.700 299.029 M201.467 299.467 C 201.105 299.828,201.138 304.483,201.506 305.063 C 201.668 305.318,201.800 304.103,201.800 302.364 C 201.800 300.625,201.785 299.201,201.767 299.201 C 201.748 299.200,201.613 299.320,201.467 299.467 M322.600 299.852 C 322.820 300.045,323.720 300.832,324.599 301.601 L 326.198 303.000 324.999 301.666 C 324.340 300.932,323.440 300.145,323.000 299.917 C 322.560 299.689,322.380 299.660,322.600 299.852 M242.067 301.900 L 240.565 303.400 241.982 302.201 C 242.762 301.542,243.571 300.867,243.780 300.701 C 243.989 300.535,244.027 300.400,243.865 300.400 C 243.702 300.400,242.893 301.075,242.067 301.900 M281.206 301.794 C 280.463 302.561,279.932 303.250,280.027 303.325 C 280.122 303.400,280.806 302.773,281.546 301.931 C 283.229 300.018,283.012 299.931,281.206 301.794 M267.200 302.297 C 267.200 302.491,267.782 303.179,268.494 303.825 C 269.532 304.768,269.631 304.805,268.994 304.012 C 267.693 302.394,267.200 301.922,267.200 302.297 M73.461 306.900 C 73.563 307.065,75.884 307.200,78.618 307.200 L 83.588 307.200 83.703 318.800 L 83.818 330.400 83.809 318.700 L 83.800 307.000 78.537 306.800 C 75.642 306.690,73.358 306.735,73.461 306.900 M182.475 306.745 C 182.155 306.948,182.646 307.063,183.737 307.039 C 184.719 307.018,185.440 306.865,185.338 306.700 C 185.090 306.298,183.132 306.329,182.475 306.745 M252.938 306.706 C 252.684 306.868,253.432 307.000,254.600 307.000 C 255.768 307.000,256.516 306.868,256.262 306.706 C 256.008 306.544,255.260 306.412,254.600 306.412 C 253.940 306.412,253.192 306.544,252.938 306.706 M312.538 306.706 C 312.284 306.868,312.852 307.000,313.800 307.000 C 314.748 307.000,315.316 306.868,315.062 306.706 C 314.808 306.544,314.240 306.412,313.800 306.412 C 313.360 306.412,312.792 306.544,312.538 306.706 M95.700 307.097 C 97.185 307.174,99.615 307.174,101.100 307.097 C 102.585 307.020,101.370 306.957,98.400 306.957 C 95.430 306.957,94.215 307.020,95.700 307.097 M213.777 319.000 C 213.777 325.600,213.832 328.356,213.899 325.125 C 213.966 321.893,213.966 316.493,213.899 313.125 C 213.832 309.756,213.777 312.400,213.777 319.000 M199.152 309.687 C 199.337 310.798,199.393 310.855,199.519 310.054 C 199.601 309.533,199.503 308.943,199.301 308.741 C 199.079 308.519,199.021 308.893,199.152 309.687 M236.649 310.615 C 236.512 310.973,236.415 311.566,236.434 311.933 C 236.453 312.300,236.627 312.069,236.821 311.420 C 237.198 310.158,237.065 309.533,236.649 310.615 M272.087 311.200 C 272.083 311.750,272.224 312.650,272.400 313.200 C 272.831 314.544,272.831 313.092,272.400 311.400 C 272.126 310.322,272.094 310.302,272.087 311.200 M286.800 320.226 C 286.800 326.301,286.639 330.386,286.378 330.926 C 285.970 331.770,285.977 331.774,286.578 331.024 C 287.180 330.273,287.586 310.400,287.000 310.400 C 286.890 310.400,286.800 314.822,286.800 320.226 M298.093 320.630 C 297.993 331.398,298.193 332.404,300.426 332.399 C 300.742 332.398,300.418 332.042,299.707 331.609 L 298.414 330.820 298.300 320.710 L 298.186 310.600 298.093 320.630 M319.318 315.000 C 319.307 317.420,319.424 321.920,319.579 325.000 L 319.861 330.600 319.882 326.200 C 319.893 323.780,319.776 319.280,319.621 316.200 L 319.339 310.600 319.318 315.000 M156.490 321.200 C 156.465 328.068,156.575 330.750,156.859 330.166 C 157.129 329.610,157.141 326.345,156.894 320.366 L 156.525 311.400 156.490 321.200 M178.092 321.671 L 178.000 330.742 176.946 331.571 C 176.366 332.027,176.065 332.400,176.276 332.400 C 178.145 332.400,178.421 330.926,178.300 321.566 L 178.184 312.600 178.092 321.671 M262.668 314.200 C 262.971 316.177,263.202 316.514,263.194 314.967 C 263.191 314.325,263.016 313.530,262.805 313.200 C 262.545 312.791,262.501 313.110,262.668 314.200 M132.901 315.000 C 132.905 315.880,132.987 316.193,133.083 315.695 C 133.179 315.198,133.175 314.478,133.075 314.095 C 132.975 313.713,132.896 314.120,132.901 315.000 M246.093 314.800 C 246.093 315.570,246.175 315.885,246.276 315.500 C 246.376 315.115,246.376 314.485,246.276 314.100 C 246.175 313.715,246.093 314.030,246.093 314.800 M236.428 318.276 C 236.413 318.758,236.580 319.264,236.800 319.400 C 237.273 319.692,237.273 319.301,236.800 318.200 C 236.469 317.429,236.455 317.431,236.428 318.276 M130.575 320.500 L 129.400 321.800 130.700 320.625 C 131.912 319.530,132.184 319.200,131.875 319.200 C 131.806 319.200,131.221 319.785,130.575 320.500 M248.196 320.396 C 248.826 321.054,249.411 321.523,249.495 321.438 C 249.680 321.253,247.672 319.200,247.307 319.200 C 247.166 319.200,247.566 319.738,248.196 320.396 M269.692 324.229 C 269.197 324.983,268.872 325.600,268.969 325.600 C 269.247 325.600,270.904 323.171,270.739 323.006 C 270.657 322.924,270.186 323.474,269.692 324.229 M240.051 325.900 C 240.881 326.958,243.326 329.208,243.479 329.054 C 243.553 328.980,242.777 328.082,241.754 327.060 C 239.875 325.181,239.042 324.613,240.051 325.900 M147.225 330.438 C 147.195 331.207,148.441 332.410,149.231 332.375 C 149.544 332.361,149.391 332.185,148.891 331.984 C 148.390 331.783,147.817 331.210,147.616 330.709 C 147.381 330.124,147.242 330.027,147.225 330.438 M168.400 330.662 C 168.400 331.250,169.756 332.402,170.431 332.388 C 170.790 332.380,170.704 332.214,170.200 331.938 C 169.760 331.697,169.175 331.219,168.900 330.874 C 168.625 330.529,168.400 330.434,168.400 330.662 M306.600 331.653 C 305.940 332.061,305.670 332.391,306.000 332.385 C 306.654 332.374,308.248 331.301,307.971 331.059 C 307.877 330.977,307.260 331.244,306.600 331.653 M249.400 332.000 C 249.536 332.220,250.042 332.387,250.524 332.372 C 251.369 332.345,251.371 332.331,250.600 332.000 C 249.499 331.527,249.108 331.527,249.400 332.000 " stroke="none" fill="#575758" fill-rule="evenodd"></path></g></svg>